<svg width="75" height="76" viewBox="0 0 75 76" fill="none" xmlns="http://www.w3.org/2000/svg">
<path d="M66.4486 52.1956C67.8491 52.49 69.1954 53.1912 70.2628 54.3845C71.3863 55.6397 72.0313 57.1139 72.0468 58.7972C72.0817 63.084 72.0662 67.3728 72.0604 71.6596C72.0604 72.4654 71.6071 72.9749 70.9311 72.9923C70.2298 73.0117 69.7475 72.4829 69.7456 71.6441C69.7397 67.4541 69.7514 63.2623 69.7378 59.0723C69.7301 56.9705 68.4051 55.1942 66.4505 54.5995C66.3401 54.5666 66.22 54.5646 66.191 54.5588C65.6718 55.3511 65.1875 56.093 64.6916 56.8504C64.804 57.172 65.1217 57.6214 65.0461 57.9856C64.9512 58.435 64.5677 58.8495 64.2364 59.2137C63.7657 59.7309 63.2311 60.19 62.6538 60.7421C63.0083 61.1024 63.3163 61.3949 63.5991 61.7106C63.8722 62.0148 64.1183 62.3421 64.4728 62.778C65.2011 62.0089 65.7861 61.3736 66.3924 60.7595C67.0413 60.1028 67.7116 60.037 68.2288 60.5503C68.7479 61.0636 68.6879 61.7416 68.039 62.3944C66.5396 63.9054 65.0364 65.4144 63.5255 66.9156C62.7332 67.7021 62.3749 67.8629 60.4571 68.3917C60.4571 69.4126 60.461 70.4489 60.4571 71.4872C60.4532 72.5875 60.062 72.9962 58.9907 72.9982C55.316 73.002 51.6433 73.002 47.9686 72.9982C47.062 72.9962 46.5293 72.5468 46.5409 71.8204C46.5526 71.0979 47.0795 70.6775 48.0035 70.6756C51.097 70.6717 54.1906 70.6736 57.2841 70.6736C57.5437 70.6736 57.8052 70.6736 58.0997 70.6736C58.0997 69.891 58.0997 69.1743 58.0997 68.4014C44.2222 68.4014 30.3409 68.4014 16.4131 68.4014C16.4131 69.1317 16.4131 69.8659 16.4131 70.6736C16.7172 70.6736 17.002 70.6736 17.2848 70.6736C25.6725 70.6736 34.0582 70.6736 42.4459 70.6736C42.688 70.6736 42.934 70.6504 43.1704 70.6891C43.798 70.7899 44.1641 71.1695 44.2029 71.8107C44.2397 72.4093 43.7806 72.911 43.1491 72.9885C42.9592 73.0117 42.7636 73.0001 42.5699 73.0001C33.603 73.0001 24.6361 73.0001 15.6693 73.0001C14.3946 73.0001 14.0498 72.6475 14.0479 71.3536C14.046 70.3618 14.0479 69.3719 14.0479 68.3278C12.3587 68.2309 11.2333 67.2353 10.1582 66.1098C8.95524 64.8507 7.69999 63.6419 6.4738 62.4041C5.82487 61.7494 5.75707 61.0791 6.2704 60.56C6.78568 60.0389 7.45785 60.097 8.10872 60.7537C8.71697 61.3678 9.30198 62.007 9.9083 62.6463C10.563 61.9528 11.1209 61.36 11.826 60.6123C11.2623 60.1048 10.6231 59.5604 10.0226 58.9735C9.21674 58.189 9.20706 57.7454 9.86955 56.9066C9.35816 56.1376 8.85645 55.384 8.33149 54.5956C6.46606 54.7642 4.78271 56.802 4.77302 59.0607C4.75753 63.0569 4.76914 67.0532 4.76721 71.0514C4.76721 71.2451 4.77108 71.4388 4.76721 71.6325C4.74784 72.4809 4.29649 73.004 3.59332 72.9962C2.89403 72.9865 2.45043 72.4655 2.45043 71.6054C2.44462 67.4871 2.44268 63.3688 2.45043 59.2524C2.45624 55.8083 4.48633 53.168 7.7891 52.2711C7.92664 52.2343 8.0661 52.1994 8.1339 52.182C7.80847 51.2716 7.47335 50.3786 7.1731 49.472C7.09174 49.226 7.09368 48.9451 7.09561 48.6817C7.10336 47.9475 7.56827 47.4419 8.22495 47.4264C8.85451 47.4128 9.32329 47.8642 9.40658 48.5596C9.44339 48.8715 9.4647 49.1892 9.54412 49.4894C9.9761 51.1243 11.5297 52.2091 13.2014 52.06C14.8305 51.9147 16.2252 50.5936 16.3376 48.949C16.4228 47.6995 16.355 46.4404 16.355 45.0961C15.7274 45.0961 15.1327 45.0961 14.536 45.0961C12.5776 45.0961 10.6211 45.098 8.66273 45.0961C7.42879 45.0941 6.99682 44.6195 7.10917 43.4011C7.4966 39.2247 12.0546 36.8227 15.7022 38.8721C15.8881 38.9767 16.0683 39.0891 16.3201 39.2402C16.3201 37.6886 16.3201 36.2067 16.3201 34.6318C15.6596 34.6318 14.9932 34.6337 14.3249 34.6318C10.1078 34.6183 7.09755 31.6196 7.09173 27.4103C7.08398 21.7655 7.08398 16.1228 7.09173 10.478C7.09754 6.25706 10.0981 3.24486 14.3055 3.23905C21.436 3.2313 28.5665 3.23711 35.697 3.23711C35.8907 3.23711 36.0883 3.21968 36.2743 3.26036C36.8631 3.38627 37.206 3.75819 37.2448 4.36451C37.2816 4.93402 36.8573 5.44347 36.2704 5.53839C36.0341 5.57714 35.7881 5.56164 35.5478 5.56164C28.5142 5.56164 21.4806 5.56164 14.4469 5.56358C11.3437 5.56358 9.41046 7.48519 9.41046 10.5749C9.40852 16.146 9.40852 21.7171 9.41046 27.2882C9.41239 30.376 11.3476 32.3015 14.4431 32.3053C15.4097 32.3073 16.3763 32.2957 17.3429 32.3092C18.2475 32.3208 18.6756 32.7431 18.6873 33.6458C18.7008 34.7112 18.6911 35.7766 18.6911 36.9583C18.9275 36.8169 19.1037 36.7258 19.2645 36.6115C21.0544 35.333 22.8288 34.0313 24.6419 32.7857C25.0313 32.5184 25.5621 32.3344 26.0308 32.3267C28.4948 32.2821 30.9608 32.3208 33.4267 32.2957C34.1376 32.2879 34.6142 32.5475 34.957 33.1674C35.3755 33.9306 35.8365 34.6706 36.2917 35.4125C36.6559 36.0013 37.8646 35.9917 38.2288 35.395C38.6976 34.6318 39.1586 33.8647 39.6042 33.0899C39.9102 32.5572 40.3306 32.2957 40.9582 32.2995C43.521 32.3131 46.0818 32.286 48.6446 32.3247C49.0437 32.3305 49.4911 32.5204 49.8282 32.7528C51.7924 34.1185 53.7315 35.5229 55.7538 36.9699C55.7809 36.7336 55.8158 36.5592 55.8158 36.3868C55.8216 35.4899 55.8119 34.595 55.8197 33.6981C55.8294 32.7412 56.242 32.3189 57.1834 32.3092C58.2469 32.2976 59.3104 32.315 60.3738 32.3053C63.0819 32.2782 65.0868 30.2791 65.0946 27.5594C65.1081 21.8178 65.1081 16.0782 65.0946 10.3366C65.0887 7.57042 63.0877 5.56938 60.3293 5.56551C54.0201 5.55583 47.7129 5.56164 41.4037 5.56164C41.21 5.56164 41.0163 5.56745 40.8245 5.5597C40.0787 5.52483 39.5906 5.07349 39.579 4.41681C39.5693 3.75626 40.0555 3.28166 40.7897 3.23905C40.9349 3.2313 41.0802 3.23711 41.2255 3.23711C47.5347 3.23711 53.8419 3.23323 60.1511 3.23905C64.4204 3.24292 67.4133 6.22994 67.4191 10.4993C67.4268 16.1189 67.4268 21.7384 67.4191 27.358C67.4133 31.6312 64.4243 34.6202 60.1646 34.6318C59.5176 34.6337 58.8687 34.6318 58.181 34.6318C58.181 35.7941 58.181 36.8982 58.181 38.1205C58.4154 38.1205 58.6692 38.1147 58.921 38.1225C60.1995 38.1612 61.4973 38.0721 62.7507 38.2736C65.3599 38.692 67.3242 41.0165 67.4036 43.6529C67.4559 45.3963 67.5295 47.1513 67.3726 48.8812C67.2738 49.9911 66.7779 51.0701 66.4486 52.1956ZM40.4604 36.2086C41.2565 36.6115 42.0352 36.937 42.7442 37.3748C46.63 39.7845 48.5129 44.4781 47.6354 49.4177C47.3603 50.9636 46.6029 52.2033 45.3729 53.23C46.7889 54.4136 47.6257 55.8664 47.6858 57.6853C47.7284 58.9425 47.6935 60.2036 47.6993 61.4627C47.6993 61.6855 47.7226 61.9082 47.7419 62.2182C48.6524 61.5014 49.5996 61.3406 50.6205 61.36C52.329 61.393 54.0375 61.3697 55.8197 61.3697C55.8197 61.0675 55.8197 60.8312 55.8197 60.5968C55.8197 59.3125 55.8158 58.0301 55.8216 56.7458C55.8294 55.1651 56.5422 53.9254 57.7665 52.9317C57.5689 52.7089 57.4062 52.5365 57.2512 52.3544C56.3214 51.2657 55.8197 50.0066 55.8294 48.5693C55.8352 47.9242 56.3117 47.4555 56.9142 47.4206C57.5108 47.3857 58.0222 47.8138 58.1248 48.4414C58.1481 48.5848 58.1365 48.732 58.15 48.8754C58.3205 50.6439 59.7791 52.0212 61.5264 52.0619C63.2872 52.1026 64.8757 50.8241 65.0461 49.0555C65.1701 47.7673 65.0694 46.4578 65.0694 45.0883C64.7691 45.0883 64.5115 45.0883 64.2519 45.0883C61.9332 45.0883 59.6125 45.0922 57.2938 45.0864C56.2149 45.0844 55.8236 44.6815 55.8197 43.5871C55.8158 42.5216 55.8487 41.4543 55.7984 40.3908C55.7848 40.11 55.6027 39.7438 55.378 39.5792C53.2356 38.0063 51.0699 36.4643 48.8984 34.9282C48.6776 34.7713 48.3812 34.6376 48.1177 34.6357C46.016 34.6124 43.9142 34.6163 41.8125 34.6318C41.6265 34.6337 41.3708 34.7209 41.272 34.8585C40.9718 35.2904 40.7257 35.7611 40.4604 36.2086ZM29.1631 53.2339C27.4411 51.8295 26.7243 50.0899 26.8115 47.992C26.8367 47.3877 26.8096 46.7813 26.8173 46.175C26.8774 41.8204 29.5079 38.045 33.5604 36.4837C33.7289 36.4198 33.8839 36.3229 34.0718 36.2299C33.8839 35.9103 33.696 35.6527 33.572 35.3679C33.3202 34.7945 32.9444 34.5873 32.2877 34.6066C30.4533 34.6647 28.6149 34.6008 26.7786 34.6454C26.333 34.657 25.8274 34.8061 25.4633 35.0599C22.8424 36.8866 20.2505 38.7559 17.6354 40.6214C18.4471 41.7642 18.7454 43.1008 18.7028 44.5498C18.664 45.8806 18.6989 47.2133 18.6931 48.546C18.6853 50.0376 18.1681 51.3355 17.1841 52.4493C17.0465 52.6062 16.9129 52.7651 16.7792 52.9181C18.172 54.3186 18.6524 55.2233 18.6853 56.5792C18.7105 57.6195 18.6931 58.6616 18.695 59.7038C18.695 60.2501 18.695 60.7944 18.695 61.3697C20.3009 61.3697 21.7983 61.3833 23.2937 61.3658C24.5044 61.3523 25.7151 61.3 26.8154 62.2879C26.8154 61.0753 26.8599 60.0408 26.8057 59.0122C26.6856 56.7361 27.2338 54.7448 29.1631 53.2339ZM41.8938 52.0309C43.8484 51.9844 45.3089 50.5471 45.369 48.703C45.398 47.808 45.3922 46.9111 45.3671 46.0162C45.2566 41.9386 42.1418 38.6009 38.0351 38.1477C34.1318 37.7157 30.2963 40.3482 29.4401 44.267C29.1012 45.8225 29.105 47.4923 29.2058 49.0943C29.3123 50.8008 30.8833 52.0483 32.3477 52.0193C32.0591 51.0023 31.5981 49.964 31.4993 48.8909C31.3501 47.2831 31.4451 45.6501 31.4605 44.0287C31.4683 43.2442 31.8809 42.8064 32.6616 42.7735C33.9904 42.7173 35.0694 42.1807 35.9895 41.2354C37.0472 40.1487 37.4656 40.1409 38.4942 41.2064C39.4298 42.1749 40.5243 42.725 41.8822 42.7773C42.6454 42.8064 43.0425 43.2636 43.0541 44.0597C43.0696 45.1968 43.027 46.3358 43.0658 47.4729C43.1219 49.0788 42.9437 50.6149 41.8938 52.0309ZM40.7374 62.2937C40.7374 61.7978 40.7335 61.1721 40.7374 60.5445C40.7432 59.45 41.1325 59.0529 42.2115 59.0471C43.244 59.0413 44.2745 59.0452 45.2954 59.0452C45.7603 55.9419 43.552 53.7666 40.7374 54.5143C40.7374 55.2058 40.8187 55.9187 40.7064 56.6005C40.6386 57.019 40.3693 57.5459 40.0284 57.7551C37.4869 59.3202 37.4733 59.2989 34.7924 57.941C34.7498 57.9197 34.7052 57.8984 34.6607 57.879C34.0272 57.6175 33.7405 57.1526 33.7696 56.4591C33.7967 55.7908 33.7754 55.1206 33.7754 54.462C30.5985 54.0707 28.7544 55.9284 29.2154 59.0432C30.2595 59.0432 31.3153 59.0374 32.371 59.0452C33.357 59.0529 33.7618 59.4694 33.7735 60.4689C33.7812 61.1392 33.7754 61.8075 33.7754 62.2918C34.959 62.5765 36.0186 62.8322 37.082 63.0821C37.1944 63.1073 37.3222 63.1092 37.4327 63.084C38.4942 62.8361 39.5538 62.5785 40.7374 62.2937ZM37.268 43.465C36.127 44.0307 34.9977 44.5924 33.7793 45.1968C33.7793 46.2622 33.756 47.469 33.7851 48.6758C33.8296 50.4773 35.2631 51.9515 37.0317 52.06C38.8429 52.1704 40.5146 50.8725 40.6851 49.0536C40.811 47.715 40.7102 46.3571 40.7102 45.1968C39.4705 44.573 38.3431 44.0055 37.268 43.465ZM21.0137 66.0129C21.0137 65.7069 21.0137 65.4919 21.0137 65.2768C21.0137 64.0642 20.6418 63.6981 19.4079 63.6962C18.4199 63.6942 17.4262 63.6303 16.446 63.7136C15.278 63.8124 14.3094 63.5567 13.5927 62.5785C13.5694 62.5475 13.5074 62.5475 13.5985 62.5785C12.9437 63.1906 12.3374 63.7543 11.7137 64.3374C12.4265 65.0367 13.0038 65.982 14.1409 66.0013C16.4015 66.042 18.6621 66.0129 21.0137 66.0129ZM53.501 66.0207C55.6221 66.0207 57.6464 65.9529 59.6629 66.0439C61.1506 66.1098 62.001 65.2788 62.7681 64.3219C62.1695 63.6942 61.6097 63.1073 61.0247 62.4913C60.891 62.6114 60.7477 62.7063 60.6489 62.8342C60.1162 63.5257 59.4305 63.7543 58.5607 63.7097C57.3113 63.6458 56.056 63.6826 54.8027 63.6981C53.9504 63.7078 53.5281 64.1456 53.5029 64.9998C53.4932 65.3117 53.501 65.6217 53.501 66.0207ZM29.1883 61.3871C29.1883 62.9659 29.1883 64.4749 29.1883 65.9781C31.7627 65.9781 34.2849 65.9781 36.9193 65.9781C36.4137 65.2672 35.8249 64.9127 35.0616 64.8681C34.6277 64.8429 34.1919 64.8584 33.756 64.8584C31.5613 64.8584 31.4547 64.7538 31.4547 62.5862C31.4547 62.1872 31.4547 61.7881 31.4547 61.3871C30.6373 61.3871 29.9399 61.3871 29.1883 61.3871ZM45.3264 66.0207C45.3264 64.4226 45.3264 62.9155 45.3264 61.4046C44.5593 61.4046 43.8426 61.4046 43.058 61.4046C43.058 62.0361 43.06 62.6346 43.058 63.2332C43.0561 64.5078 42.7035 64.8546 41.4153 64.8565C40.6347 64.8584 39.856 64.8565 39.0753 64.8565C39.0327 64.9456 38.992 65.0347 38.9494 65.1238C39.2245 65.4221 39.4899 65.9665 39.7766 65.9781C41.6071 66.0594 43.4416 66.0207 45.3264 66.0207ZM64.8854 42.7367C64.3449 41.4853 63.51 40.6659 62.2819 40.5439C60.9298 40.4083 59.5544 40.5129 58.1965 40.5129C58.1965 41.2703 58.1965 42.0044 58.1965 42.7657C60.2808 42.7657 62.309 42.7657 64.3372 42.7638C64.4805 42.7657 64.6219 42.7502 64.8854 42.7367ZM16.0528 42.7309C15.7293 41.4214 14.3636 40.4431 12.8934 40.4431C11.427 40.4412 10.0574 41.4194 9.73007 42.7309C11.8396 42.7309 13.9433 42.7309 16.0528 42.7309ZM16.3434 56.6315C15.7525 57.0228 15.1985 57.5672 14.5399 57.7802C13.8716 57.9972 13.0968 57.8868 12.2599 57.9236C13.3893 59.0549 14.4179 60.1106 15.4833 61.1276C15.6712 61.3077 16.0102 61.331 16.3453 61.4491C16.3434 59.6999 16.3434 58.0882 16.3434 56.6315ZM58.1713 61.3097C58.8571 61.3852 61.2145 59.3474 62.1443 57.8732C60.645 57.8848 59.0547 58.1774 58.1713 56.4746C58.1713 58.0863 58.1713 59.6999 58.1713 61.3097ZM23.2317 63.7523C23.286 64.5388 23.3383 65.271 23.3867 65.9858C24.1635 65.9858 24.8763 65.9858 25.5853 65.9858C25.8546 63.9809 25.3412 63.5025 23.2317 63.7523ZM48.9352 65.98C49.6616 65.98 50.3938 65.98 51.1377 65.98C51.1861 65.209 51.2326 64.4788 51.2791 63.7485C49.1541 63.516 48.6427 63.9964 48.9352 65.98ZM36.0496 54.3516C36.2994 54.9676 35.7222 55.6552 36.4312 56.1724C37.0278 56.6064 37.7097 56.6393 38.0971 56.1085C38.4264 55.661 38.3993 54.9521 38.5329 54.3516C37.6186 54.3516 36.8999 54.3516 36.0496 54.3516ZM63.6282 54.1792C62.6054 54.2625 61.5729 54.3457 60.5114 54.431C60.5114 54.7351 60.5114 55.1264 60.5114 55.508C62.2354 55.7734 63.4538 55.1361 63.6282 54.1792ZM10.8614 54.1695C11.1558 55.2426 12.4478 55.785 14.0033 55.4867C14.0033 55.0974 14.0033 54.708 14.0033 54.4368C12.9263 54.3458 11.9113 54.2605 10.8614 54.1695Z" fill="white"/>
<path d="M28.4553 24.2295C28.9512 24.5937 29.2786 25.0295 29.0732 25.661C28.8214 26.4359 28.1744 26.5211 27.4189 26.4979C27.4577 28.0069 27.0412 29.328 25.817 30.281C25.0247 30.897 24.1181 31.1818 23.1108 31.1334C20.8657 31.0249 19.5446 29.4733 19.2114 26.5056C18.5296 26.523 17.8458 26.4533 17.592 25.6552C17.3925 25.0257 17.7179 24.5918 18.1964 24.2392C15.5387 21.165 15.8099 16.8472 18.8162 14.2185C21.4662 11.9018 25.476 11.9986 28.0737 14.4142C30.3808 16.5566 31.4384 20.6342 28.4553 24.2295ZM24.4939 24.1017C25.8925 24.214 27.9362 21.5195 27.9691 19.5921C28.0175 16.9072 25.7918 14.7493 23.0953 14.8655C20.4763 14.9798 18.4269 17.378 18.7155 19.9931C18.9131 21.7888 20.9897 24.2644 22.1345 24.0687C22.3437 21.3413 22.3437 21.3413 20.4802 19.4584C20.4453 19.4236 20.4105 19.3906 20.3776 19.3557C19.7461 18.701 19.686 18.0211 20.2148 17.5136C20.7243 17.0254 21.3965 17.07 21.997 17.6995C22.4251 18.147 22.7834 18.6603 23.2367 19.2221C23.8624 18.5519 24.2614 18.0966 24.6915 17.6724C25.2997 17.07 25.9797 17.0312 26.4756 17.5407C26.9695 18.0463 26.9153 18.7107 26.3129 19.3325C25.8247 19.8362 25.3114 20.3166 24.8329 20.828C24.6799 20.9907 24.5172 21.2212 24.5075 21.4285C24.4745 22.3215 24.4939 23.2145 24.4939 24.1017ZM21.6289 26.5269C21.381 27.9139 22.3708 28.8437 23.3898 28.8088C24.492 28.7701 25.1506 27.8693 25.0208 26.5269C23.905 26.5269 22.7854 26.5269 21.6289 26.5269Z" fill="white"/>
<path d="M54.8972 10.2728C53.8821 10.0655 53.4501 9.62192 53.5082 8.94975C53.5683 8.26207 54.0758 7.89015 54.9746 7.88627C55.9645 7.8824 56.9563 7.87659 57.9462 7.88821C58.8527 7.8979 59.2847 8.32019 59.2963 9.21901C59.3099 10.2612 59.3079 11.3014 59.2963 12.3436C59.2866 13.1843 58.8159 13.7112 58.1127 13.6937C57.4367 13.6782 57.0067 13.1746 56.9795 12.3649C56.9737 12.175 56.9795 11.9871 56.9795 11.7004C56.7238 11.8593 56.5418 11.9581 56.3732 12.0782C54.3858 13.4961 52.377 14.887 50.4263 16.3534C49.636 16.9481 48.8049 17.2289 47.8422 17.3277C44.8629 17.6299 41.8895 17.9805 38.9141 18.3118C38.794 18.3254 38.6739 18.3408 38.5538 18.3428C37.8332 18.3563 37.3005 17.905 37.2637 17.2503C37.2288 16.6226 37.6666 16.1093 38.3543 16.0299C41.4246 15.6793 44.5007 15.3616 47.5671 14.9838C48.0902 14.9199 48.6461 14.7126 49.08 14.4143C51.0074 13.0874 52.8981 11.7043 54.8972 10.2728Z" fill="white"/>
<path d="M59.3034 18.3774C58.5053 18.3774 57.7905 18.3774 56.9827 18.3774C56.9827 18.6525 56.9827 18.9101 56.9827 19.1658C56.9827 22.1916 56.9827 25.2154 56.9827 28.2412C56.9827 28.4349 56.9924 28.6286 56.9769 28.8223C56.9208 29.5081 56.4423 29.9749 55.8127 29.971C55.1832 29.9652 54.6757 29.4945 54.6718 28.8049C54.6563 24.9326 54.6563 21.0603 54.6718 17.1881C54.6737 16.4965 55.1289 16.0452 55.8186 16.0335C57.3644 16.0084 58.9102 16.0084 60.4541 16.0335C61.1708 16.0452 61.6124 16.5101 61.6144 17.25C61.6279 21.0739 61.626 24.8977 61.6163 28.7216C61.6144 29.4674 61.1359 29.9594 60.4831 29.971C59.8032 29.9846 59.3112 29.4751 59.3073 28.6906C59.2957 25.568 59.3034 22.4473 59.3015 19.3247C59.3034 19.0341 59.3034 18.7455 59.3034 18.3774Z" fill="white"/>
<path d="M45.3799 24.6711C45.3799 23.412 45.3721 22.1529 45.3818 20.8919C45.3896 19.9427 45.808 19.5204 46.7572 19.5126C48.1596 19.5029 49.5602 19.5029 50.9626 19.5126C51.9099 19.5184 52.336 19.9407 52.338 20.8899C52.3457 23.4566 52.3457 26.0252 52.338 28.5919C52.3341 29.541 51.9079 29.9653 50.9626 29.9711C49.5602 29.9808 48.1596 29.9808 46.7572 29.9711C45.8099 29.9653 45.3896 29.541 45.3818 28.5919C45.3721 27.2862 45.3799 25.9787 45.3799 24.6711ZM47.7141 27.5904C48.4676 27.5904 49.2173 27.5904 49.9708 27.5904C49.9708 25.6688 49.9708 23.7762 49.9708 21.8933C49.1882 21.8933 48.456 21.8933 47.7141 21.8933C47.7141 23.8091 47.7141 25.6688 47.7141 27.5904Z" fill="white"/>
<path d="M39.6016 22.9992C40.3261 22.9992 41.0525 22.9856 41.777 23.003C42.5944 23.0224 43.0419 23.4486 43.0516 24.2583C43.0709 25.7363 43.069 27.2124 43.0535 28.6904C43.0438 29.5098 42.608 29.9592 41.8002 29.9689C40.3261 29.9882 38.8519 29.9863 37.3778 29.9708C36.5584 29.9611 36.1129 29.5253 36.1032 28.7156C36.0857 27.2376 36.0857 25.7615 36.1012 24.2835C36.1109 23.4369 36.5565 23.0185 37.4262 23.003C38.1507 22.9895 38.8752 22.9992 39.6016 22.9992ZM40.7038 25.3644C39.9057 25.3644 39.1909 25.3644 38.4606 25.3644C38.4606 26.1353 38.4606 26.8676 38.4606 27.5998C39.2374 27.5998 39.9677 27.5998 40.7038 27.5998C40.7038 26.8308 40.7038 26.116 40.7038 25.3644Z" fill="white"/>
<path d="M23.3131 10.2027C22.6835 10.1911 22.1683 9.65453 22.1799 9.02497C22.1915 8.39347 22.7242 7.87626 23.3538 7.88789C23.9833 7.89951 24.5005 8.43415 24.4889 9.06371C24.4773 9.69521 23.9388 10.2144 23.3131 10.2027Z" fill="white"/>
<path d="M13.4729 19.5048C12.8433 19.5067 12.3183 18.9818 12.3164 18.3503C12.3145 17.7168 12.8356 17.1919 13.4671 17.1899C14.0966 17.188 14.6235 17.711 14.6254 18.3425C14.6254 18.974 14.1005 19.5029 13.4729 19.5048Z" fill="white"/>
<path d="M33.184 17.192C33.8135 17.1842 34.3443 17.7053 34.3501 18.3368C34.3578 18.9644 33.8368 19.4991 33.2072 19.5068C32.5796 19.5146 32.0488 18.9935 32.0411 18.362C32.0353 17.7286 32.5525 17.1978 33.184 17.192Z" fill="white"/>
<path d="M17.9302 11.7602C17.9361 12.3742 17.3937 12.9244 16.7796 12.9321C16.1539 12.9399 15.6328 12.4188 15.629 11.7815C15.6231 11.1287 16.1113 10.6308 16.7602 10.627C17.3995 10.6231 17.9244 11.1306 17.9302 11.7602Z" fill="white"/>
<path d="M31.0361 11.8006C31.0206 12.4399 30.4917 12.9532 29.8661 12.9319C29.252 12.9125 28.7174 12.3507 28.7348 11.7406C28.7522 11.1129 29.2869 10.6112 29.9242 10.6248C30.5712 10.6403 31.0516 11.1478 31.0361 11.8006Z" fill="white"/>
</svg>
