<svg width="75" height="75" viewBox="0 0 75 75" fill="none" xmlns="http://www.w3.org/2000/svg">
<path d="M4.6745 28.0387C12.8183 28.0387 20.8808 28.0387 29.0634 28.0387C29.0634 27.7811 29.0634 27.5273 29.0634 27.2735C29.0634 24.2206 29.0634 21.1676 29.0634 18.1146C29.0634 17.9209 29.0537 17.7252 29.0711 17.5335C29.1351 16.8865 29.6 16.4409 30.2063 16.4312C30.8107 16.4215 31.3028 16.8613 31.3744 17.4986C31.4016 17.7388 31.3861 17.9829 31.3861 18.225C31.3861 24.2825 31.3861 30.3401 31.3861 36.3976C31.3861 36.6862 31.3861 36.9729 31.3861 37.31C32.1609 37.31 32.8951 37.31 33.7107 37.31C33.7107 36.4596 33.763 35.615 33.6971 34.78C33.6196 33.8076 33.8598 33.0172 34.6637 32.4283C35.3204 31.9479 35.6304 31.3842 35.2933 30.5299C35.1558 30.1793 35.2352 29.7124 35.3088 29.3153C35.7059 27.1902 38.323 25.3848 40.297 25.8536C42.5383 26.3844 43.7355 28.9104 42.5344 30.865C41.9978 31.7387 41.1397 32.4613 40.3067 33.0947C39.59 33.639 38.6659 33.6177 37.7864 33.395C37.1297 33.2284 36.074 33.9335 36.0449 34.6173C36.0081 35.5065 36.0353 36.3976 36.0353 37.3216C42.2458 37.3216 48.3885 37.3216 54.5759 37.3216C54.5759 35.615 54.6417 33.9044 54.5352 32.2036C54.5042 31.6883 53.9966 31.204 53.6092 30.7372C53.0106 32.6995 51.8793 33.918 49.8298 33.8425C47.9604 33.7727 46.9202 32.6046 46.4863 30.7546C45.7288 31.1789 45.4111 31.8065 45.3453 32.5794C45.3104 32.9882 45.3491 33.4027 45.3278 33.8134C45.293 34.5476 44.8067 35.0377 44.1481 35.0241C43.5185 35.0125 43.0613 34.5379 43.009 33.8444C42.8231 31.3648 43.5999 29.4083 46.1046 28.3138C45.0353 26.7389 45.3646 24.9683 45.3375 23.25C45.3085 21.4582 45.3259 19.6643 45.3336 17.8705C45.3375 16.8283 45.7424 16.4293 46.7904 16.4235C47.881 16.4177 48.9716 16.406 50.0603 16.4273C52.5709 16.4777 54.5739 18.4594 54.6243 20.9661C54.6572 22.5895 54.6921 24.2167 54.6049 25.8342C54.5604 26.6556 54.2465 27.4634 54.0334 28.368C54.0567 28.3816 54.2175 28.4746 54.3802 28.5617C56.0403 29.4548 56.9101 30.8457 56.9508 32.7247C56.9799 34.0788 56.9566 35.4348 57.0477 36.816C57.1135 36.6087 57.1891 36.4034 57.2453 36.1922C58.3649 32.0099 59.473 27.8256 60.6062 23.6472C61.4392 20.5729 64.2132 18.7887 67.2953 19.3137C70.1817 19.8058 72.3571 22.4887 72.022 25.4313C71.8341 27.0759 71.2878 28.6818 70.8655 30.2936C70.017 33.5209 69.1414 36.7424 68.2794 39.9658C67.9733 41.1088 67.4638 41.5504 66.7006 41.3277C65.918 41.101 65.7165 40.5005 66.0284 39.3517C66.47 37.7168 66.9117 36.0838 67.3495 34.4468C67.4038 34.2434 67.4309 34.0323 67.4793 33.7766C65.2399 33.1761 63.049 32.5891 60.7864 31.9828C58.4812 40.5838 56.1856 49.1499 53.8649 57.8129C56.1004 58.4115 58.3049 59.0043 60.5907 59.6164C60.8774 58.5684 61.1642 57.5533 61.4354 56.5325C62.4717 52.6543 63.5062 48.7741 64.5406 44.894C64.8351 43.7937 65.3291 43.3481 66.0594 43.5263C66.8536 43.7181 67.1035 44.3613 66.8071 45.4654C65.4492 50.535 64.1086 55.6104 62.7139 60.6683C62.5279 61.3424 62.1192 61.9778 61.722 62.5687C61.1332 63.4501 60.4648 64.2753 59.7694 65.2071C61.5845 65.2071 63.3047 65.2071 65.0985 65.2071C65.0985 64.9359 65.0985 64.6763 65.0985 64.4167C65.0985 61.6543 65.0966 58.8919 65.1005 56.1295C65.1024 55.1338 65.5073 54.6263 66.2763 54.636C67.0183 54.6457 67.4212 55.1455 67.4231 56.0889C67.427 59.4324 67.427 62.7759 67.4231 66.1195C67.4212 67.1907 67.0124 67.584 65.9102 67.5859C63.4887 67.5898 61.0654 67.6034 58.6439 67.5743C58.148 67.5685 57.8497 67.7351 57.5707 68.1245C56.7668 69.2461 55.9183 70.3348 55.1066 71.4525C54.727 71.9775 54.3047 72.3978 53.6015 72.1867C52.9448 71.9891 52.7975 71.4486 52.7259 70.8249C52.2764 66.9525 51.7941 63.0859 51.3447 59.2135C51.2982 58.8164 51.3485 58.3941 51.4299 57.9989C51.5636 57.3403 51.7553 56.6932 51.9452 55.9571C51.6042 55.9571 51.3427 55.9571 51.0831 55.9571C47.0132 55.9571 42.9451 55.9571 38.8751 55.9571C38.6582 55.9571 38.4335 55.9784 38.2223 55.9397C37.5966 55.8254 37.215 55.4438 37.2111 54.8006C37.2072 54.1575 37.583 53.7701 38.2088 53.6519C38.4199 53.6112 38.6427 53.6325 38.8616 53.6325C43.1485 53.6325 47.4374 53.6325 51.7243 53.6325C51.9897 53.6325 52.2532 53.6325 52.569 53.6325C52.7762 52.8732 52.9758 52.1351 53.2024 51.306C52.8789 51.306 52.6232 51.306 52.3675 51.306C47.8868 51.306 43.4042 51.306 38.9236 51.306C38.7047 51.306 38.4858 51.3196 38.2707 51.2944C37.6353 51.2208 37.1937 50.7287 37.2034 50.1243C37.213 49.5161 37.6586 49.0511 38.3056 48.9891C38.5226 48.9678 38.7415 48.9795 38.9584 48.9795C43.6812 48.9795 48.406 48.9717 53.1288 48.9911C53.646 48.993 53.9288 48.8845 54.0141 48.3286C54.0974 47.7862 54.2756 47.2573 54.4306 46.6529C53.8514 46.6529 53.3457 46.6529 52.8401 46.6529C49.3513 46.6529 45.8644 46.6529 42.3756 46.6529C42.1334 46.6529 41.8836 46.6762 41.6511 46.6258C41.0641 46.4979 40.7038 46.1202 40.698 45.51C40.6903 44.8669 41.0583 44.4717 41.6821 44.3496C41.9165 44.3031 42.1644 44.3283 42.4066 44.3283C46.5967 44.3283 50.7848 44.3283 55.064 44.3283C55.4728 42.7999 55.8815 41.2773 56.3019 39.7101C39.0417 39.7101 21.8765 39.7101 4.67643 39.7101C4.67643 48.2143 4.67643 56.6855 4.67643 65.2613C4.97669 65.2613 5.28083 65.2613 5.58496 65.2613C19.7321 65.2613 33.8773 65.2613 48.0244 65.2613C48.2917 65.2613 48.561 65.2361 48.8225 65.2768C49.4482 65.3717 49.8279 65.7321 49.8569 66.3888C49.884 67.0106 49.4617 67.4949 48.8225 67.5762C48.6307 67.6014 48.435 67.5879 48.2413 67.5879C33.4898 67.5879 18.7383 67.5879 3.9868 67.5879C2.6521 67.5879 2.31503 67.2508 2.31503 65.9161C2.31503 52.2998 2.31503 38.6834 2.31503 25.0671C2.31503 24.8966 2.30728 24.7262 2.3189 24.5576C2.37315 23.8661 2.84194 23.4011 3.47733 23.4011C4.11078 23.4011 4.60863 23.868 4.628 24.5615C4.65706 25.5785 4.63769 26.5975 4.63963 27.6145C4.64931 27.7384 4.66287 27.8547 4.6745 28.0387ZM29.0324 30.433C20.8731 30.433 12.7796 30.433 4.68225 30.433C4.68225 31.2021 4.68225 31.9188 4.68225 32.6705C6.23004 32.6705 7.74296 32.6705 9.25783 32.6705C9.41861 32.037 9.74018 31.5721 10.4318 31.5547C11.1892 31.5353 11.503 32.0777 11.6773 32.6666C17.4966 32.6666 23.248 32.6666 29.0324 32.6666C29.0324 31.913 29.0324 31.1963 29.0324 30.433ZM29.0033 37.3352C29.0033 36.5235 29.0033 35.7874 29.0033 35.059C23.186 35.059 17.4288 35.059 11.6657 35.059C11.503 35.6886 11.1872 36.1632 10.4957 36.1864C9.73824 36.2116 9.41474 35.6769 9.24233 35.0745C7.69066 35.0745 6.19905 35.0745 4.69193 35.0745C4.69193 35.8474 4.69193 36.5816 4.69193 37.3371C12.8183 37.3352 20.8963 37.3352 29.0033 37.3352ZM69.2944 27.0449C69.8911 25.5185 70.0383 24.0791 68.9167 22.7832C67.9404 21.6557 66.6812 21.2683 65.2516 21.7042C63.5527 22.2233 62.9018 23.5697 62.65 25.2569C64.8622 25.8516 67.0667 26.4444 69.2944 27.0449ZM47.6699 23.4341C47.6699 24.2864 47.6447 25.0613 47.6757 25.8323C47.7241 27.0004 48.6423 27.9457 49.7833 28.0484C50.9514 28.153 52.1021 27.3491 52.2532 26.1713C52.3675 25.2782 52.2764 24.3581 52.2764 23.4341C50.7306 23.4341 49.2409 23.4341 47.6699 23.4341ZM68.7346 29.2959C66.4371 28.6857 64.2191 28.0968 61.9933 27.506C61.7782 28.3293 61.6019 29.0034 61.4082 29.7415C63.6708 30.3478 65.8753 30.9367 68.1244 31.5392C68.3297 30.7837 68.5176 30.0902 68.7346 29.2959ZM53.8184 60.2228C53.9075 60.9783 54.0025 61.5923 54.0412 62.2084C54.0644 62.5861 54.2059 62.7469 54.5778 62.836C55.5619 63.0704 56.5285 63.3648 57.5107 63.6089C57.6947 63.6554 58.0008 63.6573 58.0937 63.5469C58.5664 62.989 58.9868 62.3885 59.4769 61.7357C57.532 61.2165 55.7323 60.7342 53.8184 60.2228ZM47.697 21.0785C48.5048 21.0785 49.2487 21.0785 49.9925 21.0785C50.7558 21.0785 51.519 21.0785 52.2861 21.0785C52.2086 19.8387 51.4706 18.9147 50.3741 18.7984C49.5005 18.7055 48.6094 18.7791 47.697 18.7791C47.697 19.5481 47.697 20.2649 47.697 21.0785ZM38.5226 31.2118C39.557 31.1072 39.9832 30.4389 40.4539 29.8848C40.8627 29.4025 40.7987 28.8329 40.3416 28.3855C39.8844 27.938 39.3323 27.907 38.8364 28.3022C38.4451 28.614 38.0267 28.9608 37.7961 29.3889C37.6199 29.7163 37.5908 30.2471 37.7341 30.5841C37.8678 30.8941 38.323 31.0626 38.5226 31.2118ZM56.4704 65.7495C55.7537 65.5616 55.1357 65.4008 54.4112 65.211C54.5255 66.1737 54.6262 67.0125 54.7502 68.0431C55.3817 67.2024 55.8834 66.5321 56.4704 65.7495ZM48.8496 30.3188C48.9678 31.1789 49.4753 31.6399 50.163 31.5295C50.8023 31.4268 51.1548 30.9173 51.0483 30.3188C50.3257 30.3188 49.6128 30.3188 48.8496 30.3188Z" fill="white"/>
<path d="M23.2867 4.84908C23.2867 7.16787 23.2867 9.43629 23.2867 11.7744C23.6044 11.7744 23.8892 11.7744 24.172 11.7744C36.0643 11.7744 47.9565 11.7744 59.8468 11.7744C61.0498 11.7744 61.5942 12.1251 61.6135 12.9096C61.6329 13.7194 61.0615 14.101 59.8294 14.101C41.7867 14.101 23.742 14.101 5.69923 14.101C5.38541 14.101 5.07159 14.101 4.64929 14.101C4.64929 14.3606 4.64929 14.5911 4.64929 14.8216C4.64929 16.4449 4.6551 18.0683 4.64735 19.6916C4.64347 20.5479 4.19405 21.0709 3.4928 21.0748C2.78961 21.0786 2.32856 20.5556 2.32662 19.7052C2.32081 14.4245 2.32081 9.14377 2.32662 3.86113C2.32856 2.88286 2.75667 2.47605 3.76981 2.47605C9.19581 2.47218 14.6199 2.47412 20.0459 2.47412C35.2565 2.47412 50.4652 2.47412 65.6758 2.47412C67.1228 2.47412 67.4347 2.78213 67.4347 4.204C67.4347 7.88655 67.4347 11.5691 67.4328 15.2517C67.4328 15.4938 67.458 15.7456 67.3999 15.9742C67.2526 16.5534 66.8788 16.8944 66.255 16.8847C65.6312 16.8769 65.269 16.5244 65.1353 15.9413C65.083 15.7108 65.1101 15.4589 65.1101 15.2168C65.1082 11.7783 65.1101 8.34179 65.1101 4.85102C51.1625 4.84908 37.2518 4.84908 23.2867 4.84908ZM4.68222 11.7221C10.1237 11.7221 15.5071 11.7221 20.8692 11.7221C20.8692 9.38592 20.8692 7.102 20.8692 4.83358C15.4451 4.83358 10.0792 4.83358 4.68222 4.83358C4.68222 7.14075 4.68222 9.40723 4.68222 11.7221Z" fill="white"/>
<path d="M17.9708 51.3157C15.5726 51.3157 13.1744 51.3196 10.7781 51.3138C9.69521 51.3119 9.30196 50.9109 9.30002 49.8144C9.29615 47.7068 9.29615 45.5992 9.30002 43.4915C9.30196 42.4067 9.69908 42.0135 10.7975 42.0135C15.6171 42.0115 20.4368 42.0096 25.2564 42.0135C26.3413 42.0135 26.7345 42.4145 26.7364 43.5109C26.7403 45.6185 26.7403 47.7262 26.7364 49.8338C26.7345 50.9167 26.3316 51.3119 25.2371 51.3138C22.8156 51.3177 20.3922 51.3157 17.9708 51.3157ZM24.3828 44.3729C20.0978 44.3729 15.8961 44.3729 11.6672 44.3729C11.6672 45.9169 11.6672 47.4259 11.6672 48.9408C15.9309 48.9408 20.1501 48.9408 24.3828 48.9408C24.3828 47.4007 24.3828 45.911 24.3828 44.3729Z" fill="white"/>
<path d="M12.7863 21.0418C12.7863 19.9512 12.7727 18.8606 12.7901 17.7719C12.8076 16.6522 13.6076 16.135 14.6072 16.6251C16.8427 17.7215 19.0782 18.8218 21.2788 19.9861C21.6391 20.1759 22.0246 20.7067 22.0246 21.0806C22.0246 21.4525 21.6372 21.9833 21.2788 22.1731C19.0782 23.3374 16.8427 24.4377 14.6072 25.5341C13.6076 26.0242 12.8076 25.505 12.7901 24.3854C12.7727 23.2696 12.7863 22.1557 12.7863 21.0418ZM15.1574 22.6594C16.2015 22.1363 17.1933 21.6404 18.3188 21.0767C17.174 20.5072 16.1821 20.0132 15.1109 19.4805C15.1109 20.5149 15.1089 21.4079 15.1128 22.301C15.1128 22.3901 15.1341 22.4792 15.1574 22.6594Z" fill="white"/>
<path d="M53.4779 7.12334C55.7057 7.12334 57.9353 7.11946 60.1631 7.12527C61.0794 7.12721 61.6121 7.56114 61.6121 8.28563C61.6121 9.0082 61.0774 9.446 60.1631 9.44793C55.7057 9.45181 51.2502 9.45181 46.7928 9.44793C45.8765 9.44793 45.3457 9.01013 45.3457 8.28563C45.3457 7.5592 45.8765 7.12721 46.7928 7.12527C49.0224 7.11946 51.2502 7.12334 53.4779 7.12334Z" fill="white"/>
<path d="M20.9271 53.6424C23.1549 53.6424 25.3845 53.6385 27.6123 53.6443C28.5286 53.6463 29.0593 54.0821 29.0593 54.8066C29.0574 55.5292 28.5247 55.965 27.6084 55.967C23.151 55.9709 18.6955 55.9709 14.2381 55.967C13.3238 55.967 12.791 55.5272 12.793 54.8027C12.7949 54.0763 13.3238 53.6463 14.242 53.6443C16.4697 53.6385 18.6975 53.6424 20.9271 53.6424Z" fill="white"/>
<path d="M14.6032 58.2937C16.614 58.2937 18.6228 58.2899 20.6336 58.2957C21.5499 58.2976 22.0826 58.7315 22.0806 59.458C22.0806 60.1805 21.546 60.6183 20.6316 60.6183C16.5636 60.6222 12.4936 60.6222 8.42558 60.6183C7.5093 60.6183 6.97852 60.1805 6.97852 59.456C6.97852 58.7296 7.5093 58.2976 8.42751 58.2957C10.4867 58.2899 12.5459 58.2937 14.6032 58.2937Z" fill="white"/>
<path d="M34.8762 9.44762C33.0358 9.44762 31.1955 9.45149 29.3533 9.44568C28.437 9.44374 27.9062 9.00982 27.9043 8.28532C27.9043 7.55888 28.4331 7.12496 29.3514 7.12302C33.032 7.11915 36.7145 7.11915 40.3951 7.12302C41.3114 7.12302 41.8441 7.55888 41.8441 8.28338C41.8441 9.00788 41.3114 9.44374 40.3971 9.44568C38.5587 9.45149 36.7184 9.44762 34.8762 9.44762Z" fill="white"/>
<path d="M41.2693 60.6199C40.3492 60.6199 39.429 60.6316 38.5088 60.6161C37.7127 60.6025 37.209 60.1357 37.2109 59.4518C37.2148 58.768 37.7185 58.3031 38.5166 58.2973C40.3569 58.2857 42.1972 58.2857 44.0375 58.2973C44.8337 58.3031 45.3393 58.7758 45.3354 59.4596C45.3335 60.1415 44.8259 60.6025 44.0278 60.6161C43.1096 60.6296 42.1895 60.6199 41.2693 60.6199Z" fill="white"/>
<path d="M9.2915 8.28154C9.29343 8.91112 8.76652 9.43996 8.13694 9.4419C7.50737 9.44384 6.98046 8.91693 6.97852 8.28735C6.97658 7.6539 7.49962 7.12893 8.13113 7.12893C8.76459 7.12505 9.2915 7.65002 9.2915 8.28154Z" fill="white"/>
<path d="M13.9399 8.30494C13.9283 8.93452 13.3897 9.45368 12.7621 9.44206C12.1306 9.43043 11.6153 8.89384 11.6269 8.26233C11.6385 7.62887 12.1732 7.11552 12.8047 7.12715C13.4362 7.14071 13.9515 7.67536 13.9399 8.30494Z" fill="white"/>
<path d="M16.2787 8.22977C16.3097 7.59826 16.8618 7.09653 17.4914 7.12946C18.1209 7.16046 18.6246 7.71449 18.5936 8.34213C18.5626 8.96977 18.0047 9.47537 17.3809 9.44437C16.7514 9.41144 16.2477 8.85548 16.2787 8.22977Z" fill="white"/>
</svg>
