<svg fill="none" xmlns="http://www.w3.org/2000/svg" viewBox="0 0 57 57">
<rect width="57" height="57" rx="15" fill="#101010"/>
<path d="M9 28.5327C9 22.7564 9 16.9754 9 11.1945C9.01871 11.1477 9.04677 11.1009 9.0608 11.0495C9.57061 9.06635 10.8428 8.07947 12.8867 8.07947C18.1859 8.07947 23.4898 8.07947 28.7891 8.07947C31.0388 8.07947 32.5729 9.61358 32.5729 11.868C32.5729 17.1953 32.5729 22.5179 32.5729 27.8452C32.5729 30.1183 31.0388 31.643 28.7563 31.643C26.7031 31.643 24.6545 31.6524 22.6059 31.6337C22.3159 31.6337 22.1662 31.7225 22.0259 31.9751C20.6415 34.4399 18.5274 35.8852 15.7632 36.3997C14.9774 36.5447 14.332 36.0208 14.2992 35.2164C14.2852 34.8843 14.2992 34.5522 14.2992 34.2201C14.2992 33.3736 14.2992 32.5223 14.2992 31.6383C13.6725 31.6383 13.0878 31.6524 12.5079 31.6383C11.0018 31.5962 9.67351 30.6047 9.19644 29.1781C9.11225 28.9677 9.0608 28.7525 9 28.5327ZM18.9296 22.6909C17.9708 23.182 16.9792 23.4018 15.9503 23.4814C15.2347 23.5375 14.7295 24.08 14.7716 24.7348C14.8184 25.4224 15.389 25.9135 16.114 25.8667C17.6761 25.7685 19.1541 25.3709 20.5058 24.5524C20.7163 24.4261 20.8613 24.4308 21.0718 24.5524C22.4328 25.3709 23.9248 25.7732 25.501 25.862C26.1558 25.8995 26.6703 25.4692 26.7826 24.8424C26.8808 24.2858 26.5253 23.7105 25.9687 23.5375C25.8331 23.4954 25.6834 23.486 25.5384 23.472C24.5375 23.3878 23.5787 23.1633 22.6433 22.6862C23.6769 21.3392 24.154 19.8098 24.3458 18.1634C24.7527 18.1634 25.1081 18.1634 25.4683 18.1634C26.254 18.1541 26.7919 17.677 26.7966 16.9801C26.8013 16.2926 26.2541 15.7781 25.4823 15.7687C24.575 15.7594 23.6723 15.7687 22.7649 15.7687C22.517 15.7687 22.2691 15.7687 22.0586 15.7687C21.9744 15.2963 21.9604 14.8614 21.8107 14.4778C21.647 14.0475 21.2308 13.8371 20.7771 13.8604C20.5152 13.8745 20.2299 13.9914 20.0147 14.1504C19.4768 14.5433 19.5984 15.1654 19.5657 15.7687C19.3927 15.7687 19.2523 15.7687 19.1073 15.7687C18.0971 15.7687 17.0821 15.7594 16.0719 15.7687C15.3048 15.7781 14.7529 16.3019 14.7669 16.9848C14.7763 17.6676 15.3095 18.1494 16.0672 18.1587C16.446 18.1634 16.8296 18.1587 17.2271 18.1587C17.4142 19.8332 17.9053 21.3439 18.9249 22.6862L18.9296 22.6909Z" fill="url(#paint0_linear_144_76)"/>
<path d="M46.8009 48.9906H29.458C29.458 48.9906 29.4159 48.9579 29.3925 48.9485C27.3018 48.406 26.3477 47.1759 26.3477 45.0197C26.3477 41.5306 26.3477 38.0461 26.3477 34.5569V34.0424C27.3018 34.0424 28.2138 34.0565 29.1306 34.0424C31.8527 33.9957 34.2988 32.0313 34.7993 29.3559C35.0051 28.2428 34.9256 27.0781 34.977 25.9369C34.9864 25.7732 34.977 25.6048 34.977 25.4224C35.4681 25.4224 35.8937 25.4037 36.3147 25.4271C36.6047 25.4458 36.7543 25.3523 36.8993 25.0903C38.251 22.6629 40.3277 21.2223 43.0404 20.6845C44.0273 20.488 44.6307 21.0119 44.6354 22.0268C44.6354 23.0137 44.6354 23.9959 44.6354 24.9828C44.6354 25.1231 44.6354 25.2587 44.6354 25.4177C45.2574 25.4177 45.8187 25.4084 46.3753 25.4177C48.335 25.4598 49.9112 27.008 49.9159 28.963C49.9346 34.4587 49.9299 39.959 49.9159 45.4547C49.9159 46.9561 48.943 48.2657 47.5258 48.7708C47.292 48.855 47.0441 48.9111 46.8056 48.9813L46.8009 48.9906ZM33.34 43.219C33.8031 43.1863 34.1772 42.9711 34.4064 42.5268C34.6543 42.0404 34.8788 41.5446 35.1454 41.0675C35.2109 40.9506 35.398 40.829 35.5289 40.829C37.2595 40.815 38.99 40.8243 40.7206 40.815C40.9404 40.815 41.0527 40.8898 41.1415 41.0862C41.3707 41.582 41.6186 42.0684 41.8712 42.5502C42.1331 43.0413 42.6289 43.2845 43.1293 43.1956C43.9806 43.046 44.3734 42.2088 43.9618 41.3856C42.409 38.2706 40.8422 35.1603 39.294 32.0406C39.0461 31.5448 38.7047 31.2081 38.1388 31.2034C37.5541 31.2034 37.2033 31.5495 36.9555 32.0593C36.1603 33.6823 35.3418 35.2959 34.5327 36.9095C33.7843 38.4062 33.0266 39.9029 32.2877 41.4043C31.862 42.2696 32.4046 43.219 33.34 43.219Z" fill="url(#paint1_linear_144_76)"/>
<path d="M9 35.4082C9.03742 35.3567 9.07483 35.3099 9.1029 35.2538C9.39756 34.7019 9.91672 34.4447 10.4546 34.5756C11.0392 34.7206 11.3854 35.1649 11.3947 35.801C11.4274 37.7748 12.0495 39.5381 13.303 41.0628C14.7248 42.7934 16.5676 43.799 18.7846 44.103C18.9156 44.1217 19.0465 44.117 19.271 44.1311C19.1261 43.972 19.0325 43.8738 18.939 43.7709C18.5087 43.2658 18.5227 42.5502 18.9764 42.1059C19.416 41.6709 20.1457 41.6288 20.6087 42.0684C21.4646 42.8869 22.3065 43.7241 23.1204 44.5801C23.5507 45.0338 23.5319 45.7213 23.0923 46.1797C22.2878 47.0122 21.4646 47.8307 20.6321 48.6352C20.4684 48.7942 20.2299 48.8737 20.0241 48.9906H19.6265C19.5938 48.9672 19.5657 48.9392 19.533 48.9252C18.5508 48.5603 18.3309 47.6062 19.0512 46.8391C19.1261 46.7596 19.1915 46.6708 19.2851 46.5585C19.1728 46.5398 19.1214 46.5304 19.0699 46.5258C14.6079 46.1937 10.8615 43.2611 9.50981 39.0096C9.27595 38.2565 9.16838 37.4614 9 36.685C9 36.2594 9 35.8338 9 35.4082Z" fill="url(#paint2_linear_144_76)"/>
<path d="M39.6075 12.9064C39.7712 13.0841 39.8741 13.1823 39.963 13.2899C40.3745 13.781 40.3558 14.4826 39.9209 14.9222C39.4859 15.3666 38.7609 15.4274 38.2932 14.983C37.4233 14.1599 36.5767 13.3086 35.7535 12.4433C35.3279 11.9943 35.3466 11.3302 35.7816 10.8812C36.5954 10.0393 37.4233 9.20674 38.2651 8.39759C38.7469 7.93455 39.4719 7.97664 39.9209 8.43501C40.3512 8.87466 40.3745 9.58091 39.963 10.0673C39.8601 10.1889 39.7478 10.2965 39.5981 10.4509C40.1688 10.5397 40.7019 10.6005 41.2258 10.7034C45.9076 11.6155 49.5184 15.6986 49.8505 20.4413C49.8692 20.7079 49.8972 20.9745 49.8972 21.2364C49.8926 21.952 49.3874 22.4758 48.7186 22.4899C48.0498 22.5039 47.5306 21.9941 47.5072 21.2738C47.409 18.2991 46.1649 15.9512 43.7047 14.2721C42.5073 13.4536 41.1697 13.0093 39.6122 12.9017L39.6075 12.9064Z" fill="url(#paint3_linear_144_76)"/>
<path d="M38.134 35.0761C38.7046 36.222 39.2378 37.2884 39.7944 38.3969H36.4783C37.0302 37.2884 37.5681 36.2173 38.134 35.0761Z" fill="url(#paint4_linear_144_76)"/>
<rect x="9" y="13" width="23" height="16" rx="3" fill="url(#paint5_linear_144_76)"/>
<path d="M25 27V22.3333V22.3333C25 21.0447 23.9553 20 22.6667 20H18" stroke="#101010" stroke-width="2.39" stroke-linecap="round"/>
<path d="M18 27V14" stroke="#101010" stroke-width="2.39" stroke-linecap="round"/>
<path d="M16 16H21" stroke="#101010" stroke-width="2.39" stroke-linecap="round"/>
<defs>
<linearGradient id="paint0_linear_144_76" x1="10.1333" y1="8.07947" x2="33.696" y2="9.90471" gradientUnits="userSpaceOnUse">
<stop stop-color="#47DEB1"/>
<stop offset="1" stop-color="#FA8CFA"/>
</linearGradient>
<linearGradient id="paint1_linear_144_76" x1="27.4813" y1="20.6437" x2="51.0516" y2="22.4699" gradientUnits="userSpaceOnUse">
<stop stop-color="#47DEB1"/>
<stop offset="1" stop-color="#FA8CFA"/>
</linearGradient>
<linearGradient id="paint2_linear_144_76" x1="9.69388" y1="34.542" x2="24.0824" y2="35.8807" gradientUnits="userSpaceOnUse">
<stop stop-color="#47DEB1"/>
<stop offset="1" stop-color="#FA8CFA"/>
</linearGradient>
<linearGradient id="paint3_linear_144_76" x1="36.1394" y1="8.07013" x2="50.5469" y2="9.41512" gradientUnits="userSpaceOnUse">
<stop stop-color="#47DEB1"/>
<stop offset="1" stop-color="#FA8CFA"/>
</linearGradient>
<linearGradient id="paint4_linear_144_76" x1="36.6377" y1="35.0761" x2="39.9437" y2="35.3836" gradientUnits="userSpaceOnUse">
<stop stop-color="#47DEB1"/>
<stop offset="1" stop-color="#FA8CFA"/>
</linearGradient>
<linearGradient id="paint5_linear_144_76" x1="10.1058" y1="13" x2="32.8264" y2="16.0421" gradientUnits="userSpaceOnUse">
<stop stop-color="#47DEB1"/>
<stop offset="1" stop-color="#FA8CFA"/>
</linearGradient>
</defs>
</svg>