<svg width="201" height="201" viewBox="0 0 201 201" fill="none" xmlns="http://www.w3.org/2000/svg">
<path d="M162.239 178.181C162.239 182.396 162.207 186.361 162.249 190.326C162.275 192.733 164.135 194.317 166.157 193.687C167.798 193.176 168.491 191.962 168.486 190.264C168.465 186.616 168.522 182.969 168.454 179.322C168.434 178.176 168.668 177.509 169.804 176.915C173.79 174.842 175.238 171.179 174.352 165.797C177.426 165.536 180.151 164.489 182.095 161.952C184.048 159.404 184.538 156.549 183.621 153.282C186.945 153.094 189.957 152.068 191.624 149.187C192.645 147.421 193.338 145.18 193.333 143.153C193.328 138.433 189.576 135.135 183.725 134.26C183.751 133.978 183.757 133.676 183.814 133.39C185.012 127.335 180.735 121.974 174.519 121.927C165.808 121.86 157.091 121.906 148.38 121.906C147.827 121.906 147.275 121.906 146.723 121.906C146.702 121.802 146.676 121.693 146.655 121.589C147.395 121.26 148.145 120.948 148.875 120.604C153.647 118.348 155.882 113.08 154.153 108.178C152.449 103.348 147.286 100.592 142.221 101.837C137.11 103.093 132.484 105.39 127.904 108.808C127.904 107.823 127.904 107.162 127.904 106.5C127.904 98.4243 127.831 90.3434 127.945 82.2677C127.982 79.7928 127.159 78.3757 124.892 77.2451C116.301 72.9728 110.632 66.1423 107.923 56.8943C107.141 54.2215 108.017 52.1634 110.168 51.4444C112.263 50.7463 113.982 51.7883 115.056 54.4194C115.717 56.045 116.343 57.6862 117.03 59.3013C118.135 61.9012 119.896 63.928 122.355 65.3295C125.549 67.1478 127.893 65.8088 127.899 62.1305C127.909 50.4701 127.904 38.8098 127.904 27.1495C127.904 26.691 127.899 26.2378 127.904 25.7793C127.945 23.4034 129.196 21.8508 131.061 21.856C132.978 21.8612 134.135 23.3149 134.14 25.7897C134.151 33.5424 134.125 41.2951 134.172 49.0426C134.177 49.9752 134.286 51.2048 134.859 51.7571C135.594 52.4656 136.99 53.1325 137.855 52.8981C138.824 52.6376 139.632 51.4288 140.278 50.4806C140.585 50.0273 140.382 49.2145 140.382 48.5632C140.387 38.1429 140.382 27.7174 140.387 17.2972C140.387 16.7136 140.351 16.1197 140.413 15.5413C140.606 13.7595 142.023 12.4257 143.618 12.4726C145.29 12.5195 146.582 13.8168 146.603 15.7029C146.655 20.6525 146.624 25.6021 146.624 30.5518C146.624 36.7414 146.619 42.9259 146.629 49.1155C146.634 51.6112 147.744 53.0387 149.672 53.0909C151.667 53.143 152.86 51.6633 152.866 49.0738C152.876 41.3211 152.834 33.5684 152.913 25.821C152.923 24.7946 153.22 23.4451 153.908 22.846C154.632 22.2155 156.075 21.9342 157.039 22.1739C158.571 22.549 159.123 23.9661 159.118 25.55C159.102 32.193 159.113 38.8359 159.113 45.484C159.113 46.9168 159.076 48.3496 159.128 49.7824C159.201 51.7779 160.472 53.0909 162.239 53.0909C164.005 53.0909 165.318 51.7727 165.339 49.7772C165.386 44.9578 165.349 40.1384 165.36 35.3191C165.365 32.7036 166.521 31.2135 168.496 31.2395C170.408 31.2656 171.596 32.839 171.601 35.4076C171.607 45.8956 171.601 56.3837 171.607 66.8665C171.612 71.3003 170.424 75.3746 167.814 78.954C163.869 84.3621 162.062 90.3747 162.218 97.0593C162.332 101.941 162.233 106.828 162.244 111.715C162.249 114.18 163.406 115.618 165.349 115.628C167.298 115.639 168.475 114.211 168.48 111.747C168.496 106.599 168.538 101.457 168.47 96.309C168.407 91.4584 169.7 87.0662 172.534 83.1221C173.138 82.2781 173.873 81.4445 174.186 80.4858C174.884 78.3288 176.311 77.9953 178.338 78.0787C182.105 78.235 185.877 78.136 189.649 78.1204C191.999 78.11 193.374 76.9846 193.437 75.0933C193.5 73.1291 192.062 71.8891 189.649 71.8786C185.632 71.863 181.615 71.8734 177.718 71.8734C177.718 60.3799 177.718 49.0738 177.718 37.4813C180.896 37.4813 183.861 37.4813 186.82 37.4813C187.925 37.4813 189.034 37.5177 190.134 37.4708C192.129 37.3875 193.437 36.1318 193.437 34.3552C193.437 32.5785 192.134 31.276 190.139 31.2499C186.304 31.1978 182.464 31.2656 178.63 31.1978C178.051 31.1874 177.223 30.8592 176.947 30.4111C174.034 25.7376 171.112 24.383 165.49 25.3573C165.229 22.2937 164.192 19.5584 161.676 17.615C159.139 15.6612 156.304 15.0985 152.996 16.0936C152.819 12.6705 151.725 9.65387 148.786 7.95015C147.124 6.98628 145.035 6.34022 143.123 6.30896C138.366 6.23602 135.417 9.51841 133.916 15.9894C129.639 14.9161 126.106 16.104 123.439 19.6521C120.854 23.0908 121.943 27.16 121.6 31.1353C120.938 31.1666 120.307 31.2239 119.682 31.2239C111.747 31.2291 103.817 31.1978 95.8823 31.2395C91.1775 31.2656 86.9156 29.9891 83.0861 27.2485C82.3463 26.7223 81.6273 26.0398 80.7937 25.7845C78.1522 24.9821 77.8031 23.1429 77.9333 20.715C78.1157 17.2711 77.9854 13.8116 77.9802 10.3625C77.975 7.69486 76.8965 6.26207 74.9062 6.23081C72.9055 6.20476 71.7489 7.6636 71.7437 10.2791C71.7333 14.2388 71.7437 18.1933 71.7437 22.1947C70.1129 22.0697 68.6957 21.8873 67.2734 21.8769C65.3091 21.8665 63.9649 23.1794 63.9545 24.9613C63.9441 26.6598 65.1789 28.0353 67.0493 28.0717C71.9885 28.1655 76.24 29.9734 80.2154 32.8026C84.7378 36.0224 89.8854 37.4761 95.4342 37.4813C104.078 37.4865 112.727 37.4813 121.527 37.4813C121.527 42.7018 121.527 47.8599 121.527 53.4035C121.105 52.4865 120.818 51.8821 120.547 51.2673C118.322 46.1926 113.071 43.8012 108.017 45.5622C103.119 47.2711 100.342 52.4917 101.697 57.6758C104.479 68.2784 110.674 76.3229 120.135 81.7988C121.313 82.4813 121.719 83.1794 121.714 84.5184C121.657 94.027 121.719 103.541 121.636 113.049C121.626 114.169 121.016 115.326 120.521 116.389C120.146 117.202 119.344 117.837 119.031 118.666C117.979 121.464 116.046 122.052 113.175 121.985C104.401 121.766 95.6218 121.948 86.8427 121.854C85.7225 121.844 84.5711 121.234 83.5082 120.745C82.6954 120.369 82.065 119.546 81.2365 119.254C78.2563 118.202 77.8552 116.082 77.9229 113.195C78.1209 104.406 77.9594 95.6108 78.0375 86.8161C78.048 85.8106 78.569 84.7633 79.0327 83.8255C79.4912 82.9033 80.3821 82.1687 80.7312 81.2204C81.768 78.4174 83.7322 77.9068 86.4936 78.0631C90.8336 78.3079 95.205 78.136 99.5606 78.1256C102.077 78.1152 103.411 77.0158 103.411 74.9995C103.411 72.9832 102.077 71.8838 99.5554 71.8786C93.7044 71.8682 87.8482 71.962 82.0024 71.8317C79.5954 71.7796 78.2251 72.6393 77.1466 74.8224C72.8274 83.5858 65.8666 89.2701 56.4988 91.995C54.7117 92.516 52.9246 92.318 51.9972 90.6873C51.4137 89.6609 51.3668 88.077 51.669 86.8995C51.8774 86.0919 53.0184 85.3729 53.9041 84.9353C55.587 84.1016 57.3897 83.5181 59.1247 82.7939C61.7975 81.6789 63.8659 79.8658 65.2779 77.3285C67.0024 74.2284 65.6426 71.8839 62.0945 71.8839C50.3248 71.8734 38.555 71.8786 26.7853 71.8786C26.2643 71.8786 25.7433 71.8995 25.2275 71.8682C23.2893 71.7536 21.8618 70.451 21.8253 68.7838C21.7888 66.9707 23.1747 65.6473 25.29 65.6369C32.9646 65.6056 40.6339 65.6265 48.3084 65.6213C48.892 65.6213 49.4807 65.6525 50.0643 65.5952C51.794 65.4181 52.9871 64.152 53.0028 62.5212C53.0184 60.8904 51.8357 59.5879 50.1164 59.4003C49.538 59.3378 48.9493 59.3743 48.3605 59.3743C38.0236 59.3743 27.6815 59.3743 17.3445 59.3743C16.8913 59.3743 16.4328 59.3899 15.9795 59.3691C13.9267 59.2753 12.447 57.9415 12.4574 56.2065C12.4678 54.3986 13.8538 53.1377 15.9951 53.1325C25.0972 53.1117 34.1994 53.1221 43.3067 53.1221C45.2553 53.1221 47.2091 53.1325 49.1577 53.1169C51.596 53.0961 53.0288 51.9029 52.9976 49.9439C52.9663 48.0005 51.5491 46.8699 49.0639 46.8699C41.5196 46.8595 33.9805 46.8647 26.4362 46.8647C25.9152 46.8647 25.3942 46.8908 24.8784 46.8491C23.1174 46.698 21.8878 45.4945 21.8201 43.8845C21.7575 42.3684 23.008 40.8939 24.6544 40.6699C25.488 40.5552 26.3425 40.6178 27.1865 40.6178C34.4703 40.6125 41.7489 40.623 49.0326 40.6126C51.5283 40.6073 52.9454 39.4976 52.9976 37.5646C53.0497 35.5587 51.5804 34.3708 48.991 34.3656C44.4373 34.3552 39.8889 34.3656 35.3352 34.3604C32.6728 34.3552 31.2088 33.2715 31.1775 31.3072C31.1462 29.3326 32.7614 28.1134 35.4498 28.1134C42.0823 28.1082 48.7148 28.1812 55.3473 28.0457C56.4884 28.0248 57.9055 27.3944 58.6506 26.5608C59.1872 25.9564 59.2237 24.2579 58.7392 23.565C58.1452 22.7157 56.7905 21.9602 55.7433 21.929C50.4185 21.7675 45.0833 21.856 39.7482 21.856C39.0448 21.856 38.3414 21.856 37.4036 21.856C37.4036 18.1568 37.4036 14.5983 37.4036 11.0398C37.4036 10.3885 37.4453 9.73203 37.3723 9.08597C37.1743 7.38225 35.8353 6.19955 34.215 6.23602C32.5217 6.2777 31.2192 7.54377 31.1879 9.41942C31.1254 13.327 31.1931 17.2346 31.1306 21.1422C31.1202 21.6789 30.8493 22.4865 30.4533 22.6949C25.7798 25.1905 24.2167 29.046 25.264 34.1155C17.4019 35.9912 14.8593 39.3934 15.9066 46.6146C9.09691 48.2298 6.06978 51.3246 6.20525 56.5243C6.33549 61.3854 9.82632 64.7512 15.7034 65.7619C15.7034 67.3093 15.4845 68.8776 15.745 70.3625C16.537 74.8901 20.4602 78.0891 25.1806 78.11C33.6992 78.1569 42.2178 78.1256 50.7364 78.1256C51.4502 78.1256 52.1639 78.1256 52.8777 78.1256C52.9246 78.2298 52.9663 78.334 53.0132 78.4434C52.3671 78.73 51.7263 79.0113 51.0802 79.2979C46.2035 81.4445 43.8121 86.5973 45.3908 91.5417C46.9851 96.5331 52.091 99.482 57.2855 98.1742C59.8489 97.5282 62.3758 96.5904 64.7725 95.4754C67.1066 94.3917 69.2584 92.9172 71.6395 91.5261C71.6759 92.1722 71.7385 92.7817 71.7385 93.3913C71.7437 101.665 71.7958 109.939 71.7072 118.207C71.6864 120.396 72.5252 121.672 74.453 122.636C83.1487 126.992 88.9997 133.806 91.735 143.211C92.48 145.774 91.6516 147.796 89.5884 148.551C87.4939 149.317 85.6756 148.296 84.6231 145.727C83.9302 144.044 83.2998 142.335 82.586 140.663C81.4189 137.933 79.5224 135.844 76.8809 134.479C74.0622 133.014 71.7541 134.395 71.7489 137.589C71.7281 149.38 71.7385 161.17 71.7385 172.961C71.7385 173.482 71.7541 174.003 71.7332 174.524C71.6655 176.702 70.3004 178.233 68.503 178.171C66.7055 178.108 65.5123 176.722 65.5019 174.545C65.4811 166.86 65.4915 159.175 65.4915 151.484C65.4915 150.901 65.5436 150.302 65.455 149.729C65.1789 148.035 64.1681 147.051 62.4435 146.946C60.8336 146.847 59.4894 148.082 59.2862 149.781C59.2185 150.359 59.2549 150.953 59.2549 151.537C59.2549 162.087 59.2602 172.643 59.2393 183.193C59.2393 184.022 59.3018 185.126 58.8329 185.611C58.0149 186.45 56.8322 187.33 55.7433 187.419C54.274 187.539 53.3206 186.33 53.0653 184.814C52.9715 184.241 53.0184 183.647 53.0184 183.058C53.0184 172.638 53.0184 162.212 53.0184 151.792C53.0184 151.271 53.0392 150.75 53.008 150.229C52.9038 148.228 51.6638 146.926 49.8923 146.926C48.1209 146.931 46.8183 148.239 46.7975 150.239C46.7454 154.538 46.7767 158.836 46.7767 163.134C46.7767 166.849 46.7871 170.559 46.7715 174.274C46.761 176.717 45.5575 178.186 43.6402 178.155C41.7853 178.129 40.5453 176.571 40.5401 174.18C40.5245 166.755 40.5349 159.331 40.5349 151.901C40.5349 151.38 40.5505 150.859 40.5297 150.338C40.4463 148.233 39.1646 146.868 37.3307 146.92C35.5696 146.972 34.3296 148.291 34.3088 150.317C34.2671 154.814 34.2932 159.305 34.2932 163.801C34.2932 164.39 34.3192 164.974 34.2827 165.557C34.1681 167.433 32.9489 168.735 31.2765 168.777C29.6822 168.819 28.2285 167.48 28.0879 165.698C27.9889 164.468 28.0514 163.223 28.0514 161.988C28.0514 152.542 28.0827 143.096 28.0358 133.655C28.0097 128.872 29.281 124.532 32.0945 120.666C35.8249 115.534 37.5235 109.803 37.4297 103.468C37.3515 98.3879 37.4244 93.308 37.4088 88.2281C37.4036 85.7949 36.1844 84.3569 34.2306 84.3934C32.3498 84.4299 31.1827 85.8314 31.1775 88.1551C31.1567 93.4955 31.1514 98.8359 31.1775 104.176C31.1983 108.751 29.9323 112.898 27.2959 116.634C26.7697 117.379 26.0924 118.093 25.8319 118.926C24.9618 121.682 23.0601 122.115 20.4654 121.953C16.9694 121.735 13.4474 121.886 9.93573 121.906C7.63284 121.922 6.23653 123.115 6.22089 125.006C6.20526 126.898 7.612 128.133 9.89404 128.148C13.9163 128.174 17.9385 128.153 21.9138 128.153C21.9138 139.626 21.9138 150.974 21.9138 162.546C18.1104 162.546 14.5571 162.546 11.0038 162.546C10.3525 162.546 9.69606 162.504 9.05521 162.577C7.36192 162.775 6.17921 164.135 6.22089 165.75C6.26779 167.438 7.54427 168.74 9.41472 168.772C13.2494 168.834 17.0892 168.766 20.9239 168.829C21.5231 168.839 22.4296 169.095 22.6589 169.522C25.165 174.19 29.0153 175.753 34.0691 174.711C35.8666 182.537 39.2532 185.074 46.5526 184.095C48.074 190.852 51.2209 193.932 56.4623 193.791C61.2869 193.661 64.5849 190.222 65.6582 184.319C67.1588 184.319 68.6541 184.506 70.0816 184.282C74.5051 183.595 77.8395 179.682 77.975 175.154C78.0375 173.138 77.9854 171.121 77.9854 168.793C78.6784 168.793 79.2932 168.793 79.908 168.793C87.9055 168.793 95.9031 168.819 103.901 168.782C108.538 168.761 112.732 170.038 116.514 172.721C117.52 173.435 118.531 174.216 119.656 174.659C121.297 175.305 121.798 176.29 121.73 178.046C121.579 182.016 121.667 185.991 121.688 189.967C121.699 192.389 122.933 193.838 124.882 193.786C126.758 193.739 127.909 192.337 127.919 190.008C127.94 185.981 127.925 181.953 127.925 177.816C129.509 177.942 130.915 178.124 132.317 178.14C134.297 178.166 135.656 176.9 135.709 175.133C135.761 173.362 134.489 171.992 132.499 171.939C127.784 171.82 123.642 170.21 119.844 167.469C115.165 164.093 109.877 162.535 104.12 162.535C96.1845 162.54 88.2546 162.535 80.3195 162.535C79.6162 162.535 78.9128 162.535 78.1001 162.535C78.1001 157.268 78.1001 152.146 78.1001 146.514C78.5481 147.493 78.8295 148.077 79.09 148.671C81.3199 153.782 86.5092 156.194 91.5787 154.475C96.5544 152.787 99.2897 147.514 97.9559 142.221C96.6846 137.183 94.3818 132.639 91.1462 128.242C92.0268 128.2 92.6363 128.148 93.2511 128.148C101.509 128.143 109.767 128.096 118.025 128.179C120.214 128.2 121.474 127.346 122.423 125.402C126.711 116.623 133.583 110.851 142.956 108.11C145.525 107.36 147.53 108.204 148.286 110.272C149.052 112.372 148.031 114.19 145.462 115.243C143.779 115.936 142.075 116.566 140.403 117.285C137.678 118.457 135.594 120.359 134.229 123.001C132.765 125.824 134.146 128.133 137.334 128.138C149.104 128.159 160.874 128.148 172.643 128.148C173.164 128.148 173.685 128.133 174.201 128.153C176.384 128.226 177.895 129.576 177.843 131.389C177.786 133.186 176.4 134.385 174.227 134.39C166.553 134.411 158.883 134.4 151.209 134.4C150.625 134.4 150.026 134.343 149.458 134.437C147.77 134.713 146.785 135.729 146.676 137.448C146.577 139.058 147.812 140.413 149.505 140.616C150.083 140.684 150.672 140.647 151.261 140.647C161.796 140.647 172.325 140.642 182.86 140.663C183.689 140.663 184.793 140.6 185.278 141.069C186.117 141.893 186.997 143.07 187.086 144.164C187.211 145.639 186.002 146.592 184.491 146.847C183.918 146.946 183.324 146.9 182.741 146.9C172.336 146.9 161.931 146.9 151.532 146.9C151.011 146.9 150.49 146.879 149.974 146.905C147.978 147.004 146.671 148.249 146.671 150.026C146.671 151.797 147.984 153.1 149.974 153.136C153.22 153.193 156.471 153.152 159.722 153.157C164.536 153.157 169.345 153.141 174.159 153.162C176.447 153.173 177.874 154.413 177.853 156.283C177.833 158.096 176.322 159.393 174.092 159.399C166.615 159.419 159.139 159.409 151.657 159.409C151.136 159.409 150.615 159.393 150.099 159.414C147.994 159.492 146.629 160.769 146.671 162.608C146.712 164.369 148.036 165.614 150.047 165.651C152.777 165.698 155.507 165.666 158.237 165.666C160.446 165.666 162.661 165.646 164.87 165.672C167.042 165.698 168.434 166.875 168.486 168.673C168.543 170.481 167.022 171.898 164.844 171.908C158.534 171.939 152.23 171.919 145.92 171.919C145.399 171.919 144.878 171.913 144.357 171.919C141.872 171.939 140.455 173.054 140.419 174.993C140.382 176.993 141.857 178.16 144.456 178.166C149.656 178.176 154.861 178.171 160.061 178.171C160.686 178.181 161.332 178.181 162.239 178.181Z" fill="white"/>
</svg>
