<svg width="75" height="76" viewBox="0 0 75 76" fill="none" xmlns="http://www.w3.org/2000/svg">
<path d="M63.6457 70.5083C63.3126 69.2395 62.1154 68.3116 60.7401 68.1993C60.5231 68.1818 60.3062 68.1857 60.0873 68.1857C44.8635 68.1857 29.6418 68.1838 14.418 68.1857C12.6262 68.1857 11.3942 68.9625 10.8499 70.5102C11.1559 70.5102 11.431 70.5102 11.7041 70.5102C20.7407 70.5102 29.7774 70.5102 38.8159 70.5102C39.0096 70.5102 39.2033 70.5064 39.3951 70.5102C40.2358 70.5296 40.7588 70.9926 40.7414 71.6977C40.7259 72.3776 40.2203 72.827 39.4145 72.8309C37.119 72.8406 34.8235 72.8348 32.528 72.8348C25.014 72.8348 17.498 72.8348 9.98399 72.8348C8.52342 72.8348 8.08562 72.3079 8.32776 70.8531C8.82753 67.8719 11.1637 65.7527 14.1836 65.9077C16.3823 66.02 18.2012 65.4467 19.9523 64.1798C21.3412 63.1744 22.8561 62.3511 23.8769 60.9061C24.7854 59.6198 25.3801 58.2193 25.5758 56.565C25.2329 56.565 24.9481 56.565 24.6634 56.565C19.3228 56.565 13.9841 56.5669 8.64351 56.565C4.92232 56.5631 2.46995 54.1088 2.46801 50.3798C2.46414 45.2465 2.46801 40.1151 2.46801 34.9818C2.46801 34.788 2.45639 34.5924 2.47769 34.4006C2.54937 33.7614 3.02977 33.3197 3.63415 33.3255C4.23852 33.3313 4.70924 33.773 4.77511 34.4181C4.79641 34.6331 4.78479 34.8539 4.78479 35.0709C4.78479 40.179 4.78286 45.2872 4.78673 50.3953C4.78867 52.8167 6.19888 54.2385 8.6067 54.2385C21.4865 54.2405 34.3644 54.2385 47.2443 54.2385C47.4748 54.2385 47.7033 54.2385 48.1004 54.2385C47.0312 52.9717 46.0723 51.8346 45.1115 50.6975C45.034 50.6045 44.9352 50.5232 44.879 50.4205C44.4645 49.6728 43.9512 49.6011 43.1105 49.8374C40.3946 50.6045 37.5335 49.1536 36.4158 46.5812C35.2865 43.9816 36.1601 40.9635 38.5273 39.41C39.4145 38.8269 40.3656 38.3426 41.2663 37.7809C44.602 35.6985 47.066 32.8529 48.6254 29.2343C48.7416 28.967 48.8172 28.628 48.7668 28.3491C48.5111 26.9505 48.8056 25.734 49.9155 24.8119C50.9925 23.917 52.2168 23.7678 53.5166 24.2928C53.6038 24.3277 53.6948 24.3528 53.8614 24.409C54.4173 22.9329 54.9694 21.4743 55.5196 20.0137C55.6474 19.6747 55.6997 19.2737 55.9186 19.0103C56.1879 18.6849 56.583 18.2839 56.9414 18.2664C57.2978 18.249 57.8209 18.5783 58.0184 18.9096C58.6015 19.8801 59.0606 20.9261 59.5701 21.9411C59.634 22.067 59.7173 22.1852 59.8238 22.3596C61.3115 21.4646 62.7663 20.5658 64.2501 19.7154C64.5814 19.5256 65.0288 19.3919 65.3949 19.4423C66.0613 19.5333 66.3596 20.1881 66.2047 20.9745C65.9335 22.3479 65.6564 23.7194 65.3736 25.1412C66.8361 25.1412 68.2483 25.1412 69.7089 25.1412C69.7224 24.9204 69.7457 24.7112 69.7457 24.502C69.7476 21.7184 69.7515 18.9328 69.7457 16.1492C69.7418 13.8363 68.2987 12.4028 65.9819 12.3989C64.6046 12.3951 63.2273 12.4048 61.85 12.3951C60.9938 12.3893 60.4766 11.9437 60.4747 11.2386C60.4708 10.5296 60.9861 10.0802 61.8423 10.0744C63.268 10.0647 64.6937 10.0647 66.1194 10.0725C69.552 10.0938 72.0625 12.5965 72.0663 16.0465C72.078 25.5616 72.0702 35.0767 72.0702 44.5898C72.0702 46.5502 72.0741 48.5124 72.0683 50.4728C72.0567 54.0623 69.583 56.5553 66.0129 56.5592C60.6239 56.5669 55.2368 56.5611 49.8477 56.5611C49.5843 56.5611 49.3228 56.5611 48.9508 56.5611C49.0496 57.0648 49.1019 57.5122 49.224 57.9384C49.8652 60.1661 51.1514 61.9308 53.0904 63.1957C54.3651 64.0267 55.6571 64.8306 56.9627 65.6132C57.232 65.774 57.5903 65.8341 57.9119 65.8515C59.14 65.9154 60.3895 65.8166 61.5943 66.0103C64.1533 66.421 66.0749 68.6603 66.255 71.2386C66.3325 72.3427 65.9005 72.8309 64.8158 72.8328C58.0494 72.8367 51.2851 72.8367 44.5187 72.8328C43.6064 72.8328 43.0756 72.395 43.0775 71.6686C43.0795 70.9442 43.6083 70.5102 44.5246 70.5102C50.6381 70.5083 56.7516 70.5083 62.8631 70.5083C63.115 70.5083 63.3707 70.5083 63.6457 70.5083ZM21.6996 65.7934C32.1542 65.7934 42.4131 65.7934 52.8541 65.7934C49.1775 63.6761 47.1203 60.6542 46.5914 56.6076C40.354 56.6076 34.161 56.6076 27.939 56.6076C27.4102 60.6814 25.3298 63.6858 21.6996 65.7934ZM42.9652 39.4448C44.1526 41.504 45.3149 43.5205 46.4927 45.5622C49.8884 43.8731 53.412 43.1408 57.2048 43.3326C57.0906 43.0905 57.0305 42.9394 56.9511 42.798C56.339 41.7287 55.7171 40.6652 55.107 39.594C54.6421 38.7765 54.737 38.1315 55.3607 37.7557C55.9942 37.3741 56.6431 37.6317 57.1293 38.4589C57.3366 38.8133 57.538 39.1717 57.7434 39.5262C58.6112 41.0333 59.4713 42.5462 60.3546 44.0435C60.7304 44.6808 61.3909 44.8668 61.9604 44.5491C62.5319 44.2314 62.6966 43.5806 62.3672 42.9103C62.3033 42.7805 62.2278 42.6566 62.1561 42.5307C59.2253 37.4438 56.2925 32.357 53.3616 27.2721C53.2532 27.0842 53.1563 26.8827 53.0149 26.72C52.6158 26.259 52.1122 26.1621 51.5795 26.4372C51.0332 26.72 50.8705 27.2139 51.039 27.7912C51.1126 28.0411 51.2618 28.2716 51.3935 28.5002C52.4512 30.3443 53.5224 32.1807 54.5704 34.0306C54.9559 34.7106 54.7777 35.3982 54.1868 35.7237C53.6154 36.0394 52.982 35.8457 52.5829 35.2065C52.2768 34.7144 52.0018 34.203 51.7112 33.7013C51.2463 32.8994 50.7775 32.0993 50.2681 31.2257C48.5111 34.6563 46.0936 37.3373 42.9652 39.4448ZM69.736 43.782C68.0953 43.5767 66.5223 43.381 64.961 43.1854C64.9242 43.2978 64.8971 43.3423 64.8971 43.3869C64.899 44.9385 64.2462 46.1201 62.8205 46.7477C61.3987 47.3734 60.095 47.0867 58.9444 46.0252C58.77 45.8644 58.4698 45.8373 58.1463 45.7191C58.1463 46.5753 58.1482 47.2746 58.1463 47.9759C58.1443 49.2195 57.786 49.5856 56.5656 49.5895C55.8547 49.5914 55.1418 49.5895 54.2469 49.5895C55.7094 50.9668 56.0135 52.4855 55.4421 54.225C59.1981 54.225 62.8922 54.2715 66.5843 54.2037C68.2502 54.1727 69.6701 52.7102 69.7186 51.0423C69.7883 48.65 69.736 46.2557 69.736 43.782ZM68.7384 27.5045C67.1558 27.5045 65.7339 27.5084 64.3102 27.5026C63.084 27.4987 62.6481 26.9621 62.8845 25.7689C63.0607 24.87 63.2273 23.9674 63.4288 22.9058C62.2452 23.6167 61.236 24.2289 60.2229 24.8313C59.2136 25.4299 58.6499 25.2652 58.1211 24.2308C57.8189 23.638 57.5187 23.0434 57.1371 22.2898C56.6024 23.7271 56.122 25.0056 55.6552 26.2899C55.6184 26.3887 55.6339 26.5379 55.6862 26.6309C56.153 27.4677 56.6315 28.2987 57.2145 29.3215C57.476 28.9728 57.6368 28.7307 57.8267 28.5137C58.0165 28.2949 58.2238 28.0895 58.4407 27.8977C58.987 27.4154 59.5952 27.4018 60.0698 27.8454C60.5677 28.3084 60.587 28.967 60.0834 29.5288C59.7289 29.9259 59.3376 30.2862 58.9618 30.6639C58.2586 31.369 58.2586 31.369 58.9754 32.1865C59.6127 31.8688 60.2558 31.5414 60.9047 31.2257C61.6718 30.8518 62.3208 31.0107 62.6462 31.6422C62.9697 32.2717 62.714 32.9013 61.9546 33.2984C61.3406 33.618 60.7188 33.9221 60.0795 34.2418C60.2035 34.48 60.312 34.6428 60.3778 34.821C60.6335 35.5086 61.1062 35.7372 61.8307 35.6597C62.4757 35.59 63.1343 35.6365 63.7871 35.6481C64.5891 35.6636 65.0928 36.1111 65.1024 36.7929C65.1121 37.4748 64.6046 37.9455 63.8162 37.9668C63.3222 37.9804 62.8283 37.9688 62.2103 37.9688C62.7372 38.8831 63.1847 39.6773 63.6554 40.458C63.729 40.5819 63.9034 40.6962 64.0467 40.7175C64.8041 40.8337 65.5673 40.919 66.3267 41.0139C66.379 40.9519 66.4294 40.8899 66.4817 40.8279C66.2395 40.6381 65.9741 40.4715 65.7591 40.2565C64.8332 39.3402 64.8777 38.7339 65.9063 37.9513C66.809 37.2656 67.7137 36.5857 68.6183 35.9019C68.5524 35.8205 68.5311 35.7702 68.4924 35.7508C67.7195 35.3556 66.9446 34.9624 66.1698 34.5691C64.963 33.959 64.8138 33.403 65.5615 32.2795C66.5882 30.7317 67.6187 29.1859 68.7384 27.5045ZM44.4335 46.6431C43.2674 44.6189 42.138 42.6604 40.9951 40.6788C39.4842 41.3587 38.3471 42.2769 38.258 44.03C38.1825 45.4925 38.7965 46.6121 40.0866 47.3037C41.6538 48.1463 43.0504 47.6543 44.4335 46.6431ZM46.2253 48.4214C47.6743 50.1338 49.1 51.8346 50.5431 53.5179C51.2618 54.3567 52.1839 54.4691 52.8832 53.8414C53.5941 53.2041 53.5612 52.2143 52.7786 51.422C51.8623 50.4941 50.9325 49.5798 50.0066 48.6616C48.3484 47.0131 48.3484 47.0131 46.3435 48.2897C46.3241 48.3013 46.3106 48.3246 46.2253 48.4214ZM55.7985 45.5177C54.152 45.7482 52.6042 45.9671 51.0545 46.184C51.0429 46.2654 51.0332 46.3468 51.0216 46.4281C51.3451 46.7032 51.6512 47.1894 51.9921 47.2146C53.2532 47.3095 54.5278 47.2514 55.7985 47.2514C55.7985 46.6799 55.7985 46.2034 55.7985 45.5177ZM67.9597 32.8684C68.5757 33.1706 69.1239 33.4398 69.705 33.7246C69.705 32.5662 69.705 31.4988 69.705 30.2513C69.0813 31.187 68.5524 31.9792 67.9597 32.8684ZM69.7302 37.9785C69.1123 38.4453 68.6067 38.8269 68.1766 39.1504C68.7132 39.7238 69.2033 40.2507 69.7302 40.8124C69.7302 39.8865 69.7302 39.0206 69.7302 37.9785Z" fill="white"/>
<path d="M7.10543 10.1516C7.10543 8.27651 7.10155 6.43819 7.10736 4.59988C7.1093 3.50154 7.50059 3.09862 8.57956 3.09862C24.6014 3.09668 40.6232 3.09668 56.645 3.09862C57.7414 3.09862 58.1443 3.49379 58.1463 4.57082C58.1501 7.47648 58.1521 10.3821 58.1463 13.2878C58.1443 14.2893 57.7317 14.7174 56.7477 14.7174C42.2252 14.7213 27.7008 14.7213 13.1783 14.7174C12.2736 14.7174 11.7409 14.2641 11.7545 13.5358C11.768 12.8132 12.2949 12.3967 13.2189 12.3967C17.0854 12.3929 20.9519 12.3948 24.8183 12.3948C25.0779 12.3948 25.3394 12.3948 25.6319 12.3948C25.6319 10.0586 25.6319 7.79223 25.6319 5.47351C20.2603 5.47352 14.8868 5.47352 9.47064 5.47352C9.47064 19.382 9.47064 33.2865 9.47064 47.2627C9.78058 47.2627 10.0653 47.2627 10.3481 47.2627C17.9358 47.2627 25.5234 47.2627 33.1111 47.2627C33.2796 47.2627 33.4501 47.2608 33.6186 47.2627C34.5097 47.2744 35.0598 47.7373 35.0405 48.4541C35.0211 49.1437 34.4884 49.5853 33.6322 49.5853C29.5236 49.5892 25.415 49.5873 21.3083 49.5873C17.1028 49.5873 12.8993 49.5892 8.69386 49.5873C7.46573 49.5873 7.10737 49.2231 7.10737 47.9814C7.10737 36.5292 7.10737 25.077 7.10736 13.6229C7.10736 13.3324 7.10736 13.0437 7.10736 12.7493C5.88505 12.9275 4.84289 14.2893 4.79834 15.7867C4.76734 16.8037 4.78864 17.8206 4.78864 18.8376C4.78864 22.3244 4.78865 25.8112 4.78672 29.298C4.78672 29.5401 4.80996 29.79 4.75959 30.0225C4.63174 30.6094 4.254 30.9697 3.64769 30.9775C3.00651 30.9852 2.61328 30.6172 2.4893 29.9934C2.44281 29.759 2.46799 29.5111 2.46799 29.2689C2.46799 25.0325 2.46799 20.7941 2.46799 16.5576C2.46605 13.1309 3.81041 11.2519 7.10543 10.1516ZM28.0378 5.45221C28.0378 7.79223 28.0378 10.0761 28.0378 12.3367C37.3262 12.3367 46.5624 12.3367 55.7869 12.3367C55.7869 10.0141 55.7869 7.74768 55.7869 5.4522C46.5275 5.4522 37.3088 5.45221 28.0378 5.45221Z" fill="white"/>
<path d="M22.7302 44.9389C19.5883 44.9389 16.4482 44.9409 13.3062 44.9389C12.1188 44.9389 11.7488 44.567 11.7468 43.3796C11.7449 42.0488 11.741 40.716 11.7488 39.3852C11.7546 38.3857 12.1633 37.9712 13.159 37.9692C19.5631 37.9653 25.9671 37.9653 32.3693 37.9692C33.365 37.9692 33.7776 38.3857 33.7834 39.3814C33.7911 40.7606 33.7911 42.1417 33.7834 43.521C33.7776 44.5186 33.365 44.9351 32.3712 44.937C29.1576 44.9428 25.9439 44.9389 22.7302 44.9389ZM31.4317 40.3402C25.6146 40.3402 19.8594 40.3402 14.1237 40.3402C14.1237 41.1267 14.1237 41.8609 14.1237 42.5757C19.9214 42.5757 25.6611 42.5757 31.4317 42.5757C31.4317 41.8221 31.4317 41.1054 31.4317 40.3402Z" fill="white"/>
<path d="M45.3814 26.3851C45.3814 27.5454 45.3989 28.7077 45.3795 29.868C45.3349 32.4444 43.2894 34.4725 40.7556 34.4764C38.2199 34.4802 36.1453 32.454 36.1124 29.8893C36.0833 27.5202 36.0814 25.1492 36.1124 22.7801C36.1453 20.2173 38.2277 18.1969 40.7692 18.2085C43.2758 18.2202 45.3214 20.227 45.3756 22.7588C45.4027 23.9676 45.3814 25.1763 45.3814 26.3851ZM43.0627 26.3657C43.0627 25.2519 43.0705 24.138 43.0608 23.0261C43.0491 21.5636 42.0554 20.5156 40.7111 20.5331C39.3919 20.5505 38.4311 21.581 38.4253 23.0126C38.4156 25.2402 38.4156 27.466 38.4253 29.6937C38.4311 31.1097 39.4209 32.148 40.7362 32.1518C42.0535 32.1557 43.0453 31.1213 43.0608 29.7072C43.0724 28.5934 43.0627 27.4795 43.0627 26.3657Z" fill="white"/>
<path d="M18.4261 18.2085C21.0877 18.2027 23.1217 20.0507 23.3328 22.4295C23.4122 23.3244 23.0345 23.9172 22.3236 24.0063C21.6146 24.0954 21.1265 23.6072 21.0219 22.7026C20.8688 21.3757 19.8344 20.4633 18.5695 20.5388C17.3665 20.6086 16.4038 21.6275 16.3922 22.8363C16.3805 24.1302 17.3627 25.1104 18.7458 25.1821C21.1303 25.3061 22.8776 26.8112 23.2921 29.1009C23.6621 31.1368 22.4805 33.2695 20.5201 34.1063C17.6474 35.3306 14.3931 33.3993 14.087 30.2922C13.996 29.3585 14.3931 28.7444 15.133 28.6786C15.8401 28.6166 16.2876 29.0912 16.398 30.0249C16.5491 31.3189 17.6338 32.2448 18.8872 32.1499C20.0843 32.0588 21.0354 31.0225 21.0277 29.8157C21.0199 28.5527 20.0397 27.5667 18.7109 27.5086C16.7777 27.4253 15.3287 26.5574 14.5112 24.7927C13.719 23.0842 13.9495 21.4338 15.1021 19.9519C15.9989 18.7935 17.2309 18.2531 18.4261 18.2085Z" fill="white"/>
<path d="M27.9992 20.531C27.9992 22.1175 27.9992 23.5917 27.9992 25.1801C28.8399 25.1801 29.6748 25.1801 30.5078 25.1801C30.7732 25.1801 31.0385 25.1743 31.3039 25.182C32.1059 25.2033 32.6076 25.645 32.6173 26.3269C32.627 27.03 32.104 27.493 31.2594 27.5008C30.1998 27.5104 29.1402 27.5027 28.0322 27.5027C28.0322 29.0543 28.0322 30.5614 28.0322 32.1517C29.7484 32.1517 31.455 32.1517 33.1616 32.1517C34.3898 32.1517 34.9593 32.5353 34.936 33.345C34.9147 34.1276 34.3684 34.4763 33.1713 34.4763C31.1664 34.4763 29.1615 34.4801 27.1585 34.4743C26.066 34.4724 25.665 34.0792 25.665 32.9963C25.6611 28.5681 25.6611 24.1399 25.665 19.7116C25.665 18.6114 26.0563 18.2084 27.1295 18.2065C29.2545 18.2007 31.3795 18.2007 33.5045 18.2065C34.4111 18.2084 34.9438 18.654 34.936 19.3785C34.9283 20.0991 34.3975 20.5252 33.4793 20.5272C31.6759 20.5349 29.8705 20.531 27.9992 20.531Z" fill="white"/>
<path d="M12.8968 10.0654C12.2673 10.0615 11.7462 9.53073 11.752 8.90117C11.7559 8.26967 12.2828 7.74859 12.9123 7.75246C13.5419 7.75634 14.063 8.28517 14.0591 8.91666C14.0533 9.54429 13.5225 10.0692 12.8968 10.0654Z" fill="white"/>
<path d="M18.6998 8.92011C18.692 9.54967 18.1593 10.0727 17.5336 10.0649C16.9041 10.0572 16.3849 9.52643 16.3927 8.89493C16.4004 8.26343 16.9292 7.74429 17.5588 7.75204C18.1884 7.75979 18.7075 8.29055 18.6998 8.92011Z" fill="white"/>
<path d="M23.3384 8.89732C23.3442 9.52494 22.8231 10.0596 22.1955 10.0654C21.5679 10.0712 21.0371 9.55013 21.0313 8.91863C21.0255 8.28713 21.5427 7.7583 22.1742 7.75249C22.8018 7.74668 23.3326 8.26582 23.3384 8.89732Z" fill="white"/>
<path d="M42.4849 7.74613C45.2647 7.74613 48.0425 7.73838 50.8222 7.75581C51.169 7.75775 51.6397 7.78681 51.8315 7.99989C52.0988 8.30014 52.3041 8.79991 52.2712 9.19121C52.2267 9.73941 51.7579 10.0513 51.1845 10.061C50.2179 10.0784 49.2513 10.0687 48.2846 10.0687C43.6685 10.0687 39.0543 10.0687 34.4382 10.0687C34.2445 10.0687 34.0508 10.0765 33.859 10.0648C33.1171 10.0261 32.6328 9.56507 32.6328 8.90452C32.6328 8.24396 33.1171 7.75775 33.859 7.75C35.6469 7.73257 37.4349 7.74419 39.2228 7.74225C40.3096 7.74613 41.3982 7.74613 42.4849 7.74613Z" fill="white"/>
</svg>
