<svg width="201" height="201" viewBox="0 0 201 201" fill="none" xmlns="http://www.w3.org/2000/svg">
<path d="M150.427 106.23C151.735 103.192 151.933 100.275 150.818 97.3308C150.01 95.1998 148.395 94.3141 146.593 94.9497C144.884 95.5541 144.159 97.2162 144.899 99.3002C145.722 101.624 145.134 103.458 143.425 105.125C140.82 107.673 138.288 110.294 135.703 112.862C133.26 115.29 130.54 115.473 128.508 113.394C126.497 111.336 126.726 108.637 129.165 106.172C132.369 102.937 135.552 99.6806 138.824 96.5128C142.195 93.2408 143.649 89.3853 142.226 84.8317C140.783 80.2103 137.391 77.7511 132.645 77.1102C132.395 77.079 132.155 77.0112 131.806 76.9435C131.415 71.848 128.909 68.2894 124.069 66.5232C124.679 64.9862 125.366 63.5847 125.794 62.1154C126.836 58.5048 125.028 55.1026 121.438 54.196C115.967 52.8153 110.481 51.4034 104.932 50.4343C96.2157 48.9129 89.1038 51.9556 83.6644 58.8956C83.034 59.7031 82.5599 60.073 81.4657 59.7969C77.2403 58.7236 73.562 59.8959 70.7068 63.1158C67.7891 66.4086 67.1952 70.2641 68.7217 74.4166C68.8103 74.6562 68.9041 74.8959 68.7895 74.5937C66.6741 76.6257 64.4963 78.2773 62.8968 80.3666C61.2347 82.5444 61.0107 85.2953 61.6047 88.2234C58.6036 88.9425 56.0767 90.3961 54.3313 93.0064C52.6172 95.575 52.2733 98.4301 52.7318 101.431C52.2368 101.614 51.8825 101.759 51.523 101.879C43.8224 104.49 41.2799 112.998 46.2399 119.396C46.6359 119.906 46.7662 120.886 46.6047 121.537C45.7294 124.986 44.4216 128.352 43.8277 131.843C42.8169 137.777 40.2848 142.784 36.0541 147.015C26.8009 156.252 17.5789 165.521 8.34657 174.78C7.7995 175.332 7.20554 175.874 6.79913 176.525C5.92384 177.927 6.14267 179.302 7.32536 180.412C8.44556 181.464 9.77415 181.589 11.0819 180.735C11.6706 180.349 12.1656 179.807 12.671 179.302C21.497 170.466 30.2188 161.52 39.175 152.819C45.4532 146.723 49.2983 139.58 50.2986 130.858C50.507 129.024 51.1687 127.242 51.7106 125.08C52.4817 125.778 52.9506 126.169 53.3831 126.601C56.9729 130.186 60.5522 133.781 64.142 137.371C64.5119 137.741 64.8662 138.126 65.2674 138.454C66.7315 139.668 68.4456 139.632 69.6491 138.397C70.8683 137.136 70.9204 135.417 69.5866 134.026C66.9294 131.259 64.1837 128.571 61.4744 125.856C58.2129 122.584 54.9305 119.338 51.6898 116.046C49.4911 113.81 49.3504 111.07 51.2521 109.101C53.159 107.121 56.1027 107.24 58.3379 109.465C63.3657 114.467 68.3622 119.495 73.3692 124.517C73.7391 124.887 74.0882 125.273 74.4842 125.611C75.9534 126.867 77.6102 126.872 78.8659 125.643C80.0955 124.434 80.1632 122.673 78.9023 121.261C77.777 120 76.5369 118.843 75.3438 117.645C70.3369 112.623 65.3143 107.621 60.3386 102.572C58.6714 100.879 58.3587 98.6854 59.3539 96.8515C60.3438 95.0279 62.3966 94.0432 64.4807 94.5798C65.3247 94.7987 66.1062 95.3405 66.8617 95.8251C68.4716 96.8723 70.1441 96.7733 71.2434 95.4916C72.3584 94.1943 72.249 92.5427 70.9152 91.0995C70.3838 90.5263 69.795 90.0105 69.2636 89.4426C67.2629 87.3169 67.1691 84.5034 69.0291 82.6225C70.8996 80.7313 73.7235 80.7521 75.8179 82.7736C78.2928 85.1703 80.6998 87.6451 83.133 90.0835C83.6853 90.6357 84.2271 91.1984 84.7898 91.7403C86.4362 93.3086 88.2858 93.418 89.5988 92.0529C90.8752 90.7243 90.7658 88.9581 89.2549 87.3794C88.0409 86.1081 86.7801 84.889 85.5349 83.6437C82.315 80.4239 79.0691 77.23 75.8805 73.9789C73.687 71.7386 73.6192 68.9876 75.5991 67.0442C77.5112 65.1633 80.2883 65.1738 82.3984 67.2578C87.8169 72.6034 93.1677 78.0116 98.7113 83.5604C98.2112 84.1022 97.7318 84.592 97.2889 85.113C94.4963 88.4162 93.6679 92.1519 95.1841 96.221C96.6637 100.196 99.6283 102.525 103.828 103.213C104.677 103.354 105.349 103.359 105.578 104.547C107.173 112.805 112.982 116.072 120.88 113.503C122.407 115.363 123.611 117.463 125.382 118.812C127.112 120.125 129.425 120.667 131.478 121.542C131.572 121.407 131.671 121.271 131.764 121.141C131.879 121.693 132.02 122.24 132.108 122.798C132.859 127.409 135.912 130.868 140.45 131.723C142.195 132.051 142.487 132.953 142.836 134.37C143.81 138.329 144.472 142.471 146.171 146.113C147.76 149.51 150.182 152.683 152.824 155.387C164.177 167.032 175.743 178.463 187.237 189.972C187.695 190.431 188.149 190.921 188.691 191.264C190.082 192.166 191.457 191.978 192.583 190.816C193.718 189.644 193.776 188.248 192.879 186.888C192.53 186.357 192.009 185.929 191.556 185.471C180.485 174.373 169.496 163.187 158.295 152.22C152.996 147.03 149.729 141.023 149 133.64C148.953 133.192 148.885 132.729 148.734 132.306C148.354 131.197 148.609 130.514 149.578 129.681C151.74 127.821 153.829 125.83 155.674 123.658C160.196 118.333 158.414 110.184 152.178 107.063C151.667 106.792 151.136 106.558 150.427 106.23ZM97.6641 72.9994C94.4911 69.8264 91.3546 66.6899 88.1034 63.4388C91.5057 58.4162 96.4345 55.5923 102.666 56.4416C108.35 57.2179 113.909 58.9112 119.521 60.2137C119.604 60.2346 119.651 60.4117 119.708 60.5107C118.286 65.3666 114.102 68.0862 109.173 67.2682C107.131 66.9296 105.125 66.3929 103.098 65.9657C100.623 65.4395 99.2896 66.2835 98.6852 68.7427C98.3101 70.2276 97.9663 71.7229 97.6641 72.9994ZM120.073 72.2387C122.777 72.3898 124.278 73.3068 125.049 75.1512C125.893 77.1623 125.382 78.9702 123.861 80.4968C118.864 85.509 113.883 90.5368 108.855 95.5125C106.777 97.5705 103.963 97.6278 102.072 95.773C100.102 93.8452 100.149 91.0473 102.317 88.8435C107.24 83.8469 112.18 78.8712 117.197 73.9789C118.114 73.0828 119.437 72.6086 120.073 72.2387ZM136.558 88.4267C136.25 89.0675 135.969 90.3805 135.182 91.1932C130.024 96.5024 124.809 101.754 119.505 106.923C117.577 108.804 114.805 108.595 113.029 106.761C111.278 104.958 111.252 102.228 113.055 100.254C114.232 98.9564 115.509 97.7528 116.749 96.5128C120.646 92.6052 124.538 88.6924 128.456 84.8056C129.931 83.3415 131.718 82.9352 133.645 83.7584C135.406 84.5034 136.308 85.9466 136.558 88.4267ZM142.31 125.825C140.841 125.737 139.413 124.83 138.616 123.095C137.808 121.35 138.022 119.609 139.304 118.187C140.867 116.457 142.518 114.795 144.253 113.243C145.676 111.971 147.405 111.763 149.156 112.591C150.813 113.373 151.735 114.712 151.818 116.572C151.959 119.646 145.848 125.888 142.31 125.825ZM102.765 78.9754C103.275 76.7403 103.739 74.7188 104.213 72.6295C105.771 72.989 107.105 73.2964 108.027 73.51C106.37 75.2294 104.682 76.9852 102.765 78.9754Z" fill="white"/>
<path d="M129.931 193.802C132.911 193.89 134.495 191.41 133.369 189.331C133.005 188.665 132.426 188.097 131.879 187.55C124.632 180.271 117.348 173.024 110.127 165.719C106.745 162.296 102.822 159.951 98.0914 158.962C94.8924 158.295 92.1935 156.685 89.8959 154.351C86.2957 150.688 82.6538 147.067 79.0119 143.441C77.2248 141.659 75.4794 141.487 74.0779 142.893C72.7337 144.238 72.9108 146.15 74.6145 147.869C78.371 151.657 82.138 155.429 85.9257 159.175C88.9059 162.124 92.428 164.109 96.544 164.979C100.149 165.74 103.13 167.522 105.724 170.153C113.024 177.562 120.396 184.903 127.774 192.239C128.508 192.973 129.483 193.484 129.931 193.802Z" fill="white"/>
<path d="M67.2579 194.182C68.3781 193.531 69.3315 193.197 69.9828 192.556C76.7716 185.83 83.524 179.062 90.2555 172.278C91.6674 170.856 91.7039 169.012 90.5004 167.746C89.2291 166.407 87.3326 166.396 85.8373 167.892C79.0589 174.633 72.3169 181.407 65.575 188.18C64.5382 189.222 63.8974 190.514 64.7414 191.863C65.3041 192.754 66.3305 193.354 67.2579 194.182Z" fill="white"/>
<path d="M73.0878 101.077C73.8224 102.265 74.1975 103.182 74.8384 103.838C78.2354 107.324 81.6793 110.757 85.144 114.18C86.7383 115.754 88.6609 115.827 89.9426 114.462C91.2347 113.091 91.1305 111.398 89.5674 109.814C86.0558 106.261 82.5181 102.734 78.9805 99.2063C77.9801 98.2112 76.7244 97.6433 75.4792 98.4509C74.5518 99.0552 73.9318 100.118 73.0878 101.077Z" fill="white"/>
</svg>
