<svg width="75" height="75" viewBox="0 0 75 75" fill="none" xmlns="http://www.w3.org/2000/svg">
<path d="M67.413 17.979C68.5229 17.979 69.5574 17.9752 70.5918 17.981C71.6437 17.9868 72.0583 18.3839 72.0602 19.4164C72.0641 25.4216 72.0641 31.4268 72.0602 37.432C72.0602 38.5052 71.6515 38.8946 70.5492 38.9004C69.5361 38.9043 68.5229 38.9004 67.4614 38.9004C67.4614 40.0666 67.4614 41.1882 67.4614 42.3873C68.5094 42.3873 69.5438 42.3834 70.5763 42.3892C71.665 42.395 72.0602 42.7883 72.0602 43.8828C72.0641 49.0879 72.0621 54.295 72.0602 59.5002C72.0602 60.4281 71.6457 60.9589 70.9289 60.9783C70.185 60.9976 69.7395 60.4475 69.7376 59.4866C69.7356 54.8626 69.7356 50.2367 69.7356 45.6127C69.7356 45.3492 69.7356 45.0838 69.7356 44.7661C59.6701 44.7661 49.6375 44.7661 39.5604 44.7661C39.5604 53.247 39.5604 61.7299 39.5604 70.2476C49.6027 70.2476 59.6178 70.2476 69.7356 70.2476C69.7356 69.4592 69.7356 68.6707 69.7356 67.8823C69.7356 66.7936 69.7259 65.703 69.7395 64.6143C69.7492 63.8181 70.218 63.3125 70.9018 63.3164C71.5837 63.3184 72.0525 63.8259 72.0563 64.624C72.068 66.7781 72.0621 68.9342 72.0602 71.0883C72.0583 72.2216 71.6708 72.6071 70.5279 72.6071C64.2321 72.609 57.9363 72.609 51.6406 72.609C47.3556 72.609 43.0686 72.609 38.7836 72.609C37.5535 72.609 37.1951 72.2448 37.1932 71.0031C37.1893 69.2848 37.1874 67.5646 37.1816 65.8464C37.1816 65.8037 37.1525 65.7592 37.1215 65.6759C34.0937 65.6759 31.0504 65.6759 27.9413 65.6759C27.7631 66.6154 27.0909 66.813 26.1882 66.8091C18.8037 66.7878 11.4173 66.7975 4.03281 66.7975C2.64968 66.7975 2.32617 66.474 2.32617 65.0889C2.32617 59.229 2.32617 53.3691 2.32617 47.5092C2.32617 46.2229 2.67486 45.8761 3.96308 45.8761C11.396 45.8761 18.8308 45.8761 26.2637 45.8761C27.5481 45.8761 27.8967 46.2248 27.8967 47.513C27.8987 52.476 27.8967 57.441 27.8967 62.404C27.8967 62.6694 27.8967 62.9329 27.8967 63.2544C30.9846 63.2544 34.0434 63.2544 37.1951 63.2544C37.1951 62.9813 37.1951 62.7004 37.1951 62.4195C37.1951 56.3659 37.1951 50.3122 37.1951 44.2586C37.1951 42.6604 37.4625 42.3892 39.0296 42.3892C47.4079 42.3892 55.7861 42.3892 64.1643 42.3892C64.4491 42.3892 64.7339 42.3892 65.0535 42.3892C65.0535 41.2173 65.0535 40.1131 65.0535 38.9023C64.8017 38.9023 64.546 38.9023 64.2922 38.9023C61.9443 38.9023 59.5946 38.9062 57.2467 38.9004C56.3304 38.8985 55.7997 38.4645 55.7997 37.74C55.7997 37.0155 56.3304 36.5797 57.2467 36.5797C61.121 36.5758 64.9954 36.5777 68.8697 36.5777C69.1312 36.5777 69.3947 36.5777 69.6969 36.5777C69.6969 31.1576 69.6969 25.7916 69.6969 20.3656C61.6228 20.3656 53.5274 20.3656 45.3835 20.3656C45.3835 25.7296 45.3835 31.113 45.3835 36.5777C46.7376 36.5777 48.0859 36.5777 49.4341 36.5777C50.3543 36.5777 51.2744 36.5661 52.1946 36.5816C52.9733 36.5952 53.4847 37.093 53.4634 37.773C53.4421 38.4258 52.9501 38.8927 52.1985 38.8946C49.56 38.9062 46.9197 38.9081 44.2813 38.8946C43.4677 38.8907 43.0163 38.4413 43.0163 37.6277C43.0086 31.5024 43.0066 25.3751 43.0163 19.2498C43.0182 18.3684 43.4948 17.981 44.5002 17.981C51.0129 17.979 57.5276 17.979 64.0404 17.979C64.3542 17.979 64.668 17.979 65.0361 17.979C65.0361 13.7289 65.0361 9.5078 65.0361 5.24023C52.6866 5.24023 40.3295 5.24023 27.9355 5.24023C27.9355 7.52609 27.9355 9.79257 27.9355 12.1675C28.2086 12.1675 28.4876 12.1675 28.7665 12.1675C39.4209 12.1675 50.0753 12.1675 60.7297 12.1675C60.9002 12.1675 61.0687 12.1675 61.2373 12.1675C62.2194 12.1733 62.7579 12.584 62.7599 13.3279C62.7599 14.0698 62.2194 14.4902 61.2392 14.4902C44.2658 14.4921 27.2904 14.4902 10.317 14.4902C10.007 14.4902 9.69708 14.4902 9.29996 14.4902C9.29996 14.8253 9.29996 15.1062 9.29996 15.389C9.29996 24.1547 9.29996 32.9204 9.29996 41.686C9.29996 41.8798 9.30577 42.0735 9.29803 42.2672C9.26703 43.0498 8.78855 43.5612 8.10861 43.5438C7.45385 43.5263 7.01024 43.0343 6.9773 42.2846C6.97149 42.1393 6.97536 41.9941 6.97536 41.8488C6.97536 29.4277 6.97536 17.0046 6.97536 4.58353C6.97536 3.19265 7.29693 2.86914 8.6762 2.86914C27.6837 2.86914 46.693 2.86914 65.7005 2.86914C67.0894 2.86914 67.4149 3.19071 67.4149 4.56997C67.413 9.00027 67.413 13.4306 67.413 17.979ZM25.5373 48.2511C18.548 48.2511 11.6168 48.2511 4.70695 48.2511C4.70695 53.6848 4.70695 59.0663 4.70695 64.4322C11.6788 64.4322 18.5925 64.4322 25.5373 64.4322C25.5373 59.0295 25.5373 53.6655 25.5373 48.2511ZM9.32902 12.1152C14.7725 12.1152 20.152 12.1152 25.5102 12.1152C25.5102 9.78095 25.5102 7.49703 25.5102 5.23248C20.0861 5.23248 14.724 5.23248 9.32902 5.23248C9.32902 7.53771 9.32902 9.80225 9.32902 12.1152Z" fill="white"/>
<path d="M28.2767 21.4579C29.3692 23.5403 29.2472 25.0746 27.9783 26.2969C26.8528 27.3817 25.1675 27.5871 23.8192 26.8006C22.4981 26.0315 21.8259 24.4721 22.1823 23.0076C22.595 21.3087 23.8522 20.3866 25.8939 20.282C25.092 19.3851 24.4779 19.2747 23.4628 19.8384C20.8418 21.2932 18.215 22.7403 15.6057 24.2183C15.3829 24.3443 15.1349 24.6639 15.1311 24.8983C15.0943 27.1009 15.1098 29.3034 15.1098 31.6551C15.3054 31.442 15.4333 31.3277 15.5301 31.1941C16.5742 29.7393 17.6087 28.2767 18.6567 26.8258C19.3211 25.9076 20.0456 25.8649 20.807 26.7037C22.2056 28.2457 23.5926 29.7993 24.9854 31.3452C25.1598 31.5389 25.3438 31.7249 25.5704 31.9651C26.3744 31.0042 27.1454 30.0802 27.9163 29.1562C28.6931 28.2263 29.2879 28.1915 30.148 29.0477C31.2909 30.1848 32.4261 31.3297 33.7046 32.614C33.7046 31.198 33.7007 29.9775 33.7065 28.7552C33.7104 27.8273 34.1211 27.2984 34.8417 27.2829C35.5856 27.2655 36.0273 27.8137 36.0292 28.7784C36.0331 30.8841 36.0156 32.9918 36.0389 35.0975C36.0466 35.8142 35.7561 36.2636 35.1342 36.6046C31.8701 38.3984 28.6137 40.2038 25.3709 42.0345C24.7084 42.4083 24.1505 42.4296 23.4783 42.05C20.2374 40.2174 16.983 38.4061 13.715 36.6201C13.0312 36.2462 12.7677 35.758 12.7735 34.9909C12.7987 31.3839 12.7968 27.7769 12.7755 24.168C12.7716 23.428 13.035 22.9592 13.6917 22.5989C16.9791 20.7993 20.2529 18.9744 23.519 17.1341C24.1331 16.7893 24.6658 16.7738 25.2837 17.1225C28.5711 18.9725 31.8759 20.7934 35.1691 22.6318C35.9827 23.0851 36.2287 23.705 35.8762 24.3443C35.5217 24.9874 34.865 25.1133 34.0572 24.6678C32.1742 23.6256 30.2952 22.5776 28.2767 21.4579ZM19.8636 29.1329C18.4359 31.134 17.0547 33.0673 15.6541 35.0297C18.5192 36.6201 21.2854 38.1601 24.0575 39.6885C24.2067 39.7718 24.4546 39.8435 24.5825 39.7757C25.6595 39.2101 26.7211 38.6095 27.8408 37.9896C25.1404 34.9929 22.5213 32.0852 19.8636 29.1329ZM27.1376 33.7298C27.9919 34.679 28.8229 35.6147 29.6714 36.5348C29.7683 36.6395 29.9969 36.7596 30.084 36.715C31.0313 36.221 31.9631 35.696 32.8871 35.1885C31.5737 33.8751 30.3475 32.647 29.1038 31.4014C29.0283 31.4808 28.9256 31.5796 28.8346 31.6881C28.2767 32.3525 27.7246 33.0228 27.1376 33.7298ZM24.414 23.7747C24.4043 24.4024 24.9254 24.939 25.553 24.9467C26.1806 24.9564 26.7153 24.4334 26.725 23.8057C26.7347 23.1781 26.2136 22.6434 25.584 22.6337C24.9583 22.6241 24.4236 23.1432 24.414 23.7747Z" fill="white"/>
<path d="M60.4384 54.0468C59.617 54.0468 58.9003 54.0468 58.1486 54.0468C58.1486 56.7356 58.1486 59.3895 58.1486 62.148C58.5012 62.148 58.8538 62.1345 59.2044 62.15C59.9754 62.1848 60.4171 62.611 60.4306 63.384C60.4519 64.4978 60.4519 65.6117 60.4306 66.7236C60.4151 67.4946 59.9715 67.946 59.1986 67.9498C56.1475 67.9634 53.0984 67.9634 50.0474 67.9498C49.2745 67.946 48.8367 67.4927 48.8212 66.7197C48.7999 65.6795 48.8096 64.6373 48.8154 63.597C48.8212 62.5548 49.2241 62.1577 50.2683 62.1461C50.5298 62.1422 50.7913 62.1461 51.0954 62.1461C51.0954 59.4224 51.0954 56.7511 51.0954 54.0449C50.3496 54.0449 49.6329 54.0449 48.8115 54.0449C48.8115 54.3994 48.8251 54.7519 48.8096 55.1026C48.7747 55.8445 48.364 56.3056 47.6473 56.3249C46.4869 56.354 45.3227 56.354 44.1623 56.3249C43.4727 56.3075 43.0213 55.86 43.0155 55.1684C42.9961 52.8438 42.9942 50.5212 43.0155 48.1966C43.0213 47.5069 43.4785 47.0905 44.1701 47.044C44.4839 47.0227 44.7996 47.0382 45.1135 47.0382C51.601 47.0382 58.0886 47.0382 64.5781 47.0382C65.9128 47.0382 66.2499 47.3752 66.2499 48.708C66.2518 50.7653 66.2537 52.8245 66.2479 54.8817C66.244 55.9239 65.8372 56.3288 64.797 56.3346C63.8536 56.3404 62.9083 56.3385 61.9649 56.3346C60.8277 56.3307 60.4481 55.9491 60.4384 54.8101C60.4364 54.5718 60.4384 54.3335 60.4384 54.0468ZM63.8904 49.4131C57.6779 49.4131 51.5235 49.4131 45.3614 49.4131C45.3614 50.957 45.3614 52.4487 45.3614 53.9693C45.743 53.9693 46.0879 53.9693 46.4927 53.9693C46.4927 53.5703 46.4753 53.21 46.4966 52.8535C46.5392 52.162 46.9576 51.7087 47.6473 51.697C49.1951 51.6719 50.7448 51.6718 52.2945 51.6951C52.9861 51.7067 53.4491 52.1523 53.453 52.84C53.4704 56.3249 53.4704 59.8099 53.4549 63.2968C53.451 64.0155 52.9783 64.4319 52.2403 64.4668C51.8877 64.4843 51.5332 64.4688 51.171 64.4688C51.171 64.8949 51.171 65.2262 51.171 65.5942C53.4859 65.5942 55.7698 65.5942 58.0673 65.5942C58.0673 65.2088 58.0673 64.862 58.0673 64.4688C57.6857 64.4688 57.3486 64.4823 57.0154 64.4668C56.2483 64.43 55.7989 64.0019 55.7969 63.227C55.7834 59.7905 55.7834 56.352 55.7969 52.9155C55.8008 52.1465 56.2541 51.7028 57.029 51.6932C58.5303 51.6738 60.0296 51.6738 61.5309 51.6932C62.3 51.7028 62.7242 52.1503 62.7591 52.9252C62.7746 53.2778 62.761 53.6303 62.761 53.9751C63.1969 53.9751 63.5281 53.9751 63.8904 53.9751C63.8904 52.4487 63.8904 50.957 63.8904 49.4131Z" fill="white"/>
<path d="M46.5267 7.51834C51.3696 7.51834 56.2125 7.51834 61.0535 7.51834C61.2956 7.51834 61.5436 7.49509 61.778 7.54158C62.3688 7.65975 62.7117 8.03556 62.7524 8.6419C62.7911 9.21142 62.3649 9.72089 61.7799 9.81775C61.5436 9.8565 61.2976 9.841 61.0554 9.841C51.3463 9.841 41.6373 9.841 31.9282 9.841C31.7113 9.841 31.4904 9.85456 31.2754 9.82744C30.6477 9.74802 30.1886 9.24048 30.2313 8.6419C30.2758 8.00069 30.6458 7.62682 31.2754 7.52996C31.4885 7.49703 31.7113 7.5164 31.9282 7.5164C36.7924 7.51834 41.6605 7.51834 46.5267 7.51834Z" fill="white"/>
<path d="M50.4096 28.4413C51.3201 29.3305 52.1395 30.1151 52.9395 30.917C53.5807 31.5602 53.6311 32.2498 53.1042 32.7573C52.5947 33.2455 51.9342 33.1913 51.3162 32.5811C50.2508 31.5292 49.1911 30.4715 48.1412 29.4022C47.4709 28.7184 47.4767 28.1488 48.1567 27.4592C49.2086 26.3918 50.2663 25.3341 51.3336 24.2823C51.9438 23.6798 52.618 23.6352 53.1197 24.137C53.6195 24.6368 53.5807 25.3148 52.9763 25.925C52.1608 26.7444 51.3259 27.5444 50.4096 28.4413Z" fill="white"/>
<path d="M64.6466 28.4336C63.7516 27.5561 62.938 26.7696 62.136 25.9676C61.489 25.3206 61.4309 24.6426 61.9539 24.1292C62.4731 23.6197 63.1375 23.6875 63.7942 24.3384C64.8248 25.3574 65.8515 26.3821 66.8685 27.4127C67.6085 28.1605 67.6085 28.7164 66.8685 29.4642C65.8321 30.5122 64.7918 31.5544 63.7419 32.5888C63.1259 33.1951 62.4576 33.2416 61.9539 32.7477C61.4464 32.2498 61.4851 31.5699 62.0876 30.9616C62.9012 30.1402 63.7322 29.3363 64.6466 28.4336Z" fill="white"/>
<path d="M60.4519 24.9859C60.4113 25.137 60.3706 25.3249 60.3105 25.507C59.5802 27.7076 58.8557 29.9102 58.1118 32.1069C57.8038 33.0174 56.9476 33.4107 56.3355 32.8586C56.0371 32.5893 55.7659 31.9694 55.8705 31.6246C56.5912 29.2438 57.4028 26.8921 58.2126 24.5384C58.4102 23.967 58.8886 23.7093 59.4853 23.8217C60.0761 23.9321 60.3764 24.3486 60.4519 24.9859Z" fill="white"/>
<path d="M12.147 57.4972C10.8878 57.4972 9.62869 57.503 8.36953 57.4953C7.50362 57.4895 6.99027 57.0575 6.97865 56.3504C6.96896 55.6434 7.48812 55.1784 8.3366 55.1765C10.9033 55.1687 13.4681 55.1707 16.0349 55.1765C16.895 55.1784 17.4161 55.6201 17.4258 56.3194C17.4355 57.0439 16.8989 57.4914 15.9942 57.4972C14.7137 57.5011 13.4313 57.4972 12.147 57.4972Z" fill="white"/>
<path d="M11.6219 59.8214C12.7106 59.8214 13.8012 59.8156 14.8899 59.8234C15.7423 59.8311 16.2653 60.2805 16.2653 60.9837C16.2653 61.685 15.7423 62.1402 14.8899 62.1441C12.7106 62.1518 10.5332 62.1518 8.35393 62.1441C7.49964 62.1402 6.97854 61.6889 6.98047 60.9837C6.98047 60.2786 7.49964 59.8311 8.35586 59.8253C9.44261 59.8156 10.5332 59.8214 11.6219 59.8214Z" fill="white"/>
<path d="M19.1775 52.848C18.2573 52.848 17.3372 52.8596 16.417 52.8441C15.6189 52.8325 15.1152 52.3695 15.1152 51.6857C15.1152 51.0019 15.6189 50.5331 16.417 50.5273C18.2573 50.5156 20.0957 50.5156 21.936 50.5273C22.7322 50.5331 23.2397 51.0019 23.2397 51.6838C23.2397 52.3656 22.7322 52.8306 21.9379 52.8441C21.0178 52.8577 20.0976 52.848 19.1775 52.848Z" fill="white"/>
<path d="M9.85927 52.848C9.35173 52.848 8.84226 52.8557 8.33472 52.8461C7.48818 52.8306 6.96708 52.3715 6.97871 51.6663C6.99033 50.9864 7.49593 50.535 8.29985 50.5273C9.34011 50.5156 10.3823 50.5156 11.4226 50.5273C12.2672 50.535 12.7902 51.0019 12.7786 51.7051C12.767 52.4044 12.2439 52.8364 11.3858 52.848C10.8763 52.8538 10.3687 52.848 9.85927 52.848Z" fill="white"/>
<path d="M20.3748 59.823C20.9308 59.823 21.4887 59.8036 22.0447 59.8269C22.7711 59.8579 23.2612 60.3596 23.2399 61.0163C23.2205 61.6439 22.7459 62.1205 22.0485 62.136C20.9114 62.1592 19.7724 62.1612 18.6352 62.136C17.9069 62.1205 17.4206 61.6033 17.44 60.9466C17.4594 60.317 17.934 59.854 18.6314 59.8269C19.2125 59.8056 19.7937 59.823 20.3748 59.823Z" fill="white"/>
<path d="M21.5732 55.1841C21.7902 55.1841 22.0149 55.1512 22.2261 55.1899C22.8518 55.3042 23.2295 55.6897 23.2315 56.3309C23.2334 56.9721 22.8556 57.3789 22.228 57.47C21.8018 57.5319 21.3582 57.5106 20.9243 57.4855C20.2347 57.4467 19.7678 56.9644 19.7659 56.3328C19.7659 55.6994 20.2327 55.2267 20.9204 55.1744C21.1374 55.1589 21.3563 55.1725 21.5732 55.1725C21.5732 55.1783 21.5732 55.1822 21.5732 55.1841Z" fill="white"/>
<path d="M12.7545 7.52387C13.3841 7.50643 13.9245 8.01978 13.94 8.64936C13.9575 9.277 13.4422 9.81941 12.8126 9.83684C12.183 9.85428 11.6445 9.34093 11.6271 8.70941C11.6116 8.0779 12.123 7.5413 12.7545 7.52387Z" fill="white"/>
<path d="M17.4032 7.52387C18.0327 7.50643 18.5732 8.01978 18.5887 8.64936C18.6061 9.277 18.0909 9.81941 17.4613 9.83684C16.8317 9.85428 16.2932 9.34093 16.2757 8.70941C16.2602 8.0779 16.7716 7.5413 17.4032 7.52387Z" fill="white"/>
<path d="M23.2411 8.70537C23.2275 9.33495 22.687 9.85217 22.0594 9.83667C21.4298 9.82118 20.9145 9.28458 20.93 8.655C20.9436 8.02349 21.4802 7.51014 22.1117 7.5237C22.7393 7.53726 23.2546 8.07579 23.2411 8.70537Z" fill="white"/>
</svg>
