<svg width="58" height="51" viewBox="0 0 58 51" fill="none" xmlns="http://www.w3.org/2000/svg">
<path d="M43.8637 27.0973L41.0284 28.7658L48.9011 42.615L31.4374 32.1383L40.0714 27.1009H40.0785L42.9281 25.4324H42.9316L48.2038 22.3552V18.8618L41.4162 22.743L38.5382 24.3865L28.6413 30.0429L18.7479 24.3865L15.8699 22.743L9.08224 18.8618V22.3552L14.358 25.4324L17.2075 27.0973L25.8486 32.1383L8.38142 42.615L16.2577 28.7658L13.4224 27.0973L0 51L28.6413 34.2336L57.2861 51L43.8637 27.0973Z" fill="url(#paint0_linear_140_251)"/>
<path d="M28.6696 0L16.873 21.0069L28.6696 27.944L40.4698 21.0069L28.6696 0ZM21.174 20.1673L28.6696 6.98689L36.1652 20.1673L28.6696 24.4505L21.174 20.1673Z" fill="url(#paint1_linear_140_251)"/>
<defs>
<linearGradient id="paint0_linear_140_251" x1="2.75414" y1="18.8618" x2="58.8137" y2="28.1691" gradientUnits="userSpaceOnUse">
<stop stop-color="#47DEB1"/>
<stop offset="1" stop-color="#FA8CFA"/>
</linearGradient>
<linearGradient id="paint1_linear_140_251" x1="18.0075" y1="-1.51051e-06" x2="41.5897" y2="1.8548" gradientUnits="userSpaceOnUse">
<stop stop-color="#47DEB1"/>
<stop offset="1" stop-color="#FA8CFA"/>
</linearGradient>
</defs>
</svg>
