<svg width="100%" height="100%" fill="none" xmlns="http://www.w3.org/2000/svg" viewBox="12.88 9.53 73.22 67.73">
<path d="M41.6305 14.1811C45.0585 8.00378 53.9415 8.0038 57.3695 14.1811L84.9505 63.883C88.2794 69.8817 83.9415 77.25 77.081 77.25H21.919C15.0585 77.25 10.7206 69.8817 14.0495 63.883L41.6305 14.1811Z" fill="#101010"/>
<path d="M64.8637 48.0973L62.0284 49.7658L69.9011 63.615L52.4374 53.1383L61.0714 48.1009H61.0785L63.9281 46.4324H63.9316L69.2038 43.3552V39.8618L62.4162 43.743L59.5382 45.3865L49.6413 51.0429L39.7479 45.3865L36.8699 43.743L30.0822 39.8618V43.3552L35.358 46.4324L38.2075 48.0973L46.8486 53.1383L29.3814 63.615L37.2577 49.7658L34.4224 48.0973L21 72L49.6413 55.2336L78.2861 72L64.8637 48.0973Z" fill="url(#paint0_linear_166_2)"/>
<path d="M49.6696 21L37.873 42.0069L49.6696 48.944L61.4698 42.0069L49.6696 21ZM42.174 41.1673L49.6696 27.9869L57.1652 41.1673L49.6696 45.4505L42.174 41.1673Z" fill="url(#paint1_linear_166_2)"/>
<defs>
<linearGradient id="paint0_linear_166_2" x1="23.7541" y1="39.8618" x2="79.8137" y2="49.1691" gradientUnits="userSpaceOnUse">
<stop stop-color="#47DEB1"/>
<stop offset="1" stop-color="#FA8CFA"/>
</linearGradient>
<linearGradient id="paint1_linear_166_2" x1="39.0075" y1="21" x2="62.5897" y2="22.8548" gradientUnits="userSpaceOnUse">
<stop stop-color="#47DEB1"/>
<stop offset="1" stop-color="#FA8CFA"/>
</linearGradient>
</defs>
</svg>