<svg fill="none" xmlns="http://www.w3.org/2000/svg" viewBox="2.45 14.42 69.67 58.05"><path d="M22.6673 49.8293C21.0323 48.1304 19.4419 46.4799 17.8554 44.8275C17.6558 44.6202 17.4389 44.411 17.2994 44.165C17.0146 43.6575 17.1251 43.1732 17.5377 42.7838C17.9542 42.3906 18.4443 42.3286 18.9305 42.6424C19.1688 42.7974 19.3664 43.0221 19.5678 43.2294C24.1144 47.9444 28.6589 52.6633 33.2016 57.3823C33.3856 57.5721 33.5503 57.7794 33.7924 58.0564C37.7384 54.2537 41.6283 50.5073 45.5607 46.7182C39.4451 42.6095 36.7059 36.9103 37.3781 29.5588C27.1131 29.5588 16.8461 29.5588 6.43773 29.5588C6.63532 29.7816 6.7748 29.9501 6.92396 30.1051C9.8084 33.0999 12.6928 36.0928 15.5792 39.0858C15.7303 39.2427 15.893 39.3899 16.0209 39.5642C16.3889 40.0679 16.3328 40.7498 15.8795 41.1372C15.3913 41.5556 14.8663 41.5421 14.3569 41.1721C14.1825 41.0462 14.0411 40.8738 13.89 40.7169C11.0714 37.7937 8.25479 34.8686 5.43815 31.9434C5.27156 31.7691 5.12433 31.5773 4.96742 31.3933C4.90349 31.4088 4.84151 31.4262 4.77758 31.4417C4.77758 31.6839 4.77758 31.926 4.77758 32.1681C4.77758 36.5423 4.77758 40.9183 4.77758 45.2924C4.77758 45.5094 4.79308 45.7302 4.76402 45.9433C4.68266 46.5264 4.19255 46.9274 3.60172 46.9196C3.01088 46.9119 2.53241 46.4993 2.47429 45.9084C2.43942 45.5481 2.46267 45.184 2.46267 44.8217C2.46267 39.4809 2.46267 34.1382 2.46267 28.7975C2.46267 27.5364 2.79005 27.2051 4.03565 27.2051C15.06 27.2051 26.0825 27.1993 37.1069 27.2187C37.7055 27.2206 37.9496 27.0521 38.1588 26.4651C40.5938 19.6386 45.3999 15.6151 52.5868 14.5922C57.0093 13.9627 61.058 15.0998 64.7193 17.6413C64.8587 17.7382 64.9982 17.8331 65.1241 17.9474C65.6104 18.3852 65.6995 19.0167 65.3527 19.5107C64.9905 20.0279 64.3299 20.1616 63.7468 19.809C63.2935 19.534 62.8731 19.2027 62.4179 18.9315C53.2048 13.4125 41.3493 19.0264 39.7589 29.6556C38.5288 37.8673 44.2919 45.5675 52.5674 46.7724C60.5311 47.9328 68.1132 42.4371 69.4963 34.516C70.2189 30.3821 69.351 26.6124 66.978 23.17C66.9509 23.1293 66.9199 23.0925 66.8928 23.0538C66.3755 22.3002 66.4085 21.6319 66.9857 21.198C67.5843 20.7486 68.303 20.8997 68.8067 21.7249C69.5331 22.9143 70.2944 24.1115 70.8175 25.3958C75.0443 35.7383 68.3282 47.4834 57.3057 49.0738C54.2353 49.5174 51.2347 49.2074 48.3463 48.051C47.9221 47.8805 47.6412 47.8979 47.339 48.2447C46.8644 48.789 46.3549 49.3062 45.7912 49.9087C52.1567 56.0456 58.5668 62.2271 65.1241 68.55C65.1241 68.1471 65.1241 67.9011 65.1241 67.6551C65.1241 61.6847 65.1241 55.7144 65.1241 49.744C65.1241 49.5271 65.1086 49.3062 65.1358 49.0912C65.2094 48.5042 65.6859 48.0974 66.2787 48.0955C66.8695 48.0936 67.3499 48.4984 67.4294 49.0854C67.4545 49.2752 67.441 49.4709 67.441 49.6646C67.441 56.7469 67.441 63.8292 67.441 70.9114C67.441 72.1105 67.0942 72.4534 65.8893 72.4553C59.1925 72.4553 52.4958 72.4553 45.799 72.4553C45.6053 72.4553 45.4096 72.4689 45.2198 72.4418C44.6347 72.3604 44.2337 71.8761 44.2396 71.2834C44.2454 70.6925 44.6561 70.2199 45.2449 70.1501C45.46 70.1249 45.6789 70.1404 45.8978 70.1404C51.409 70.1404 56.9222 70.1404 62.4334 70.1404C62.691 70.1404 62.9468 70.1404 63.3942 70.1404C56.8718 63.8505 50.4792 57.6864 44.0439 51.4797C43.8483 51.6541 43.67 51.8013 43.5034 51.9621C40.6481 54.7129 37.7946 57.4636 34.9412 60.2144C34.0075 61.1152 33.529 61.1113 32.6301 60.1795C30.0459 57.5004 27.4656 54.8175 24.8834 52.1364C24.6994 51.9466 24.5212 51.749 24.3042 51.5165C18.3397 57.7077 12.4158 63.8602 6.36605 70.1404C6.80385 70.1404 7.05956 70.1404 7.31526 70.1404C18.2661 70.1404 29.2168 70.1404 40.1696 70.1404C40.3865 70.1404 40.6054 70.1288 40.8224 70.1463C41.4636 70.1966 41.9014 70.6538 41.913 71.2737C41.9246 71.9226 41.4752 72.4031 40.7992 72.4515C40.6306 72.4631 40.4602 72.4553 40.2916 72.4553C28.2289 72.4553 16.1642 72.4553 4.10151 72.4553C2.78617 72.4553 2.46654 72.1415 2.46654 70.8514C2.46654 64.1798 2.46654 57.5082 2.46654 50.8385C2.46654 50.6448 2.45298 50.4492 2.47623 50.2593C2.54984 49.6724 3.02445 49.2617 3.61528 49.2578C4.20612 49.2539 4.69041 49.6569 4.76789 50.2419C4.79695 50.455 4.78146 50.6758 4.78146 50.8928C4.78146 56.404 4.78146 61.9152 4.78146 67.4265C4.78146 67.6822 4.78146 67.9398 4.78146 68.4047C10.8157 62.1341 16.7066 56.0185 22.6673 49.8293Z" fill="white"></path><path d="M63.8715 24.7354C64.2318 24.9659 64.6754 25.1286 64.935 25.4443C65.3224 25.9151 65.1016 26.4362 64.811 26.9185C61.8762 31.7983 58.9453 36.6799 56.0144 41.5635C55.5417 42.35 55.0671 43.1345 54.6002 43.923C54.3155 44.4034 53.9125 44.6746 53.3449 44.5893C52.7774 44.5041 52.4848 44.1283 52.3492 43.582C51.6829 40.8952 51.0242 38.2045 50.3133 35.5292C50.2009 35.1031 49.9162 34.6536 49.581 34.3669C47.6768 32.7281 45.7396 31.1299 43.8005 29.5337C43.324 29.1424 42.9366 28.724 43.1109 28.0653C43.2872 27.4048 43.8122 27.2382 44.4398 27.1665C48.442 26.7093 52.4422 26.2308 56.4425 25.7543C58.6935 25.487 60.9444 25.2119 63.1954 24.9407C63.3872 24.9174 63.579 24.9 63.7708 24.8787C63.8056 24.8322 63.8386 24.7838 63.8715 24.7354ZM60.1986 30.0335C60.156 29.9947 60.1134 29.9541 60.0708 29.9153C58.0368 31.2074 56.0008 32.4956 53.9706 33.7916C52.5391 34.704 52.5371 34.7079 52.9498 36.3583C53.2733 37.6504 53.6084 38.9406 53.9823 40.3973C56.119 36.8368 58.1588 33.4352 60.1986 30.0335ZM58.7051 27.9937C58.6973 27.9433 58.6915 27.8929 58.6838 27.8426C54.8811 28.292 51.0785 28.7395 47.0957 29.2102C48.5815 30.448 49.9278 31.5716 51.2954 32.7107C53.7827 31.1261 56.2429 29.5608 58.7051 27.9937Z" fill="white"></path><path d="M33.8291 65.4931C39.4624 65.4931 45.0957 65.4931 50.727 65.4931C50.944 65.4931 51.1668 65.4679 51.3779 65.5086C51.9707 65.619 52.3136 65.9851 52.3523 66.5953C52.3891 67.1823 51.9881 67.6956 51.4167 67.7905C51.2036 67.8254 50.9827 67.808 50.7658 67.808C39.4508 67.808 28.1377 67.808 16.8228 67.808C16.6058 67.808 16.383 67.8254 16.1719 67.7905C15.5985 67.6956 15.1994 67.1861 15.2343 66.5972C15.2711 65.9851 15.614 65.6209 16.2068 65.5086C16.4179 65.4679 16.6407 65.4931 16.8576 65.4931C22.5142 65.4931 28.1707 65.4931 33.8291 65.4931Z" fill="white"></path><path d="M34.9473 51.3146C34.9357 52.4071 34.0601 52.967 33.3027 52.5989C33.0915 52.4962 32.9036 52.3296 32.7351 52.163C26.7008 46.1346 20.6685 40.1042 14.64 34.0718C14.487 33.9188 14.3262 33.7619 14.2235 33.5759C13.9465 33.0761 14.0046 32.588 14.4114 32.1851C14.8163 31.7821 15.3083 31.7201 15.8042 32.0049C16.029 32.1347 16.2169 32.3362 16.4028 32.5221C22.3693 38.4828 28.3338 44.4434 34.2887 50.4138C34.5947 50.7218 34.8098 51.1208 34.9473 51.3146Z" fill="white"></path><path d="M21.5346 24.8784C17.6177 24.8784 13.7027 24.8803 9.78572 24.8745C9.5242 24.8745 9.24138 24.8823 9.00311 24.7932C8.46845 24.5917 8.21274 24.1675 8.27473 23.5941C8.33672 23.0207 8.6796 22.6816 9.24138 22.577C9.40604 22.546 9.57844 22.5635 9.74892 22.5635C17.6545 22.5635 25.56 22.5635 33.4656 22.5635C33.5625 22.5635 33.6593 22.5596 33.7562 22.5654C34.4904 22.5984 34.9592 23.0594 34.9495 23.7393C34.9398 24.4115 34.4691 24.8706 33.7213 24.8765C32.005 24.8881 30.2887 24.8803 28.5723 24.8803C26.2245 24.8784 23.8805 24.8784 21.5346 24.8784Z" fill="white"></path><path d="M9.41989 50.4641C9.41989 53.1238 9.41602 55.7816 9.42183 58.4414C9.42376 59.0516 9.15063 59.4739 8.57916 59.6443C8.06969 59.7954 7.59702 59.6443 7.31419 59.1833C7.17278 58.9528 7.11273 58.639 7.11273 58.3639C7.1011 53.0696 7.10304 47.7773 7.10498 42.483C7.10498 41.621 7.53697 41.1289 8.2634 41.1309C8.9879 41.1328 9.41602 41.6248 9.41795 42.4888C9.42376 45.1466 9.41989 47.8044 9.41989 50.4641Z" fill="white"></path><path d="M30.9244 17.9238C33.3187 17.9238 35.7111 17.9219 38.1054 17.9238C39.0953 17.9238 39.599 18.3267 39.5893 19.0977C39.5796 19.8435 39.0876 20.2368 38.1442 20.2368C33.309 20.2387 28.4738 20.2387 23.6387 20.2368C22.6972 20.2368 22.2032 19.8435 22.1936 19.0977C22.1819 18.3248 22.6856 17.9238 23.6735 17.9219C26.0892 17.9219 28.5068 17.9238 30.9244 17.9238Z" fill="white"></path><path d="M29.1884 34.1611C27.689 34.1611 26.1916 34.1669 24.6923 34.1592C23.836 34.1553 23.3459 33.7156 23.3556 32.9852C23.3653 32.2859 23.8457 31.8501 24.6554 31.8501C27.6522 31.8443 30.651 31.8443 33.6478 31.8501C34.4556 31.852 34.9399 32.2879 34.9495 32.9872C34.9592 33.7156 34.4653 34.1572 33.611 34.1611C32.1368 34.165 30.6626 34.1611 29.1884 34.1611Z" fill="white"></path><path d="M62.8 55.0617C62.8 56.1736 62.8078 57.2855 62.7981 58.3975C62.7903 59.1975 62.3467 59.6818 61.6474 59.6857C60.9462 59.6876 60.4909 59.2033 60.489 58.4072C60.4812 56.16 60.4793 53.911 60.489 51.6639C60.4929 50.8735 60.9655 50.397 61.6745 50.4125C62.3467 50.428 62.7884 50.9006 62.7981 51.6542C62.8097 52.7894 62.8 53.9246 62.8 55.0617Z" fill="white"></path><path d="M32.6723 36.4874C33.422 36.4874 34.1717 36.4739 34.9213 36.4913C35.6536 36.5088 36.1205 36.9872 36.1088 37.6672C36.0972 38.3123 35.64 38.7888 34.9485 38.7965C33.4007 38.814 31.8548 38.8159 30.307 38.7965C29.6155 38.7888 29.1641 38.3084 29.1563 37.6594C29.1486 36.9795 29.6155 36.5088 30.3516 36.4933C31.1245 36.4739 31.8994 36.4874 32.6723 36.4874Z" fill="white"></path></svg>