<svg width="201" height="201" viewBox="0 0 201 201" fill="none" xmlns="http://www.w3.org/2000/svg">
<path d="M86.2853 69.6596C82.9456 67.1171 79.3663 66.3929 75.5055 67.6068C71.1551 68.9771 68.3416 72.8118 68.0863 77.3811C68.0446 78.147 67.8206 79.1004 67.3152 79.611C62.8657 84.1751 58.3329 88.6662 53.8209 93.173C53.6594 93.3345 53.4614 93.4596 53.1436 93.7149C52.2006 83.6541 54.7431 75.2397 62.9439 69.0813C65.8043 66.9347 68.7323 64.8611 71.4312 62.5217C76.8393 57.8326 79.0068 51.5752 79.9238 44.6353C81.466 32.9594 81.0023 21.2366 81.0648 9.52415C81.0752 7.53388 79.7205 6.22613 77.9491 6.23655C76.1777 6.24697 74.8803 7.55993 74.8647 9.56063C74.823 15.2241 75.0523 20.9031 74.7917 26.5561C74.4791 33.371 73.9633 40.1911 73.1766 46.9695C72.5775 52.1119 69.7848 56.1706 65.6323 59.2706C63.1835 61.0994 60.6983 62.8865 58.3225 64.8038C50.7678 70.8892 46.9488 78.8347 46.7716 88.5256C46.7091 91.8444 46.7039 95.1685 46.7872 98.4874C46.8185 99.7691 46.4225 100.665 45.5003 101.535C39.5295 107.183 35.1947 113.889 32.6365 121.725C31.9539 123.814 32.5479 125.497 34.2099 126.148C35.8876 126.805 37.7112 126.122 38.2999 124.241C41.0769 115.347 46.8393 108.59 53.451 102.359C57.0408 98.9771 60.4222 95.3717 64.0641 91.9278C63.0742 95.9552 63.8244 99.5398 66.393 102.838C65.8876 103.109 65.5073 103.312 65.1269 103.52C58.6299 107.089 57.2023 115.41 62.3343 120.797C67.0912 125.789 72.0356 130.603 76.9331 135.464C78.5066 137.027 80.252 137.084 81.5962 135.761C82.9821 134.396 82.8779 132.614 81.2315 130.952C76.8393 126.513 72.4159 122.1 68.0029 117.676C67.5445 117.218 67.0703 116.765 66.6639 116.259C65.0905 114.311 65.1478 111.758 66.7785 110.023C68.4249 108.272 71.1499 108.105 73.1506 109.663C73.6612 110.059 74.1144 110.533 74.5729 110.992C79.3558 115.78 84.1387 120.568 88.9217 125.356C90.1044 126.544 91.459 126.95 92.97 126.039C94.3194 125.226 94.7414 123.918 94.2777 122.491C94.0328 121.735 93.3972 121.063 92.8189 120.474C86.0822 113.68 79.3246 106.912 72.5722 100.139C72.2023 99.7691 71.8272 99.4148 71.4729 99.0292C69.4722 96.8306 69.4201 94.0692 71.3374 92.2196C73.2079 90.4169 76.1151 90.4794 78.1575 92.5061C84.3888 98.6958 90.5785 104.932 96.7838 111.148C99.1075 113.477 100.723 113.821 102.286 112.331C103.906 110.789 103.578 109.08 101.186 106.688C92.9543 98.4457 84.7119 90.2137 76.5163 81.9452C75.7139 81.1376 74.9481 80.1529 74.5625 79.1056C73.88 77.2456 74.698 75.2397 76.2818 74.1039C77.8293 72.9994 79.9915 72.9264 81.5962 74.0153C82.237 74.4478 82.7945 75.0105 83.3468 75.5627C91.5788 83.8 99.8057 92.0476 108.038 100.29C108.496 100.749 108.934 101.249 109.455 101.629C110.862 102.661 112.258 102.551 113.514 101.363C114.623 100.316 114.712 98.5343 113.743 97.2734C113.347 96.7628 112.862 96.32 112.399 95.8563C106.423 89.8698 100.447 83.8833 94.4705 77.8917C93.9182 77.3394 93.3451 76.7923 92.9022 76.1619C91.5372 74.2185 91.8133 71.7333 93.5066 70.1181C95.2051 68.4978 97.6539 68.3623 99.5556 69.8368C100.118 70.2692 100.613 70.8007 101.119 71.306C111.096 81.2991 121.073 91.2869 131.04 101.29C132.171 102.426 133.302 103.531 135.094 102.989C136.886 102.447 137.178 100.884 137.553 99.3314C138.699 94.5902 139.033 89.9115 136.454 85.5089C135.641 84.1178 134.573 82.8674 133.541 81.6169C130.384 77.7822 130.598 72.6346 134.464 68.9615C138.918 73.8278 143.696 78.4544 147.692 83.6697C149.641 86.2123 150.323 89.8125 151.235 93.0323C151.907 95.3978 152.954 96.7263 154.877 96.4919C156.888 96.247 157.857 94.5954 157.466 92.0528C156.419 85.2692 153.449 79.4703 148.588 74.6301C146.145 72.197 143.696 69.769 141.32 67.2682C140.836 66.7576 140.434 65.9552 140.403 65.2675C140.075 58.3484 138.475 51.7732 135.422 45.5471C132.327 39.2428 130.915 32.5686 131.02 25.5401C131.098 20.3977 131.046 15.2501 131.03 10.1025C131.025 7.63808 129.853 6.21571 127.899 6.22613C125.955 6.23655 124.778 7.66414 124.804 10.139C124.872 17.2977 124.814 24.4668 125.122 31.6152C125.372 37.3984 127.399 42.7544 129.634 48.074C131.285 51.9972 132.333 56.181 133.588 60.2658C133.828 61.0473 133.771 61.9174 133.849 62.7354C125.955 64.0848 121.652 77.1935 128.55 85.4464C129.967 87.1397 130.895 89.2654 131.952 91.2401C132.223 91.7506 132.14 92.454 132.281 93.5065C131.436 92.7145 130.91 92.256 130.42 91.7663C122.142 83.4822 113.654 75.3908 105.662 66.8357C99.6702 60.4481 90.1825 61.2609 86.2853 69.6596Z" fill="white"/>
<path d="M96.8358 155.533C91.7975 154.679 87.2439 154.199 82.6433 155.304C77.6103 156.513 73.4057 159.284 69.7326 162.666C60.5992 171.075 51.6846 179.729 42.7284 188.326C41.2852 189.712 41.3685 191.598 42.6555 192.848C43.9945 194.151 45.7451 194.083 47.3185 192.52C52.1692 187.711 56.8792 182.751 61.8392 178.057C66.0803 174.034 70.6183 170.325 74.974 166.422C80.8354 161.171 87.5877 159.936 95.1425 161.494C98.18 162.119 101.327 162.187 104.422 162.551C105.042 162.624 105.672 162.822 106.235 163.088C109.924 164.828 113.508 166.839 117.301 168.314C123.34 170.663 128.665 173.993 133.223 178.588C137.621 183.022 142.044 187.43 146.462 191.853C146.874 192.265 147.27 192.708 147.728 193.067C149.104 194.14 150.86 194.073 151.954 192.853C153.105 191.572 153.34 189.993 152.11 188.795C144.899 181.766 138.574 173.753 130.165 168.064C126.601 165.656 122.579 163.796 118.546 162.249C112.18 159.805 106.558 156.382 101.78 151.527C98.1748 147.864 94.5589 144.206 90.8389 140.663C90.073 139.934 88.7652 139.262 87.817 139.387C86.8896 139.507 85.6079 140.544 85.3734 141.424C85.1129 142.393 85.5297 143.941 86.2279 144.706C89.0779 147.827 92.1518 150.74 95.1372 153.736C95.5853 154.189 96.0178 154.668 96.8358 155.533Z" fill="white"/>
<path d="M149.724 111.012C149.745 117.645 151.271 122.735 154.726 127.018C159.212 132.582 163.797 138.089 168.684 143.3C174.691 149.703 181.042 155.783 187.258 161.988C187.758 162.489 188.284 163.01 188.889 163.353C190.165 164.078 191.436 163.88 192.468 162.869C193.562 161.801 193.812 160.477 193.005 159.133C192.614 158.477 192.025 157.924 191.483 157.372C183.157 148.864 174.753 140.429 166.527 131.827C163.974 129.159 161.796 126.117 159.597 123.136C156.482 118.901 155.398 114.118 156.247 108.913C156.372 108.142 156.466 107.365 156.539 106.589C156.726 104.609 155.695 103.15 153.929 102.869C152.308 102.608 150.802 103.676 150.469 105.542C150.078 107.709 149.865 109.913 149.724 111.012Z" fill="white"/>
<path d="M6.18961 154.762C6.1323 157.784 8.5967 159.321 10.6912 158.222C11.0298 158.044 11.3581 157.805 11.6238 157.534C17.5686 151.532 23.5185 145.535 29.4268 139.496C30.422 138.48 31.2817 137.313 32.0736 136.131C33.1208 134.557 32.777 132.827 31.365 131.822C30.0312 130.874 28.3796 131.108 27.1552 132.384C20.7259 139.085 14.281 145.769 7.87247 152.49C7.10137 153.293 6.53348 154.293 6.18961 154.762Z" fill="white"/>
</svg>
