<svg width="75" height="75" viewBox="0 0 75 75" fill="none" xmlns="http://www.w3.org/2000/svg">
<path d="M8.28525 39.5091C8.28525 47.2885 8.28525 54.9788 8.28525 62.7137C18.3253 62.7137 28.3401 62.7137 38.4324 62.7137C38.4324 62.4386 38.4324 62.179 38.4324 61.9214C38.4324 58.483 38.4363 55.0447 38.4286 51.6083C38.4266 50.9613 38.6223 50.4518 39.2867 50.2658C40.1042 50.0373 40.7473 50.6087 40.7492 51.5695C40.757 54.45 40.7531 57.3324 40.7531 60.2129C40.7531 61.0323 40.7531 61.8517 40.7531 62.7582C41.495 62.7582 42.1866 62.7505 42.8781 62.7602C43.7866 62.7737 44.2244 63.1922 44.2283 64.0871C44.2341 65.0537 44.3 66.0358 44.1682 66.9869C43.7518 70.0282 41.3594 72.0525 38.2445 72.0544C28.3111 72.0622 18.3776 72.0583 8.44408 72.0525C8.03535 72.0525 7.62275 72.0176 7.22177 71.944C4.47495 71.4365 2.51653 69.1294 2.46036 66.34C2.44486 65.5903 2.4468 64.8387 2.45842 64.089C2.47392 63.1902 2.89815 62.7737 3.80859 62.7602C4.4827 62.7505 5.15682 62.7582 5.93553 62.7582C5.93553 62.4444 5.93553 62.1636 5.93553 61.8846C5.93553 54.2098 5.93553 46.535 5.93553 38.8601C5.93553 37.5177 6.2687 37.1826 7.59562 37.1826C10.8577 37.1826 14.1217 37.1826 17.3838 37.1826C17.4323 37.1826 17.4807 37.1826 17.5291 37.1826C18.5132 37.1884 19.0497 37.5894 19.0575 38.3294C19.0672 39.0771 18.5267 39.5052 17.5601 39.5071C15.4332 39.511 13.3062 39.5071 11.1793 39.5071C10.2417 39.5091 9.30223 39.5091 8.28525 39.5091ZM36.1641 69.6892C40.3676 70.0437 42.5217 68.2887 41.8185 65.139C29.4811 65.139 17.1436 65.139 4.78682 65.139C4.78682 65.6271 4.76358 66.063 4.7907 66.4949C4.87787 67.9206 5.87742 69.2708 7.26827 69.5536C8.33174 69.7706 9.44944 69.7202 10.5381 69.79C10.6679 67.9032 10.9061 67.3821 11.6926 67.4286C13.1997 67.5158 12.8297 68.7517 12.9246 69.6931C19.8924 69.6931 26.8156 69.6931 33.733 69.6931C33.9422 67.8277 34.1631 67.4189 34.9476 67.4151C35.7496 67.4112 35.9781 67.8354 36.1641 69.6892Z" fill="white"/>
<path d="M45.1534 43.38C43.4933 40.4976 41.8874 37.712 40.2854 34.9264C40.1653 34.7172 40.0259 34.51 39.9522 34.2833C39.776 33.7332 39.9464 33.2663 40.4307 32.9622C40.9111 32.662 41.407 32.6968 41.8274 33.092C41.9998 33.2528 42.1237 33.4717 42.2438 33.6789C44.0318 36.7783 45.8178 39.8796 47.5999 42.9829C48.2779 44.1645 48.0804 44.7263 46.8212 45.2009C41.3567 47.26 35.8901 49.3172 30.4256 51.3764C30.2473 51.4442 30.073 51.5236 29.8464 51.6185C30.5786 52.9047 31.3263 54.1425 31.9985 55.421C32.8741 57.0889 32.2736 59.0938 30.6735 60.0294C29.0754 60.965 27.055 60.4866 26.0128 58.9175C25.8385 58.656 25.6893 58.379 25.5324 58.1059C24.8932 56.9978 24.2559 55.8898 23.5992 54.7508C23.2021 54.9697 22.8515 55.1731 22.4892 55.3571C20.7013 56.2637 18.9889 56.1475 17.4043 54.9019C17.075 54.6443 16.8774 54.6675 16.5249 54.8302C15.812 55.1595 15.0759 55.547 14.3146 55.6399C12.7378 55.8317 11.3605 54.8535 10.8356 53.3658C10.3048 51.8606 10.7872 50.1812 12.1722 49.3598C13.0768 48.8252 13.5243 48.3467 13.4119 47.1632C13.2686 45.6696 14.0647 44.4241 15.2871 43.5117C15.3452 43.4691 15.4033 43.4226 15.4672 43.3897C20.8078 40.7688 25.0559 36.6563 29.61 32.9642C31.9384 31.0755 34.2378 29.148 36.5487 27.2381C37.5309 26.4264 38.1701 26.5426 38.821 27.6584C39.1251 28.1814 39.4389 28.6986 39.7217 29.2313C40.0723 29.8938 39.9154 30.5486 39.3537 30.8837C38.7803 31.2246 38.1488 31.0503 37.7304 30.4265C37.5851 30.2076 37.4573 29.9771 37.2635 29.6594C32.4072 33.6712 27.5916 37.65 22.7159 41.6773C23.4694 42.9867 24.2133 44.2788 24.959 45.5708C25.1876 45.968 25.4317 46.3593 25.6467 46.766C25.9993 47.4382 25.8559 48.0852 25.298 48.4242C24.7169 48.7787 24.0331 48.5947 23.636 47.9206C22.7507 46.4212 21.8926 44.9084 21.0209 43.3994C20.9608 43.2947 20.893 43.196 20.7749 43.01C19.9807 43.4652 19.1942 43.9146 18.4097 44.366C17.8654 44.6798 17.3133 44.98 16.7825 45.3151C15.659 46.0261 15.3142 47.3104 15.9612 48.4785C16.6876 49.7899 17.4372 51.0897 18.2102 52.372C18.9269 53.5633 20.2461 53.9837 21.3967 53.2224C26.1717 50.0591 31.6479 48.5424 36.8936 46.4852C39.6094 45.4275 42.3543 44.4318 45.1534 43.38ZM25.5925 53.6002C26.3925 54.991 27.1228 56.2947 27.8879 57.5809C28.2444 58.1814 28.8875 58.3538 29.4473 58.0671C29.9723 57.7979 30.2512 57.1296 29.951 56.5775C29.2052 55.206 28.4013 53.8675 27.5858 52.4592C26.8961 52.8544 26.2782 53.2069 25.5925 53.6002ZM14.5006 50.6364C13.8052 51.078 12.8947 51.2369 12.9393 52.2132C12.9567 52.5696 13.2686 53.0616 13.5824 53.2244C14.3727 53.6331 14.9616 53.019 15.6377 52.6103C15.2619 51.9556 14.9035 51.3357 14.5006 50.6364Z" fill="white"/>
<path d="M72.0905 12.8452C72.0905 15.0728 72.0963 17.3005 72.0885 19.5282C72.0808 21.7578 70.6299 23.228 68.4216 23.2319C63.9023 23.2397 59.3811 23.2397 54.8618 23.2319C52.6865 23.228 51.2123 21.7597 51.2046 19.5921C51.1949 17.4129 51.1988 15.2336 51.2046 13.0544C51.2065 12.1381 51.6424 11.6093 52.3688 11.6132C53.0913 11.617 53.5194 12.1478 53.5214 13.0679C53.5252 15.1987 53.5194 17.3296 53.5252 19.4604C53.5272 20.5006 53.9359 20.9055 54.98 20.9074C59.4276 20.9113 63.8752 20.9113 68.3228 20.9074C69.3611 20.9074 69.7698 20.4967 69.7698 19.4526C69.7737 14.9973 69.7737 10.5419 69.7698 6.08658C69.7698 5.04442 69.3611 4.63569 68.3209 4.63375C63.8733 4.62988 59.4257 4.62988 54.9781 4.63375C53.932 4.63375 53.533 5.03861 53.5252 6.08077C53.5194 6.73358 53.5388 7.38832 53.5175 8.04113C53.4942 8.78304 53.0216 9.27313 52.3668 9.277C51.7102 9.27894 51.2278 8.79079 51.2104 8.05081C51.191 7.22754 51.1775 6.40233 51.2162 5.581C51.2995 3.82598 52.7485 2.33828 54.5054 2.32472C59.2668 2.28792 64.0282 2.28598 68.7896 2.32472C70.6357 2.34022 72.0692 3.90152 72.0866 5.79795C72.106 8.14766 72.0885 10.4974 72.0905 12.8452Z" fill="white"/>
<path d="M61.6319 38.3472C63.879 38.3472 66.128 38.3433 68.375 38.3472C70.6376 38.353 72.0807 39.8019 72.0865 42.08C72.0923 44.2825 72.0962 46.4869 72.0826 48.6894C72.0788 49.472 71.5771 49.9814 70.8991 49.964C70.2443 49.9466 69.8007 49.4565 69.7697 48.7049C69.762 48.5364 69.7678 48.3659 69.7678 48.1974C69.7678 46.1886 69.7717 44.1779 69.7659 42.1691C69.7639 41.0727 69.3707 40.6736 68.2898 40.6717C63.8674 40.6678 59.443 40.6678 55.0206 40.6717C53.9242 40.6717 53.5232 41.0649 53.5232 42.1458C53.5193 46.576 53.5193 51.0081 53.5232 55.4383C53.5232 56.5637 53.9145 56.9434 55.0652 56.9434C59.4643 56.9453 63.8635 56.9453 68.2627 56.9434C69.3862 56.9434 69.7639 56.5482 69.7697 55.4015C69.7717 54.7971 69.7601 54.1908 69.7736 53.5864C69.793 52.7961 70.2637 52.2905 70.9475 52.3002C71.6042 52.3098 72.0691 52.7999 72.0865 53.5457C72.1059 54.3438 72.1136 55.1438 72.0826 55.9419C72.011 57.7376 70.564 59.2389 68.7702 59.2524C64.034 59.2892 59.2958 59.2873 54.5576 59.2544C52.7309 59.2428 51.2277 57.7299 51.2161 55.9012C51.1851 51.1805 51.1871 46.4578 51.2142 41.7371C51.2258 39.8426 52.76 38.3685 54.6739 38.3491C56.9926 38.3317 59.3132 38.3472 61.6319 38.3472Z" fill="white"/>
<path d="M2.45947 23.2338C2.45947 20.2545 2.45753 17.2753 2.46141 14.2979C2.46334 13.157 2.84495 12.7734 3.98203 12.7734C8.3812 12.7715 12.7823 12.7715 17.1815 12.7734C18.3186 12.7734 18.7041 13.1589 18.706 14.2979C18.7079 20.2565 18.7079 26.2131 18.706 32.1716C18.706 33.3106 18.3186 33.6981 17.1834 33.6981C12.7843 33.7 8.38314 33.7 3.98397 33.6981C2.84689 33.6981 2.46335 33.3126 2.46141 32.1716C2.45753 29.1904 2.45947 26.2131 2.45947 23.2338ZM16.333 31.3406C16.333 25.8973 16.333 20.516 16.333 15.1561C12.4549 15.1561 8.62915 15.1561 4.81886 15.1561C4.81886 20.58 4.81886 25.9458 4.81887 31.3406C8.6679 31.3406 12.4763 31.3406 16.333 31.3406Z" fill="white"/>
<path d="M21.0274 11.6056C21.0468 5.80587 25.7462 1.12 31.511 1.14906C37.2952 1.18005 41.9346 5.87948 41.9114 11.6869C41.8901 17.4459 37.1558 22.1008 31.3541 22.0698C25.6726 22.0388 21.008 17.3123 21.0274 11.6056ZM39.5927 11.5823C39.5849 7.10954 35.9218 3.45422 31.4645 3.47165C26.953 3.49102 23.3384 7.14247 23.35 11.6695C23.3616 16.0938 27.0208 19.7434 31.4432 19.7434C35.9586 19.7434 39.6004 16.0977 39.5927 11.5823Z" fill="white"/>
<path d="M57.0041 48.7726C57.0234 46.204 59.1271 44.139 61.6996 44.1603C64.2527 44.1816 66.3157 46.3066 66.2828 48.883C66.2518 51.4129 64.1617 53.4642 61.6241 53.4584C59.0651 53.4526 56.9828 51.3412 57.0041 48.7726ZM63.9622 48.7978C63.9602 47.5406 62.9064 46.4868 61.6512 46.4868C60.3804 46.4868 59.3402 47.5154 59.3267 48.7823C59.3131 50.0782 60.3785 51.1436 61.6725 51.1281C62.9374 51.1145 63.9641 50.0685 63.9622 48.7978Z" fill="white"/>
<path d="M61.6457 11.5801C63.455 11.6712 63.9373 11.923 63.9606 12.7405C63.9838 13.5754 63.4782 13.8543 61.6457 13.9705C61.6457 15.065 61.6419 16.1672 61.6477 17.2714C61.6496 17.9377 61.3571 18.3949 60.7043 18.5537C59.9953 18.7261 59.3503 18.1663 59.3328 17.3508C59.3096 16.2408 59.327 15.1309 59.327 13.9841C58.3856 13.8349 57.0296 14.2514 57.047 12.7502C57.0645 11.3031 58.3682 11.6886 59.3309 11.5801C59.3309 11.1152 59.3135 10.6852 59.3348 10.2552C59.4239 8.49627 60.8496 7.05312 62.6065 6.97177C63.4259 6.93302 64.2511 6.94465 65.0725 6.96595C65.8086 6.98532 66.2948 7.47735 66.2851 8.1379C66.2754 8.79264 65.7853 9.25755 65.0395 9.27886C64.4119 9.29823 63.7824 9.28079 63.1547 9.28467C62.0293 9.29048 61.6535 9.6779 61.6496 10.8266C61.6457 11.0629 61.6457 11.2993 61.6457 11.5801Z" fill="white"/>
<path d="M50.1202 36.0225C49.3454 36.0166 48.8437 35.6079 48.7662 34.9842C48.6926 34.3817 49.111 33.8451 49.7928 33.7037C51.6602 33.3202 53.5295 32.9405 55.4008 32.5705C56.2357 32.4059 56.84 32.7429 56.9911 33.4267C57.1519 34.1531 56.7432 34.7052 55.8676 34.8892C54.0719 35.265 52.2723 35.6254 50.4747 35.9876C50.3333 36.0166 50.1861 36.0147 50.1202 36.0225Z" fill="white"/>
<path d="M47.8579 20.772C47.6506 21.2039 47.5654 21.4868 47.4008 21.7115C46.314 23.1856 45.2157 24.6539 44.1077 26.1126C43.5924 26.7906 42.9183 26.9087 42.3604 26.4613C41.8219 26.0293 41.7696 25.3862 42.2577 24.7275C43.3619 23.236 44.4738 21.7502 45.5934 20.2703C45.9285 19.8267 46.4109 19.569 46.9165 19.8422C47.2923 20.0417 47.5518 20.4562 47.8579 20.772Z" fill="white"/>
<path d="M52.5254 26.6992C52.2465 27.1002 52.0934 27.4779 51.8145 27.6949C50.3326 28.8494 48.8255 29.9729 47.3107 31.0867C46.7025 31.5342 46.0516 31.4393 45.6429 30.9085C45.2206 30.3603 45.329 29.6901 45.9644 29.2077C47.4405 28.0842 48.9282 26.9762 50.412 25.8624C50.8324 25.5466 51.3089 25.4052 51.7467 25.7326C52.0469 25.9553 52.2348 26.3273 52.5254 26.6992Z" fill="white"/>
<path d="M10.5845 22.0733C11.3342 22.0733 12.0839 22.0578 12.8316 22.0771C13.5716 22.0984 14.0578 22.5769 14.0578 23.2355C14.0558 23.8941 13.5696 24.3803 12.8277 24.3881C11.3284 24.4075 9.831 24.4075 8.33168 24.3881C7.59171 24.3784 7.10549 23.8883 7.10743 23.2297C7.10936 22.5692 7.59364 22.0965 8.33749 22.0771C9.08521 22.0578 9.83488 22.0733 10.5845 22.0733Z" fill="white"/>
<path d="M10.5807 29.0452C9.831 29.0452 9.08134 29.0607 8.33362 29.0413C7.59171 29.02 7.10549 28.5435 7.10743 27.8849C7.10743 27.2243 7.59171 26.74 8.33362 26.7303C9.83294 26.711 11.3303 26.711 12.8296 26.7303C13.5716 26.74 14.0578 27.2243 14.0578 27.8849C14.0578 28.5435 13.5696 29.022 12.8296 29.0413C12.08 29.0607 11.3303 29.0452 10.5807 29.0452Z" fill="white"/>
<path d="M11.7484 19.7393C11.3378 19.7393 10.9251 19.7664 10.5164 19.7335C9.87329 19.6812 9.43163 19.1949 9.42776 18.5886C9.42389 17.9823 9.86361 17.469 10.5048 17.438C11.3242 17.3993 12.1494 17.3993 12.9688 17.4361C13.6119 17.4651 14.0536 17.9707 14.0575 18.577C14.0613 19.1795 13.6177 19.6773 12.9804 19.7315C12.5717 19.7664 12.1591 19.7393 11.7484 19.7393Z" fill="white"/>
<path d="M27.9914 11.5608C27.9913 10.4722 27.9778 9.38351 27.9952 8.29486C28.0127 7.18102 28.8166 6.6735 29.818 7.16552C32.0477 8.26193 34.2792 9.35833 36.4739 10.5245C36.8323 10.7143 37.2139 11.2528 37.2101 11.6247C37.2042 11.9986 36.811 12.5197 36.4488 12.7134C34.2521 13.8757 32.0225 14.9759 29.7909 16.0685C28.7972 16.5547 28.0107 16.0317 27.9952 14.9023C27.9797 13.7866 27.9914 12.6747 27.9914 11.5608ZM30.3314 13.2074C31.4162 12.6592 32.3925 12.1671 33.5024 11.6073C32.377 11.0436 31.3832 10.5458 30.3314 10.0189C30.3314 11.1153 30.3314 12.1013 30.3314 13.2074Z" fill="white"/>
</svg>
