<svg width="545" height="556" viewBox="0 0 545 556" fill="none" xmlns="http://www.w3.org/2000/svg">
<path fill-rule="evenodd" clip-rule="evenodd" d="M537.63 120.822L526.311 117.255C526.349 113.979 526.383 110.702 526.414 107.426C526.529 99.8355 525.705 92.2605 523.961 84.8731L523.719 84.712L505.482 96.0927C506.279 84.3815 511.116 75.0547 516.254 65.9171L516.208 65.7211C502.873 61.3302 493.464 52.3362 482.649 43.8493L467.585 33.7232C461.708 29.2851 453.471 24.3248 445.791 23.1997L445.804 23.0077C450.99 15.9427 456.183 8.89038 461.382 1.85055L461.185 1.04147C457.664 0.560916 453.234 -0.343227 449.364 0.598997L442.704 2.89445L433.092 12.1254C426.496 18.6202 419.884 24.8126 414.016 31.586L394.526 50.7532L373.78 74.2229C364.295 84.4269 354.411 93.3983 345.434 103.902C335.608 115.397 327.118 128.309 317.879 140.193L279.241 189.267L257.296 219.044L239.036 239.597L217.928 266.623L208.963 275.898L195.051 298.771L177.467 317.007L160.031 334.144L142.81 353.599L120.411 374.099C118.181 376.262 115.897 378.312 113.609 380.266L114.694 379.364L115.098 379.258L104.839 388.433L104.492 387.879L109.901 383.425C107.835 385.117 105.772 386.761 103.737 388.346L104.282 388.842L98.3214 393.957C97.4812 394.093 97.9533 394.233 97.2234 393.81L103.444 388.592C100.135 391.199 96.915 393.741 93.8572 396.378C94.7686 395.734 95.6234 395.014 96.4124 394.225L97.0028 394.928L91.5329 399.209C91.676 398.516 92.0351 397.886 92.5585 397.411C79.4948 408.866 70.1114 421.813 72.9011 446.486C66.4509 450.484 60.145 456.962 55.114 462.225C52.3252 465.158 48.7731 466.917 46.3998 469.938C44.5983 472.166 44.3331 477.657 47.5001 480.32C42.2836 489.609 37.0693 498.866 31.8572 508.091C28.869 511.829 25.2898 514.696 21.8438 518.259C18.3979 521.821 15.4899 525.975 12.318 529.581C11.0969 530.963 9.74878 532.227 8.29151 533.357L8.76878 533.245L9.56796 533.89L6.87118 536.708L6.31766 537.057L5.2765 536.25L7.85531 533.75C2.77033 537.683 -1.10654 539.613 1.69552 549.942C4.04588 551.862 8.32671 554.793 11.3671 555.422C18.4461 556.169 31.4314 546.396 34.8019 543.587C44.7959 535.298 54.119 527.132 62.2138 517.726C67.3 511.828 71.773 504.32 77.845 499.333C78.2928 507.09 84.1898 512.289 87.9031 515.773C92.8082 520.325 98.8831 522.909 104.082 526.855C113.588 534.059 122.18 541.069 136.282 540.738C143.519 540.579 149.176 538.855 156.021 538.79C166.385 538.699 180.162 541.18 176.506 525.356L176.714 525.31C184.268 536.07 203.416 532.358 209.017 520.841C210.415 517.995 208.24 513.326 208.62 509.868L214.033 494.023L227.758 468.063C236.7 448.399 244.383 428.186 250.759 407.545C254.729 394.056 257.843 380.329 260.083 366.446C261.134 360.201 261.185 353.779 262.881 348.145C262.661 348.699 262.395 349.233 262.086 349.742L262.191 350.147L261.995 350.194C262.2 347.182 263.548 345.068 264.297 342.382C264.587 342.728 264.376 343.871 263.987 345.17C264.228 344.608 264.498 344.059 264.797 343.525C268.211 337.429 273.898 332.608 278.875 327.438C290.357 315.501 302.28 303.992 315.145 292.801C342.552 268.964 373.182 246.601 403.714 224.629C422.557 211.071 441.999 199.158 460.318 185.335L518.328 139.713L544.584 119.511L544.836 118.817L537.63 120.822ZM526.764 118.202L537.03 120.962L537.017 121.166L522.295 133.798L524.502 128.982C525.657 125.456 525.07 121.33 526.764 118.202ZM165.197 528.01L165.151 527.802C165.326 525.222 165.419 522.625 165.547 520.03L173.862 523.501L171.656 528.305L165.197 528.01ZM171.148 529.054C171.321 530.573 171.482 532.102 171.644 533.62L165.233 534.39L164.84 534.496L165.091 528.678L164.986 528.273L171.148 529.054ZM37.2295 535.519C34.4004 537.569 31.579 539.623 28.7653 541.682L24.5003 536.57L32.5168 531.148L32.6198 530.697L32.365 530.547L24.5572 535.911L23.0022 528.849L28.8596 524.185C30.3533 525.419 31.0576 528.167 32.8229 528.951C31.7408 527.153 30.6579 525.368 29.575 523.582L34.3363 519.627L39.4913 524.932L34.1876 529.248L34.1745 529.44L39.5824 525.541L43.5925 530.503L37.9319 535.108L33.7259 530.193L32.8747 530.136L37.2295 535.519ZM16.7391 532.751C16.6575 533.951 16.5102 535.23 16.3902 536.464L15.5939 536.663C16.0313 535.367 16.3608 534.063 16.7391 532.751ZM14.8849 530.443C15.2179 531.213 15.5509 531.983 15.9319 532.756L15.728 532.742L14.8849 530.443ZM15.8402 529.145C16.4296 529.511 16.919 530.991 17.1409 531.802L16.4375 532.405C15.9278 531.399 15.7203 530.267 15.8402 529.145ZM14.8415 536.214L14.9345 536.618C14.3663 535.94 15.2517 534.434 15.5851 533.251L14.8415 536.214ZM15.1315 537.439L15.732 537.287L12.1848 541.807C13.1652 540.319 14.1552 538.867 15.1332 537.415L15.1315 537.439ZM11.4334 541.346L14.1354 537.034C14.5924 537.752 12.2967 540.694 11.435 541.322L11.4334 541.346ZM14.8311 532.826L14.6345 532.885C14.3028 532.761 14.0306 532.515 13.8733 532.198C13.7159 531.88 13.6852 531.515 13.7873 531.176L13.979 531.189L14.4765 531.488L14.8311 532.826ZM14.7732 533.678L14.0705 536.041L13.8787 536.028L13.3223 535.532L12.8248 535.233C13.2388 534.634 13.6497 534.084 14.0798 533.426L14.7732 533.678ZM12.568 534.227L12.2692 534.725L10.7177 533.631L12.4703 532.123C13.1293 532.348 13.0365 532.475 13.5234 532.93L12.568 534.227ZM13.3243 536.388L13.418 536.78L11.2188 539.897L10.9199 540.395L9.78397 539.39L11.9364 536.077L13.3243 536.388ZM10.4124 540.952L7.32623 542.767L7.12246 542.753L6.92374 541.956L9.13697 539.695L10.4124 540.952ZM10.5642 541.552C10.5079 542.38 8.6166 543.096 7.26583 543.655L10.5642 541.552ZM8.10909 543.652C8.27967 543.977 8.20689 543.984 7.2558 544.51L8.10909 543.652ZM12.0688 542.45C13.3509 542.846 14.4972 543.592 15.3788 544.604L9.91127 548.319L7.91718 545.411L12.0688 542.45ZM15.3595 545.242C16.8626 545.453 17.5328 547.463 18.5224 548.495L18.5094 548.687L13.2477 551.499L10.4453 548.789L15.3595 545.242ZM13.0902 541.953C14.2371 540.32 15.3848 538.674 16.5437 537.041L21.996 536.737L23.176 537.094L15.9607 544.017L13.0902 541.953ZM16.8425 536.543C17.1123 535.054 17.3822 533.566 17.6401 532.077C19.1894 531.137 20.7275 530.185 22.2544 529.22C22.7491 531.508 23.2558 533.797 23.7505 536.085L16.8425 536.543ZM17.892 531.383L17.7002 531.37C16.0899 527.246 17.8611 527.234 19.8558 524.645L22.0086 528.408L17.892 531.383ZM20.4078 524.321L24.8102 519.798C26.1798 520.024 27.9437 522.423 28.5636 523.755L22.8545 528.188L20.4078 524.321ZM54.4278 472.136L57.0296 473.193L57.3312 473.539C55.8214 475.196 54.3237 476.854 52.8147 478.499L50.4669 477.604L54.4278 472.136ZM49.6685 476.947C49.3688 477.457 49.058 477.954 48.7592 478.453C48.357 477.991 47.9676 477.519 47.5663 477.045L50.8647 474.943L51.2685 474.85L49.6685 476.947ZM65.9442 457.754L69.2983 459.26L62.8421 466.886L60.2284 465.828L59.9387 465.483C61.9677 462.92 63.9599 460.368 65.9401 457.814L65.9442 457.754ZM63.1894 460.364C63.3201 460.035 63.4621 459.719 63.592 459.402L63.9958 459.309L63.1894 460.364ZM204.478 494.265C203.765 496.784 203.04 499.303 202.325 501.834L195.514 500.165C195.922 498.421 196.341 496.689 196.76 494.946L196.563 495.004C196.005 496.485 195.458 497.979 194.911 499.461C194.726 500.063 189.472 497.982 188.298 497.709C188.845 495.335 189.4 493.022 189.98 490.687L193.783 491.44C192.68 490.705 191.396 490.288 190.071 490.235C190.714 488.23 191.344 486.223 191.986 484.218L199.072 486.279C198.545 488.184 198.03 490.089 197.479 491.993L197.466 492.185L197.674 492.139L199.623 486.316L207.089 487.222L204.978 493.287C203.278 494.376 198.882 492.787 196.61 492.38C198.215 493.743 202.347 494.253 204.474 494.325L204.478 494.265ZM175.663 492.956L180.117 495.465C179.281 498.373 178.456 501.283 177.62 504.191C171.63 501.783 174.312 498.301 175.623 493.013L175.663 492.956ZM173.012 500.225L172.655 500.527C172.116 496.946 174.338 494.373 174.561 491.097C176.16 493.617 173.232 497.878 172.972 500.283L173.012 500.225ZM133.496 457.057C132.854 455.869 132.199 454.691 131.546 453.501L138.561 449.157C139.665 449.52 140.605 450.263 141.213 451.254L141.271 451.463L133.496 457.057ZM140.313 452.796L135.103 457.504L134.549 457.864L134.005 457.357L139.906 452.937L140.313 452.796ZM55.9962 488.384L55.5916 488.489L58.5034 483.925L63.1137 487.855L63.1007 488.047L60.1968 490.899L55.9962 488.384ZM60.7949 496.98L60.4372 497.281L52.4849 495.209C52.1564 493.487 54.365 490.587 55.1372 488.795L59.0357 490.796C60.4261 492.133 60.2718 494.401 60.7949 496.98ZM58.3448 473.511L62.6975 467.949L67.4031 474.019L62.8965 478.124L58.3448 473.511ZM65.7526 483.587L63.7501 486.645L63.4505 487.155L59.5949 483.638L59.0974 483.339L62.5528 479.282L65.7526 483.587ZM62.1471 478.519L58.3459 482.878L53.5318 478.934L57.4727 474.115C59.145 474.494 61.0993 477.279 62.1797 478.57L62.1471 478.519ZM60.6432 491.243C61.5493 490.316 62.4442 489.377 63.3511 488.438L67.3021 492.323L67.3601 492.532L61.4471 496.952L60.6432 491.243ZM64.0529 487.859L66.3082 484.094L71.7148 484.462C70.3429 486.925 68.9705 489.395 67.5976 491.873L64.0529 487.859ZM71.3679 483.896C65.916 483.308 66.3555 483.399 63.2791 478.874L67.3819 474.861C69.1292 475.908 70.75 481.648 71.5886 483.839L71.3679 483.896ZM68.2567 474.041L75.4692 466.274L81.5792 474.537L72.2095 483.917L68.2567 474.041ZM76.2195 465.867L83.9836 456.896L91.4539 464.637L82.1311 474.213L76.2195 465.867ZM99.623 409.524L100.179 410.02L95.2384 415.554L99.623 409.524ZM98.367 410.282C98.6051 409.792 98.8424 409.314 99.0685 408.823L99.4731 408.718C99.099 409.259 98.7266 409.776 98.3518 410.329L98.367 410.282ZM104.038 404.81L104.878 404.867L105.179 405.213L100.927 409.48L100.175 409.019L104.038 404.81ZM100.197 408.165C100.941 405.37 104.276 403.62 105.714 401.247L105.67 401.895L100.197 408.165ZM182.692 487.877C184.982 488.163 187.165 489.007 189.053 490.335L189.457 490.242C188.935 492.424 188.424 494.62 187.902 496.802L187.407 497.359L181.139 495.305L182.692 487.877ZM181.601 486.223C176.737 484.241 178.952 482.668 178.9 477.951C180.759 478.588 182.462 479.612 183.898 480.955L182.596 486.821C182.211 486.708 181.863 486.493 181.59 486.199L181.601 486.223ZM183.649 487.628C182.342 486.129 184.313 483.527 184.407 481.255L191.265 484.024C190.757 485.99 190.262 487.958 189.754 489.948L183.649 487.628ZM185.4 481.009C184.283 479.728 185.552 476.113 186.006 474.046L193.119 476.941C192.631 478.981 192.156 481.011 191.668 483.051L191.31 483.352L185.4 481.009ZM104.917 497.944L93.7385 500.101C93.8617 495.456 93.9809 490.811 94.0962 486.166L105.164 486.171L105.419 486.321L104.917 497.944ZM105.415 498.243C107.25 496.76 109.087 495.31 110.925 493.892C112.163 496.773 109.009 500.995 106.915 502.564L106.467 503.305C106.102 501.593 105.747 499.905 105.404 498.218L105.415 498.243ZM105.115 498.753C105.343 500.54 105.582 502.329 105.81 504.116L98.6433 507.137L93.832 500.674L104.814 498.576L105.115 498.753ZM94.5449 485.413L94.1403 485.518L103.974 475.337L105.467 485.613L94.5449 485.413ZM99.2554 479.549C98.7156 477.688 98.1835 475.831 97.6591 473.98L104.264 468.064L104.671 473.938C102.835 475.79 101.026 477.652 99.245 479.524L99.2554 479.549ZM93.2102 418.635C94.4178 419.091 95.4864 419.854 96.3115 420.847L92.6546 426.626L91.0098 429.383L87.8497 426.974L93.2102 418.635ZM88.8368 424.148C89.3761 422.593 89.9154 421.039 90.446 419.435C91.2665 420.829 89.6813 423.241 88.8368 424.148ZM431.696 142.414L402.334 176.581L402.035 177.079L395.436 167.854L422.291 133.011L431.615 142.192L431.696 142.414ZM431.997 142.76L432.193 142.713L443.753 149.828L407.337 186.421L402.439 177.866L431.997 142.76ZM394.976 168.426L401.561 177.855C390.354 190.103 379.155 202.353 367.965 214.602L367.666 215.1L362.559 205.724L394.976 168.426ZM362.061 205.425L354.701 195.353L385.303 157.654C387.075 157.991 393.164 166.024 394.672 167.935C383.787 180.415 372.917 192.911 362.061 205.425ZM395.077 167.119L386.131 156.999L411.275 122.16L421.432 132.181L421.93 132.48C413.002 144.04 404.051 155.586 395.077 167.119ZM385.564 156.297L376.848 145.265L399.698 112.283L410.963 121.608C402.506 133.208 394.04 144.771 385.564 156.297ZM376.949 143.958C377.441 139.089 377.925 134.212 378.402 129.326L392.288 105.607L398.841 111.429L399.351 111.729C391.916 122.466 384.449 133.209 376.949 143.958ZM377.756 129.27L366.234 136.828L383.723 103.698L391.537 105.146L391.838 105.504L377.756 129.27ZM377.307 130.023C377.307 130.023 376.777 143.657 376.202 145.209L346.492 179.702C352.823 165.836 359.154 151.965 365.485 138.091L377.307 130.023ZM376.216 146.066C377.857 146.732 384.048 154.856 385.117 156.846L354.111 194.65L345.449 182.114L376.216 146.066ZM353.59 195.398L324.533 231.635L323.979 231.995L314.807 223.415C324.835 209.84 334.856 196.257 344.87 182.665C346.944 184.048 352.472 192.718 353.602 195.399L353.59 195.398ZM323.68 232.493L303.7 258.16L303.492 258.206L295.131 250.284L294.633 249.985L314.324 223.972L323.182 232.194L323.68 232.493ZM314.562 222.41L314.114 223.163L302.088 215.112L328.551 176.119C330.872 176.518 343.329 181.054 344.417 182.586L314.562 222.41ZM313.756 223.464L294.274 249.43L293.869 249.535L281.205 243.961C280.958 243.341 285.87 237.346 286.534 236.439L301.608 215.61L313.756 223.464ZM293.374 250.08L279.191 270.03L278.786 270.136L272.181 266.673L271.382 266.028C274.468 258.788 277.557 251.552 280.651 244.321L293.374 250.08ZM186.798 448.243C186.826 450.656 186.855 453.069 186.895 455.482L182.112 454.976C182.134 453.061 182.157 451.134 182.167 449.218L186.798 448.243ZM178.576 440.921L186.138 438.819L186.842 447.595L181.956 448.601C180.853 446.042 179.731 443.483 178.588 440.922L178.576 440.921ZM186.588 455.932L186.638 462.095L186.743 462.5L182.533 461.008C181.453 460.247 181.96 457.039 181.78 455.436L186.588 455.932ZM187.392 463.4L194.804 465.809C194.695 467.417 194.465 469.016 194.31 470.597L187.499 468.036C186.849 467.498 187.143 464.588 187.404 463.401L187.392 463.4ZM187.946 463.052C186.844 461.542 187.445 458.196 187.489 456.138L195.661 457.284C196.657 458.039 195.026 463.437 195.115 465.312L187.946 463.052ZM187.789 455.628C186.715 453.71 187.482 450.58 187.447 448.263L196.966 448.006C197.939 448.76 196.255 454.926 196.156 456.739L187.789 455.628ZM187.895 447.51L187.491 447.615C187.253 444.617 187.003 441.623 186.741 438.631L198.419 437.63L198.465 437.838C198.161 440.891 197.868 443.957 197.564 447.01L187.895 447.51ZM186.993 437.937L186.601 438.031C186.379 434.038 186.169 430.046 185.947 426.053C186.814 424.81 195.377 424.283 197.714 423.743C197.944 428.026 198.163 432.304 198.37 436.578L198.463 436.982L186.993 437.937ZM91.6455 438.805C92.1508 437.043 94.2448 436.004 95.2508 434.493C96.7316 435.209 98.9026 438.527 99.6795 440.207L91.7572 446.901C91.7237 444.206 91.6865 441.508 91.6455 438.805ZM91.1929 437.846L88.0328 435.437L91.0467 430.434L95.1458 434.088L91.1929 437.846ZM126.224 420.375L134.196 411.345C135.47 412.095 138.581 422.493 139.304 424.784L131.129 431.304L126.224 420.375ZM130.689 431.395L124.073 438.178L119.061 430.061L125.473 420.782L130.689 431.395ZM126.129 419.114L125.83 419.612L119.416 410.147L129.384 399.771L134.343 410.246C131.597 413.21 128.85 416.165 126.105 419.113L126.129 419.114ZM125.484 419.914L118.668 429.287L113.103 421.519L119.016 411.072C121.157 414.071 123.305 417.018 125.46 419.913L125.484 419.914ZM112.558 421.024L108.1 416.803L111.102 411.8L118.411 410.585L112.558 421.024ZM112.259 421.522L106.296 430.049L102.184 425.526C103.975 422.803 105.766 420.08 107.557 417.357L112.259 421.522ZM105.789 430.593L100.127 439.466L95.7694 433.95C97.6807 431.347 99.5844 428.741 101.48 426.129L105.789 430.593ZM99.7836 440.624C102.503 441.725 105.34 447.463 107.189 449.843C104.772 452.09 102.344 454.336 99.9265 456.582L92.1063 447.612L99.7836 440.624ZM100.475 440.02L106.207 431.357C108.223 433.76 110.239 436.176 112.267 438.58C110.709 442.018 109.154 445.46 107.602 448.907L107.5 449.358C105.151 446.233 102.801 443.12 100.451 440.018L100.475 440.02ZM106.899 430.741L112.458 422.319C114.389 423.15 117.052 427.912 118.161 429.844L113.302 436.818L112.705 437.814L106.899 430.741ZM118.567 430.594L123.371 438.769L118.616 445.28L113.506 439.315C112.69 436.62 117.382 432.973 118.543 430.593L118.567 430.594ZM123.569 439.566C125.268 440.441 126.525 444.456 127.571 446.239L123.168 449.894L119.461 446.134L119.113 445.591L123.569 439.566ZM123.273 450.299L127.785 446.989L130.678 453.515L123.718 456.32C123.54 454.343 123.388 452.32 123.249 450.297L123.273 450.299ZM124.319 439.171L130.829 431.995C132.188 435.21 133.56 438.413 134.931 441.629L127.955 446.096L124.319 439.171ZM131.582 432.432C131.529 430.018 137.605 426.742 139.398 425.357L143.324 438.451L135.645 441.219L131.582 432.432ZM135.247 410.416L145.683 398.638L150.642 417.636L139.716 424.21L135.247 410.416ZM135.049 409.619L134.853 409.666C133.28 406.232 131.711 402.79 130.148 399.341L141.067 386.823L145.716 397.796L135.049 409.619ZM141.716 385.963C146.24 381.064 150.769 376.168 155.301 371.277L161.205 381.322L146.077 397.459L141.716 385.963ZM168.073 350.821L168.87 350.622L172.182 353.632L172.169 353.824L155.387 370.366L152.335 364.951L168.073 350.821ZM152.142 364.6L150.285 361.448C155.226 356.794 160.171 352.148 165.119 347.51L168.071 349.965L152.142 364.6ZM250.779 280.49L252.33 281.596C249.318 286.326 246.315 291.056 243.319 295.786L242.916 295.879L241.736 295.522L237.928 293.069L247.656 279.132L250.779 280.49ZM248.371 278.53C252.64 273.147 256.901 267.751 261.155 262.342C264.555 267.058 255.515 278.329 252.881 280.392L252.433 281.145L248.371 278.53ZM242.467 296.632L236.149 306.304L234.192 309.571L230.341 307.766L229.287 306.959L237.503 293.824L242.467 296.632ZM216.81 345.734L222.928 348.043L214.352 374.257C213.916 374.649 206.395 374.029 205.952 373.806L216.81 345.734ZM205.039 373.599C204.19 374.747 195.328 374.723 193.061 375.111L193.075 374.907C198.34 364.44 203.602 353.949 208.861 343.433L215.961 345.29C215.951 347.206 206.643 371.261 205.003 373.597L205.039 373.599ZM209.768 343.025L209.212 342.529L219.987 322.576L225.642 324.781C222.621 331.422 219.6 338.072 216.577 344.73L209.768 343.025ZM220.686 322.214L220.385 321.868L228.807 307.83L233.815 309.979L226.995 322.775C225.056 325.079 223.601 322.749 220.686 322.214ZM228.758 306.778L222.549 304.921L222.248 304.575C225.09 300.091 227.944 295.612 230.809 291.138L236.418 293.135C237.155 294.523 229.941 304.255 228.761 306.73L228.758 306.778ZM227.8 307.231L228.101 307.577L219.923 321.571L212.837 319.51L212.536 319.164C215.571 314.548 218.61 309.953 221.651 305.379L227.8 307.231ZM218.93 322.01L219.29 322.565C215.755 329.195 212.229 335.831 208.71 342.471L199.052 337.86L198.648 337.953L211.933 319.701L218.93 322.01ZM207.706 342.716L208.261 343.224C202.997 353.691 197.735 364.182 192.475 374.698L192.117 374.999L181.258 361.313C186.877 353.659 192.488 346.004 198.091 338.349L207.706 342.716ZM180.509 360.816L173.052 353.932L172.994 353.735L186.625 334.989L197.343 337.84L197.644 338.198L180.509 360.816ZM181.51 340.958L172.495 353.448L169.101 350.228L184.287 336.795C184.704 336.859 181.9 340.37 181.514 340.91L181.51 340.958ZM155.764 370.838L172.348 354.547C174.547 355.155 178.35 359.09 179.712 361.015L180.21 361.314L161.429 380.867L155.764 370.838ZM180.362 361.915C182.987 362.974 189.72 372.714 191.822 375.449C183.819 382.86 175.804 390.263 167.778 397.657L161.821 381.472L180.362 361.915ZM168.034 398.663L191.478 376.607L186.185 406.444L171.263 413.349C170.191 408.446 169.116 403.535 168.038 398.615L168.034 398.663ZM171.631 413.952L185.709 407.243C187.399 410.372 184.787 420.79 185.304 425.237L174.938 428.896C173.834 423.886 172.732 418.889 171.634 413.904L171.631 413.952ZM185.904 425.085L186.865 406.707L198.537 403.149C199.491 403.986 197.659 419.773 197.928 422.902L185.904 425.085ZM186.758 406.338L192.527 375.702L204.632 374.801C202.785 383.893 200.888 393.018 198.94 402.176L186.758 406.338ZM201.037 397.015L205.499 374.8L214.06 375.009C212.322 383.682 210.584 392.352 208.846 401.018L200.035 402.371C199.628 400.74 200.687 398.63 201.041 396.967L201.037 397.015ZM209.402 401.526L217.613 400.324L214.258 416.719L208.894 419.971L208.702 419.958C208.928 413.809 209.162 407.649 209.405 401.478L209.402 401.526ZM209.655 400.819L214.57 375.308L224.932 375.061L217.819 399.422C217.521 400.258 211.24 400.529 209.658 400.771L209.655 400.819ZM215.054 374.558C217.912 365.824 220.767 357.085 223.618 348.343L232.74 350.747L233.042 351.093L225.37 374.102C224.816 374.812 217.027 374.234 215.021 374.507L215.054 374.558ZM217.51 345.179C216.899 344.426 218.983 341.229 219.623 339.97C221.848 335.002 224.084 330.039 226.332 325.081L232.15 328.081L223.487 347.08C222.147 347.302 218.815 346.003 217.478 345.128L217.51 345.179ZM226.887 324.721L226.781 324.328L234.454 310.686L239.453 313.846L232.544 326.89C232.332 327.526 227.856 324.992 226.854 324.67L226.887 324.721ZM237.425 311.442L234.903 309.921L242.994 297.211C244.824 297.576 246.941 299.384 248.305 300.574L241.341 311.058L239.984 313.304L237.425 311.442ZM243.789 296.855L243.696 296.451L252.612 281.868L252.808 281.821L258.375 285.322L249.857 298.112L248.649 300.115L243.789 296.855ZM253.166 281.52C256.363 277.02 259.567 272.525 262.779 268.034L269.142 267.081L270.148 266.824L259.524 283.122L258.615 284.627L253.166 281.52ZM262.733 267.826L262.035 261.619L279.462 245.325L270.828 266.026L262.733 267.826ZM261.479 261.111L255.025 258.261L254.724 257.915L270.201 238.065C273.252 239.078 276.023 240.794 278.291 243.075L280.037 244.134L261.479 261.111ZM260.173 261.022L261.226 261.829L248.074 278.124C245.903 277.97 243.812 277.241 242.015 276.012L241.61 276.117L254.287 258.669L260.173 261.022ZM246.919 278.817L247.311 278.711L237.642 292.857L231.838 290.895L231.281 290.399L241.009 276.462L246.919 278.817ZM230.611 290.341L221.743 288.086L231.517 274.358L240.475 276.173L230.611 290.341ZM230.056 290.701L230.358 291.047C227.489 295.457 224.615 299.866 221.738 304.275L213.378 301.477L213.077 301.119L221.248 288.643L230.056 290.701ZM220.537 304.579L221.093 305.087L211.816 319.115L203.408 316.132L203.107 315.786L212.372 301.746L220.537 304.579ZM211.471 319.417L198.299 337.411L187.733 334.281L187.283 334.178L202.257 316.584C205.556 316.423 208.274 318.958 211.475 319.357L211.471 319.417ZM186.622 334.157L180.259 330.843L179.809 330.74L194.545 314.709L201.908 316.054L186.622 334.157ZM179.519 330.395L177.153 327.823L188.124 317.202L191.783 315.643L193.192 315.292L179.519 330.395ZM184.576 333.608L186.127 334.702L168.788 349.7L165.786 347.085L179.171 331.444C181.357 331.521 182.596 333.136 184.58 333.548L184.576 333.608ZM165.741 345.985L165.442 346.483L163.739 344.788L175.809 334.302L165.741 345.985ZM164.784 347.294L150.055 360.758L149.604 360.655L148.709 358.761C153.479 354.264 158.255 349.799 163.037 345.367C163.443 345.537 163.81 345.792 164.112 346.113C164.413 346.435 164.644 346.817 164.789 347.234L164.784 347.294ZM151.809 365.241C147.157 369.658 142.516 374.084 137.887 378.518L135.878 374.765L149.466 361.971L151.809 365.241ZM151.706 365.692C153.01 366.347 154.47 369.496 155.163 371.002C150.731 375.723 146.306 380.453 141.889 385.192L141.335 385.54C140.248 383.465 139.165 381.382 138.087 379.291L151.706 365.692ZM140.887 386.293L129.861 398.417L129.664 398.476L125.557 391.398L137.531 379.675L140.887 386.293ZM129.169 399.214L119.039 409.844L115.034 402.339L125.001 391.963L129.169 399.214ZM118.498 410.193L111.326 411.345L109.376 407.788L114.331 402.93L118.498 410.193ZM110.725 411.497L108.377 414.857L107.468 416.362L104.318 413.098L108.672 408.392L110.725 411.497ZM107.282 416.964L101.616 425.017L97.3062 420.565L103.619 413.448L107.282 416.964ZM101.111 425.537L96.0576 432.547L95.4471 433.554L91.5447 429.841L96.711 421.525C98.2553 422.016 100.048 424.344 101.108 425.585L101.111 425.537ZM90.6502 429.889C89.8118 432.122 87.7189 436.332 85.5873 433.498L84.3383 432.738L87.2942 427.527L90.6502 429.889ZM90.8581 438.341L91.2022 446.562L84.1884 441.492L87.502 435.979L90.8581 438.341ZM99.3154 456.89L91.998 464.252L84.6878 456.281L91.3567 448.007L99.3154 456.89ZM99.4672 457.491L104.275 467.366L97.4037 473.13C95.7836 470.272 94.1515 467.412 92.5075 464.552L99.4672 457.491ZM105.223 467.768C105.928 466.61 108.374 466.246 109.527 465.408C110.368 465.791 109.205 470.136 109.114 471.48L105.365 473.479L105.157 473.525C105.225 471.637 105.248 469.71 105.258 467.794L105.223 467.768ZM104.829 467.017L100.171 456.888L107.133 450.671L110.034 464.864L104.829 467.017ZM107.988 450.669L115.74 455.331C116.889 456.157 115.612 462.712 115.741 464.71L110.634 464.712C109.771 460.057 108.9 455.384 108.023 450.696L107.988 450.669ZM108.182 449.766C109.637 446.209 111.083 442.65 112.522 439.092L118.117 445.355C117.458 448.436 116.807 451.51 116.165 454.577C113.263 453.447 110.574 451.829 108.217 449.793L108.182 449.766ZM118.802 446.257C122.651 449.171 122.233 451.072 123.01 456.284L117.059 455.24C116.628 452.559 118.633 449.284 118.837 446.284L118.802 446.257ZM123.702 457.44C124.645 455.792 128.481 455.354 130.118 454.127L130.914 453.928L132.668 457.544L124.201 462.85L123.702 457.44ZM128.321 446.905L134.974 442.053L138.584 448.821L131.072 453.023L128.321 446.905ZM135.877 442.055L135.831 441.847L142.986 438.994C144.76 439.657 146.241 444.254 147.326 446.016L139.152 448.269C138.042 446.168 136.954 444.105 135.867 442.03L135.877 442.055ZM143.99 438.749L151.857 437.838C152.9 440.199 154.029 442.554 155.109 444.906L155.095 445.11L147.821 445.821L143.99 438.749ZM144.093 438.298L139.936 425.056L150.605 418.344C150.949 424.5 151.285 430.666 151.611 436.844C150.64 438.201 146.047 437.9 144.083 438.273L144.093 438.298ZM151.566 418.747L160.368 427.616C159.924 431.491 159.468 435.366 159.023 439.241L152.655 437.603C150.92 433.904 151.735 423.34 151.552 418.77L151.566 418.747ZM160.868 428.771L168.48 437.088C168.084 439.183 167.678 441.264 167.282 443.359L166.936 443.661L159.775 439.702C160.137 436.03 160.498 432.378 160.857 428.746L160.868 428.771ZM161.27 427.822L170.791 414.787L174.548 428.966L168.732 436.394L161.27 427.822ZM161.128 426.365L160.679 427.118L151.702 417.443C156.937 411.313 162.147 405.182 167.334 399.05L170.94 413.483L161.128 426.365ZM151.307 416.885L146.407 398.084C151.311 392.688 156.215 387.343 161.119 382.052C163.053 383.895 166.281 394.698 167.261 397.996C161.936 404.28 156.614 410.568 151.296 416.86L151.307 416.885ZM185.261 425.861C185.483 429.854 185.693 433.847 185.916 437.84C185.034 439.299 180.352 439.957 178.25 440.405C177.198 436.749 176.149 433.105 175.104 429.474L185.261 425.861ZM178.695 443.063C181.793 446.745 181.155 450.463 181.359 454.539L180.249 454.391C178.708 452.973 178.542 445.668 178.685 443.038L178.695 443.063ZM178.748 454.337L178.852 454.742L175.796 446.566C176.443 445.2 177.101 443.834 177.749 442.456C178.425 443.502 179.16 453.052 178.733 454.373L178.748 454.337ZM179.696 454.739L180.597 454.945C181.703 456.395 181.325 458.937 181.396 460.907L179.592 460.507C179.653 458.558 179.675 456.631 179.685 454.715L179.696 454.739ZM182.105 461.811L186.813 463.421C186.716 464.849 186.618 466.289 186.605 467.722L182.601 465.316L182.105 461.811ZM193.774 471.043C194.349 472.504 193.449 474.396 193.324 476.063L192.966 476.364L186.559 473.698C185.938 472.21 186.84 470.631 186.886 468.899L193.774 471.043ZM193.569 477.056L201.084 479.014L201.478 479.764C200.809 481.635 200.139 483.518 199.482 485.39L192.719 483.882C191.677 482.388 193.406 479.094 193.556 477.079L193.569 477.056ZM194.123 476.708C193.61 475.215 194.658 473.261 194.722 471.445L203.437 473.099L203.423 473.303L201.875 478.357C199.686 478.847 196.663 476.905 194.113 476.671L194.123 476.708ZM195.425 470.842C194.651 470.186 195.411 467.502 195.528 466.135L205.19 467.335C204.729 469.16 204.255 470.984 203.783 472.797L195.425 470.842ZM196.024 465.578C195.22 463.414 196.416 459.819 196.583 457.359L207.158 458.765C206.626 461.454 206.081 464.153 205.549 466.841L196.024 465.578ZM196.881 457.054L196.626 456.904C197.092 453.946 197.574 450.941 198.037 448.031L209.452 448.591C208.755 451.75 208.047 454.908 207.348 458.091L196.881 457.054ZM210.157 448.843L220.779 449.566L218.513 458.441L208.046 458.283C208.743 455.124 209.439 451.965 210.148 448.807L210.157 448.843ZM198.289 447.337L199.085 437.747L212.112 436.223C211.379 440.09 210.633 443.97 209.9 447.85L198.289 447.337ZM199.141 437.112C198.867 432.633 198.547 428.139 198.332 423.676L207.904 421.061L212.158 435.551L199.141 437.112ZM207.96 420.414L199.636 422.921L198.411 423.224C198.784 416.45 199.152 409.68 199.516 402.914L208.744 401.457C208.484 407.756 208.22 414.062 207.951 420.377L207.96 420.414ZM214.199 417.222L219.452 420.376L212.996 434.559L212.638 434.86L208.686 420.728L214.199 417.222ZM214.754 416.862C215.929 411.388 217.105 405.907 218.281 400.418L226.783 399.369L226.841 399.578C224.532 406.252 222.228 412.926 219.927 419.6L219.719 419.646L214.754 416.862ZM219.412 399.723L218.561 399.665C221.001 391.53 223.442 383.39 225.883 375.246L235.299 375.453L227.385 398.313C226.804 399.418 220.861 399.135 219.371 399.624L219.412 399.723ZM226.131 374.612C228.653 366.804 231.191 359 233.745 351.202L243.004 354.242L235.789 374.799L226.131 374.612ZM233.047 350.298L224.091 347.76L224.104 347.568C226.948 341.172 229.82 334.769 232.721 328.361L240.228 332.029C238.059 337.821 235.887 343.616 233.71 349.415L233.047 350.298ZM234.445 328.695C232.332 326.827 238.697 317.701 240.059 314.502L246.228 318.719L246.32 319.123L240.761 331.801L240.564 331.859L234.445 328.695ZM241.514 314.36C240.011 313.438 247.41 303.454 248.887 301.228L254.189 305.434L250.98 311.352L246.573 318.417L241.514 314.36ZM249.128 300.521L258.657 285.788C260.289 286.224 262.921 288.609 263.959 289.994C264.552 290.48 256.863 302.771 254.936 304.183L254.488 304.936L249.128 300.521ZM259.348 285.184L270.983 266.941L278.791 270.944L264.963 289.749L259.348 285.184ZM278.943 271.545L287.153 278.866C287.356 280.302 275.416 295.776 273.371 297.867L265.459 290.24L278.943 271.545ZM279.541 270.549L293.967 250.748C295.964 251.317 301.699 257.301 303.289 259.073L287.971 278.704L279.541 270.549ZM303.59 259.419C305.939 262.311 308.291 265.203 310.648 268.096L294.825 288.248L288.371 279.371L303.59 259.419ZM304.086 258.862L324.077 233.207L331.178 242.128L310.944 267.634L304.086 258.862ZM324.572 232.65L353.99 196.076L361.755 205.85L331.844 241.185L331.545 241.695L324.572 232.65ZM361.952 206.683L367.057 215.204C366.94 218.161 361.448 222.224 359.534 224.336L335.86 250.487L331.853 242.114L361.952 206.683ZM367.312 216.402L370.508 224.13L338.094 258.017C337.465 255.756 336.823 253.506 336.146 251.242L367.312 216.402ZM367.957 215.602L401.53 178.66C403.294 179.106 406.059 185.201 406.831 187.134L371.016 223.574C370.002 220.768 368.991 218.108 367.967 215.446L367.957 215.602ZM371.167 224.175L407.017 187.58C408.164 190.202 409.322 192.824 410.468 195.458C397.901 207.043 385.325 218.644 372.74 230.261L371.167 224.175ZM407.631 186.875C419.595 174.83 431.553 162.749 443.506 150.631C444.505 151.338 445.37 161.824 445.608 164.167L410.795 195.251L407.631 186.875ZM444.358 149.785L479.672 124.968L480.272 124.816C480.006 128.728 479.708 132.637 479.378 136.545L446.311 163.564L446.107 163.55C445.539 158.923 444.958 154.302 444.364 149.689L444.358 149.785ZM445.164 148.731L445.106 148.522C452.895 137.07 460.68 125.609 468.461 114.14L484.686 108.083L486.292 107.674L480.533 123.821L445.164 148.731ZM444.805 148.176L444.062 149.355L432.596 142.632C433.033 139.757 436.632 136.421 438.351 134.164L455.595 109.407L467.611 114.07L444.805 148.176ZM432.091 141.561L432.185 141.953L423.022 132.53C430.098 121.881 437.165 111.239 444.223 100.605L454.78 108.821L455.29 109.121L432.091 141.561ZM423.03 130.831L422.27 132.081L411.81 121.726L432.494 91.1999C434.982 91.8031 441.657 98.1279 443.666 100.121L423.03 130.831ZM412.361 119.642L411.302 121.402L400.697 112.122C399.719 110.922 403.928 106.411 404.801 104.903L420.234 81.8071C422.821 82.3808 430.088 88.5047 432.202 90.5291L412.361 119.642ZM399.585 111.118L392.764 105.157C398.617 95.5979 404.463 86.0383 410.3 76.4781L419.369 81.242L419.773 81.1489C413.013 91.0641 406.286 101.022 399.592 111.022L399.585 111.118ZM401.557 72.918L401.256 72.572L417.087 46.4535L427.006 48.6591C421.347 57.5965 415.701 66.5348 410.067 75.4738L401.557 72.918ZM409.363 76.0769L409.767 75.9838L396.234 97.8828C392.678 106.429 392.042 103.914 384.163 103.246C389.659 93.2686 395.187 83.2937 400.747 73.3209L409.363 76.0769ZM385.282 99.8983L383.476 102.898L373.558 100.692L373.511 100.496C379.198 90.9015 384.892 81.3076 390.595 71.7142L400.256 72.9259C395.293 81.9186 390.301 90.9094 385.282 99.8983ZM382.922 103.246C377.373 114.007 371.823 124.768 366.274 135.529C363.649 138.702 358.096 135.358 353.807 135.03L353.505 134.684L372.991 101.051L382.922 103.246ZM364.731 137.847L345.383 180.603C344.307 181.735 331.434 177.11 329.208 175.488L328.816 175.582L353.229 135.377L364.731 137.847ZM331.226 170.068C327.58 178.705 324.345 172.795 317.158 171.679L342.077 133.075L352.595 135.141C345.5 146.785 338.405 158.43 331.31 170.074L331.226 170.068ZM327.728 175.641C318.987 188.708 310.251 201.756 301.52 214.784L290.706 209.817L316.689 172.033L327.728 175.641ZM300.854 215.197L301.258 215.091C294.408 224.325 287.561 233.568 280.717 242.818C279.801 243.54 275.073 240.626 274.1 239.354L270.63 237.25L290.318 210.381L300.854 215.197ZM270.143 237.145L260.977 235.388L260.675 235.042L279.822 208.522L289.785 210.08L270.143 237.145ZM269.797 237.446L254.217 257.748L245.698 256.047L245.397 255.689L260.227 235.795L269.797 237.446ZM253.667 258.048L253.714 258.244C249.542 263.979 245.365 269.723 241.185 275.474L232.273 273.867L231.972 273.521L244.95 256.418L253.667 258.048ZM244.145 256.387L231.571 273.385L224.858 272.928L224.556 272.582C228.701 267.006 232.843 261.425 236.98 255.84L244.098 256.191L244.145 256.387ZM230.904 273.991L221.351 287.3C220.42 288.237 216.771 286.82 215.042 286.75L223.858 273.463L230.904 273.991ZM220.588 288.068L220.889 288.426L212.643 300.764L204.923 299.708L204.876 299.512L214.342 287.125L220.588 288.068ZM212.164 301.261C209.018 305.958 205.864 310.653 202.703 315.349L195.34 313.992C198.355 309.327 201.378 304.662 204.409 299.999L212.164 301.261ZM194.682 313.935L188.68 316.299C190.372 309.121 198.12 306.767 202.598 301.31C199.908 305.555 197.24 309.781 194.594 313.989L194.682 313.935ZM176.299 327.271L175.003 326.315C179.521 321.993 184.046 317.668 188.58 313.339C190.056 315.007 178.543 327.038 176.211 327.325L176.299 327.271ZM176.752 328.23L179.106 330.801L163.532 344.279L162.222 342.479L176.752 328.23ZM162.976 344.664L163.022 344.872C158.18 349.364 153.338 353.857 148.496 358.349L147.291 356.941L161.317 343.213C162.147 343.402 162.375 343.948 162.888 344.718L162.976 344.664ZM149.442 361.258L135.819 374.038L135.368 373.947L134.473 372.042L147.948 359.505L149.442 361.258ZM137.413 378.751L125.532 390.89L123.085 387.023L135.106 375.496C136.035 375.993 136.718 377.812 137.337 378.806L137.413 378.751ZM124.99 391.239L115.322 401.117L115.011 401.614L112.218 398.049L122.232 387.881C123.309 388.328 124.216 390.222 124.914 391.294L124.99 391.239ZM112.113 397.656L109.905 397.349L109.604 397.003L120.659 385.327L122.201 387.276C118.824 390.759 115.436 394.237 112.037 397.711L112.113 397.656ZM114.319 402.218L109.56 407.03L109.006 407.378L106.4 404.621L111.609 398.863C112.582 399.424 113.523 401.175 114.207 402.271L114.319 402.218ZM108.708 407.864L103.89 412.478L101.344 409.894L105.907 405.142L108.708 407.864ZM103.094 412.677L103.591 412.976L96.8855 420.199L93.9213 417.743C96.1683 415.34 98.4041 412.925 100.639 410.521L103.094 412.677ZM94.7069 416.109L94.7379 415.653L94.9466 415.595L94.7069 416.109ZM91.3571 419.497C91.6224 415.598 93.9008 414.149 95.4489 411.398C95.6028 411.083 95.7559 410.78 95.9218 410.466C95.7671 410.793 95.6132 411.108 95.4489 411.398L91.3571 419.497ZM87.0432 426.967L85.9089 428.771L82.5969 425.761L88.6686 414.227L90.6158 416.94C89.7935 419.644 88.997 424.979 86.9816 426.987L87.0432 426.967ZM85.5482 429.469C84.2546 432.552 81.6082 437.64 78.9754 439.872C80.1513 435.451 81.3226 431.038 82.4894 426.633L85.5482 429.469ZM83.928 433.458L86.9363 435.266L87.0413 435.671L87.0283 435.863L83.6678 441.179L80.7155 438.724L83.928 433.458ZM91.045 447.455L84.4918 455.267L84.1922 455.777L78.4129 450.441L77.9154 450.142L83.6261 442.322C85.9006 442.525 89.375 445.979 91.0426 447.491L91.045 447.455ZM91.691 465.4C93.6184 466.279 95.3182 471.036 96.548 472.964C96.4239 474.788 89.1063 481.089 87.456 482.688C85.7117 480.002 83.9803 477.304 82.248 474.619C85.3946 471.562 88.5415 468.501 91.6886 465.436L91.691 465.4ZM96.693 474.372C97.8502 475.065 98.3733 478.175 98.7168 480.031L90.0946 488.16L89.8987 488.207L87.5704 483.13L96.693 474.372ZM93.0355 486.178L93.4402 486.073C93.3169 490.717 93.1973 495.367 93.0815 500.02L84.1635 495.857L83.4681 494.749L93.0355 486.178ZM92.0903 500.073L92.8895 500.718C91.3726 502.302 89.855 503.899 88.3261 505.483L83.4686 503.947C83.5272 501.315 83.5784 498.674 83.6221 496.025L92.0903 500.073ZM93.0397 501.343C94.8456 501.707 97.0106 505.82 98.1498 507.308L98.196 507.516L91.953 510.768L89.0408 505.953L93.0397 501.343ZM98.1519 508.164C100.15 508.529 102.767 512.902 104.001 514.589C98.9132 515.208 95.7338 514.497 92.3827 511.533L98.1519 508.164ZM99.3768 507.862L105.988 504.502L110.645 509.52L104.835 514.381L99.3768 507.862ZM106.886 504.756L106.539 504.202L111.041 498.385C113.015 499.023 114.816 500.106 116.306 501.551L111.24 508.56L110.941 509.07L106.886 504.756ZM116.399 501.944C118.763 502.611 122.803 507.31 124.216 509.371L124.714 509.67L121.755 514.037L120.248 516.538L112.265 509.968L111.512 509.519C113.083 506.966 114.685 504.419 116.32 501.878L116.399 501.944ZM125.061 510.224C127.078 512.627 129.106 515.031 131.122 517.447C130.333 519.129 129.556 520.812 128.766 522.506L127.661 524.059L121 516.987L125.061 510.224ZM131.619 517.746L135.134 519.19L133.626 525.959L128.62 524.654L131.619 517.746ZM132.581 512.989L135.438 514.196L135.378 518.255L135.033 518.557L132.43 517.512C131.509 516.352 132.387 514.604 132.499 512.96L132.581 512.989ZM135.77 519.234L140.783 518.827L140.929 526.251L134.112 526.245C134.651 523.879 135.196 521.525 135.749 519.184L135.77 519.234ZM135.872 518.783L135.886 518.579C136.246 514.709 135.827 514.488 140.391 513.617L140.934 518.38L135.872 518.783ZM139.383 513.211C139.446 512.275 139.509 511.351 139.573 510.415C140.622 510.817 141.493 511.582 142.028 512.571L142.537 512.871L139.383 513.211ZM138.723 513.166C132.835 515.285 131.124 509.443 127.708 506.546C127.757 505.826 127.806 505.106 127.854 504.398L138.924 509.503L138.723 513.166ZM127.209 505.391L127.013 505.438L125.608 504.137L127.307 504.132L127.209 505.391ZM126.204 505.648L131.963 512.513L131.418 516.274L131.061 516.575L125.404 509.258C125.647 507.997 125.921 506.798 126.183 505.599L126.204 505.648ZM124.802 508.554L124.699 509.006C122.065 506.415 119.431 503.825 116.797 501.235C116.865 500.227 116.873 499.227 116.906 498.217L125.517 504.589C125.621 505.956 125.366 507.327 124.777 508.565L124.802 508.554ZM116.291 500.875L111.431 497.615L111.666 494.16C113.481 494.56 115.028 496.426 116.526 497.42L116.291 500.875ZM112.681 494.108C112.058 491.583 112.697 490.867 113.142 489.101L113.641 494.511L112.681 494.108ZM105.446 497.606C105.7 493.862 105.846 490.123 106.053 486.376L113.314 483.917L114.318 483.672C112.462 489.537 111.351 494.006 105.446 497.606ZM106.051 485.52C105.642 481.86 105.223 478.215 104.796 474.586C106.98 473.157 109.364 472.06 111.87 471.33L114.36 483.06L106.051 485.52ZM109.759 471.379C110.031 469.324 110.304 467.269 110.564 465.214L115.579 465.663C115.271 467.017 114.974 468.371 114.677 469.725L109.759 471.379ZM112.474 471.13L113.616 470.629C114.146 474.161 114.457 477.919 114.717 480.999L114.52 481.057C113.894 477.688 113.154 474.407 112.475 471.106L112.474 471.13ZM114.172 471.125L117.73 470.873L115.168 476.846C114.842 474.907 114.502 473.004 114.174 471.101L114.172 471.125ZM115.072 470.475L115.025 470.279L118.083 468.871C118.302 469.2 118.161 469.492 117.924 469.97C117.681 470.713 116.131 470.306 115.073 470.451L115.072 470.475ZM115.67 469.467L115.473 469.526L116.18 465.511L123.038 464.013L123.639 463.861C123.737 464.543 123.835 465.224 123.944 465.919L115.67 469.467ZM116.433 464.805C116.525 461.798 116.625 458.791 116.733 455.785L122.986 456.994C123.211 458.998 123.424 461.001 123.637 463.005L116.433 464.805ZM124.193 463.501L132.66 458.194L133.871 458.096L133.857 458.288L124.749 465.25L124.54 465.308L124.193 463.501ZM139.718 448.97L145.778 446.815L148.285 446.612L149.593 447.568L141.722 451.023L139.718 448.97ZM148.643 446.31L157.1 445.921C154.977 447.38 150.078 447.167 148.644 446.298L148.643 446.31ZM156.449 445.214C154.805 444.596 153.339 439.952 152.55 438.09L158.702 439.714L161.56 446.032L156.449 445.214ZM159.962 440.498C163.973 441.851 167.332 444.66 169.374 448.372L169.421 448.568L162.715 446.412C161.79 444.42 160.853 442.44 159.963 440.474L159.962 440.498ZM168.874 437.838C171.504 440.247 176.154 446.072 175.179 450.322L175.284 450.727L168.417 444.558C167.031 443.692 168.776 439.639 168.876 437.814L168.874 437.838ZM169.126 437.144L174.411 430.271C174.837 430.553 177.855 439.666 177.719 440.947C177.018 442.406 176.317 443.853 175.604 445.312L175.258 445.614L169.126 437.144ZM175.788 449.326C177.034 450.134 177.98 454.466 178.383 456.338C176.866 454.306 175.965 451.88 175.787 449.35L175.788 449.326ZM180.741 461.501L181.389 461.545L181.899 465.196L180.24 467.096L180.043 467.155L179.648 461.282L180.741 461.501ZM182.046 465.869L186.245 468.228C186.049 469.698 185.84 471.166 185.644 472.636L185.448 472.682L180.284 468.221C180.833 467.414 181.453 466.612 182.047 465.845L182.046 465.869ZM185 473.436C185.843 474.313 184.379 478.131 184.241 479.809L183.895 480.111C177.578 475.076 179.536 477.801 180.031 468.927L185 473.436ZM179.346 468.024L178.792 468.372L178.597 468.419C178.7 466.895 178.803 465.383 178.907 463.859C179.113 465.248 179.25 466.607 179.384 468.003L179.346 468.024ZM179.289 468.864C178.97 471.253 178.658 473.715 178.336 476.141L178.441 476.546C176.418 475.299 177.993 471.09 178.492 469.075L179.289 468.864ZM178.13 477.043C177.87 479.098 177.598 481.153 177.337 483.209L177.134 483.195L176.938 483.242C176.038 481.071 176.69 478.741 177.139 476.385L178.13 477.043ZM177.598 484.866L181.751 487.017C182.84 488.719 180.532 492.552 180.292 494.838C174.318 492.37 177.164 490.358 177.636 484.845L177.598 484.866ZM175.44 490.747L175.533 491.139L175.078 491.108C174.661 488.03 175.979 485.829 176.04 482.988L177.132 484.642L175.44 490.747ZM180.548 495.856L186.756 497.713C187.954 499.578 185.201 504.297 185 506.887C183.058 507.286 180.547 505.246 178.341 504.928C177.578 502.513 180.189 498.471 180.586 495.822L180.548 495.856ZM191.71 509.875C192.735 512.513 190.265 516.6 190.062 519.407C187.936 519.853 185.257 517.814 182.802 517.599C182.693 514.241 184.558 511.089 185.308 508.029L191.71 509.875ZM185.835 507.716C184.94 505.473 187.272 500.581 187.951 498.216L194.704 500.568C193.964 503.531 193.213 506.49 192.45 509.444L185.835 507.716ZM195.361 500.649L201.974 502.4C201.165 505.443 200.355 508.486 199.558 511.53L193.202 509.892C193.965 506.822 194.697 503.677 195.433 500.642L195.361 500.649ZM199.98 485.858C200.717 483.69 201.48 481.512 202.181 479.342L210.005 479.946C209.228 481.979 208.463 484.024 207.698 486.058C205.981 487.219 202.47 485.726 200.052 485.851L199.98 485.858ZM202.495 478.797L204.075 473.275L212.037 473.623C211.463 475.332 210.901 477.042 210.328 478.739C209.372 480.036 204.487 478.739 202.525 478.895L202.495 478.797ZM204.19 472.824C204.683 471.074 205.167 469.274 205.645 467.559L214.669 467.859C213.818 469.573 212.955 471.275 212.105 472.977L204.19 472.824ZM206.105 466.807C206.652 464.192 207.2 461.569 207.748 458.938L218.02 459.143C217.056 461.801 216.08 464.459 215.069 467.115L206.105 466.807ZM218.665 459.223L224.82 458.327C223.829 461.201 222.851 464.076 221.824 466.948C220.697 467.944 217.707 467.102 215.772 467.392L218.665 459.223ZM218.905 458.528C219.734 455.546 220.554 452.572 221.366 449.606L226.52 449.8C226.041 452.407 225.551 455.014 225.072 457.621L218.905 458.528ZM210.401 448.089C211.177 444.123 211.961 440.158 212.752 436.194L224.768 436.601C223.593 440.66 222.409 444.718 221.218 448.776L210.401 448.089ZM213.258 435.662L213.2 435.453C215.514 430.475 217.82 425.496 220.117 420.517L231.042 419.259L225.11 435.648L213.258 435.662ZM220.971 419.659L220.566 419.764L227.539 399.058L238.56 398.856C236.212 405.407 233.871 411.958 231.539 418.51L220.971 419.659ZM228.092 398.71L227.791 398.364C230.506 390.786 233.229 383.216 235.959 375.654L245.724 376.403C243.428 383.721 241.139 391.039 238.859 398.358L228.092 398.71ZM236.408 374.901C238.798 367.976 241.188 361.058 243.577 354.149L251.985 357.132C250.045 363.228 248.092 369.327 246.127 375.43C243.444 376.634 239.39 374.791 236.407 374.913L236.408 374.901ZM233.953 350.625C236.201 344.598 238.458 338.567 240.723 332.533L249.181 337.448C247.218 342.691 245.256 347.938 243.293 353.189L233.953 350.625ZM246.576 335.547L241.022 332.035L246.778 319.299L254.444 326.113C255.137 327.077 250.162 334.706 249.688 336.892L246.576 335.547ZM247.783 319.042C247.07 318.198 253.617 308.18 254.556 306.062L262.539 312.632C261.378 314.832 260.228 317.044 259.078 319.244L255.018 325.815L247.783 319.042ZM255.199 305.274L264.971 290.689C267.287 292.052 271.774 295.853 273.077 298.474L263.163 311.602L262.864 312.1L255.199 305.274ZM273.183 298.855C274.211 299.153 279.44 306.2 280.045 307.579L269.322 320.917L263.362 312.399L273.183 298.855ZM273.886 298.263C278.525 292.15 283.164 286.036 287.803 279.923L294.433 288.691L280.35 306.985L273.886 298.263ZM294.625 289.235L297.52 296.604L283.253 314.415L280.694 307.599L294.625 289.235ZM298.225 296.857L314.362 277.052C314.763 278.948 315.165 280.832 315.555 282.715L298.678 302.06C298.534 300.29 298.374 298.567 298.229 296.809L298.225 296.857ZM298.027 296.06L295.119 288.702L310.609 268.841C312.079 269.712 313.836 274.521 314.405 276.416C308.952 282.924 303.494 289.456 298.03 296.012L298.027 296.06ZM311.3 268.237L331.292 242.57L335.6 251.301L314.86 275.579C313.68 273.088 312.497 270.657 311.304 268.189L311.3 268.237ZM315.065 276.449L335.557 251.937C336.424 252.647 337.101 256.153 337.536 258.256L316.245 282.123L316.049 282.17C315.736 280.219 315.396 278.316 315.069 276.401L315.065 276.449ZM338.253 258.51L370.471 224.67L372.069 231.095L338.752 263.92L338.253 258.51ZM372.744 231.093L410.274 196.361C410.659 199.027 411.042 201.705 411.415 204.37L372.841 237.464C372.792 235.339 372.756 233.215 372.744 231.093ZM410.965 195.757L445.385 164.779C445.792 168.363 446.186 171.958 446.591 175.553L412.372 203.929L412.177 203.976L410.965 195.757ZM446.285 164.129L478.648 137.712C478.648 137.712 478.046 150.1 477.342 151.245L447.259 174.948L446.285 164.129ZM479.849 137.408C480.892 134.466 499.374 124.271 502.949 120.765L503.549 120.613L501.687 133.65L478.046 150.642L479.849 137.408ZM479.938 136.101C480.321 132.245 480.716 128.378 481.099 124.523C482.109 121.71 500.339 112.39 503.831 109.036C503.774 112.528 503.729 116.02 503.672 119.512L479.938 136.101ZM481.543 122.95L481.496 122.753C483.459 117.511 485.422 112.264 487.385 107.013L504.567 97.3323C504.328 100.848 504.196 104.383 504.016 107.903C503.493 109.049 483.991 121.85 481.53 122.973L481.543 122.95ZM486.863 106.712L469.122 113.28L484.513 86.2038L494.625 87.5065C492.031 93.8878 489.44 100.277 486.853 106.675L486.863 106.712ZM468.071 113.33L456.807 109.116L456.252 108.608L474.343 80.4369L484.002 85.9159C478.694 95.0218 473.38 104.147 468.061 113.293L468.071 113.33ZM455.558 108.368L445.486 100.45L444.734 100.001L463.166 72.2991L473.838 80.0651L455.558 108.368ZM445.387 97.4775L444.19 99.4936L433.215 90.5136L433.228 90.3216C439.198 81.2849 445.176 72.2607 451.16 63.249L462.689 71.8689L445.387 97.4775ZM433.073 89.0574L432.463 90.0647L420.852 81.0415L438.937 54.7267C440.897 55.1372 448.68 60.7538 450.013 62.3995L450.766 62.8485C444.873 71.5771 438.972 80.3011 433.064 89.0206L433.073 89.0574ZM420.436 80.0849C419.047 81.1959 413.905 76.9404 411.865 76.4762L410.824 75.67L427.555 48.9014L438.671 54.2143L420.436 80.0849ZM417.937 46.005C418.403 43.7463 420.64 41.6684 421.966 39.89L434.248 21.6911L444.407 23.1899L444.708 23.5479L427.61 47.5671C426.08 48.9819 420.106 46.1526 417.855 45.9633L417.937 46.005ZM417.035 45.799L408.565 45.1504L408.173 45.2443L425.469 22.5526L433.532 21.5942L417.035 45.799ZM416.482 46.1471L416.528 46.3552L400.8 72.0106C399.301 73.3311 393.753 71.3263 391.294 71.3639L407.669 45.7525L416.482 46.1471ZM390.491 71.1165L382.582 71.7839C388.523 63.7578 394.469 55.7239 400.42 47.6824L404.771 46.3872L406.573 45.9311C401.222 54.359 395.862 62.7541 390.491 71.1165ZM389.788 71.7196L389.834 71.9276L372.9 100.442L363.783 99.7378C369.822 90.6334 375.853 81.5284 381.876 72.423L389.788 71.7196ZM372.15 100.849C372.258 103.328 368.335 108.064 366.895 110.473L353.114 134.586L342.596 132.532L363.287 100.295L372.15 100.849ZM342.165 131.779C340.64 133.303 334.457 131.424 331.906 131.576L331.848 131.367L353.744 100.538L362.362 100.087L362.663 100.445L342.165 131.779ZM341.567 132.775L318.17 168.674C316.64 172.391 310.308 171.285 306.354 169.919L305.95 170.025C314.352 157.336 322.751 144.647 331.145 131.958L341.567 132.775ZM316.167 171.732L291.016 208.271C289.61 211.225 283.694 208.086 280.548 208.125L280.247 207.767L305.443 170.569L316.167 171.732ZM279.565 207.516C277.769 208.599 274.319 207.629 271.999 207.918L271.709 207.572L296.354 171.578L304.856 170.529L279.565 207.516ZM278.92 208.328L278.967 208.524L260.222 234.975L252.712 234.729C258.844 226.025 264.972 217.316 271.097 208.604L278.92 208.328ZM259.521 235.542L259.626 235.947L245.198 254.892C244.235 256.659 239.987 255.188 237.631 255.293L237.645 255.101L252.023 235.297L259.521 235.542ZM236.938 255.041L231.128 255.647L230.827 255.289L245.001 236.194L251.364 235.24L236.938 255.041ZM236.235 255.644L223.904 272.791L218.244 273.141L217.943 272.783C221.976 267.312 226.002 261.831 230.021 256.343L236.235 255.644ZM222.809 273.488L223.2 273.394C220.216 277.611 217.227 281.828 214.235 286.045C213.593 286.797 209.839 286.746 208.574 286.395L208.182 286.501L217.148 273.85L222.809 273.488ZM213.231 287.17L213.681 287.273C210.568 291.256 207.447 295.235 204.319 299.209L198.506 298.958L198.206 298.6L207.474 287.176L213.231 287.17ZM203.419 299.859C198.72 303.79 194.035 307.735 189.366 311.693L187.956 311.187C187.511 311 187.836 311.179 187.458 310.888L197.585 299.402L203.419 299.859ZM188.338 311.936L188.882 312.444L174.209 326.128C173.982 325.751 173.742 325.385 173.514 325.02L186.789 311.686L188.338 311.936ZM175.876 327.821L176.28 327.728L161.783 342.015L161.239 341.52L160.637 340.816L174.06 327.263C174.385 327.211 174.718 327.234 175.033 327.33C175.348 327.427 175.636 327.595 175.876 327.821ZM160.127 340.516L159.779 339.962L166.892 333.49L160.127 340.516ZM161.175 342.817L146.836 356.199L146.037 355.554L145.689 355L159.844 341.666C160.577 341.872 160.69 341.977 161.139 342.815L161.175 342.817ZM147.708 358.959L133.83 371.588C132.469 368.397 143.791 360.416 146.248 357.401C147.051 357.648 147.325 358.04 147.708 358.959ZM135.028 374.695L122.487 386.777L121.409 384.92L133.682 372.699L135.028 374.695ZM120.853 384.424C119.307 380.774 130.14 373.953 132.279 370.482L133.531 372.086L120.853 384.424ZM119.508 382.415L118.348 380.348L131.131 368.415L132.222 370.08L119.508 382.415ZM120.544 384.897L109.366 396.432L108.726 394.677L119.289 383.341L120.544 384.897ZM110.617 398.036L111.174 398.532C109.307 400.31 107.471 403.922 104.753 404.4L104.694 404.203L109.011 397.577L110.617 398.036ZM108.674 397.036L99.8497 406.899L99.1555 406.659L98.8546 406.301L107.815 395.326C108.369 395.677 108.472 396.106 108.684 397.061L108.674 397.036ZM99.4005 407.484L94.8879 414.156C96.0661 411.826 97.2543 409.467 98.4523 407.082L99.4005 407.484ZM90.977 416.41C90.4358 415.336 89.9178 414.276 89.3287 413.2L96.6401 403.27L97.847 405.534C98.0717 407.719 92.4388 414.749 90.941 416.407L90.977 416.41ZM88.8072 412.899L86.2964 411.39C88.8532 408.269 91.4102 405.144 93.9675 402.015L96.0717 402.773L96.4643 402.667L88.8072 412.899ZM88.5552 413.593L82.7943 424.629L82.1378 425.428L79.3814 422.926L85.8008 411.947L85.9975 411.888L88.5552 413.593ZM81.7921 425.73C81.8364 428.265 79.1269 439.593 77.7754 441.224C77.2326 437.872 76.6771 434.532 76.1335 431.192C77.0626 428.687 78.0036 426.184 78.9327 423.679L81.7921 425.73ZM80.0815 439.368C81.3721 439.872 82.5232 440.677 83.4384 441.718L77.2631 449.64L73.9091 448.134L73.9221 447.942L80.0815 439.368ZM83.743 456.361L75.7361 465.183L70.1404 458.92L77.2599 450.749L83.743 456.361ZM75.2755 465.935L68.016 473.506L63.5064 467.389L69.8756 459.625L75.2755 465.935ZM57.9022 467.092L58.1683 463.18L62.3669 460.416L62.7734 461.167L57.9022 467.092ZM59.5543 465.999L61.2079 466.654L62.5038 467.61L57.7004 473.07L55.4443 471.711L55.0397 471.816L59.5543 465.999ZM58.1037 483.428L55.7435 486.787L54.996 488.038L52.1835 486.183C48.0568 484.529 51.7969 482.661 52.8946 479.626C54.616 479.815 56.8473 482.245 58.1037 483.428ZM54.6964 488.548L52.2379 494.059L51.5814 494.858L45.9705 492.005L45.6697 491.647L49.2353 485.44L54.6964 488.548ZM51.2706 495.355L45.4569 503.627L40.3536 500.218L45.1622 492.203L51.2706 495.355ZM45.354 504.078L39.8511 511.853L39.5523 512.351L35.7889 509.25L35.0374 508.789L39.846 500.774C40.1344 500.849 40.3954 501.005 40.5983 501.223L45.354 504.078ZM39.2406 512.86L34.692 518.47L30.5809 514.815L34.5527 509.54L39.2406 512.86ZM45.0542 518.222L45.5517 518.521C43.6355 520.488 41.6704 522.464 39.7901 524.434L35.0397 519.024L39.3924 513.461C41.1329 513.724 44.034 516.754 45.0422 518.221L45.0542 518.222ZM33.6877 518.715L34.1845 519.026L29.2733 523.236L25.7166 519.221L29.8314 515.21L33.6877 518.715ZM40.2997 524.734L45.6566 518.926C47.0142 520.923 48.359 522.931 49.7157 524.94L44.5057 529.649L44.2069 530.147C42.8842 528.345 41.5778 526.54 40.2877 524.733L40.2997 524.734ZM40.0959 512.858L45.6087 504.228L52.5305 508.701L52.6824 509.302C50.5215 512.032 48.3681 514.771 46.2222 517.518L45.7615 518.27L40.0959 512.858ZM48.1636 505.089L46.1154 503.684L51.9735 495.644L60.1814 497.854L60.4831 498.2C58.1348 501.56 55.7786 504.92 53.4144 508.279L53.0218 508.385L48.1636 505.089ZM61.1909 498.417L66.8886 503.18L67.3854 503.491L59.6714 512.61C59.4679 512.946 59.2644 513.282 59.0729 513.619L54.1174 509.098L53.6079 508.799L61.1909 498.417ZM62.4019 498.319L61.9044 498.019L67.6688 492.951C69.1796 494.347 70.7312 495.735 72.3236 497.113L72.4753 497.714L68.1078 502.432L67.8089 502.93L62.4019 498.319ZM68.3603 492.347L72.0737 485.029L77.8792 492.102L73.1199 496.914L68.3603 492.347ZM72.5224 484.276L81.7413 475.163C83.635 476.184 85.938 481.102 86.9492 483.232L78.3279 491.349L72.5224 484.276ZM86.6973 483.926L86.9011 483.94L89.2457 488.247C89.1641 489.446 82.4861 495.02 80.8883 495.67L78.7184 492.159L86.6973 483.926ZM82.1394 495.514L83.0415 495.708L82.7822 503.237L82.888 503.63L78.6298 501.074L78.2774 498.82L82.1394 495.514ZM91.0975 510.951L86.5473 511.449L83.5834 504.738C87.4221 505.493 89.3722 506.747 91.1574 510.955L91.0975 510.951ZM91.0534 511.599C92.7276 511.773 94.5151 513.824 95.6454 514.913L93.1074 516.814L86.9181 512.017L91.0534 511.599ZM96.2617 515.413L103.874 515.22L100.769 520.674L93.9763 517.319L96.2617 515.413ZM101.521 521.135C102.541 519.24 103.548 517.355 104.568 515.472L114.292 522.836L114.444 523.437C112.816 524.933 111.195 526.406 109.578 527.855L101.579 521.525L101.521 521.135ZM105.225 514.661L110.886 510.055L119.093 516.52L120.1 517.119L114.89 522.888L105.225 514.661ZM120.205 517.524L127.513 524.639L124.41 530.962L124.307 531.413L116.189 523.628L115.691 523.329L120.205 517.524ZM128.011 524.938L133.072 526.488C132.697 528.994 132.334 531.501 131.958 534.007L125.252 531.851L124.951 531.493L128.011 524.938ZM134.023 526.854L140.886 527.056C140.815 529.341 140.743 531.627 140.684 533.913L140.777 534.317L132.62 534.016C133.108 531.626 133.584 529.235 134.047 526.856L134.023 526.854ZM141.486 526.904L152.902 527.451C152.905 530.007 152.904 532.563 152.899 535.118L141.228 534.42L141.486 526.904ZM141.531 526.244C141.555 523.762 141.572 521.272 141.582 518.773L152.705 518.132L152.751 526.85L141.531 526.244ZM152.405 517.774L141.685 518.322C141.542 516.878 141.388 515.421 141.234 513.964L141.142 513.56L151.861 513.011L152.762 517.472L152.405 517.774ZM143.496 512.768L138.378 508.502L128.015 503.638L124.814 503.589L114.199 495.164C113.426 490.422 114.375 486.918 115.093 483.435L115.403 477.815C116.396 474.736 118.617 472.006 119.054 468.588L124.824 466.087L134.142 459.066L143.559 450.75L149.664 447.947C157.602 445.968 166.165 446.863 172.065 450.423C170.579 449.157 169.423 447.547 168.698 445.734L175.611 452.111L175.763 452.712C175.236 452.483 174.701 452.218 174.178 451.929C175.823 453.248 177.15 454.92 178.061 456.822C179.947 460.784 178.221 466.151 177.757 469.254C176.307 479.052 175.004 489.186 172.238 498.328C170.9 502.77 163.905 510.708 168.331 515.928C163.202 514.002 157.823 512.824 152.359 512.43L143.496 512.768ZM172.48 501.684L170.021 507.207C170.055 504.569 171.377 502.851 171.979 500.541L172.48 501.684ZM168.92 506.203L169.323 505.242C169.306 505.494 169.532 505.353 169.22 505.693L168.92 506.203ZM168.369 511.663L167.873 512.22C168.069 510.75 168.266 509.269 168.475 507.8C168.655 507.346 168.908 506.924 169.222 506.549C170.149 507.794 168.61 510.414 168.356 511.662L168.369 511.663ZM152.787 513.219L164.067 514.878C164.344 516.295 164.633 517.713 164.91 519.131L153.746 517.877C153.419 516.324 153.103 514.771 152.775 513.218L152.787 513.219ZM165.615 519.383C165.326 517.965 165.049 516.548 164.761 515.118C168.949 516.223 171.396 519.029 173.871 522.838L165.615 519.383ZM172.834 519.489L172.489 519.779L167.727 514.368L169.588 509.853L174.148 513.623C173.739 515.572 173.293 517.531 172.858 519.49L172.834 519.489ZM170.036 509.1C170.951 506.812 171.877 504.524 172.791 502.236L177.1 504.94C176.251 507.498 175.404 510.044 174.543 512.601L174.197 512.903L170.036 509.1ZM177.802 505.24L184.162 507.698C185.293 508.776 182.37 514.749 182.151 516.723L181.806 517.025L176.449 514.322C174.161 512.37 176.777 508.269 177.826 505.242L177.802 505.24ZM182.258 517.984L189.82 520.138C189.322 522.672 188.812 525.217 188.313 527.763C186.476 528.385 183.176 526.798 181.183 526.349L182.258 517.984ZM188.755 528.709L195.569 527.858C195.545 528.206 195.594 528.559 195.618 528.91L188.953 529.506L188.755 528.709ZM189.25 528.152L188.949 527.806C189.466 525.334 189.996 522.862 190.513 520.39L196.869 521.136C196.516 523.149 196.163 525.15 195.822 527.152L189.25 528.152ZM190.604 519.938L192.911 510.451L199.329 512.25C198.588 514.996 197.848 517.731 197.119 520.478C196.554 521.163 192.2 520.023 190.64 519.941L190.604 519.938ZM199.978 512.27L205.04 512.916C204.498 515.037 203.969 517.159 203.403 519.278L197.791 520.692L199.978 512.27ZM206.185 517.514L206.836 519.27L203.634 523.489C203.722 520.433 204.576 519.563 206.22 517.529L206.185 517.514ZM204.488 518.375C204.543 516.283 205.222 514.256 206.438 512.553L207.289 512.611C206.817 515.122 206.47 516.678 204.523 518.39L204.488 518.375ZM205.34 512.406L200.278 511.748L202.485 502.676L207.894 503.888C207.062 506.737 206.218 509.584 205.375 512.42L205.34 512.406ZM202.784 502.178C203.497 499.659 204.223 497.129 204.936 494.61L210.646 495.311L208.541 502.703C207.099 503.713 204.675 502.343 202.819 502.193L202.784 502.178ZM205.444 494.054L207.795 487.294L214.41 486.539L214.397 486.731L210.984 494.406L205.444 494.054ZM208.498 486.691L208.197 486.333L210.654 479.966L218.666 477.968C217.468 480.538 216.257 483.108 215.058 485.691L208.498 486.691ZM211.102 479.213L211.055 479.017L212.604 473.963C214.234 473.282 216.018 473.054 217.767 473.302L218.171 473.209L219.103 477.214L211.102 479.213ZM213.154 472.952C213.943 471.27 214.733 469.575 215.51 467.892L221.079 467.994L218.364 472.499L213.154 472.952ZM218.723 473.053L221.922 467.991L224.926 468.087L219.622 476.659L218.723 473.053ZM222.43 467.435L225.629 458.117L229.137 455.945C229.896 456.286 225.937 465.624 225.434 467.531L222.43 467.435ZM225.835 457.215C226.317 454.604 226.804 451.997 227.294 449.394L233.28 440.001C234.061 440.38 230.308 452.36 230.163 454.845L225.835 457.215ZM226.784 449.095L221.679 449.085L225.54 436.401L234 437.916L226.784 449.095ZM225.877 435.881C227.807 430.29 229.745 424.692 231.692 419.087L240.656 418.334L241.059 418.241C238.874 424.522 236.684 430.802 234.491 437.082L225.877 435.881ZM231.991 418.589C234.396 412.026 236.802 405.459 239.208 398.888L248.221 398.296C245.988 404.677 243.752 411.063 241.51 417.452L231.991 418.589ZM239.507 398.39C241.723 391.075 243.946 383.772 246.176 376.482L253.887 378.381C252.134 384.916 250.347 391.412 248.527 397.87L239.507 398.39ZM246.477 375.96L252.495 357.419L258.395 360.63C257.065 366.374 255.722 372.121 254.368 377.871L246.477 375.96ZM244.133 353.753L243.832 353.407L249.846 338.12L257.355 342.633C255.742 347.225 254.124 351.82 252.503 356.419L244.133 353.753ZM250.297 337.512L250.192 337.107C251.873 333.637 253.558 330.164 255.248 326.686L261.561 333.203L257.504 341.679L257.598 342.071L250.297 337.512ZM255.756 326.13L262.767 313.347C264.875 314.238 267.922 319.363 269.073 321.575L262.11 332.047L261.811 332.545L255.756 326.13ZM269.262 322.324L271.819 328.296C269.739 331.369 267.667 334.443 265.603 337.517L262.15 333.051C264.537 329.476 266.91 325.917 269.271 322.372L269.262 322.324ZM269.966 321.72C273.374 317.179 276.783 312.633 280.191 308.083L282.738 314.91C279.236 319.181 275.761 323.457 272.314 327.739C271.541 325.766 270.761 323.776 269.975 321.769L269.966 321.72ZM297.367 297.607C298.121 298.212 297.994 301.145 298.223 302.728C293.221 308.519 288.21 314.318 283.19 320.125C284.491 309.316 293.312 306.239 297.376 297.655L297.367 297.607ZM315.401 283.729C317.105 285.773 314.011 289.288 312.842 290.546L297.921 306.637C299.882 297.115 310.804 291.818 315.41 283.778L315.401 283.729ZM337.395 259.259C338.066 259.486 338.17 262.735 338.099 263.779C337.795 266.314 333.671 268.854 331.939 270.593L315.916 287.489C317.246 276.079 331.948 268.689 337.404 259.308L337.395 259.259ZM338.749 264.679L371.661 231.96C372.716 232.742 372.137 236.295 372.312 237.971L338.044 269.55C338.284 267.975 338.527 266.34 338.757 264.728L338.749 264.679ZM382.679 230.045L411.232 205.467C410.786 208.486 410.327 211.517 409.881 214.536L405.925 217.45L371.968 244.276L371.772 244.323C372.157 236.887 377.553 234.578 382.688 230.094L382.679 230.045ZM412.098 204.778L446.121 176.45L444.509 187.937L410.55 213.895C411.1 210.895 411.63 207.873 412.143 204.83L412.098 204.778ZM447.214 175.608L476.716 152.3C475.874 155.714 475.02 159.124 474.154 162.529L473.101 166.845L445.205 187.442L447.214 175.608ZM477.978 151.289L501.423 134.343L499.621 143.129L498.615 147.642L474.168 165.869L477.978 151.289ZM502.325 133.657L525.161 118.575C525.101 121.898 524.714 125.207 524.008 128.454L499.411 146.743L502.325 133.657ZM525.713 117.371L502.577 132.963C503.124 128.637 503.672 124.298 504.231 119.972L525.168 107.498L525.769 107.345C525.744 110.719 525.733 114.07 525.711 117.407L525.713 117.371ZM525.814 106.686L504.483 119.278L504.275 119.324C504.376 115.715 504.485 112.166 504.584 108.593L524.472 97.0108C526.008 97.6336 525.672 104.699 525.813 106.698L525.814 106.686ZM523.115 85.6352C524.805 86.811 524.642 93.6349 525.07 96.0147L504.632 107.885C504.882 104.213 505.132 100.529 505.286 96.8508L523.115 85.6352ZM504.734 96.6445L487.552 106.325L495.115 87.7327C498.382 85.0377 502.847 86.149 506.435 83.6808L507.035 83.5288C506.28 87.8975 505.513 92.2694 504.734 96.6445ZM515.254 65.9214L515.659 65.8164C512.861 71.5409 510.102 77.2761 507.383 83.022L495.868 86.5784C500.058 78.9314 504.247 71.2804 508.437 63.6254L515.254 65.9214ZM507.942 63.2903C503.698 71.0381 499.453 78.7858 495.209 86.5336L485.19 85.623L485.204 85.4311C490.242 76.6363 495.288 67.8461 500.342 59.0604C502.781 59.4916 506.028 61.6894 507.942 63.2903ZM499.427 58.1664L499.924 58.4655C494.841 67.3375 489.749 76.213 484.648 85.0919C481.891 84.9044 476.892 81.5626 474.826 79.8791L491.974 52.1143C494.454 54.1394 496.939 56.1488 499.428 58.1424L499.427 58.1664ZM491.611 51.6074L477.887 73.3005L474.137 79.567L464.171 72.042C463.181 70.8415 467.107 66.7689 468.024 65.3244L482.156 44.3583L491.611 51.6074ZM481.598 43.8863L462.869 71.3507L451.744 62.6258L470.033 36.144C472.567 36.4369 479.542 42.0708 481.6 43.8623L481.598 43.8863ZM469.736 35.5572L457.153 53.3982C455.221 55.9549 453.714 60.3971 450.844 62.227L441.179 55.06L439.675 54.15L457.459 28.1884C460.386 28.713 467.342 33.5741 469.738 35.5332L469.736 35.5572ZM456.661 27.5314L456.962 27.8894L439.521 52.705C438.753 54.0752 429.738 49.7371 428.005 48.3052L445.042 23.5827L456.661 27.5314ZM460.373 1.46843L460.42 1.6645L445.039 22.7507L434.43 21.1369L450.657 0.891877L460.373 1.46843ZM448.658 1.4189L449.651 1.16098L434.175 20.987L426.113 21.9454L442.796 3.49138L448.658 1.4189ZM421.66 23.6677L437.74 7.88494C437.381 9.97012 425.167 22.3994 421.709 23.8278L421.66 23.6677ZM419.598 25.6611L423.704 23.3607C424.046 24.3604 420.393 27.9574 419.249 29.3743C415.31 34.6275 411.368 39.8764 407.423 45.121L401.282 46.8731L419.598 25.6611ZM406.47 39.6436L406.679 39.5855L406.379 40.0955L406.47 39.6436ZM397.102 49.0117L405.976 40.1886C406.479 40.2228 405.548 40.9913 405.377 41.1966C402.912 43.9703 400.927 47.307 397.16 49.2086L397.102 49.0117ZM381.122 66.8627L394.591 51.5773L398.248 49.162L398.639 49.0681L381.724 71.8219L374.955 73.7724L381.122 66.8627ZM379.499 73.0207L381.091 72.6227L363.309 99.4403L354.752 100.064L354.451 99.7057L373.907 74.6655L379.499 73.0207ZM370.833 77.5424L365.363 84.6563C361.405 89.8358 357.44 95.0148 353.467 100.193L347.363 102.997L370.833 77.5424ZM345.98 104.204L352.21 101.144C352.71 102.119 348.644 106.64 347.548 108.06L331.212 131.324L323.442 133.483C330.955 123.724 338.459 113.963 345.956 104.203L345.98 104.204ZM322.637 134.333L326.585 133.13L330.395 132.184C322.281 144.298 314.162 156.415 306.039 168.536C305.098 170.69 299.926 170.76 296.885 171.035L296.826 170.838L322.637 134.333ZM291.321 174.394C297.9 166.082 304.488 157.762 311.084 149.435L311.177 149.839C309.639 151.916 308.111 154.006 306.572 156.095C301.83 162.246 298.973 170.261 291.391 174.603L291.321 174.394ZM264.598 209.777C267.431 206.016 270.256 202.254 273.074 198.492C278.624 191.146 284.166 183.796 289.7 176.441L294.567 172.879C294.425 173.195 294.295 173.511 294.166 173.828L287.595 183.314C281.978 191.523 276.365 199.744 270.754 207.978L264.597 209.97L264.598 209.777ZM264 210.773L268.514 209.223L270.118 208.826L252.229 234.395L245.716 235.591L264 210.773ZM251.433 226.264C252.039 226.378 250.871 227.263 250.673 227.514C247.79 231.308 245.979 234.91 241.537 237.899C244.868 234.019 248.166 230.141 251.433 226.264ZM225.724 257.196L239.51 239.895L243.303 237.247L239.191 242.995C235.565 247.968 232.887 254.754 225.768 257.428L225.724 257.196ZM225.126 258.192L228.844 256.648L217.17 272.984L212.759 274.094L225.126 258.192ZM210.935 274.537L212.789 272.59C213.276 272.695 211.531 274.445 210.981 274.745L210.935 274.537ZM210.386 275.705L203.572 285.934C205.246 282.162 207.55 278.703 210.386 275.705ZM211.885 274.903L216.296 273.805L207.522 286.468L203.319 287.52L211.885 274.903ZM202.664 288.126L206.52 287.376L197.456 298.814L195.849 298.367L202.664 288.126ZM195.205 299.155L196.704 299.257L196.751 299.453L186.676 308.581L195.205 299.155ZM193.24 303.265C193.743 303.299 192.824 304.068 192.641 304.273C190.123 307.127 188.037 310.698 184.079 312.587C185.857 308.754 190.567 306.615 193.204 303.263L193.24 303.265ZM184.426 313.141L173.501 323.97L173.305 324.017C173.612 321.627 181.907 315.296 184.022 313.246L184.426 313.141ZM182.67 312.937C183.264 313.05 182.291 313.719 182.071 313.945L172.656 323.117L172.354 322.771L182.67 312.937ZM172.658 323.973C172.009 326.774 167.147 330.265 164.879 332.087L172.438 324.019L172.658 323.973ZM171.859 323.316C172.36 323.917 172.048 323.546 171.457 324.277L159.081 336.949L171.859 323.316ZM163.978 332.942L164.427 332.189C165.026 332.23 164.142 332.833 163.99 332.943L163.978 332.942ZM172.739 325.425L173.862 326.623L159.432 339.408L159.13 339.062L172.739 325.425ZM145.305 354.455C144.622 352.094 156.718 343.177 158.879 340.624L159.585 340.877L145.305 354.455ZM156.28 339.531L156.472 339.544L156.173 340.042L156.28 339.531ZM155.772 340.087L155.98 340.041L155.681 340.539L155.772 340.087ZM144.401 352.513L158.382 339.433L158.578 339.386L158.88 339.732L144.459 352.722L144.401 352.513ZM145.954 356.235L146.302 356.79L132.679 369.569L131.819 367.871L144.755 355.623C145.541 355.761 145.391 355.848 145.957 356.199L145.954 356.235ZM143.753 353.181C144.509 353.232 139.194 357.885 138.303 358.596L143.753 353.181ZM136.032 360.455C136.608 360.494 135.727 361.049 135.584 361.208L136.032 360.455ZM132.493 363.625L132.689 363.566L132.39 364.076L132.493 363.625ZM144.114 353.892C145.327 355.361 133.68 365.647 131.543 367.503L130.785 366.246L144.114 353.892ZM130.086 366.777C130.633 367.067 130.726 367.29 131.036 368.047L118.057 380.026C116.615 376.613 127.558 369.775 130.074 366.776L130.086 366.777ZM119.151 382.717L108.33 393.951L107.277 393.144L106.027 392.396L117.494 381.218C118.409 381.4 118.637 381.946 119.151 382.717ZM105.129 388.779L116.299 378.954L116.703 378.861C117.917 381.729 108.424 389.388 105.875 391.795L105.679 391.842L105.129 388.779ZM105.52 392.94L107.823 394.495L99.1499 404.971L98.7012 405.724L97.4935 403.472C97.4298 401.045 103.963 395.124 105.52 392.94ZM104.426 389.382L105.172 392.398L98.8978 396.106L98.702 396.153L98.3543 395.599C98.1979 393.117 102.986 391.068 104.426 389.382ZM103.628 393.848C103.899 394.638 98.6187 400.74 97.0626 401.84L96.7638 402.338L94.6587 401.592L94.6725 401.388C96.6813 397.884 100.277 396.718 103.63 393.812L103.628 393.848ZM97.3581 395.194L98.1157 396.451L93.956 401.122L92.0577 399.462L97.3581 395.194ZM90.7016 399.213C91.006 399.873 83.8485 407.185 82.5321 408.301L90.7016 399.213ZM91.351 400.113C91.8119 400.253 92.2399 400.485 92.6098 400.794C92.9798 401.103 93.2841 401.483 93.5048 401.911L85.6508 411.141C84.6239 410.481 83.6106 409.797 82.5957 409.137L91.351 400.113ZM82.0282 409.689L85.2913 411.647L78.8727 422.614L77.2652 422.167L75.9693 421.211L82.0282 409.689ZM75.7166 421.917L78.62 423.32C77.7671 425.589 76.9134 427.869 76.0726 430.139C75.4028 430.669 74.5714 430.953 73.7176 430.943L75.7166 421.917ZM73.4648 431.649L75.521 431.343C76.1273 435.001 76.752 438.563 77.3616 442.173L76.8669 442.718L73.0634 441.977C73.1855 438.529 73.3193 435.087 73.4648 431.649ZM73.0073 442.624L76.5092 443.019L76.5672 443.228L73.7122 447.132L73.5044 447.178C73.3427 445.66 73.181 444.143 73.0073 442.624ZM75.3118 449.29L76.8624 450.396C74.4938 453.112 72.1246 455.836 69.7549 458.568L67.0942 457.314L66.6904 457.407L73.4034 448.485L75.3118 449.29ZM71.4502 448.34L72.5113 447.436L72.9039 447.33C72.9659 447.72 72.9024 448.12 72.7227 448.472C72.5429 448.824 72.2561 449.109 71.9037 449.287L71.455 450.04C71.4566 449.486 71.4597 448.908 71.4502 448.34ZM67.1515 452.4C67.6745 451.085 69.4972 450.317 70.4019 449.233C71.0136 449.625 70.8553 449.65 70.9014 450.389L67.2392 455.359C67.2103 454.369 67.1813 453.378 67.1515 452.4ZM66.3431 452.598C66.4533 453.811 66.5458 455.107 66.6416 456.355L63.2863 459.116L63.0904 459.163L63.3124 455.9C63.758 454.483 65.4128 453.704 66.3431 452.598ZM62.1354 456.205L62.5392 456.112C62.8938 459.753 61.2566 460.449 58.5102 462.227C59.166 459.138 60.2699 458.489 62.1354 456.205ZM58.4344 459.269L57.9345 462.369L55.9272 463.727C56.4227 462.073 57.2791 460.551 58.4344 459.269ZM56.9303 463.675C57.8491 463.978 57.5066 467.596 56.6038 468.474C55.701 469.353 55.0258 468.656 53.8431 468.516L53.5414 468.17C54.0167 467.201 54.4801 466.232 54.9435 465.263L56.9303 463.675ZM53.2234 464.17L53.6272 464.077L52.4751 465.433C52.646 464.96 52.9178 464.53 53.2714 464.173L53.2234 464.17ZM52.3749 466.728C52.6817 466.291 52.9996 465.867 53.3183 465.43C53.0931 465.909 52.855 466.399 52.6177 466.877L52.421 466.936L52.3749 466.728ZM51.6174 465.471C52.0618 466.55 50.339 467.976 49.465 468.784C49.4093 466.948 50.8206 466.562 51.6686 465.426L51.6174 465.471ZM51.4843 467.427L51.8881 467.334C51.7991 468.642 50.7021 469.544 49.8856 470.392C49.8081 468.699 50.8226 468.479 51.5091 467.417L51.4843 467.427ZM53.1399 468.938L55.8447 469.544C54.6799 471.323 53.1806 472.859 51.4302 474.065L50.5389 473.004C50.6175 471.141 52.4099 470.287 53.1672 468.892L53.1399 468.938ZM47.1368 470.434L48.3791 468.638C48.8894 468.926 48.6188 468.655 48.9815 469.342L47.3787 470.595L47.1829 470.642L47.1368 470.434ZM48.5797 470.291L49.1802 470.139L49.3788 470.936L47.2786 471.89C47.6139 471.033 48.0457 470.882 48.6069 470.245L48.5797 470.291ZM49.6152 472.773L50.6123 474.227L50.5094 474.678L47.5566 476.478L47.3649 476.465L46.8625 474.466L49.6152 472.773ZM46.4111 471.012L46.6069 470.965C46.5833 471.313 46.6435 471.666 46.6558 472.017L46.0084 471.973C46.1879 471.635 46.3187 471.307 46.4606 470.991L46.4111 471.012ZM45.8514 473.927L46.4519 473.775L45.7604 474.379L45.8514 473.927ZM45.7942 474.767C46.5825 475.218 46.6941 476.588 46.4476 477.379L46.5406 477.783L46.1948 478.085C45.7386 476.825 45.3797 475.727 45.9038 474.75L45.7942 474.767ZM46.7082 479.036L47.0536 477.854L47.9108 478.708L48.4083 479.007L47.763 479.819L46.7082 479.036ZM49.667 478.032L52.2687 479.089L52.6733 478.984C51.7787 480.273 50.896 481.563 50.0014 482.853L48.9551 484.602L47.0468 483.797L46.2476 483.152C47.4143 481.463 48.5695 479.766 49.7133 478.059L49.667 478.032ZM45.8578 484.102L48.3546 484.754L48.6563 485.1L44.906 491.366L42.9507 490.365L42.5461 490.47C43.7001 488.379 44.7965 486.248 45.9041 484.129L45.8578 484.102ZM42.0514 491.015L44.0968 491.576C44.8424 492.833 41.0674 498.398 39.7977 499.891C36.2859 498.579 40.8654 493.755 42.0978 491.043L42.0514 491.015ZM37.3938 499.643L39.5449 500.597C37.8494 503.214 36.1616 505.836 34.4815 508.462L32.7342 507.415L37.3938 499.643ZM32.3319 508.195L32.9912 508.24L34.0443 509.047C32.635 510.82 31.2378 512.593 29.8294 514.354L28.8812 513.952L28.0821 513.307L32.3319 508.195ZM27.5721 513.899L27.7688 513.84L29.3314 514.947L25.1643 518.665L24.458 518.424C24.1155 518.148 23.7603 517.883 23.405 517.617L27.5721 513.899ZM22.7198 518.306L24.6631 519.306L20.3643 523.366L20.0535 523.863L18.561 522.966L22.7198 518.306ZM17.8575 523.569L19.558 524.42C18.2735 525.598 17.2645 527.506 15.5009 527.76L14.7026 527.103L17.8575 523.569ZM14.0444 527.926L14.6448 527.774L15.698 528.581L15.0534 529.381L13.8725 529.036L13.5718 528.678L14.0444 527.926ZM12.4436 530.036L13.7964 530.332L13.4968 530.842C12.6565 530.978 13.1295 531.107 12.3995 530.683L11.949 530.58L12.4436 530.036ZM9.08839 532.797L11.0368 531.242L11.9389 531.436L12.3427 531.343L10.2809 533.324L9.5295 532.863L9.08839 532.797ZM10.0862 534.239L11.8916 535.495L9.14121 538.924L8.28398 538.07L7.03422 537.322L10.0862 534.239ZM7.38333 538.564L8.88789 539.461L6.22408 541.619L4.22479 541.266L6.37711 537.953C6.77465 538.007 7.13583 538.213 7.38578 538.527L7.38333 538.564ZM3.32742 542.772L3.67282 541.59L6.43635 542.393L6.57621 542.993L3.32742 542.772ZM6.79731 544.877L3.39121 545.73L3.73654 544.548L6.79731 544.877ZM4.59383 536.903L5.77386 537.261L6.07545 537.607L3.44847 540.815L2.80114 540.771L2.00196 540.126L4.59383 536.903ZM1.53016 540.866L2.98786 541.568C2.78436 541.903 2.58169 542.227 2.39018 542.564L1.12835 541.815L1.53016 540.866ZM1.33998 543.661L3.03958 544.524L2.83369 545.427C2.47876 545.434 2.12622 545.367 1.79934 545.228C1.47246 545.089 1.17867 544.883 0.93734 544.623L1.33998 543.661ZM0.940134 545.467L2.18915 546.227C3.24089 546.877 3.75745 549.552 4.38394 550.788C2.14977 550.347 1.58398 548.572 0.966577 545.432L0.940134 545.467ZM3.28714 546.374L7.55265 545.458L9.60472 548.575L4.9444 551.224L3.28714 546.374ZM5.43784 551.583L9.54463 549.283C10.9113 549.376 12.1233 550.856 12.9835 551.843L11.1769 554.854L5.43784 551.583ZM11.9961 554.85C13.1976 551.882 15.7308 551.114 18.9137 549.293L19.9616 552.655L11.9961 554.85ZM16.5119 544.766L23.7705 537.207C25.1669 537.748 27.3438 540.801 28.0354 542.319L19.1436 548.392L16.5119 544.766ZM30.7377 546.324L20.5161 552.295L19.4682 548.933L27.9793 542.966C29.1651 543.24 29.9946 545.032 30.6909 546.128L30.7377 546.324ZM31.4411 545.721L29.1335 542.466L37.5516 536.095L39.7047 537.905L40.4571 538.354L31.4411 545.721ZM40.9518 537.809L38.873 535.968L38.3755 535.669L43.8402 531.11L45.5352 533.637L40.9518 537.809ZM50.9239 529.133L45.8299 533.199L44.5293 530.543L49.6812 525.625C50.3773 526.191 50.5913 527.471 50.9503 529.099L50.9239 529.133ZM46.1727 518.6L53.0355 509.423L58.1877 513.884L58.6972 514.184C55.8289 517.517 52.9721 520.858 50.1268 524.209L46.1727 518.6ZM51.8793 527.836L51.5804 528.334C51.2065 527.103 50.8388 525.957 50.4736 524.775C53.2615 521.445 56.049 518.118 58.8363 514.796C59.8444 515.202 60.7679 516.675 61.4428 517.553C58.2409 520.952 55.0618 524.368 51.9057 527.802L51.8793 527.836ZM61.7416 517.055L59.5277 514.192L67.6475 504.064L70.347 507.225L61.7416 517.055ZM70.6698 506.729L68.3629 503.462L72.7737 498.108L75.1724 500.911L70.6698 506.729ZM75.5181 500.609C74.8617 499.636 74.1924 498.675 73.524 497.701L77.8327 492.786C79.0176 493.072 79.894 495.06 80.5791 496.144L75.5181 500.609ZM78.8841 502.116C82.303 503.554 84.3132 506.403 85.6427 511.291L82.6363 510.339C81.4038 507.567 80.1576 504.818 78.9106 502.082L78.8841 502.116ZM83.4816 511.192C86.8446 512.036 89.6535 514.65 92.1496 516.905C88.1483 516.416 86.145 513.821 83.508 511.158L83.4816 511.192ZM90.3483 517.361C93.726 517.589 96.9484 518.866 99.566 521.014L99.9578 520.92L97.4785 521.957L90.3483 517.361ZM98.5537 522.971L98.206 522.416L99.3601 521.916L100.757 521.565L108.224 527.582L108.976 528.031C104.602 528.782 101.842 524.388 98.5802 522.936L98.5537 522.971ZM107.477 528.833L109.728 528.492L117.844 535.409L118.585 535.857C116.316 536.101 109.302 530.332 107.503 528.799L107.477 528.833ZM110.074 528.19L114.939 523.772L123.946 531.75L119.44 535.855L110.074 528.19ZM120.377 536.064C121.745 534.726 123.116 533.389 124.492 532.052L131.649 534.311C130.96 536.109 130.283 537.919 129.595 539.717L120.377 536.064ZM130.646 539.667L130.241 539.773C130.95 538.037 131.685 536.254 132.354 534.564L140.512 534.854C140.018 536.267 139.514 537.667 139.021 539.068C137.231 539.886 132.595 540.053 130.636 539.631L130.646 539.667ZM139.506 539.366C140.065 537.885 140.612 536.392 141.17 534.911L152.229 535.759C149.583 539.606 144.256 538.942 139.497 539.329L139.506 539.366ZM149.43 539.017L149.128 538.671L153.13 535.965L157.19 537.724L157.491 538.07L149.43 539.017ZM154.691 536.216L154.39 535.858L164.208 535.116L164.953 537.264C160.239 538.221 157.949 536.823 154.681 536.179L154.691 536.216ZM164.253 534.456L153.834 535.362L153.591 535.213L153.791 527.488L163.106 528.121L163.209 527.67L153.69 527.023L153.449 518.351L164.809 519.546C165.617 522.904 165.044 530.965 164.165 533.967L164.253 534.456ZM165.611 537.321L165.051 535.113L171.117 534.464L171.521 534.359L171.019 536.616L165.611 537.321ZM175.229 534.913C174.164 535.739 172.904 536.276 171.57 536.472C172.352 533.837 173.919 533.642 175.926 531.754C176.495 532.239 175.432 533.709 175.218 534.9L175.229 534.913ZM172.314 533.509C171.613 528.941 172.938 527.524 174.07 524.334L176.732 530.7L172.314 533.509ZM176.343 527.394L176.135 527.44L174.623 523.287C175.541 523.964 176.006 525.792 176.322 527.357L176.343 527.394ZM173.392 520.672C173.825 518.435 174.258 516.198 174.692 513.961L181.748 517.515L180.453 525.938L173.392 520.672ZM181.846 528.998C180.475 528.499 179.279 527.609 178.407 526.438L181.763 528.8L181.846 528.998ZM181.347 527.843C181.746 527.908 182.106 528.122 182.354 528.442L181.347 527.843ZM188.111 530.208C186.266 530.214 184.47 529.614 183 528.498L188.061 530.048L188.111 530.208ZM181.1 527.043C182.97 527.17 187.202 527.807 188.257 529.302L181.1 527.043ZM193.065 529.798L192.871 530.7L188.815 530.654L188.663 530.053L193.018 529.601L193.065 529.798ZM196.529 530.033L193.723 530.734L193.87 529.635L196.377 529.432L196.529 530.033ZM197.325 529.834L196.919 529.083L198.524 528.686L198.825 529.032L197.325 529.834ZM199.57 528.359L200.574 528.114C200.325 528.941 200.405 528.645 199.57 528.359ZM201.267 528.366L201.37 527.915L201.775 527.81L201.267 528.366ZM196.266 528.762C196.842 526.667 200.741 526.366 202.54 525.054C203.123 525.334 203.097 525.369 203.444 526.104L196.266 528.762ZM196.47 527.003C196.85 525.137 197.23 523.27 197.623 521.392L202.539 519.942L203.394 519.94C203.239 521.328 203.097 522.717 202.942 524.105C200.99 525.485 198.788 526.469 196.458 527.003L196.47 527.003ZM203.976 525.549L203.581 524.799L207.29 520.036L208.282 519.791L203.976 525.549ZM208.743 519.038L207.518 519.341C206.691 515.909 207.772 514.536 207.961 511.764L208.164 511.778L208.743 519.038ZM207.534 511.663L205.987 512.269C206.85 509.495 207.726 506.722 208.589 503.947L209.8 503.849C209.069 506.451 208.289 509.062 207.522 511.662L207.534 511.663ZM210.399 502.648C209.786 503.161 209.891 503.035 208.842 503.241L211.143 495.43L213.151 494.071L210.399 502.648ZM211.904 494.167C212.595 490.381 214.759 487.599 217.715 485.052L218.315 484.9C216.976 488.111 215.207 492.162 211.892 494.167L211.904 494.167ZM222.121 477.986C220.569 481.159 219.488 483.412 215.914 485.496L219.879 477.665L222.358 476.628C222.327 477.084 222.212 477.534 222.109 477.985L222.121 477.986ZM227.029 467.808C225.882 470.683 224.594 475.635 220.512 476.683L225.93 467.854L226.935 467.597L227.029 467.808ZM226.831 466.999L226.231 467.151C227.649 463.173 229.068 459.195 230.487 455.217L232.748 454.021C233.004 454.328 228.363 465.898 226.819 466.998L226.831 466.999ZM230.936 454.464C232.192 448.972 233.449 443.476 234.707 437.977L240.004 436.227L240.617 436.076C239.233 441.009 235.38 451.62 230.924 454.463L230.936 454.464ZM241.066 435.323L235.155 437.224C237.396 430.842 239.633 424.461 241.865 418.079L247.075 417.626L241.066 435.323ZM247.328 416.92L242.165 417.569L248.887 398.425L252.49 398.574C250.781 404.694 249.056 410.809 247.316 416.919L247.328 416.92ZM252.774 397.93L249.272 397.535C251.006 391.409 252.743 385.291 254.483 379.181L256.683 381.187C255.415 386.726 254.112 392.307 252.774 397.93ZM256.828 380.124L256.934 380.517L256.737 380.576L255.184 378.614C254.069 376.067 258.462 365.842 258.712 362.17C260.536 364.56 257.662 377.601 256.834 380.028L256.828 380.124ZM259.846 362.319L259.939 362.724C258.299 360.442 260.15 357.313 260.44 355.356C260.252 357.585 260.046 359.91 259.85 362.247L259.846 362.319ZM258.798 360.018L258.44 360.319L252.886 356.807L257.601 343.265L261.297 347.88C260.523 351.83 259.681 355.883 258.852 359.925L258.798 360.018ZM261.746 347.127L261.715 347.583L257.901 342.574L261.762 334.145C263.096 334.718 264.277 337.185 265.169 338.415C264.087 341.223 262.925 344.133 261.801 347.034L261.746 347.127ZM265.361 341.973L265.157 341.959C265.518 336.643 269.541 334.168 271.527 329.927C273.394 331.344 266.539 340.582 265.415 341.88L265.361 341.973ZM282.395 316.406C286.001 318.809 273.849 331.026 272.028 332.843C272.218 325.261 279.503 322.092 282.45 316.313L282.395 316.406ZM275.383 330.081L275.474 329.629L275.682 329.583L275.383 330.081ZM275.878 329.536L280.637 323.833C281.242 324.681 276.988 328.611 275.932 329.444L275.878 329.536ZM295.317 309.329L282.189 322.974C285.292 315.603 294.007 311.06 297.669 303.98C298.972 305.009 296.112 308.455 295.374 309.212L295.317 309.329ZM297.567 308.132L297.67 307.681L297.873 307.695L297.567 308.132ZM298.074 307.576L314.308 289.887L314.504 289.84C313.167 294.98 302.531 303.672 298.129 307.483L298.074 307.576ZM314.555 291.736C316.878 283.094 332.639 273.763 337.654 265.726C339.854 267.551 335.526 271.862 334.195 273.194C327.685 279.317 321.156 285.466 314.61 291.643L314.555 291.736ZM333.188 276.85L317.563 289.843L336.303 271.951C337.196 272.277 333.856 276.232 333.242 276.757L333.188 276.85ZM346.52 262.869L371.718 239.269C373.399 243.952 368.032 247.251 364.973 249.9C355.397 257.896 345.828 265.896 336.267 273.901C338.219 269.103 342.858 266.417 346.574 262.777L346.52 262.869ZM347.071 265.92L369.248 247.081L369.353 247.486C368.22 249.441 366.684 251.132 364.848 252.447L347.071 265.92ZM402.03 225.479L368.817 249.342C370.771 245.231 374.922 242.802 378.786 239.822L408.995 215.863L408.503 217.264C407.158 220.555 404.915 223.402 402.03 225.479ZM439.662 198.818L434.344 202.277L406.837 221.924C409.062 210.455 435.234 198.746 443.61 189.286C442.578 192.582 441.236 195.772 439.602 198.814L439.662 198.818ZM440.711 197.913C442.227 194.625 443.748 191.333 445.273 188.037L472.371 167.844L472.568 167.785C468.61 181.704 452.296 188.72 440.651 197.909L440.711 197.913ZM473.825 166.834L497.822 148.685C498.992 156.974 475.756 172.089 468.664 177.718C470.341 174.087 472.041 170.458 473.765 166.83L473.825 166.834ZM494.649 157.618C496.162 154.322 497.686 151.038 499.211 147.742L523.314 129.805C522.253 132.409 521.201 135.014 520.157 137.619L494.649 157.618ZM542.743 120.024C535.567 125.427 528.402 130.842 521.248 136.271C523.155 131.783 535.637 123.736 540.686 120.331L542.684 119.828L542.743 120.024Z" fill="url(#paint0_linear_84_1265)"/>
<defs>
<linearGradient id="paint0_linear_84_1265" x1="64.2901" y1="-26.3229" x2="573.66" y2="50.5131" gradientUnits="userSpaceOnUse">
<stop stop-color="#47DEB1"/>
<stop offset="1" stop-color="#FA8CFA"/>
</linearGradient>
</defs>
</svg>
