<svg width="355" height="1353" viewBox="0 0 355 1353" fill="none" xmlns="http://www.w3.org/2000/svg">
<path fill-rule="evenodd" clip-rule="evenodd" d="M349.011 1347.89L347.467 1347.97C346.951 1347.83 346.412 1347.68 345.873 1347.53L345.432 1346.76L349.245 1342.18C349.857 1341.09 350.501 1342.09 352.063 1342.47L349.157 1347.71C352.196 1344.73 354.235 1340.89 354.993 1336.7C340.329 1315.04 322.73 1296.77 306.986 1276.41C293.543 1259.02 283.351 1239.71 270.804 1221.16L246.769 1186.19C244.206 1180.03 244.864 1170.48 244.495 1162.65C243.664 1144.34 243.974 1122.74 238.782 1107.22L220.649 1058.8C218.506 1052.78 216.582 1046.58 214.823 1040.3C216.058 1045.76 216.882 1051.66 218.9 1055.66C218.158 1056.52 218.777 1056.11 217.355 1056.54L210.081 1029.22C211.56 1030.95 212.654 1032.97 213.288 1035.15C209.854 1022.38 206.903 1009.26 203.643 996.291L192.147 928.291L188.824 899.59C184.95 881.194 184.263 861.738 180.184 841.885L176.585 806.782L159.688 699.323L152.385 644.76L138.248 528.809L131.936 461.889C130.202 453.495 128.729 445.027 127.415 436.506L130.62 459.114L127.832 459.244L121.756 396.228L124.915 418.824C119.291 375.417 116.719 331.179 107.187 289.527L100.481 247.78C95.6261 228.028 93.9139 206.408 88.8351 185.799C82.2002 158.171 76.7205 129.146 69.5455 102.434C64.2026 82.5245 62.0026 65.069 56.0789 50.4576C58.799 59.7495 58.1262 72.0002 62.178 81.1012L62.2864 83.0866C52.9342 76.8572 51.501 56.1587 50.7548 41.1534C51.5255 41.8463 52.2204 42.6193 52.8277 43.4592C48.8795 35.961 43.2645 29.4683 36.4146 24.4803C20.1767 12.6239 2.10361 -4.61201 -29.1065 1.72044C-36.3255 3.22182 -43.1686 4.85017 -49.7485 6.57472C-44.3169 5.4293 -38.8628 4.29005 -33.4252 3.12214L-31.6129 63.0157C-37.8005 64.6303 -44.0107 66.2387 -50.2044 67.8757L-55.2989 8.24296L-56.4979 8.56675L-51.6252 62.6578L-51.3569 68.6469C-57.3677 71.2032 -63.3915 73.748 -69.4282 76.2812L-80.2279 15.6183L-81.4107 15.9707L-70.2631 75.9802L-86.2909 84.7049L-87.4898 84.7632L-103.483 24.2001L-81.4393 15.987C-96.8427 20.7537 -112.027 25.6044 -128.858 29.7633C-142.013 33.0204 -154.201 34.1521 -164.605 36.8824L-148.795 34.6897L-129.615 85.8147L-129.521 87.41C-135.426 83.9347 -141.337 80.482 -147.243 77.0067L-165.853 37.3859L-165.798 37.1837C-166.133 37.2611 -166.474 37.3609 -166.815 37.4607L-147.915 77.5229L-151.956 94.1399L-179.079 44.0765L-168.744 38.0677C-178.023 40.5602 -186.015 46.4732 -191.114 54.6183C-203.304 74.1963 -197.734 103.512 -191.766 127.576C-178.943 179.521 -164.361 227.335 -148.12 276.231C-111.357 387.051 -70.6863 490.295 -31.3389 597.934L21.3179 759.8C31.7518 791.63 37.4597 823.615 45.8165 857.653C46.5224 860.503 47.0038 863.404 47.2565 866.329C47.4351 860.825 48.324 855.901 50.7921 852.616C51.1072 860.356 50.242 868.098 48.2264 875.577L47.454 876.017L47.3498 873.84C46.0634 893.891 32.9413 907.612 27.9624 922.982L10.859 987.333C6.62072 1010.32 9.31428 1039.91 14.3532 1064.11L16.7545 1089.29C19.3797 1101.84 21.2121 1119.32 19.5401 1132.05C17.6814 1145.81 12.5768 1146.73 7.41743 1156.23C0.355552 1169.24 -4.23902 1188.94 0.827656 1205.01C2.71751 1210.98 6.66716 1217.81 11.5298 1220.16C14.3621 1220.57 17.2006 1220.96 20.0105 1221.37C37.5747 1225.38 45.5387 1212.95 53.1469 1201.03C60.4688 1189.53 72.3435 1182.13 78.9292 1169.45C83.4199 1160.8 81.1601 1148.33 82.6549 1137.22C84.7232 1122.17 89.0156 1109.21 90.3661 1095.19C114.238 1100.59 116.08 1123.24 123.946 1146.54C129.857 1164.02 139.761 1176.97 150.337 1189.4C154.333 1194.12 163.265 1197.65 170.083 1201.76C168.082 1200.3 166.386 1198.47 165.09 1196.36L173.905 1203.14C173.508 1203.45 172.889 1203.32 172.118 1202.97C174.607 1204.43 176.689 1206.5 178.176 1208.97C180.212 1211.15 175.57 1219.99 174.46 1223.96C170.39 1238.83 161.072 1250.65 160.846 1268.24L160.45 1268.28C158.379 1266.4 156.267 1264.33 154.033 1262.17L150.993 1262.69C146.249 1258.92 141.533 1255.12 136.846 1251.31C143.965 1251.76 148.01 1259.39 153.884 1262.01C143.863 1252.32 131.833 1241.49 114.171 1245.95C108.57 1247.37 104.484 1248.98 102.507 1253.29C98.6681 1261.58 105.444 1268.58 109.433 1273.41C113.064 1277.79 117.629 1281.31 121.586 1285.29L124.701 1291.55C132.307 1302.39 141.51 1317.37 153.019 1323.93L161.903 1325.51C165.716 1326.45 169.649 1326.8 173.568 1326.55L172.131 1321.04L193.695 1312.82L196.355 1318.71L196.413 1319.91L174.175 1326.46C181.319 1325.75 187.032 1322.87 196.045 1320.73L215.377 1320.66L222.967 1313.39L231.204 1310.82C240.456 1307.53 254.337 1301.89 256.821 1292.81C279.719 1308.74 293.712 1334.44 318.638 1348.07C329.502 1353.9 341.696 1354.5 349.011 1347.89ZM352.305 1339.73L352.377 1341.32L349.929 1340.65L349.857 1339.06L352.305 1339.73ZM349.032 1338.28L349.091 1339.48L345.428 1338.04L344.987 1337.27C346.349 1337.5 347.697 1337.87 349.045 1338.24L349.032 1338.28ZM348.264 1341.09L344.487 1346.07L344.654 1346.69L340.015 1341.68L338.353 1340.16L342.21 1337.19L348.264 1341.09ZM113.363 1265.58L117.3 1263.81L127.524 1277.35C121.471 1279.53 114.539 1270.63 113.363 1265.58ZM110.655 1267.71L111.464 1267.67L115.777 1274.4C114.743 1274.91 111.146 1269.54 110.677 1267.72L110.655 1267.71ZM118.485 1263.36L118.455 1262.94C120.889 1261.19 123.372 1259.26 125.814 1257.4L138.784 1269.64L129.224 1278.1L128.865 1278.01L118.485 1263.36ZM118.014 1262.17L117.624 1262.18L112.405 1254.79L111.711 1253.97L117.575 1250.89L125.039 1256.17L118.014 1262.17ZM175.79 1272.74L177.241 1269.47C180.228 1270.55 183.221 1271.61 186.214 1272.67L185.109 1275.12C182.43 1273.16 179.101 1272.31 175.812 1272.75L175.79 1272.74ZM28.6269 1216.96C25.3702 1216.07 22.1134 1215.18 18.8568 1214.29L21.4129 1208.57L30.6366 1210.15L28.6269 1216.96ZM31.5041 1210.51L38.7138 1210.19L37.2768 1213.85L30.1912 1216.98L29.8319 1216.88L31.5041 1210.51ZM16.5032 1215.22L14.1915 1217.31L9.15559 1212.34C13.0095 1212.28 14.0968 1213.69 16.5503 1215.13L16.5032 1215.22ZM22.5754 1208.11L25.8207 1199.08L33.9189 1200.71L31.0527 1208.45C29.9835 1209.54 25.451 1208.1 22.6224 1208.03L22.5754 1208.11ZM13.0797 102.603L7.95503 60.3709C13.752 61.5951 19.5328 62.7908 25.3359 63.9926L32.8064 116.09C26.7998 115.573 20.7705 115.05 14.719 114.521C12.644 112.311 13.8319 106.382 13.0797 102.603ZM13.1953 114.707C7.06823 114.866 1.031 115.049 -5.20224 115.154L-11.306 60.5325C-5.16262 60.4028 0.852174 60.2138 7.10785 60.1149L13.206 114.227L13.1953 114.707ZM75.6864 316.593C69.569 317.334 63.4292 318.068 57.3548 318.651L56.9647 318.665L52.4358 263.582L51.9715 253.193C57.952 252.512 63.9304 251.838 69.9068 251.171L75.6864 316.593ZM70.6932 251.121L84.2874 250.495L89.6428 315.173C85.3985 315.509 81.138 315.816 76.8713 316.145L70.6932 251.121ZM182.185 911.85L181.93 914.195L182.937 927.364L174.022 925.359L173.747 892.929C176.181 893.74 178.631 894.579 181.065 895.39L182.185 911.85ZM182.399 898.629L182.789 898.615L185.423 904.165L188.104 927.185L184.125 927.786L182.399 898.629ZM205.612 1056.23C203.472 1056.46 201.353 1056.7 199.225 1056.89L193.19 1029.99L198.73 1028.53L205.612 1056.23ZM199.98 1028.46L202.768 1028.33L209.66 1056.08L206.872 1056.21L199.98 1028.46ZM183.324 1032.43L182.933 1032.44L178.235 999.769C180.223 999.299 182.194 998.8 184.188 998.307L185.777 998.235L191.932 1027.61C190.911 1030.38 186.031 1031.36 183.279 1032.42L183.324 1032.43ZM341.363 1336.14L339.045 1338.25L337.529 1339.91L331.191 1332.99L329.934 1331.85L335.07 1330.02L341.363 1336.14ZM342.078 1334.5L343.291 1334.83C342.345 1335.2 343.027 1335 342.084 1334.47L342.078 1334.5ZM337.432 1329.51L337.536 1329.12L343.757 1333.65C341.586 1332.24 339.538 1330.81 337.438 1329.48L337.432 1329.51ZM339.412 1328.62L338.595 1328.25L340.552 1327.37L344.233 1331.56L343.901 1332.77L339.412 1328.62ZM336.975 1328.7L332.287 1321.31L337.009 1327.43L336.975 1328.7ZM333.794 1320.83L335.788 1320.34L336.178 1320.33L339.633 1325.79L338.888 1327.01L337.697 1327.48L333.794 1320.83ZM334.128 1328.43L329.029 1330.66L318.122 1317.58C329.039 1319.77 328.012 1321.76 334.202 1328.43L334.128 1328.43ZM328.664 1314.26L329.082 1314.23L330.485 1318.99L330.536 1319.77C329.231 1318.71 328.747 1316.6 328.737 1314.26L328.664 1314.26ZM327.905 1315.09L328.08 1318.69L327.667 1318.7C324.163 1317.74 320.682 1316.79 317.135 1315.98L319.908 1305.85L327.43 1312.33L327.905 1315.09ZM315.802 1315.21L315.362 1314.44L302.4 1302.61L309.185 1295.46L318.755 1304.6L315.802 1315.21ZM301.57 1301.85L294.116 1293.8L292.433 1292.27L299.778 1286.34L300.543 1285.49L308.535 1293.95L301.57 1301.85ZM291.49 1291.48L284.308 1283.41L282.227 1281.49L290.315 1274.7L291.499 1274.25L299.55 1283.91L291.49 1291.48ZM282.132 1279.89L281.374 1280.72L269.517 1266.44L268.686 1265.69L279.592 1259.18L290.655 1273.1L282.132 1279.89ZM184.76 1279.13C191.47 1276.96 198.185 1274.77 204.903 1272.57L210.583 1283.13L210.627 1283.94L187.166 1287.8L184.78 1279.5L184.76 1279.13ZM178.477 1282.24L179.083 1277.82L181.532 1278.49L178.477 1282.24ZM185.086 1277.94C186.384 1276.76 188.078 1276.11 189.832 1276.12L185.086 1277.94ZM192.634 1223.89L205.632 1236.91L208.937 1247.6C205.007 1249.37 201.083 1251.15 197.164 1252.95L187.925 1226.1L192.634 1223.89ZM187.842 1224.99L184.433 1215.92L191.941 1222.81L187.842 1224.99ZM240.192 1257.07L238.993 1257.13L230.951 1247.87L230.906 1247.07L240.564 1238.24L251.763 1246.54L240.192 1257.07ZM268.447 1244.16L278.664 1257.72L268.569 1264.62L267.37 1264.67L253.727 1246.86L268.447 1244.16ZM215.637 1245.78L220.422 1237.12L228.854 1246.36C228.32 1249.81 226.273 1251.21 225.202 1254.15L224.031 1254.99L215.637 1245.78ZM209.685 1247.25L207.509 1239.14L213.773 1245.27L209.685 1247.25ZM222.694 1236.58L221.847 1235.8L233.669 1222.85C235.77 1227.29 237.844 1231.74 239.892 1236.2C238.662 1239.72 233.197 1243.64 230.323 1245.84L222.694 1236.58ZM241.922 1236.9L246.138 1233.22L248.802 1230.28L253.412 1234.87L252.685 1244.94C249.116 1243.86 244.151 1239.51 241.922 1236.9ZM242.69 1234.09L241.173 1235.75L234.948 1221.97C238.03 1222.09 241.106 1222.23 244.165 1222.35L248.487 1228.96L242.69 1234.09ZM221.092 1234.67L207.89 1217.63L216.188 1206.46L218.888 1203.91C223.734 1209.73 228.539 1215.52 233.303 1221.28L221.092 1234.67ZM220.334 1235.5L215.142 1244.95L201.537 1230.26L206.654 1219.59L207.449 1219.16L220.334 1235.5ZM212.015 1283.55L207.107 1272.54C209.914 1273.31 212.777 1273.88 215.609 1274.56C216.319 1273.64 214.5 1272.61 213.433 1271.04C215.199 1271.38 216.949 1271.69 218.693 1272.02L220.529 1277.14L220.277 1280.35L212.015 1283.55ZM227.558 1281.62C225.679 1284.61 218.075 1288.92 214.298 1289.84L212.867 1285.11L213.235 1284.29C218.741 1282.34 221.013 1280.74 227.513 1281.61L227.558 1281.62ZM188.225 1271.41C190.394 1264.54 189.618 1257.5 199.582 1257.25C196.572 1264.37 194.884 1267.63 188.18 1271.4L188.225 1271.41ZM200.053 1258.45L200.87 1258.81C200.463 1260.86 199.428 1262.73 197.91 1264.16L200.053 1258.45ZM201.332 1260.39C202.545 1260.97 203.663 1261.73 204.649 1262.65C203.159 1267.65 199.198 1266.95 199.509 1273.31C198.066 1273.64 196.602 1273.97 195.154 1274.32L193.564 1274.39L201.332 1260.39ZM200.7 1272.84L201.038 1271.61L201.854 1271.98L201.876 1272.78L200.7 1272.84ZM212.661 1271.48C212.267 1272.92 202.927 1271.23 201.819 1270.78L200.944 1269.22L204.779 1265.44L205.92 1264.18L212.661 1271.48ZM199.929 1255.63L198.246 1254.11L209.591 1249.18L217.715 1269.24C214.674 1274.71 201.075 1258.24 199.884 1255.62L199.929 1255.63ZM193.14 1256.36L194.836 1250.16C196.005 1251.98 196.216 1253.94 197.887 1255.24C196.943 1256.31 195.139 1256.38 193.14 1256.36ZM193.383 1244.35L186.094 1242.67L188.085 1233.37C191.313 1234.54 191.607 1241.41 193.345 1244.32L193.383 1244.35ZM194.341 1247.03L192.232 1254.74L191.482 1255.98C188.642 1254.89 185.796 1253.82 182.927 1252.74L185.309 1243.42C188.551 1243.89 191.63 1245.14 194.284 1247.06L194.341 1247.03ZM191.562 1257.18L186.985 1271L187.029 1271.81L177.262 1268.24L181.795 1253.62L191.562 1257.18ZM194.895 1268.65L191.935 1273.99C190.965 1274.89 189.7 1275.4 188.378 1275.44L187.901 1274.27C188.484 1271.43 192.327 1269.56 194.86 1268.69L194.895 1268.65ZM186.799 1275.82C186.659 1275.01 186.696 1275.14 187.236 1274.23L186.799 1275.82ZM211.676 1285.05L213.123 1290.61C205.366 1292.96 197.599 1295.32 189.822 1297.68L187.805 1288.56C195.723 1287.44 203.664 1286.3 211.629 1285.13L211.676 1285.05ZM215.948 1290.88L215.934 1290.49L229.968 1282.25L239.895 1289.03L228.967 1295.53L216.744 1290.88L215.948 1290.88ZM231.591 1282.14L230.724 1280.99L235.136 1272.37L236.313 1271.51C239.106 1274.59 241.917 1277.67 244.745 1280.74C244.143 1283.35 242.868 1285.76 241.048 1287.72L241.093 1288.53C237.861 1286.49 234.706 1284.35 231.544 1282.23L231.591 1282.14ZM229.908 1280.62C227.613 1280.18 225.317 1279.75 223.016 1279.34C221.292 1278.14 220.268 1274.38 219.872 1271.86L234.166 1269.21L235.033 1270.36L229.908 1280.62ZM219.446 1270.68L210.433 1248.66L214.744 1246.84C222.371 1252.14 226.065 1261.58 232.924 1267.66C230.62 1270.17 222.958 1269.76 219.399 1270.77L219.446 1270.68ZM225.591 1255.46L229.664 1248.08L230.436 1247.64L238.919 1257.66L234.154 1267.49C231.21 1263.69 228.44 1259.69 225.513 1255.66L225.591 1255.46ZM240.934 1257.97L252.879 1247.4L266.876 1264.8C264.861 1268.3 261.952 1271.2 258.448 1273.19C254.671 1278.17 245.295 1262.06 240.962 1258.75L240.934 1257.97ZM281.401 1258.13L289.294 1255.75L298.269 1268.57C297.317 1270.72 293.789 1271.61 291.646 1272.48L281.401 1258.13ZM280.57 1257.37L269.904 1243.42C272.7 1242.9 275.48 1242.36 278.254 1241.84L288.45 1254.6L280.57 1257.37ZM255.169 1245.3L253.97 1245.36L254.718 1235.3L263.024 1232.92L267.807 1241.9C265.783 1244.54 258.451 1244.51 255.091 1245.5L255.169 1245.3ZM254.278 1234.53L250.043 1229.1L256.239 1224.81L257.424 1224.36C259.005 1226.7 260.563 1229.03 262.15 1231.35C259.461 1232.62 256.833 1233.66 254.2 1234.73L254.278 1234.53ZM249.143 1228.15L245.656 1222.37L250.981 1216.58C252.797 1218.77 254.613 1220.96 256.435 1223.12C255.162 1225.21 251.411 1227.01 249.143 1228.15ZM244.431 1221.55C241.35 1221.43 238.274 1221.29 235.215 1221.18L235.178 1220.78L242.53 1207.68L242.926 1207.64L250.08 1214.94L244.431 1221.55ZM234.348 1220.02L233.575 1220.46L219.13 1202.67L230.634 1191.34L241.711 1205.64C240.777 1211.35 236.117 1214.88 234.327 1219.92L234.348 1220.02ZM218.299 1201.92C213.404 1196.28 208.474 1190.62 203.508 1184.95L202.251 1183.81L215.072 1175.25C219.971 1180.22 224.876 1185.2 229.79 1190.19L218.299 1201.92ZM21.1516 1183.67C20.8921 1181.62 22.1906 1179.88 22.8237 1177.56C26.1042 1179.16 29.3684 1180.73 32.649 1182.33L30.4613 1187.24L21.1516 1183.67ZM29.7703 1188.09L28.7319 1191.35C25.8795 1190.57 23.0269 1189.79 20.1746 1189.01L20.3686 1184.6L29.7703 1188.09ZM38.9908 1170.45L33.8509 1181.11L33.0785 1181.55C29.9389 1179.97 26.7157 1178.34 23.6434 1176.78L29.1153 1164.9C32.3568 1166.72 35.6657 1168.57 38.946 1170.44L38.9908 1170.45ZM30.1005 1164.03L34.8776 1145.78C38.7842 1146.15 42.6745 1146.49 46.6484 1146.88L39.6619 1169.23L38.8671 1169.67C36.0116 1167.75 33.1152 1165.89 30.1005 1164.03ZM39.652 1171.21C43.5642 1172.09 47.4703 1172.99 51.405 1173.87L45.8308 1183.74C44.0772 1185.12 38.163 1182.56 34.9446 1182.23L39.652 1171.21ZM41.2053 1169.94C40.2343 1168.64 46.4734 1150.69 47.7714 1147.18L60.2691 1148.62L52.1193 1172.23C51.2504 1173.2 43.3261 1171.1 41.3298 1169.93L41.2053 1169.94ZM48.1258 1145.98L51.2916 1127.79L63.407 1129.66L60.615 1147.8L48.1258 1145.98ZM51.646 1126.59L53.7734 1111.67L65.0497 1113.16L63.7311 1128.03L62.9363 1128.47C59.3179 1127.84 55.5361 1127.19 51.7891 1126.5L51.646 1126.59ZM50.8295 1126.22L38.4341 1126.79L40.5833 1112.67C42.2882 1110.94 49.3072 1111.31 52.5443 1111.31L50.8295 1126.22ZM54.1054 1110.45L55.2221 1099.58L55.1779 1098.77C58.9373 1099.41 62.7252 1100.04 66.4907 1100.66L65.3878 1111.92L54.1054 1110.45ZM96.722 858.836L116.009 859.55L111.174 876.602C105.376 875.675 99.5892 874.735 93.8144 873.783L93.0056 873.827L96.722 858.836ZM92.1751 873.068C86.1648 872.8 80.2382 872.578 74.1156 872.279L76.7355 859.354C82.9797 859.18 89.2422 859.026 95.5231 858.894L92.1751 873.068ZM217.813 1159.41C219.557 1159.47 221.285 1159.51 223.029 1159.58L231.494 1169.14C229.11 1171.41 219.698 1161.78 217.925 1159.44L217.813 1159.41ZM215.245 1173.55L205.556 1163.18L203.895 1161.66C207.86 1160.93 211.847 1160.21 215.805 1159.51L226.246 1168.65L215.245 1173.55ZM222.833 1155.18L222.797 1154.78L230.69 1152.4L231.08 1152.39L231.717 1157.56L232.211 1168.37C227.992 1164.9 224.79 1160.35 222.945 1155.21L222.833 1155.18ZM222.523 1157.2L222.581 1158.39L216.556 1158.27L214.17 1149.96C216.061 1150.28 217.929 1150.6 219.826 1150.9L222.523 1157.2ZM215.285 1156.74L215.357 1158.33C211.37 1159.05 207.411 1159.75 203.447 1160.47L207.373 1150.27L212.971 1150.02L215.285 1156.74ZM202.594 1159.71L193.907 1144.87L203.348 1141.25L206.124 1148.75L202.594 1159.71ZM189.465 1106.23L174.919 1112.1L175.188 1092.06L191.373 1087.44L189.465 1106.23ZM192.235 1088.08L201.028 1096.09L200.68 1105.66C197.347 1105.93 194.024 1106.25 190.78 1106.54L192.235 1088.08ZM219.444 1140.13L212.191 1138.84L211.081 1123.67C213.642 1124.1 216.209 1124.51 218.753 1124.92C220.477 1126.91 219.415 1136.35 219.438 1140.15L219.444 1140.13ZM220.423 1126.05L221.239 1126.42L221.081 1132.03L220.423 1126.05ZM201.1 1124.15L203.01 1139.66L193.967 1143.68L193.577 1143.7L191.991 1126.55L201.1 1124.15ZM176.57 1130.86L176.151 1130.89L174.954 1113.3L189.545 1108.23L190.102 1111.4L190.748 1125.8L176.57 1130.86ZM211.426 1139.7L212.973 1147.63L212.654 1148.8L207.446 1149.04L204.287 1141.17L204.385 1140.81C206.63 1140.46 209.028 1140.08 211.42 1139.72L211.426 1139.7ZM212.249 1140.04L219.135 1141.35L220.069 1144.02L220.31 1149.23L213.887 1148.7L212.249 1140.04ZM210.992 1138.9C208.519 1139.12 206.196 1139.4 203.813 1139.64L201.88 1124.12C204.558 1123.86 207.207 1123.62 209.862 1123.36L210.992 1138.9ZM191.933 1125.36L191.507 1124.97L190.711 1107.85L200.234 1106.93L200.548 1122.55C200.921 1123.57 200.618 1122.73 200.21 1123.78C197.481 1124.31 194.707 1124.83 191.927 1125.38L191.933 1125.36ZM201.506 1106.87L208.679 1106.15L210.229 1122.1C207.75 1122.34 205.433 1122.6 203.05 1122.84L201.865 1123.29L201.506 1106.87ZM158.75 1100.43L157.992 1101.27L154.743 1082.97L171.399 1070.62L173.859 1089.33L173.491 1090.15C173.755 1093.24 162.301 1099.28 158.744 1100.46L158.75 1100.43ZM174.047 1093.32C170.005 1113.82 179.69 1109.67 160.025 1119.59L159.635 1119.61L158.005 1102.45L174.047 1093.32ZM173.41 1114.18L174.931 1130.14L174.989 1131.34C170.382 1133 165.791 1134.69 161.178 1136.38L159.701 1121.22L173.41 1114.18ZM190.806 1127L192.696 1142.15L192.328 1142.97C192.838 1145.69 179.149 1151.6 175.95 1152.97L176.197 1132.13L190.806 1127ZM224.914 1134.69L221.993 1149.25C219.352 1144.26 222.429 1136.98 224.796 1134.69L224.914 1134.69ZM223.311 1134.38L223.648 1116.38L225.472 1129.92L225.552 1131.92L223.311 1134.38ZM222.745 1121.98L221.738 1108.01L223.408 1109.15L222.745 1121.98ZM221.228 1123.64C220.372 1123.77 218.888 1111.19 218.861 1107.32C221.542 1110.76 219.185 1119.19 221.109 1123.63L221.228 1123.64ZM219.206 1123.35L211.93 1122.06C209.725 1119.89 210.038 1110.1 209.99 1106.13C212.558 1106.27 215.096 1106.44 217.64 1106.58L219.206 1123.35ZM216.25 1096.66C218.322 1098.53 218.154 1103.03 219.467 1105.73C217.652 1105.04 216.867 1099.7 216.25 1096.66ZM216.967 1103.84L217.033 1105.45C214.664 1105.28 212.289 1105.14 209.914 1105L208.807 1098.63L208.457 1094.53C210.334 1094.73 212.217 1094.91 214.099 1095.08C215.983 1096.76 215.897 1101.39 216.979 1103.79L216.967 1103.84ZM208.625 1105.03L201.828 1105.34L201.796 1096.11L207.007 1094.71L207.403 1094.67L208.625 1105.03ZM201.768 1095.33C198.824 1092.38 195.886 1089.45 192.953 1086.52L204.442 1082.73L206.783 1091.82L206.472 1093.84L201.768 1095.33ZM175.111 1090.93L172.151 1069.82L187.052 1062.74L191.262 1084.58C190.268 1087.86 178.99 1090.26 175.124 1090.89L175.111 1090.93ZM155.461 1081.4L154.27 1081.87L149.606 1058.87L168.107 1042.78L171.242 1067.49C170.34 1073.52 159.055 1077 155.473 1081.36L155.461 1081.4ZM119.937 906.332L109.563 933.651C104.493 930.654 99.4227 927.657 94.3523 924.659L103.657 900.187C109.019 902.234 114.446 904.282 119.937 906.332ZM104.367 899.005L111.882 879.041C113.597 877.362 123.048 880.938 126.799 881.168C126.545 886.241 122.457 901.71 119.885 905.111C114.646 903.082 109.443 901.038 104.277 898.98L104.367 899.005ZM88.3173 1012.35L96.4469 997.548L110.059 1014.94L102.248 1028.13L88.3173 1012.35ZM101.503 1029.35L96.3866 1039.23L96.4307 1040.04C92.6642 1036.16 89.1447 1032.35 85.4843 1028.52C82.5456 1026.03 86.9495 1018.49 87.6255 1013.99L101.503 1029.35ZM82.5413 1026.22L65.7306 1017.78L69.3088 999.586C75.0949 1003.85 80.8974 1008.14 86.7059 1012.41L82.5413 1026.22ZM82.6073 1027.83L79.2012 1040.81C74.1343 1038.5 69.0959 1036.18 64.0515 1033.88C62.2297 1031.72 65.187 1022.68 65.3622 1018.6C71.0228 1021.64 76.7794 1024.69 82.5175 1027.81L82.6073 1027.83ZM83.4378 1028.59L83.8503 1028.58L95.6413 1041.25L92.0608 1050.63L81.6927 1043.08C78.8387 1039.57 82.6694 1033.69 83.348 1028.56L83.4378 1028.59ZM90.92 1051.88L88.1422 1061.24L87.3474 1061.67L76.6474 1055.34L79.6711 1042.79L90.92 1051.88ZM95.6987 1043.24L96.4936 1042.81L100.085 1051.04L97.6258 1060.02L97.2132 1060.03L92.4736 1052.65L95.6987 1043.24ZM96.8301 1041.14L102 1031.69L101.972 1030.91L102.368 1030.87L107.898 1046.65L107.978 1048.66L100.871 1050.98L96.8301 1041.14ZM103.105 1029.24L110.556 1017.27L110.924 1016.46L117.864 1036.97L111.437 1045.28L109.119 1047.4L103.105 1029.24ZM121.654 996.744L121.953 996.005L131.189 1024.01C130.567 1027.6 123.894 1033.02 120.833 1034.5L118.934 1036.59C109.48 1020.94 112.328 1008.94 121.574 996.77L121.654 996.744ZM111.57 1013.3L110.775 1013.73C106.372 1008.18 101.981 1002.64 97.6032 997.116L108.289 976.595L109.061 976.154C113.087 982.085 117.098 988.012 121.095 993.935C120.073 1001.55 113.637 1006.45 111.509 1013.26L111.57 1013.3ZM97.493 994.695L96.7207 995.136C93.0657 991.319 89.4168 987.479 85.7742 983.617L96.4676 963.509C100.296 967.164 104.275 970.885 108.186 974.587L97.493 994.695ZM97.6223 962.641L109.515 935.594C113.664 939.015 117.823 942.431 121.992 945.841L108.857 973.636L97.6223 962.641ZM133.416 912.919L144.05 917.64L137.626 961.227C133.127 956.084 128.618 950.946 124.1 945.814C122.596 940.018 131.806 920.301 133.355 912.878L133.416 912.919ZM122.835 944.261L122.445 944.275L110.293 934.865L120.667 907.546C124.609 909.108 128.557 910.647 132.5 912.209L122.835 944.261ZM108.79 934.888L96.7924 961.086L85.9979 953.158L93.8695 925.541C98.8234 928.611 103.788 931.732 108.729 934.847L108.79 934.888ZM95.5928 961.941C94.3948 967.819 88.42 977.918 84.5032 982.086L79.3176 973.423L84.861 954.755L85.6558 954.32C88.9253 956.841 92.2172 959.367 95.5317 961.9L95.5928 961.941ZM84.0937 983.229L71.803 994.619L69.4991 997.127L68.3921 974.707C71.4519 974.289 74.487 973.96 77.559 973.497L84.0937 983.229ZM83.0251 986.076L84.9242 983.988L96.305 996.302L87.6513 1010.28L87.6731 1011.08C82.5074 1009.67 74.0342 1002.52 70.6802 998.633L69.8938 998.684L83.0251 986.076ZM62.3363 1033.53C56.5476 1032.19 50.7303 1030.86 44.9416 1029.52L46.676 1015.51L46.6317 1014.7L64.4173 1017.9L64.8074 1017.89L64.9119 1017.51C59.0945 1016.18 53.3059 1014.84 47.4947 1013.49C45.2873 1010.88 48.293 1000.16 48.285 995.426L68.4537 998.917L62.3363 1033.53ZM45.4574 1014.67L44.1256 1028.36C40.8223 1029.31 36.4325 1028.06 32.8649 1027.69L35.4847 1014.76C38.7851 1014.7 42.0059 1014.67 45.4574 1014.67ZM43.3664 1029.98L42.8359 1045.24L32.0442 1045.33L32.488 1028.89L43.3664 1029.98ZM44.9996 1030.72L61.9904 1034.36L59.8049 1048.08C56.3874 1048.83 48.1891 1047.12 44.8738 1045.56C42.9253 1043.51 44.5962 1034.14 44.9996 1030.72ZM62.807 1034.73C68.1231 1037 73.4433 1039.26 78.7676 1041.51C78.2515 1045.42 77.0999 1051.75 74.9488 1054.49C70.1839 1052.58 65.4251 1050.65 60.6601 1048.75L62.807 1034.73ZM74.9763 1055.8L72.5174 1064.79C68.0254 1063.56 63.5335 1062.33 59.0723 1060.99L60.1968 1050.53C65.2091 1052.24 70.0846 1054 74.9763 1055.8ZM71.8362 1065.95L70.2712 1075.64C65.9689 1074.78 61.6501 1073.89 57.3478 1073.02L58.8765 1062.94L58.8547 1062.13L71.8362 1065.95ZM73.8075 1065.45L75.8069 1056.56C79.6527 1058.65 83.476 1060.74 87.3156 1062.85L84.8541 1070.17C81.1773 1068.61 77.5068 1067.02 73.8075 1065.45ZM91.7267 1054.23L91.7049 1053.43L92.0644 1053.52L96.4217 1061.33L94.4177 1068.66L93.6452 1069.1L89.7942 1063.67C88.0823 1061.9 90.2276 1056.62 91.7267 1054.23ZM96.9951 1064L97.3853 1063.99L98.3426 1066.66C98.331 1070.5 97.1146 1071.86 96.293 1074.77C93.1647 1071.91 96.3225 1067.08 96.989 1064.02L96.9951 1064ZM101.29 1052.98C102.376 1051.4 105.459 1050.45 107.573 1049.87L99.5556 1067C96.9799 1062.91 99.0364 1056.28 101.29 1052.98ZM117.9 1039.4L115.321 1061.97L104.747 1067.26C107.217 1055.23 109.774 1046.15 117.9 1039.4ZM116.505 1061.52C118.069 1042.48 118.591 1036.25 131.362 1027.17L130.41 1058.88L118.513 1061.41L116.505 1061.52ZM131.721 1058.85L132.869 1026.69C134.211 1022.49 143.79 1016.95 147.566 1014.8L148.644 1047.21L148.74 1058.41C143.077 1058.55 137.34 1058.7 131.609 1058.82L131.721 1058.85ZM150.478 1056.74L149.69 1057.58L148.415 1013.99L164.036 1005.25L167.723 1035.89C168.272 1043.23 155.322 1054.3 150.353 1056.75L150.478 1056.74ZM132.555 1024.31L122.199 995.106L136.891 965.589L136.847 964.78L146.943 1010.81L147.073 1013.6L132.555 1024.31ZM122.186 993.654L121.795 993.668L109.734 975.373L122.064 947.961L123.218 947.094C127.733 952.241 132.241 957.379 136.745 962.507L122.186 993.654ZM138.357 961.644L145.201 918.462L145.591 918.448L159.404 922.228L158.792 961.514L138.357 961.644ZM145.668 917.286L149.944 888.25L149.9 887.441L160.028 889.778L159.47 921.015L145.668 917.286ZM144.381 915.726L144.425 916.535L133.791 911.814L139.765 884.692C142.729 885.503 145.716 886.32 148.749 887.15L144.381 915.726ZM132.96 911.055C129.283 909.494 125.59 907.904 121.914 906.342L128.012 882.031C131.542 882.803 135.05 883.57 138.552 884.36L132.96 911.055ZM128.366 880.824L132.254 860.616C135.33 861.023 138.434 861.413 141.583 861.816L138.893 881.966L138.937 882.775L128.366 880.824ZM127.543 880.478C122.563 879.356 117.554 878.251 112.568 877.152L117.351 859.676L131.011 860.662L127.543 880.478ZM110.611 878.041L102.623 898.407L86.383 893.528L92.7715 875.212C98.6853 876.009 104.613 876.931 110.535 877.876L110.611 878.041ZM102.771 899.631L93.391 923.938C88.7624 921.737 84.1243 919.542 79.4766 917.353L86.0732 895.013L86.0515 894.21C91.5887 895.943 97.1421 897.704 102.696 899.465L102.771 899.631ZM92.6568 925.209L84.651 951.993C80.6827 949.909 76.7164 947.817 72.7521 945.718L78.7563 919.015L78.7121 918.206C83.3569 920.523 88.0052 922.858 92.6568 925.209ZM84.313 953.228L78.3447 971.95L68.7876 973.173L72.4032 947.699L73.1919 947.288L84.313 953.228ZM67.2568 974.445L68.2957 997.643L67.9055 997.657C61.4326 996.344 54.9536 995.054 48.5031 993.748L50.6421 970.405L51.0244 969.978C56.4447 971.462 61.8597 972.935 67.2691 974.4L67.2568 974.445ZM47.3043 993.806L30.1994 996.586L32.9674 968.827L49.7589 969.221L47.3043 993.806ZM46.9723 995.019L45.3513 1012.32C43.8999 1013.83 38.296 1013.58 35.3531 1013.57L30.6174 997.352L46.9723 995.019ZM29.9559 999.416L34.5953 1013.6L31.2334 1027.39L24.765 1025.62L29.5392 999.351L29.9559 999.416ZM31.2916 1028.59L30.874 1045.37L24.1567 1047.69L23.7667 1047.7L24.5307 1027.27C26.6849 1027.69 28.9862 1028.1 31.2814 1028.54L31.2916 1028.59ZM29.31 1047.12L30.9277 1047.03L32.4607 1054.57C32.2663 1059.52 29.2096 1061.07 27.7255 1064.82L26.9306 1065.25L23.8209 1048.83L29.31 1047.12ZM32.1126 1046.58C35.709 1046.67 39.2992 1046.79 42.9406 1046.89L43.0087 1057.32C40.066 1057.04 37.1008 1056.76 34.152 1056.51L32.1126 1046.58ZM43.7208 1046.86L59.0783 1049.76L57.9538 1060.22C53.3266 1059.49 48.7539 1058.76 44.2356 1058.04L43.7208 1046.86ZM57.6296 1061.85C54.0483 1076.61 56.9225 1071.31 42.4044 1070.55L43.8975 1059.27C48.4613 1060.06 53.0515 1060.93 57.6194 1061.8L57.6296 1061.85ZM55.7907 1073.95L55.0245 1085.57L42.5493 1084.14L42.3727 1071.73L55.7907 1073.95ZM54.6864 1086.81L53.9658 1097.64L41.8947 1096.59L42.2869 1085.27L54.6864 1086.81ZM53.2074 1098.47C54.5416 1100.21 53.0101 1106.6 52.9436 1110.11C49.0672 1110.16 45.197 1110.19 41.3207 1110.24L40.5343 1110.29L41.5705 1098.21C45.5469 1098.24 49.4252 1098.36 53.287 1098.45L53.2074 1098.47ZM66.4852 1099.89C62.9834 1099.1 59.4754 1098.33 55.9674 1097.56C54.5508 1096.74 55.9294 1089.85 55.8992 1087.14C59.8053 1088.04 63.7177 1088.91 67.6238 1089.81L66.9038 1099.86L66.4852 1099.89ZM57.04 1085.88C55.1383 1084.01 56.7964 1077.51 56.9076 1074.28L69.4409 1076.91L67.9844 1088.59L57.04 1085.88ZM71.5204 1076.37L73.0855 1066.68C76.7479 1068.38 80.4388 1070.07 84.1236 1071.78L82.5005 1080.27L71.5204 1076.37ZM85.7048 1071.29L87.7089 1063.97L88.5114 1063.95L93.179 1069.74L91.7723 1073.82L85.7048 1071.29ZM93.7892 1072.54L93.745 1071.73L95.1658 1076.95L93.3604 1081.43L92.588 1081.87C92.3098 1077.86 92.0961 1074.76 93.7606 1072.56L93.7892 1072.54ZM106.584 1054.72C105.888 1062.66 102.566 1070.15 97.1415 1075.99C100.122 1068.72 102.322 1060.94 106.578 1054.74L106.584 1054.72ZM114.612 1063.58L108.1 1079.09L98.2123 1081.96C102.359 1072.28 104.897 1068.38 114.606 1063.61L114.612 1063.58ZM116.157 1062.7L130.062 1060.06L119.804 1081.4L109.337 1079.86L116.157 1062.7ZM131.305 1060.81C133.535 1058.57 143.987 1059.28 148.055 1059.24L130.068 1086.5L129.296 1086.94L121.067 1082.52C121.021 1079.78 128.941 1063.45 131.298 1060.83L131.305 1060.81ZM147.745 1061.25L148.916 1060.41L153.095 1081.84C151.866 1086.33 141.77 1094.56 137.742 1096.57L136.602 1097.83L130.503 1087.3L147.745 1061.25ZM152.079 1085.91L153.219 1084.65L156.358 1100.53C155.623 1105.42 146.54 1108.97 143.236 1111.96L142.074 1112.41L137.062 1098.97L152.079 1085.91ZM156.496 1103.73L158.306 1116.88L158.472 1120.86L146.375 1127.83L142.132 1113.61L156.496 1103.73ZM158.134 1122.09L159.634 1137.26C156.594 1137.78 153.526 1138.31 150.481 1138.86L147.206 1128.59L158.134 1122.09ZM149.312 1139.33L144.192 1150.37L136.012 1137.92L145.669 1129.89L149.312 1139.33ZM150.156 1140.48L159.669 1138.45L156.842 1155.4L156.452 1155.41L145.045 1151.13L150.156 1140.48ZM160.86 1137.98C165.465 1136.33 170.061 1134.65 174.648 1132.94L175.159 1152.95L158.492 1155.63L158.095 1155.67L160.86 1137.98ZM193.253 1145.32L201.527 1160.17C199.181 1163.8 190.668 1166.85 186.714 1168.86L176.41 1154.11L193.253 1145.32ZM202.438 1162.13C206.18 1166.1 209.928 1170.05 213.783 1174.05L201.682 1182.98L191.685 1173.46L187.516 1169.64L202.438 1162.13ZM219.143 1177.4L216.231 1174.72L227.225 1169.83C231.192 1174.33 235.137 1178.82 239.06 1183.31L231.701 1188.85C228.545 1188.74 220.702 1180.7 219.137 1177.42L219.143 1177.4ZM232.381 1152.05L237.097 1149.81L237.487 1149.8L238.19 1156.58C238.29 1162.74 235.566 1165.38 234.415 1170.37L233.643 1170.81L232.381 1152.05ZM223.641 1153.64L222.442 1153.7C221.775 1148.37 224.069 1138.4 226.331 1133.49C227.28 1131.7 229.601 1130.98 231.805 1130.42L231.138 1151.3L223.641 1153.64ZM226.676 1130.9L226.257 1130.93L224.055 1108.99C225.91 1108.65 227.771 1108.29 229.632 1107.93L232.126 1127.93C231.109 1129.7 228.594 1130.24 226.676 1130.9ZM232.832 1107.79L230.78 1107.08L226.803 1090.04C230.434 1094.41 230.456 1100.07 233.12 1105.77L233.222 1107.78L232.832 1107.79ZM229.171 1106.79C227.441 1107.11 225.727 1107.46 224.064 1107.81L220.569 1084.32C226.857 1086.57 228.502 1099 229.22 1106.87L229.171 1106.79ZM222.618 1104.27L222.722 1106.71L222.309 1106.72C218.49 1102.42 218.74 1090.39 216.886 1084.55L219.27 1084.04L222.618 1104.27ZM216.707 1090.58L216.915 1095.47L216.497 1095.5L213.134 1082.82L214.767 1083.55C215.869 1085.09 215.848 1088.34 216.781 1090.58L216.707 1090.58ZM214.44 1093.49L208.019 1093.39L205.509 1082.28C207.643 1082.06 209.761 1081.82 211.896 1081.61L214.44 1093.49ZM192.123 1085.23L187.841 1061.8L198.985 1058.57L204.415 1081.16L192.123 1085.23ZM172.105 1068.57L169.297 1041.87L181.77 1034.49L186.434 1057.5L186.622 1061.49L172.105 1068.57ZM169.621 1040.25L169.231 1040.26L165.191 1004.38L176.603 1000.26L177.015 1000.26L181.97 1030.06L182.094 1032.87L169.621 1040.25ZM176.635 999.089L165.223 1003.21L159.97 962.947C163.964 962.905 167.965 962.841 172.072 962.83L176.635 999.089ZM164.045 1004.07L148.43 1012.79L138.544 963.168L158.162 962.669C160.701 966.89 163.695 996.707 163.956 1004.05L164.045 1004.07ZM175.725 961.391L173.283 961.495L173.528 931.84L179.249 960.424L179.307 961.623L175.725 961.391ZM172.129 961.566L159.726 961.721L160.337 922.435C164.529 923.703 168.714 924.993 172.929 926.267L172.129 961.566ZM172.74 925.105L160.965 921.641L161.163 890.306C165.047 890.934 168.959 891.546 172.866 892.181L172.74 925.105ZM160.96 888.754L161.47 864.748C165.207 864.853 168.951 864.936 172.688 865.041L172.681 891.092L160.96 888.754ZM160.143 888.385C156.642 887.596 153.134 886.829 149.626 886.062L151.419 863.542L151.375 862.734C154.45 863.14 157.554 863.531 160.703 863.934L160.143 888.385ZM148.809 885.694C145.844 884.882 142.88 884.071 139.825 883.235L142.626 861.619L150.284 862.483L148.809 885.694ZM149.867 861.186C147.529 860.908 145.027 860.61 142.599 860.308L143.193 837.846L150.38 837.519C152.5 844.329 150.304 853.941 150.257 861.172L149.867 861.186ZM141.782 859.939C138.834 859.688 135.891 859.414 132.942 859.162C130.143 856.247 132.52 843.062 132.373 837.952L141.958 837.508L141.782 859.939ZM130.81 856.454L130.94 859.242C126.519 858.901 122.092 858.583 117.67 858.242L120.674 838.444C121.89 837.353 127.592 837.778 131.068 837.957L130.81 856.454ZM116.413 857.102L116.458 857.91L97.2603 857.486L100.78 838.095C107.046 837.958 113.316 837.807 119.591 837.641L116.413 857.102ZM88.6895 714.928C81.7959 715.77 74.8963 716.635 67.9803 717.47L61.55 655.661L83.3367 651.917L88.6895 714.928ZM84.2312 651.824L105.315 651.002L110.164 713.296C103.395 713.858 96.604 714.414 89.8353 714.976L84.2312 651.824ZM118.546 807.318L118.582 807.714C112.189 808.138 105.795 808.569 99.3978 809.007L95.486 767.107C101.746 766.551 107.871 765.957 114.238 765.454L118.546 807.318ZM115.428 765.78L127.433 766.023L130.91 807.128L119.714 807.638L115.428 765.78ZM56.8189 771.665L55.6199 771.723L49.3663 722.324L67.1536 719.079L72.2084 768.536L56.8189 771.665ZM72.6971 770.191L76.6011 811.678L59.9305 815.253L55.6365 773.78L55.7349 773.42C61.391 772.336 67.0859 771.287 72.6971 770.191ZM10.835 397.6L19.4146 480.932C12.5064 482.18 5.6151 483.425 -1.25904 484.667L-17.5213 391.651L10.835 397.6ZM36.0078 396.038L42.1724 475.932C36.8163 479.537 27.7527 479.399 20.7343 480.52L12.5726 397.955L36.0078 396.038ZM17.5161 482.223L19.4951 482.137L30.3453 570.581L30.4694 573.391C25.2438 574.843 19.9713 576.289 14.6518 577.731L-0.76586 485.864L17.5161 482.223ZM28.9525 575.053L30.5413 574.981L40.1168 654.673L40.3633 659.859L26.9073 663.686L14.6426 578.912L28.9525 575.053ZM41.6157 659.429L31.8504 577.343L31.7124 574.142L51.1276 568.566L51.5177 568.552L60.0919 651.109L59.7234 651.926L60.2802 655.096L43.2413 659.488L41.6157 659.429ZM31.6682 573.333L20.6801 481.689C27.8334 480.427 34.9867 479.165 42.1401 477.903L51.0406 567.649C44.6301 569.548 38.195 571.449 31.7355 573.352L31.6682 573.333ZM43.3964 477.547L66.0272 472.923L75.2598 561.455L54.2543 566.403L52.2969 567.292L43.3964 477.547ZM43.3382 476.348L37.2739 395.999L60.0444 392.982L65.6121 471.264L43.3382 476.348ZM37.1892 394.985L33.4184 321.517L55.9159 319.851L59.9723 391.393L37.1892 394.985ZM32.6342 321.472L35.9903 395.044L13.2336 396.422L12.4534 396.45L8.60707 320.788L32.6342 321.472ZM9.26768 353.396L11.2362 396.575L-16.6989 390.234L-17.5077 390.279L-16.9799 312.747C-8.83143 315.436 -0.711686 318.141 7.36321 320.834L9.26768 353.396ZM-43.7936 279.284L-43.4034 279.27L-18.2861 311.786L-18.8447 387.136L-19.2265 387.031L-53.7024 308.082L-43.7936 279.284ZM-54.1589 307.016L-79.7102 255.089L-67.2332 238.873L-44.2593 277.104L-54.1589 307.016ZM-16.7049 311.302L-16.28 250.378L4.76418 254.64L7.32325 319.833L-16.7049 311.302ZM-17.9758 309.771L-42.6528 278.027L-37.2596 238.118C-30.6869 241.977 -24.1005 245.816 -17.5005 249.634L-17.9758 309.771ZM-43.9819 275.297C-51.4902 262.683 -59.0061 250.066 -66.5294 237.448L-57.1253 215.876L-56.3531 215.436L-38.1288 237.059L-43.9819 275.297ZM-67.096 236.255L-89.1036 193.169L-75.0229 180.796L-57.4603 213.66L-67.096 236.255ZM-68.2446 237.099L-79.541 253.324L-80.712 254.163L-105.355 205.623L-90.142 194.14L-68.2446 237.099ZM-81.466 254.536C-84.5512 259.957 -88.8826 264.565 -94.1017 267.98L-96.0009 270.068L-120.378 218.703C-115.632 214.594 -110.875 210.503 -106.108 206.431L-81.466 254.536ZM-81.4 256.147L-54.9933 308.212L-61.8161 316.558C-64.8811 319.76 -67.9344 322.948 -70.9762 326.124L-95.5158 271.118C-91.2453 268.834 -83.1031 260.341 -81.2835 255.986L-81.4 256.147ZM-58.6134 314.03L-54.3964 309.824L-19.1107 389.961C-21.4506 393.835 -36.9319 401.358 -41.7091 403.817L-70.4283 327.65L-58.6134 314.03ZM-18.6121 391.932L-1.9676 484.521C-8.30814 485.901 -14.665 487.252 -20.9994 488.609L-41.5836 405.034C-33.9439 400.525 -26.2853 396.094 -18.6078 391.74L-18.6121 391.932ZM-2.29179 486.147L13.464 576.778L13.53 578.39C9.44654 579.373 5.34057 580.35 1.25095 581.356L-0.360449 581.422L-20.5512 489.794L-2.29179 486.147ZM13.5881 579.589L26.2211 663.547C24.5874 665.635 19.5178 666.252 16.7741 667.191L15.5753 667.249L0.128425 582.811L13.5881 579.589ZM40.5521 661.287L40.9114 661.386L48.4025 719.936L48.4684 721.547L36.2034 724.903L27.4777 665.218L40.5521 661.287ZM49.308 721.391L41.7371 660.839L60.3894 656.285L66.5197 713.28L66.7159 717.68L49.6552 721.269L49.308 721.391ZM68.0157 718.929L88.7249 716.387L93.7897 766.16L73.4705 768.688L68.0157 718.929ZM89.9056 716.13L110.665 714.375L114.139 764.316L113.763 764.72L95.3868 765.969L89.9056 716.13ZM61.4734 654.53L52.3572 568.395L75.3123 562.146L83.3598 651.127L61.4734 654.53ZM76.0622 561.699L99.1867 551.126L105.279 649.809C98.234 650.263 91.1733 650.746 84.097 651.256L76.0622 561.699ZM76.0119 560.913L67.2817 472.397L86.5075 463.896L99.2964 549.49L76.0119 560.913ZM67.516 470.747L67.1035 470.755L61.5357 392.473C68.1579 391.388 74.7841 390.288 81.4144 389.172L86.8395 462.683C80.3779 465.357 73.9442 468.047 67.5385 470.753L67.516 470.747ZM62.3027 391.258L61.1039 391.316L57.0475 319.774L76.1633 317.762L81.3604 388.047L62.3027 391.258ZM34.6407 320.403L33.4054 320.065L29.2209 254.548C36.3939 254.097 43.5819 253.649 50.7849 253.206L55.7658 318.723C48.7276 319.212 41.6811 319.819 34.6407 320.403ZM27.6381 254.598C29.455 260.045 28.0966 271.625 29.61 280.563L32.2127 320.101L10.542 319.893L8.94727 319.456L5.98993 254.396L27.6381 254.598ZM5.93169 253.197L1.98707 184.511L21.9657 183.58L28.2724 253.251L5.93169 253.197ZM4.69641 252.859C-2.20747 251.622 -9.30743 250.307 -16.295 249.022L-18.0089 184.182L0.829178 184.508L4.69641 252.859ZM23.1127 182.3L14.4708 115.781L33.007 117.739L43.1138 181.375L23.1127 182.3ZM21.5175 182.395L1.95752 183.295L-5.11165 116.675L13.2781 115.817L21.5175 182.395ZM-17.148 248.257C-23.3819 244.572 -29.7668 240.82 -36.0905 237.11C-39.1808 230.759 -36.7225 195.31 -37.4346 181.063L-19.2588 184.25L-17.148 248.257ZM-38.1858 234.798L-55.9535 213.975L-54.1228 174.999C-48.8268 176.907 -43.5472 178.786 -38.2512 180.694L-38.1858 234.798ZM-57.2989 211.217L-57.695 211.253L-74.3319 179.947L-67.4011 165.208L-54.9456 174.653L-57.2989 211.217ZM-88.2921 190.204L-89.8152 191.887L-115.878 138.565L-91.8899 137.451L-76.0092 178.402L-75.9511 179.601L-88.2921 190.204ZM-90.6101 192.322L-105.659 204.526L-133.591 154.507L-116.695 138.993L-90.6101 192.322ZM-106.884 204.77C-108.551 209.891 -117.01 214.072 -120.733 217.882L-147.162 165.811L-134.401 155.613L-106.884 204.77ZM-121.913 217.873C-123.193 221.579 -130.326 227.884 -133.8 229.638L-135.323 231.322L-159.455 175.799L-148.351 166.452L-121.913 217.873ZM-121.421 219.867L-96.7286 270.786L-106.224 282.457L-111.199 287.494L-134.546 232.452L-121.421 219.867ZM-96.9775 272.843L-96.2052 272.402L-71.6976 326.554C-72.6935 330.193 -78.4398 336.106 -81.5906 337.827L-87.6991 344.534L-110.633 289.484L-96.9775 272.843ZM-75.3859 333.151L-71.2052 328.548L-43.3998 403.378L-43.3555 404.187L-61.7509 413.447L-87.3036 345.294L-75.3859 333.151ZM-42.826 405.781L-22.3194 486.992L-22.2249 488.587L-38.8111 493.706L-61.6278 415.026C-55.355 411.865 -49.0774 408.746 -42.7952 405.669L-42.826 405.781ZM-22.9616 490.221L-21.7627 490.162L-1.63785 580.179L-1.54325 581.774L-13.8313 585.655L-38.3857 495.416L-38.3997 495.026L-22.9616 490.221ZM-1.05649 583.259L14.2645 664.717L14.4249 667.924L5.7503 671.128L-13.2315 588.668C-12.6669 585.37 -4.62881 583.61 -1.05649 583.259ZM26.3277 665.363L34.999 721.894L35.1433 725.072L27.6397 727.437L26.447 727.473L16.1945 671.427L16.0339 668.22L26.3277 665.363ZM35.1116 726.246L35.5016 726.232L42.4688 774.788L34.9731 777.566L34.5543 777.596L26.7335 729.072L35.1116 726.246ZM36.2965 725.798L48.5616 722.442L54.2949 769.066L54.439 772.245C50.7456 773.214 47.0502 774.191 43.3527 775.175L36.2965 725.798ZM54.4972 773.444L58.5231 808.928L58.8129 815.72L49.366 819.364L48.976 819.378L43.4125 776.809L43.5109 776.449L54.4972 773.444ZM76.7266 812.896L77.926 839.301L62.0781 843.222L60.4825 816.853L76.7266 812.896ZM131.48 836.452L121.482 836.903C118.122 831.54 119.981 814.954 119.815 808.945L130.995 808.407L131.48 836.452ZM132.255 808.389L141.921 808.355L142.42 836.79L133.218 836.806L132.255 808.389ZM119.512 836.605C113.385 836.763 107.354 836.924 101.114 837.051L99.4823 810.286L118.667 808.993L119.512 836.605ZM99.8929 837.103L79.1698 839.255L78.0146 813.659L77.5741 812.886C84.4738 812.022 91.3674 811.18 98.2896 810.322L99.8929 837.103ZM96.0225 857.775C89.7484 857.941 83.4782 858.093 77.2123 858.229L79.2094 840.522L99.9286 838.296L96.0225 857.775ZM143.034 808.345L149.391 807.26L151.089 835.637L151.125 836.033C148.448 836.29 145.798 836.531 143.143 836.794L143.034 808.345ZM77.4976 811.755L74.0004 769.751L93.5169 767.244L98.2375 809.1C91.2868 809.975 84.3708 810.811 77.4711 811.675L77.4976 811.755ZM132.178 807.258L129.145 767.795C132.226 770.739 135.285 773.677 138.372 776.598L141.753 807.294L132.178 807.258ZM138.338 775.309L131.157 767.235C127.783 764.742 131.56 728.447 132.234 720.688L142.575 763.092L138.728 775.295L138.338 775.309ZM128.222 764.549C123.942 764.488 119.667 764.405 115.387 764.344L112.422 725.6L112.007 714.766L131.337 717.086L128.222 764.549ZM111.822 713.146L106.577 650.889L124.895 648.44L130.884 709.477L131.175 715.472L111.822 713.146ZM106.519 649.689L100.036 551.02L119.743 552.936L124.859 647.248L106.519 649.689ZM100.368 549.807L105.12 460.635L105.496 460.231C109.386 460.571 113.271 460.934 117.155 461.296L119.685 551.737C113.252 551.071 106.815 550.42 100.374 549.785L100.368 549.807ZM105.902 459.014L105.341 385.724C108.291 385.445 111.211 385.182 114.132 384.918L117.56 460.079C113.631 459.704 109.747 459.342 105.863 458.979L105.902 459.014ZM104.216 385.778L104.604 455.906C102.872 453.994 101.488 451.793 100.517 449.403C101.264 452.827 102.559 456.109 104.351 459.121L99.3896 543.503L88.0633 462.269L95.3026 438.197C96.6128 439.282 97.6011 440.705 98.1601 442.311C94.111 425.702 95.408 400.849 94.7737 384.112L104.216 385.778ZM95.3312 435.887L88.0282 460.279L82.7669 388.818L93.6687 384.268L95.3312 435.887ZM82.96 387.495L82.5638 387.531L77.003 319.634L76.8945 317.648C81.1374 317.2 85.3879 316.753 89.6458 316.309L93.4982 383.038L82.96 387.495ZM29.169 253.327L23.2157 183.511L42.7819 182.588C45.1399 185.793 43.1978 192.36 44.6715 197.737L49.5784 245.97L50.2289 251.533C43.2723 252.164 36.2093 252.743 29.169 253.327ZM69.4894 249.874L51.5237 251.477L44.3786 182.928C49.9689 182.527 55.5753 182.153 61.1655 181.752L69.4894 249.874ZM62.3419 181.687C66.4977 182.028 70.6474 182.391 74.8155 182.686L84.2296 248.765L70.6473 249.877L62.5605 186.093L62.3419 181.687ZM85.4526 249.148L76.016 183.063L83.2381 184.726L93.7435 247.964L93.8155 249.553L85.4526 249.148ZM76.334 181.46C73.5057 178.827 73.8929 170.796 72.8553 166.383L64.6186 125.907C67.346 127.233 70.0895 128.587 72.8107 129.935L83.2038 181.94L83.2698 183.551L76.334 181.46ZM74.3185 181.15L61.8875 180.525L51.5782 121.686L63.3122 125.211L74.3185 181.15ZM60.646 178.181L60.7257 180.183L58.283 180.287L44.3189 181.294L34.1953 118.161C39.4329 119.135 44.6992 120.093 49.9429 121.045L60.646 178.181ZM49.5193 119.771L33.6314 116.075L26.5405 64.4429L41.2133 70.1968L49.7849 117.477L49.8664 119.914L49.5193 119.771ZM0.705899 182.929L-18.1181 182.993L-24.687 118.779C-18.5696 118.039 -12.4298 117.305 -6.35551 116.721L0.705899 182.929ZM-19.3309 182.661C-25.1056 181.708 -30.8866 180.778 -36.69 179.842L-43.3264 122.491L-25.4346 118.864L-19.3309 182.661ZM-44.5743 122.464L-38.5146 176.276L-38.3765 179.477L-38.736 179.379L-54.1812 174.065L-59.9302 126.616L-44.8989 122.327L-44.5743 122.464ZM-55.1337 172.694L-55.0973 173.09C-68.3192 166.357 -72.1883 149.531 -74.6249 131.528L-61.2052 127.305L-55.1337 172.694ZM-67.9872 162.85L-74.8961 178.393L-90.3147 136.989C-85.4587 135.3 -80.5801 133.617 -75.7179 131.905L-67.9872 162.85ZM-134.553 153.084L-163.016 107.121L-151.462 96.5689C-140.168 110.348 -128.857 124.124 -117.529 137.896C-119.682 142.232 -129.724 151.315 -134.468 153.035L-134.553 153.084ZM-135.32 153.502C-137.086 157.486 -144.099 161.676 -147.661 164.105L-173.721 117.568L-163.824 107.866L-135.32 153.502ZM-148.846 164.554L-159.219 173.788L-159.984 174.641L-182.635 125.97L-174.576 118.397L-148.846 164.554ZM-161.18 174.337L-161.144 175.53L-167.597 181.467L-169.497 183.555L-187.063 133.064L-183.605 127.661L-182.81 127.226L-161.18 174.337ZM-160.284 176.708L-135.744 231.714L-143.038 238.869L-146.858 243.039L-168.738 184.752L-160.284 176.708ZM-135.666 233.281L-112.362 287.949L-112.303 289.148L-122.125 302.01L-125.201 304.959L-146.328 244.101L-135.666 233.281ZM-112.448 291.088L-111.271 290.227L-88.4261 344.456C-90.3133 351.352 -98.4898 354.764 -101.279 361.076L-102.832 362.341L-124.206 306.438L-112.448 291.088ZM-87.8748 346.852L-63.2108 413.048C-64.9344 417.405 -75.3548 422.666 -79.4968 425.01L-102.309 363.957L-87.8748 346.852ZM-63.1843 415.421L-40.0496 492.498C-40.7767 497.008 -49.9604 498.72 -53.2732 501.121L-79.0712 426.454L-63.1843 415.421ZM-39.9116 495.699L-14.9826 585.098C-16.3858 587.491 -22.1219 588.867 -24.784 589.949L-25.1802 589.986L-53.1826 502.643L-39.9116 495.699ZM-14.5311 587.153L4.92931 671.217L-0.94275 673.884L-24.7567 591.261L-14.5311 587.153ZM14.8609 669.154L25.0236 725.176L25.1616 728.377L19.2756 730.653L18.863 730.661L6.18625 672.358L14.8609 669.154ZM25.2196 729.576L33.7904 777.653L29.8533 779.424L19.2664 731.834L25.2196 729.576ZM35.0925 778.806L42.6328 776.306L47.6715 816.559L47.8234 820.15L42.2741 822.784L35.0925 778.806ZM59.2791 817.369L60.3522 832.15L60.9235 844.089L52.2676 849.254L51.8775 849.268L48.9667 820.559L59.2791 817.369ZM77.9656 840.568L76.3586 858.261L63.2708 861.271L61.6819 861.343L62.0465 844.396L77.9656 840.568ZM76.0266 859.474L73.4008 872.422L58.3478 875.908L61.3638 862.946L76.0266 859.474ZM72.6502 873.665L67.7852 889.501C62.3336 890.279 56.8983 891.085 51.4467 891.863L57.2288 877.968L72.6502 873.665ZM68.6018 889.869L73.4588 873.621L91.5322 874.8L85.5484 892.696L68.6018 889.869ZM61.5788 911.827L68.2412 891.099L84.8341 894.336L78.2377 916.676L61.5788 911.827ZM42.8269 913.48L50.8144 893.114C56.2666 892.482 61.7154 891.832 67.1608 891.165L60.4845 911.504L42.8269 913.48ZM61.2469 913.04C66.772 914.552 72.3046 916.066 77.8447 917.582L71.8847 945.095L54.4318 939.884L61.2469 913.04ZM53.6336 939.448C47.8784 939.483 42.1355 939.473 36.4048 939.418L42.4888 914.716C48.3364 914.167 54.1779 913.641 60.048 913.098L53.5895 938.639L53.6336 939.448ZM53.3017 940.661L49.7117 967.277C48.1194 968.773 36.8157 968.263 34.0718 967.174L33.2855 967.224L36.4854 940.623L53.3017 940.661ZM54.1183 941.03L71.5937 946.247L67.605 973.26L50.9686 968.418L54.1183 941.03ZM31.7686 968.886L28.9944 996.666L15.9879 1000.08L18.0029 973.932L31.4397 968.941L31.7686 968.886ZM29.075 997.871L23.4973 1024.96C22.301 1026.68 18.9018 1027.64 16.8383 1028.47L15.6495 1001.59C20.0947 1000.34 24.5522 999.048 29.0709 997.798L29.075 997.871ZM23.1949 1027.39L22.5711 1048.63L18.6642 1050.82L17.9058 1051.65L17.5095 1051.69L16.5063 1029.68L23.1949 1027.39ZM22.6231 1049.85L26.1442 1065.3C25.1701 1067.45 21.4343 1068.05 19.0952 1068.83L18.6764 1068.86L17.1691 1053.29L22.6231 1049.85ZM33.005 1057.79L42.6482 1058.54L41.5678 1069.81C37.5019 1069.5 30.9329 1068.18 28.0919 1066.13L33.005 1057.79ZM41.3334 1071.47L41.0974 1083.88L28.624 1082.88L27.551 1068.1L41.3334 1071.47ZM41.1557 1085.08L40.8694 1096.71L29.3488 1098.85L28.7023 1084.45C32.75 1084.57 36.9141 1084.79 41.0741 1084.94L41.1557 1085.08ZM40.9275 1097.91L39.4788 1110C37.7553 1112.06 31.3147 1113.37 28.0303 1113.72L29.3621 1100.04L40.9275 1097.91ZM39.4851 1112.01L37.3578 1126.93L28.2674 1129.27L26.6723 1129.36L28.0109 1114.85C31.7799 1113.79 35.6468 1112.89 39.5322 1111.92L39.4851 1112.01ZM50.2152 1127.93L47.0131 1145.72C43.1289 1145.36 39.2447 1145 35.3545 1144.66L37.8642 1129.31C40.0315 1126.59 46.684 1127.96 50.2173 1127.84L50.2152 1127.93ZM33.7934 1145.51L29.0108 1162.98L20.2317 1155.37L24.1008 1143.17C27.2922 1143.95 30.5755 1144.65 33.7955 1145.41L33.7934 1145.51ZM28.2074 1163.8L22.7417 1175.66C19.5581 1173 16.3684 1170.37 13.1624 1167.7L19.0747 1156.59L19.8633 1156.18L28.2074 1163.8ZM22.0134 1176.91L19.87 1182.62C16.4568 1180.89 13.0374 1179.18 9.63659 1177.41L12.0539 1169.28C15.3541 1171.78 18.6991 1174.29 22.0155 1176.81L22.0134 1176.91ZM18.2602 1183.12C19.0187 1184.75 19.2471 1186.57 18.9131 1188.33L8.43099 1187.2L9.23749 1178.34L18.2602 1183.12ZM18.5586 1189.53C16.1202 1191.74 10.6932 1190.13 9.23048 1188.33C12.3938 1188.59 15.4915 1189.01 18.573 1189.39L18.5586 1189.53ZM19.3891 1190.29L19.7715 1189.86C22.4788 1190.82 25.2145 1191.76 27.9279 1192.7C26.5465 1193.6 21.0362 1191.68 19.4221 1190.08L19.3891 1190.29ZM17.49 1192.38L17.9243 1193.17L17.2604 1195.6C15.643 1195.42 14.0318 1195.22 12.4206 1195.02L12.2904 1192.24C14.0326 1192.13 15.7542 1192.19 17.5493 1192.25L17.49 1192.38ZM18.7029 1192.71C21.3083 1193.42 23.8582 1194.34 26.4328 1195.16L25.3502 1197.62C21.4006 1197.41 18.534 1196.5 18.7112 1192.59L18.7029 1192.71ZM29.1101 1193.14C31.8053 1193.88 34.5086 1194.5 37.2223 1195.17C34.3899 1194.76 31.574 1194.37 28.7417 1193.96L29.1101 1193.14ZM16.4488 1196.54L13.2366 1205.1L7.94869 1203.34L12.1618 1196.76C13.0635 1195.59 14.3456 1196.11 16.4429 1196.29L16.4488 1196.54ZM17.6616 1196.87L24.5749 1198.95L21.7389 1207.11C19.1609 1207.71 16.9667 1206.29 14.067 1205.86L17.6616 1196.87ZM35.8373 1200.06L35.8294 1199.64C37.3981 1197.18 39.9703 1198.36 43.3849 1198.5L42.7149 1200.95C40.4505 1200.4 38.1819 1200.05 35.8763 1199.83L35.8373 1200.06ZM34.2426 1199.62L26.5646 1198.39L27.0011 1196.79L27.2347 1195.94L35.7231 1197.56L34.2426 1199.62ZM39.2702 1195.8L38.49 1195.83L38.4455 1195.29C40.9981 1195.58 43.557 1195.84 46.1096 1196.13C43.85 1196.78 41.4346 1196.61 39.2846 1195.66L39.2702 1195.8ZM40.0208 1194.56L40.1192 1194.2C42.6551 1190.4 46.3874 1191.5 52.0221 1191.64L47.791 1195.46L40.0208 1194.56ZM38.3876 1193.82L29.503 1192.24L30.5051 1188.58C34.013 1189.34 37.5148 1190.13 41.0453 1190.91L38.3876 1193.82ZM43.4214 1189.99L44.9165 1187.52C47.6796 1185.45 52.6318 1185.79 58.0562 1185.73L53.0582 1190.76C49.8583 1190.37 46.6501 1190.1 43.4358 1189.85L43.4214 1189.99ZM42.172 1189.26C41.3907 1190.61 33.8222 1188.01 31.2859 1187.75L33.1417 1184.06C36.1757 1182.76 40.7381 1185.15 44.8142 1185.51L42.172 1189.26ZM47.184 1184.62L52.7218 1174.35L67.0085 1171.28L59.5469 1183.73C57.2718 1185.95 49.1407 1184.53 47.1985 1184.48L47.184 1184.62ZM55.0476 1172.64L53.8487 1172.7L61.2098 1149.51L73.2886 1150.98L68.0819 1170.01L55.0476 1172.64ZM62.3506 1148.25L61.924 1147.87L64.3616 1130.94L65.1564 1130.5L75.306 1133.64L73.6755 1150.1C69.8897 1149.37 66.1243 1148.75 62.365 1148.11L62.3506 1148.25ZM65.4744 1128.9C63.768 1127.9 66.3021 1117.05 66.4091 1114.01L76.9851 1117.54L75.6239 1132.04L74.8516 1132.48L65.4744 1128.9ZM66.741 1112.8L67.8214 1101.53L77.9933 1104.68L77.331 1116.71L66.741 1112.8ZM77.9353 1103.48C74.6767 1102.42 71.4406 1101.36 68.1758 1100.32L68.9243 1090.27L79.5003 1093.79L78.3253 1103.46L77.9353 1103.48ZM69.2623 1089.03L70.7693 1078.14L82.154 1081.62L80.2206 1092.13L79.4483 1092.57L69.2623 1089.03ZM83.3389 1081.17L84.9397 1072.68C86.9996 1073.53 89.0371 1074.38 91.0807 1075.2L91.459 1083.61L91.0465 1083.62C88.57 1082.7 85.9219 1081.88 83.3473 1081.06L83.3389 1081.17ZM101.388 1072.74C99.2395 1077.68 97.2356 1082.71 93.1643 1085.94C95.0137 1081 97.8103 1076.48 101.397 1072.62L101.388 1072.74ZM105.767 1081.35C102.858 1085.76 98.8972 1089.38 94.2414 1091.88L91.4535 1092.01C92.3394 1085.69 98.9108 1082.05 105.866 1081.25L105.767 1081.35ZM97.4279 1091.36L107.761 1080.86L118.265 1082.79L105.988 1094.57C103.399 1093.62 100.811 1092.67 98.2506 1091.7L97.4279 1091.36ZM120.294 1083.49C122.897 1084.83 125.494 1086.19 128.096 1087.53L114.239 1099.79C112.018 1098.29 109.82 1096.8 107.628 1095.28L106.819 1095.33L120.294 1083.49ZM129.744 1088.66L135.388 1098.03C134.301 1101.47 125.521 1107.62 121.854 1108.66L115.886 1100.92L115.055 1100.16L129.744 1088.66ZM136.299 1099.99L140.853 1112.2C140.178 1115.63 133.512 1119.44 130.44 1120.7L129.659 1121.52L123.098 1109.41L136.299 1099.99ZM140.601 1115.41L141.359 1114.58L145.553 1127.22C144.453 1131.24 138.736 1133.78 135.948 1136.47L130.16 1122.33L140.601 1115.41ZM134.359 1136.55C134.001 1137.66 133.406 1138.69 132.615 1139.56C131.823 1140.42 130.854 1141.11 129.773 1141.57L128.256 1143.23L122.712 1127.06L129.371 1123.54L134.359 1136.55ZM134.865 1138.93L143.531 1151.37L138.81 1162.01L138.038 1162.45L128.794 1144.44L134.865 1138.93ZM143.926 1152.93C147.507 1152.46 152.224 1155.78 156.121 1156.79L152.543 1174.99L138.823 1163.99L143.926 1152.93ZM157.267 1157.11C162.98 1156.26 168.685 1155.52 174.386 1154.72L165.378 1178.81L153.221 1175.78L157.267 1157.11ZM175.21 1155.5L185.47 1169.44L176.577 1184.29L175.4 1185.15C172.803 1183.53 170.178 1181.91 167.582 1180.29C164.542 1174.99 174.103 1162.1 175.245 1155.46L175.21 1155.5ZM185.955 1171.02L186.721 1170.6L200.528 1183.58L189.198 1198.52C186.243 1195.46 183.317 1192.39 180.369 1189.31L176.492 1185.84L185.955 1171.02ZM201.402 1185.15L217.429 1202.45C216.236 1206.81 210.549 1213.39 207.24 1216.13L207.261 1216.93L191.267 1200.48L189.612 1198.94L201.402 1185.15ZM206.101 1217.82L201.017 1229.25L200.222 1229.69L187.713 1216.82C180.855 1212.24 186.914 1207.21 188.984 1200.27L206.101 1217.82ZM188.322 1229.86L188.034 1231.88C185.276 1230.4 182.547 1228.91 179.811 1227.43C178.63 1225.93 181.586 1219.01 182.944 1216.87L183.312 1216.05L188.322 1229.86ZM187.253 1232.7L185.284 1242.02C182.806 1240.66 180.356 1239.29 177.878 1237.94C176.643 1235.31 178.079 1232.7 178.288 1229.12C180.984 1229.06 184.105 1231.5 187.194 1232.57L187.253 1232.7ZM184.48 1242.84L181.685 1251.73C178.935 1250.13 176.192 1248.51 173.358 1246.87L172.918 1246.09L176.152 1238.33L184.48 1242.84ZM180.914 1252.6L176.375 1267.25C173.374 1265.78 170.367 1264.33 167.366 1262.85L172.671 1247.79C175.407 1249.26 178.15 1250.88 180.9 1252.48L180.914 1252.6ZM175.638 1268.88L175.004 1272.52L165.419 1272.97L166.615 1264.1L175.638 1268.88ZM179.085 1273.93L178.761 1275.56C177.081 1277.2 169.249 1276.53 165.571 1276.56L164.284 1274.2C169.192 1274 174.143 1273.91 179.071 1273.81L179.085 1273.93ZM180.298 1274.26L184.387 1276.08L182.353 1278.13C180.541 1276.55 180.242 1277.02 180.278 1274.16L180.298 1274.26ZM178.457 1277.55L177.152 1284.44C175.33 1286.06 174.44 1288.52 171.369 1287.92L170.17 1287.98C169.661 1284.22 168.413 1280.6 166.497 1277.32L178.457 1277.55ZM169.322 1287.99L167.379 1289.27L163.816 1281.82L167.391 1280.85L169.322 1287.99ZM162.815 1295.1L162.582 1295.95C160.281 1292.71 158.009 1289.46 155.73 1286.23L162.765 1282.31L166.292 1289.36C165.697 1291.54 164.482 1293.49 162.795 1294.99L162.815 1295.1ZM168.994 1289.54L171.332 1289.82C170.511 1290.44 170.853 1290.78 169.751 1290.31L168.935 1289.94L168.994 1289.54ZM163.694 1296.21L167.044 1290.85L170.303 1291.91L169.431 1299.15L169.04 1299.17L164.135 1296.98L163.694 1296.21ZM155.643 1304.19L148.901 1296.89L145.967 1294.2L154.872 1286.98L161.685 1295.87L161.743 1297.07L155.643 1304.19ZM156.068 1284.99L154.906 1285.45C150.26 1280.31 145.611 1275.18 140.961 1270.06L150.718 1264.4L161.897 1280.72L156.068 1284.99ZM140.239 1271.29L154.111 1285.88L145.229 1293.11L129.781 1278.98L140.239 1271.29ZM144.027 1294.06C143.457 1296.85 141.351 1301.63 138.83 1302.73L129.912 1291.91L129.794 1280.7L144.027 1294.06ZM144.512 1295.64L145.278 1295.22L154.973 1305.58L151.437 1315.77C147.526 1314.09 142.679 1307.45 140.477 1303.86L144.512 1295.64ZM156.961 1305.11L162.49 1297.78L169.044 1300.3L167.376 1307.98C163.895 1307.03 160.36 1306.18 156.844 1305.27L156.961 1305.11ZM170.395 1301.28C171.838 1299.23 173.66 1297.48 175.762 1296.13C174.506 1296.84 173.205 1297.47 171.868 1298.01L170.691 1298.87C171.011 1290.82 177.062 1284.41 182.691 1281.48L183.832 1280.23L186.16 1287.34C185.075 1289.46 183.434 1291.25 181.413 1292.51C183.227 1291.43 184.96 1290.48 186.276 1289.73L186.672 1289.7L189.05 1297.59C187.165 1300.34 172.61 1306.86 168.712 1308.13L170.395 1301.28ZM213.242 1292.12L213.661 1292.09L214.56 1303.27L214.308 1306.48L194.921 1311.78L190.324 1298.76L213.242 1292.12ZM214.882 1292.83L214.868 1292.44C219.486 1293.82 224.076 1295.23 228.694 1296.61L232.182 1302.39C230.121 1304.9 219.945 1305.73 215.901 1305.95L214.882 1292.83ZM229.893 1296.55L241.226 1290.43C243.373 1291.4 245.527 1292.35 247.681 1293.31C245.568 1296.62 236.927 1301.64 233.002 1302.83L229.893 1296.55ZM241.984 1289.6L245.254 1282.24L245.614 1282.33L251.076 1287.69L249.315 1292.98L241.984 1289.6ZM234.986 1267.88L239.411 1259.65L255.265 1276.36L251.294 1285.75C249.488 1284.94 234.693 1269.13 234.878 1267.66L234.986 1267.88ZM267.611 1266.53L280.711 1281.56L273.983 1292.29L260.541 1279.66L256.664 1276.18L267.611 1266.53ZM280.431 1283.99L281.586 1283.12C284.515 1286.07 287.453 1289 290.401 1291.93C289.66 1295.52 285.911 1299.52 283.65 1301.87L278.614 1296.89L274.423 1293.07L280.431 1283.99ZM291.702 1293.88L300.907 1302.68L292.906 1311.45L284.503 1303.43L284.481 1302.63L291.702 1293.88ZM301.762 1303.88L315.122 1316.11L306.738 1325.31C302.422 1320.91 298.081 1316.56 293.718 1312.28L301.762 1303.88ZM315.988 1317.26C319.789 1321.9 323.6 1326.59 327.441 1331.17C326.444 1334.1 324.16 1335.48 322.538 1337.79L321.729 1337.84L308.505 1327.14L307.66 1325.99L315.988 1317.26ZM324.847 1336.59L328.682 1332.81C331.336 1335.37 333.969 1337.93 336.629 1340.47L331.95 1343.1C330.089 1343.99 326.832 1340.8 324.176 1339.83L323.338 1338.66L324.847 1336.59ZM353.248 1335.67C351.949 1335.92 351.925 1335.74 351.242 1334.18L353.248 1335.67ZM350.02 1335.03L344.764 1333.59L345.108 1332.33C346.748 1332.78 348.365 1333.22 350.005 1333.67L350.02 1335.03ZM351.492 1332.56L351.529 1332.95C349.484 1331.56 347.975 1329.51 347.251 1327.15L351.492 1332.56ZM348.685 1331.79L345.08 1331.55C343.934 1330.01 342.775 1328.51 341.67 1326.9L344.834 1326.36L348.685 1331.79ZM346.387 1325.1L346.401 1325.49L345.144 1324.35L346.387 1325.1ZM344.696 1323.16L344.598 1323.52L343.767 1322.76L344.696 1323.16ZM343.005 1321.23L342.9 1321.61L342.07 1320.85L343.005 1321.23ZM343.959 1324.8C343.264 1325.57 341.955 1325.77 340.817 1326.13L336.944 1319.91L339.718 1319.39L343.959 1324.8ZM333.325 1320.08L332.39 1317.41L332.332 1316.21L334.854 1318.9L334.904 1319.69L333.325 1320.08ZM338.461 1318.25L336.474 1318.72L334.372 1316.43L334.364 1316.01L335.513 1315.17C336.57 1316.16 337.57 1317.18 338.541 1318.22L338.461 1318.25ZM334.291 1313.99C333.591 1315.22 334.253 1314.66 332.76 1315.26L333.048 1313.24L334.291 1313.99ZM333.336 1310.42C332.55 1310.21 332.868 1310.9 332.093 1309.67L333.336 1310.42ZM331.342 1310.91L329.869 1313.38L329.053 1313.02L328.576 1311.85L330.122 1310.17L330.355 1309.32L331.342 1310.91ZM331.19 1307.32C330.269 1307.87 327.393 1303.56 326.551 1302.31L331.19 1307.32ZM329.189 1307.4L328.187 1311.06L327.805 1310.96L320.695 1304.47L324.148 1301.12L329.189 1307.4ZM323.53 1297.64L323.567 1298.04L322.31 1296.9L323.53 1297.64ZM322.265 1296.09C321.897 1296.91 318.988 1293.07 318.48 1292.28L322.265 1296.09ZM323.22 1299.66L319.812 1303.82L311.814 1295.38L310.556 1294.24L314.846 1291.62L315.604 1290.79L323.22 1299.66ZM316.835 1289.56L316.73 1289.94L315.479 1288.78L316.835 1289.56ZM315.541 1288.02C315.338 1288.76 311.934 1284.62 311.358 1283.81L315.541 1288.02ZM315.223 1289.62L309.794 1292.97L303.053 1285.67L301.796 1284.53L307.682 1281.45C310.178 1284.21 312.684 1286.93 315.201 1289.62L315.223 1289.62ZM309.182 1280.29C309.035 1280.83 303.068 1273.79 302.419 1272.19L309.182 1280.29ZM306.844 1280.02C305.32 1281.74 303.301 1282.96 301.061 1283.5C298.389 1280.57 295.718 1277.62 293.049 1274.67L292.578 1273.48L299.282 1270.78L306.844 1280.02ZM301.562 1269.85L300.759 1269.88L291.366 1257.09C296.049 1259.65 297.564 1266.2 301.472 1269.83L301.562 1269.85ZM291.69 1255.47L291.727 1255.86C287.499 1253.67 283.522 1247.29 281.112 1243.13C286.267 1244.76 287.88 1252.01 291.6 1255.44L291.69 1255.47ZM282.275 1241.88L282.177 1242.24C277.863 1240.36 275.433 1235.56 273.254 1231.44C278.251 1233.56 278.978 1237.96 282.185 1241.85L282.275 1241.88ZM278.232 1240.77L269.096 1242.4L263.688 1232.78L271.612 1230.82L278.232 1240.77ZM275.158 1230.13C274.465 1230.81 274.086 1230.61 272.82 1229.85C270.552 1228.7 268.254 1224.57 267.264 1222.1C271.87 1223.8 272.067 1227.13 275.158 1230.13ZM270.731 1229.54L262.807 1231.5L258.037 1223.7L265.144 1221.38L270.731 1229.54ZM269.117 1220.8L265.903 1220.55C264.043 1217.81 262.205 1215.09 260.339 1212.38C265.572 1213.55 265.977 1217.72 269.185 1220.82L269.117 1220.8ZM264.27 1219.81C263.143 1221.46 259.543 1222.52 257.207 1222.95L252.092 1215.17L257.56 1212.13L258.751 1211.66C260.633 1214.39 262.471 1217.12 264.337 1219.83L264.27 1219.81ZM262.288 1211.08L259.45 1210.42L252.607 1201.12C257.876 1202.94 259.055 1207.37 262.356 1211.1L262.288 1211.08ZM257.412 1210.11C256.756 1211.13 255.894 1211.99 254.881 1212.66C253.867 1213.32 252.726 1213.76 251.531 1213.96L250.766 1214.81L244.812 1207.46L243.555 1206.32L249.383 1202.04L250.524 1200.79L257.412 1210.11ZM254.556 1199.81L251.342 1199.56L241.854 1185.18C248.759 1187.92 250.041 1194.79 254.624 1199.83L254.556 1199.81ZM249.717 1199.24L243.564 1205.14L242.365 1205.19L231.699 1190.44L239.08 1185.7L239.839 1184.87L249.717 1199.24ZM243.871 1183.9C239.528 1185.13 231.853 1173.83 229.638 1170.54C236.643 1173.35 238.453 1179.62 243.871 1183.9ZM244.109 1180.29L244.213 1182.74L239.546 1176.94L237.868 1175.4L242.644 1174.8L244.109 1180.29ZM241.229 1161.18C243.272 1161.74 242.462 1168.5 242.647 1173.64L236.226 1173.55L234.947 1171.61L239.242 1160.59L241.229 1161.18ZM241.979 1159.94C237.845 1158.37 239.478 1154.25 238.308 1149.71L241.465 1148.76L241.979 1159.94ZM240.275 1131.58L241.406 1147.56L238.632 1148.08L238.242 1148.1L237.856 1130.9L240.275 1131.58ZM237.448 1148.53L232.342 1150.78L233.008 1129.91L236.627 1130.54L237.448 1148.53ZM236.911 1110.09L239.585 1126.78L239.723 1129.98L239.333 1130C235.624 1128.11 235.317 1115.21 234.813 1110.17L236.911 1110.09ZM236.577 1128.95L233.781 1128.67C230.978 1125.95 230.926 1113.26 230.836 1108.38L233.682 1109.45L236.577 1128.95ZM236.421 1107.73L236.089 1108.95C233.611 1107.33 233.413 1102.23 232.438 1099.09L232.536 1098.73L233.721 1098.28L236.421 1107.73ZM233.094 1096.25C232.841 1096.77 232.445 1097.2 231.953 1097.51L226.215 1085.75L226.178 1085.35L228.114 1083.66L233.094 1096.25ZM227.639 1080.9L227.697 1082.09L227.733 1082.49L225.797 1084.18L218.131 1059.27L218.073 1058.07C221.729 1059.53 224.987 1076.65 227.549 1080.87L227.639 1080.9ZM216.97 1058.13L224.562 1083.84C223.928 1084.93 222.383 1083.51 220.531 1083.22L214.558 1057.85L216.97 1058.13ZM213.359 1057.91L219.288 1082.47L216.912 1083.39L210.931 1057.61L213.359 1057.91ZM209.342 1057.68C212.927 1061.08 213.148 1076.86 215.661 1082.23L214.875 1082.28C209.781 1079.9 208.847 1063.2 206.93 1057.41L209.342 1057.68ZM211.558 1080.02L211.46 1080.38L207.481 1080.98L205.044 1081.06L199.614 1058.47L199.712 1058.11C201.83 1057.87 203.942 1057.65 206.077 1057.44L211.558 1080.02ZM187.877 1060.69L183.449 1033.65L192.326 1029.97L198.321 1056.14C197.351 1058.63 190.82 1060.17 187.765 1060.66L187.877 1060.69ZM208.874 1028.87L216.539 1056.18L214.155 1056.68L207.087 1028.96L208.874 1028.87ZM206.05 1028.6L212.867 1055.12L212.919 1056.34L210.94 1056.43L204.048 1028.68L206.05 1028.6ZM210.383 1026.8L210.441 1028C207.058 1024.66 204.022 1003.64 202.633 997.512L210.383 1026.8ZM201.314 997.127L208.255 1026.46L208.313 1027.65C204.441 1025.48 202.065 1004.53 200.162 998.864L200.096 997.252L201.314 997.127ZM198.969 996.872L205.579 1027.41L203.564 1027.1L196.99 996.958L198.969 996.872ZM195.755 996.62L202.315 1025.58L202.387 1027.17L199.577 1027.29L192.99 996.756L195.755 996.62ZM198.283 1025.75L198.356 1027.34C196.642 1027.7 194.928 1028.05 193.249 1028.36L187.119 997.83C188.708 997.492 190.297 997.154 191.911 996.727L198.283 1025.75ZM202.92 995.49C202.013 995.628 200.458 987.814 200.41 984.372L202.92 995.49ZM195.332 962.966L201.235 995.56L201.249 995.95L199.655 995.514L194.294 965.7L194.164 962.912L195.332 962.966ZM192.994 962.688L198.546 995.331L196.544 995.411L190.664 962.823L192.994 962.688ZM189.375 962.857L195.278 995.451L192.468 995.575L186.91 962.955L189.375 962.857ZM185.77 962.619L191.224 995.621L186.869 996.627L186.479 996.641L180.517 962.847L185.77 962.619ZM185.663 995.476L185.721 996.675L177.791 998.657L173.361 962.797L178.247 962.588L179.841 963.025L185.663 995.476ZM189.864 929.574L194.777 958.202L194.951 961.799C192.482 959.796 189.645 935.14 189.468 929.61L189.864 929.574ZM188.225 928.86L192.542 961.43L190.563 961.516L184.263 928.958L188.225 928.86ZM186.56 961.41L185.232 941.031L189.452 960.898L186.56 961.41ZM182.282 929.141L183.091 929.096L185.757 961.432L180.572 961.679L174.17 927.114C176.844 927.749 179.462 928.417 182.176 929.087L182.282 929.141ZM189.863 924.286L190.031 927.905L189.619 927.913C187.089 924.806 186.425 905.622 186.39 900.808L189.863 924.286ZM186.144 895.621L185.639 902.051L185.249 902.065C182.448 894.658 181.945 885.732 181.602 874.99L186.144 895.621ZM180.888 894.183C178.734 893.231 176.587 892.257 174.433 891.306C173.557 890.8 173.743 868.686 174.05 865.269L180.957 867.376L180.888 894.183ZM178.005 837.497L180.511 865.83L180.093 865.86L174.415 864.113L173.209 837.73L178.005 837.497ZM172.01 837.789L172.73 863.387C169.097 863.165 165.605 862.958 161.888 862.689L161.962 838.25L172.01 837.789ZM161.196 837.871L160.718 862.731C157.637 862.347 154.561 861.94 151.39 861.53L151.926 837.87L161.196 837.871ZM174.543 805.596L177.947 836.298L173.061 836.507L170.071 805.796L174.543 805.596ZM168.945 805.851L171.828 833.779L171.958 836.567C168.752 836.462 165.529 836.329 162.39 836.242L159.818 806.298L168.945 805.851ZM161.124 836.282L151.921 836.299L150.247 807.132C153.176 806.75 156.095 806.318 159.001 805.93L161.124 836.282ZM142.978 807.05L139.135 775.575L142.729 766.587L143.119 766.573L148.922 805.973L142.978 807.05ZM143.856 764.94C146.887 764.272 149.925 763.582 152.979 762.921L158.434 804.737C155.638 804.986 152.865 805.241 150.062 805.512L143.856 764.94ZM167.764 761.824L174.087 803.998L169.696 804.607L163.769 762.397L163.755 762.007L167.764 761.824ZM162.885 762.01L168.422 804.234L160.044 805.032L153.69 762.44L162.885 762.01ZM143.346 763.714L132.377 716.55L145.739 711.128L152.469 761.695L143.346 763.714ZM155.728 710.264L162.869 760.919L153.674 761.349L146.968 711.223C149.913 710.87 152.84 710.584 155.783 710.327L155.728 710.264ZM160.091 709.671L167.638 760.607L163.629 760.789L156.927 710.206L157.7 709.765L160.091 709.671ZM132.319 715.351L126.061 648.325L139.212 645.791L145.575 706.785L145.713 709.986L132.319 715.351ZM150.749 645.182C153.592 647.939 152.499 656.43 153.469 661.089L160.034 707.676L159.936 708.035L156.353 708.6L149.034 644.833L150.749 645.182ZM155.634 708.669L146.872 709.458L140.513 649.769L140.331 645.759C142.98 645.518 145.635 645.255 148.313 644.998L155.634 708.669ZM151.449 643.152L151.486 643.548L149.043 643.652L142.545 571.418L151.449 643.152ZM138.9 552.36C142.593 555.978 140.236 568.299 141.499 574.27L148.273 643.731L140.277 644.103L133.276 552.269L133.38 551.887C135.212 552.075 137.162 552.271 138.955 552.423L138.9 552.36ZM139.105 644.506L125.973 646.707L120.893 552.792C124.747 552.471 128.617 552.178 132.472 551.856L139.105 644.506ZM130.845 460.673L139.782 550.814L133.757 550.687L128.043 460.413L130.845 460.673ZM132.544 550.355L120.98 551.681L118.868 461.21C121.517 460.969 124.173 460.706 126.85 460.449L132.544 550.355ZM126.682 458.857L118.714 460.009L114.896 384.862L119.671 384.261L126.682 458.857ZM119.193 382.657L114.801 383.267L108.984 317.013L110.971 316.543L119.193 382.657ZM108.167 316.645L113.645 383.699C110.843 383.97 108.047 384.219 105.267 384.496L101.362 316.545L108.167 316.645ZM104.038 384.136C100.956 383.751 97.8521 383.361 94.7094 382.935L90.9121 316.269L100.151 316.648L104.038 384.136ZM110.912 314.909L108.918 315.402L103.873 275.171L110.912 314.909ZM99.4633 250.881L107.809 315.484C105.668 315.454 103.534 315.401 101.394 315.371L95.2601 251.156L99.4633 250.881ZM99.993 315.374L90.754 314.994L85.421 250.322L93.8512 250.746L99.993 315.374ZM85.3427 185.857C86.298 186.336 87.2533 186.814 88.2025 187.316L98.9523 246.927L99.0764 249.737L95.0593 249.507L84.975 185.877L85.3427 185.857ZM87.6963 184.932L85.358 184.654C83.0315 180.54 83.1309 174.531 81.8368 169.203L74.1345 131.891C81.008 137.298 82.551 174.445 87.7227 185.011L87.6963 184.932ZM65.3373 90.1993L75.5538 129.793L75.6258 131.382C71.3892 127.808 65.9244 98.1107 64.9248 90.2072L65.3373 90.1993ZM62.4004 76.671L64.6619 84.9923L64.7503 86.61L64.3685 86.5056L62.4004 76.671ZM72.2285 127.917L64.0667 124.307L55.595 79.3962C69.2172 88.4603 64.8069 112.075 72.2285 127.917ZM62.7213 121.548L62.8235 123.556L51.0488 120.093L42.5011 71.2253C46.3265 73.3024 50.1627 75.3985 54.0099 77.5137L62.7213 121.548ZM51.9319 58.3773L53.7773 72.7176L53.9518 76.3147C50.3696 74.0547 46.8037 71.8233 43.2153 69.5857C40.7628 67.0795 39.5361 34.7753 39.3477 28.4943C49.7411 37.4473 48.5098 41.7704 51.9319 58.3773ZM25.1868 16.7234C29.495 20.1238 33.7747 23.5405 38.0829 26.9409L40.8874 62.4777L41.186 68.8855L26.513 63.1316L24.717 16.7639L25.1868 16.7234ZM23.5397 15.5966L25.6965 62.7632C20.1494 61.5671 14.6157 60.3506 9.09584 59.1136L8.28698 59.1579L7.12535 7.12061L23.5397 15.5966ZM4.66939 6.03803C6.69406 7.46134 6.86838 15.646 6.47916 19.1855L7.11269 59.1262L-11.315 59.1538L-11.5939 1.94954L4.66939 6.03803ZM-30.8561 61.7499L-32.341 3.3947C-26.0965 2.86613 -19.8458 2.3151 -13.589 1.74159C-10.7045 5.40426 -13.159 13.9319 -12.7714 18.8671L-12.2507 57.28L-12.561 59.2957C-17.0752 60.0885 -27.678 63.6337 -30.8561 61.7499ZM-12.4803 60.5009L-6.45234 115.488C-12.4248 116.316 -18.3925 117.097 -24.3554 117.832L-30.4228 63.6069L-12.4803 60.5009ZM-31.9387 64.2062L-25.4889 118.005L-43.374 120.812L-49.7361 69.4285C-43.7996 67.6727 -37.8671 65.932 -31.9387 64.2062ZM-51.7073 69.9273L-44.645 119.281L-44.565 121.283L-60.3764 125.6L-69.4186 77.1289C-63.502 74.7399 -57.6015 72.3224 -51.7073 69.9273ZM-70.5733 77.996L-70.1772 77.9595L-61.1853 125.645L-75.0176 129.875L-87.4317 85.9622C-81.8089 83.3238 -76.2023 80.6568 -70.5733 77.996ZM-147.921 34.2288L-127.277 30.0751L-107.752 88.0552L-107.731 88.858L-107.349 88.9625L-125.657 29.625L-104.713 24.6362L-88.7483 85.2156L-105.818 89.4539C-100.003 89.1648 -94.2489 88.1436 -88.6901 86.4146L-88.2714 86.3843L-76.2838 129.915C-79.0617 132.656 -86.9595 134.962 -91.2429 135.793L-105.122 94.7632L-105.518 94.7996L-92.4116 136.27L-116.357 137.758L-126.944 90.1675C-120.38 89.9116 -113.957 89.9067 -107.758 89.5749C-114.332 89.2487 -120.877 88.9062 -127.428 88.5862L-147.921 34.2288ZM-147.071 79.4681C-140.908 82.7645 -134.737 86.063 -128.559 89.3635L-117.698 134.542L-117.609 136.16L-118.022 136.167L-151.111 95.2885L-147.071 79.4681ZM-179.874 44.5109L-152.31 95.3467L-161.974 104.195C-165.158 108.153 -167.744 97.932 -169.648 94.1271L-189.811 54.9748L-179.874 44.5109ZM-190.921 56.6508L-190.149 56.2103L-164.625 106.295C-166.098 109.827 -171.374 114.372 -174.621 116.356L-195.983 68.8836L-190.921 56.6508ZM-196.293 70.8994L-195.881 70.8915L-175.391 116.435C-176.233 119.513 -180.462 123.233 -183.016 124.803L-198.08 84.2215L-196.293 70.8994ZM-197.928 87.8125L-197.516 87.8046L-183.819 125.356L-187.573 131.573C-190.782 116.835 -197.441 104.558 -197.928 87.8125ZM-192.519 117.977L-192.16 118.076L-188.328 131.511L-188.58 134.726C-191.041 131.807 -192.166 122.42 -192.519 117.977ZM-174.53 187.658C-178.253 178.502 -188.847 142.934 -187.769 134.585L-170.319 183.474C-170.565 184.075 -170.934 184.618 -171.403 185.068C-171.871 185.518 -172.428 185.865 -173.038 186.087L-174.165 187.734L-174.53 187.658ZM-174.472 188.857L-170.681 186.297L-169.923 185.466L-147.569 242.989C-148.733 245.568 -152.44 247.91 -154.878 249.319L-174.472 188.857ZM-154.41 250.872L-147.081 244.91L-125.929 304.445C-126.488 309.749 -131.187 311.747 -133.027 316L-154.41 250.872ZM-132.955 317.59L-125.798 307.669C-119.57 311.908 -110.315 353.339 -103.636 363.159L-110.439 371.873C-114.419 374.333 -115.529 364.009 -117.426 359.385L-132.955 317.59ZM-113.949 374.027L-114.904 370.458L-113.589 372.798L-113.553 373.991L-113.949 374.027ZM-104.383 365.538L-103.212 364.7L-80.8405 424.98C-82.4757 428.661 -87.1767 430.49 -89.6587 433.384L-111.951 375.105L-104.383 365.538ZM-112.687 376.739L-105.003 396.033L-104.945 397.232L-112.687 376.739ZM-100.244 410.664L-103.468 401.186L-99.8771 409.412L-99.8189 410.611L-100.244 410.664ZM-95.6678 422.878L-97.5476 416.955L-95.3359 421.665L-95.2778 422.864L-95.6678 422.878ZM-91.1145 435.086L-91.6208 432.702L-91.2083 432.694L-90.76 433.879L-90.7018 435.078L-91.1145 435.086ZM-89.5332 434.601C-86.3029 432.266 -83.0745 429.85 -79.8481 427.352L-54.8577 500.736C-55.7753 503.648 -60.1479 505.952 -62.5552 507.515L-89.5332 434.601ZM-54.3005 530.37C-59.2416 517.814 -65.4273 510.423 -54.3514 503.12L-25.9481 589.969L-31.731 593.457L-54.3005 530.37ZM-4.40024 675.932L-30.9601 594.609L-25.4859 591.544L-2.1225 673.078L-2.06441 674.277L-3.99996 675.969L-4.40024 675.932ZM-3.95197 677.117L-1.99469 676.228L13.2902 730.029L12.8599 731.602L-3.95197 677.117ZM-0.395004 675.676L-0.0266441 674.859L5.07296 672.633L18.0949 730.91L14.9605 732.66L-0.395004 675.676ZM28.4251 780.144L15.476 733.863L18.2507 732.546L28.7214 777.738L28.8254 780.181L28.4251 780.144ZM28.4608 781.337L29.2635 781.315L32.6081 795.559L32.6942 797.538L28.4608 781.337ZM30.0218 780.484L33.6013 779.05L33.9914 779.035L41.5579 821.96L41.6161 823.159L40.4451 823.998L30.0218 780.484ZM40.4849 825.264L41.6698 824.816L45.0171 845.048L45.1629 848.661L40.4849 825.264ZM47.8469 854.998L47.8972 855.784L42.8548 824.367L47.9102 821.332L50.5666 844.442C50.8925 849.867 50.3182 852.583 47.7937 855.104L47.8469 854.998ZM52.05 850.401L61.0123 845.176L60.5545 861.228C58.6203 864.026 55.9441 866.228 52.8268 867.588L52.0685 868.419L52.05 850.401ZM60.2583 863.634C58.0921 874.196 54.9894 879.094 47.6015 884.653C50.821 874.742 51.635 868.856 60.2051 863.74L60.2583 863.634ZM48.8423 876.59L46.0482 885.919C46.2199 882.671 47.1592 879.511 48.7891 876.697L48.8423 876.59ZM55.7696 879.066C51.5841 888.979 48.4735 893.729 40.2885 899.82C43.1355 891.487 48.5333 884.263 55.7164 879.172L55.7696 879.066ZM49.2206 894.175C45.9516 906.826 41.1775 914.743 30.4031 920.68C35.3601 909.095 39.4128 901.608 49.1898 894.288L49.2206 894.175ZM29.3291 922.752L41.4119 915.387L35.6901 939.294L23.5414 945.048L29.3291 922.752ZM35.366 940.92L31.782 967.513L18.3391 972.527L22.7458 946.279L35.366 940.92ZM19.0821 961.696C18.6761 968.031 17.2239 974.926 14.3057 979.149L19.0821 961.696ZM16.9548 976.615L14.866 1000.74L10.4768 1010.17C7.70767 1003.08 13.8935 980.92 16.8791 976.715L16.9548 976.615ZM14.614 1003.96L15.7614 1029.14L12.4988 1036.92C7.23322 1026.25 10.0417 1010.17 14.5383 1004.06L14.614 1003.96ZM15.8855 1031.95C15.2226 1039.93 16.0625 1050.71 15.0252 1057.24C10.5328 1051.95 13.2235 1035.06 15.7852 1032.14L15.8855 1031.95ZM16.1658 1055.98L17.9678 1068.72L17.6297 1069.95L16.4448 1070.4C15.466 1065.69 15.3762 1060.85 16.18 1056.11L16.1658 1055.98ZM18.6587 1083.92L17.4234 1083.59L16.5107 1072.01L18.0416 1070.74L18.8023 1078.72L19.0488 1083.91L18.6587 1083.92ZM20.2538 1083.83L19.2474 1069.86L25.936 1067.57L26.3322 1067.53L26.927 1071.53L27.4355 1082.73L23.0641 1083.71L20.2538 1083.83ZM28.1457 1099.1L21.8628 1102.21L21.4726 1102.22L20.2956 1085L27.4689 1084.28L28.1457 1099.1ZM17.4792 1085.15L19.0905 1085.08L19.7567 1091.47L20.2932 1103.45L17.4792 1085.15ZM21.5145 1103.39L28.1567 1100.38C27.2206 1107.95 28.172 1115.24 22.173 1118.28L21.4083 1119.13L21.5145 1103.39ZM20.4827 1133.1L21.1226 1121.06L26.5247 1116.4L25.5382 1130.07L20.8728 1133.09L20.4827 1133.1ZM19.2861 1141.97L20.1361 1134.72L24.0654 1132.54L24.8239 1131.7L25.214 1131.69L23.6629 1141.77L19.2861 1141.97ZM24.4717 1141.73L26.3989 1131.24L37.4713 1127.92L34.6055 1144.04C31.2363 1143.38 27.8671 1142.73 24.4918 1142.09L24.4717 1141.73ZM19.3519 1143.58L23.3309 1142.98L19.8163 1153.97L19.4263 1153.99C18.1601 1151.73 16.4223 1151.38 15.5753 1148.56C16.843 1146.93 17.29 1144.85 19.2987 1143.69L19.3519 1143.58ZM14.7223 1147.8C14.1278 1149.65 12.9336 1151.25 11.328 1152.35C12.0149 1150.59 13.1704 1149.05 14.6692 1147.9L14.7223 1147.8ZM13.3077 1151.47L14.8386 1150.2C16.2566 1151.72 17.6461 1153.26 19.0579 1154.8L13.1378 1165.5C11.1403 1165.65 9.70924 1160.38 8.35391 1157.31L13.3077 1151.47ZM7.6675 1159.73L8.03598 1158.91L11.6287 1167.57L9.18881 1175.69L8.82953 1175.59C3.70353 1170.86 3.04028 1165.87 7.61442 1159.83L7.6675 1159.73ZM2.95416 1170.78L3.74893 1170.34L8.47458 1177.33L7.67409 1186.17L0.572545 1180.1L2.95416 1170.78ZM0.254494 1181.7L7.31368 1187.4L1.45163 1199.29C-2.46551 1194.81 -0.113268 1188.6 0.201267 1181.8L0.254494 1181.7ZM2.27434 1199.64L7.7737 1189.07L10.2374 1190.56L3.07417 1200.51L2.27434 1199.64ZM8.50082 1195.76L11.1948 1193.24L11.6492 1194.4L7.20244 1201.83L7.2466 1202.64L5.14281 1200.71L8.50082 1195.76ZM1.96247 1201.22C3.17268 1202.18 3.00842 1203.22 3.7259 1204.74L3.53189 1209.16L1.96247 1201.22ZM5.61334 1211.08L4.80845 1202.29L6.8899 1204.21L7.20241 1211L5.61334 1211.08ZM8.40125 1210.95L8.11126 1204.15L12.1702 1205.56C12.4043 1206.3 12.4728 1207.08 12.3708 1207.85C12.2687 1208.62 11.9987 1209.35 11.5799 1210.01L11.6078 1210.79L8.40125 1210.95ZM13.8537 1207.08L13.8032 1206.29L20.7166 1208.38L18.1466 1213.71L17.3804 1214.13L12.8369 1211.15L13.8537 1207.08ZM7.29282 1212.53L6.51262 1212.55L6.47623 1212.16C9.75535 1213.06 11.454 1215.94 13.9541 1217.83C12.193 1218.53 8.42054 1214.4 7.11907 1212.72L7.29282 1212.53ZM15.2189 1219.38L14.7847 1218.59L19.332 1219.61L15.2189 1219.38ZM16.3822 1218.13L15.9478 1217.33L17.4864 1216.48C19.6322 1214.99 25.3549 1217.28 28.3727 1217.98L27.6724 1220.01L27.7166 1220.82C23.8512 1220.12 20.0635 1219.23 16.2982 1218.35L16.3822 1218.13ZM28.9077 1220.35L29.1955 1218.33L37.6815 1215.72C36.35 1217.94 31.7388 1219.8 28.8237 1220.57L28.9077 1220.35ZM40.2616 1215.03L39.9023 1214.93L37.7915 1213.82L40.4057 1209.3L44.3558 1208.98L40.2616 1215.03ZM32.2674 1208.95L35.1034 1200.8C37.4293 1201.12 39.7613 1201.42 41.9586 1201.68L39.829 1207.79C37.4227 1208.79 34.8321 1209.26 32.2284 1209.19L32.2674 1208.95ZM40.6457 1208.16L42.7613 1201.66L46.3797 1202.29L45.4273 1207.53L40.6457 1208.16ZM48.3733 1201.8C48.3201 1203.58 47.698 1205.29 46.5982 1206.7L48.3733 1201.8ZM48.5588 1206.68L51.0428 1199.36L53.0141 1198.87L48.5588 1206.68ZM48.2326 1199.49C47.1462 1201.61 46.2418 1201.12 43.4951 1200.92L43.4648 1200.5L44.2015 1198.87C45.594 1199.25 46.9623 1199.45 48.2855 1199.65L48.2326 1199.49ZM46.9173 1197.15L47.0218 1196.77C48.7656 1197.1 50.5157 1197.41 52.282 1197.75C50.5658 1198.46 48.9797 1197.64 46.9703 1197.31L46.9173 1197.15ZM54.1409 1197.22C52.5238 1196.78 50.8842 1196.33 49.2671 1195.88L49.2308 1195.49C52.3201 1191.7 56.2354 1191.42 61.7982 1189.7L54.1409 1197.22ZM55.4035 1189.96C58.2726 1185.91 63.0046 1183.71 68.6776 1182.12C65.8121 1186.77 62.5359 1189.3 55.4566 1190.12L55.4035 1189.96ZM61.1298 1183.68L68.1689 1170.92L77.6679 1168.5C74.8295 1177.02 69.6901 1180.27 61.1827 1183.84L61.1298 1183.68ZM78.3744 1166.45C76.8837 1168.46 72.5521 1168.14 70.0983 1169.25L69.6858 1169.26L74.0807 1151.44L80.6039 1153.54L78.3744 1166.45ZM81.4883 1137.87L80.9359 1152.32C78.9065 1151.62 76.8608 1150.9 74.8314 1150.2L76.0978 1134.1C77.953 1135.52 79.7328 1136.78 81.5411 1138.03L81.4883 1137.87ZM81.8202 1136.65L78.1134 1134.41C75.476 1130.81 77.402 1123.95 77.6726 1118.38L83.0768 1122.54L81.8202 1136.65ZM83.4731 1120.21L83.5009 1120.99L78.127 1117.25L79.2213 1106.37L79.1996 1105.56C81.2243 1106.99 83.053 1108.33 84.9939 1109.71L83.4731 1120.21ZM85.3259 1108.49C83.5462 1107.23 81.7378 1105.99 79.958 1104.73C78.9511 1102.5 80.1657 1098.68 80.3057 1095.17C82.7238 1095.15 84.6085 1097.8 87.285 1098.87L85.3259 1108.49ZM87.6415 1097.56L81.0244 1093.07L82.9136 1081.76L91.4742 1084.97L87.6415 1097.56ZM91.4764 1093.78L90.6598 1093.41C96.2301 1092.38 98.5449 1093.71 103.493 1094.51C101.67 1095.62 99.5552 1096.16 97.4228 1096.06C95.2904 1095.95 93.239 1095.21 91.5355 1093.92L91.4764 1093.78ZM99.2644 1097.44L98.4557 1097.48L104.331 1095.68C108.378 1096.07 109.647 1098.49 112.891 1099.69L107.44 1101.97C104.356 1101.34 101.532 1099.8 99.3297 1097.55L99.2644 1097.44ZM107.522 1103.08L113.827 1100.77C116.218 1103.32 118.605 1105.89 120.989 1108.48C119.97 1110.35 117.202 1111.11 115.206 1111.96L107.522 1103.08ZM122.273 1110.4L128.38 1121.34C127.372 1123.26 124.536 1124.27 122.493 1125.21L115.915 1113.08L122.273 1110.4ZM119.374 1125.76L114.828 1113.96L120.949 1125.29L120.985 1125.69L119.374 1125.76ZM124.66 1145.17L120.307 1128.52L120.235 1126.93C124.134 1128.39 124.962 1138.95 126.964 1142.66C126.478 1144.43 126.515 1144.3 125.056 1145.13L124.66 1145.17ZM125.541 1146.71L127.885 1144.94L137.129 1162.95L134.949 1168.26L125.541 1146.71ZM135.819 1170.29C135.764 1168.2 136.808 1167.2 137.58 1165L138.375 1164.57C142.963 1168.36 147.522 1172.16 152.154 1175.97L150.589 1185.66L135.819 1170.29ZM152.94 1176.71C156.868 1177.62 160.781 1178.5 164.687 1179.4L162.211 1192.94L152.328 1186.98C150.969 1185.33 152.745 1179.9 153.005 1176.83L152.94 1176.71ZM164.279 1197.03C161.904 1196.89 153.284 1191.25 151.845 1188.39C156.541 1190.48 160.792 1193.46 164.366 1197.15L164.279 1197.03ZM163.295 1193.48L165.907 1180.14L174.988 1186.13L171.986 1199.48L163.295 1193.48ZM172.839 1200.24L175.855 1187.28L188.398 1199.14L183.003 1212.15L182.607 1212.19L172.839 1200.24ZM175.445 1222.57L179.718 1210.75L182.24 1213.44L177.981 1225.65L175.445 1222.57ZM174.745 1224.6L175.517 1224.16L177.688 1227.16L176.087 1235.66L173.961 1232.93C172.785 1231.23 174.434 1227.67 174.833 1224.72L174.745 1224.6ZM172.371 1234.33L172.74 1233.51L175.312 1236.99L172.063 1245.16L169.079 1240.89L172.371 1234.33ZM167.974 1243.34L168.769 1242.91L171.319 1246.38L166.397 1261.45C165.559 1260.28 164.625 1259.11 163.831 1257.95C162.377 1255.76 167.201 1247.14 168.062 1243.46L167.974 1243.34ZM162.691 1259.21C163.69 1260.23 164.549 1261.24 165.639 1262.28L164.124 1272.76L163.705 1272.79L161.596 1270.09L162.691 1259.21ZM166.402 1279.08L162.845 1280.52L151.652 1263.82C159.323 1263.57 162.819 1274.79 166.489 1279.2L166.402 1279.08ZM149.653 1263L140.412 1269.07L126.965 1256.46L133.58 1252.13C136.544 1250.65 146.191 1261.19 149.741 1263.12L149.653 1263ZM126.067 1255.68L118.626 1250.41L119.628 1246.75C122.96 1245.24 129.173 1249.36 133.073 1250.55L126.067 1255.68ZM135.061 1249.28C131.903 1250.06 127.217 1246.63 123.682 1245.78L123.781 1245.42C127.49 1246.77 131.286 1248.08 135.081 1249.38L135.061 1249.28ZM119.179 1245.56C117.343 1249.89 115.025 1249.98 111.496 1252.73L111.106 1252.74L109.27 1247.63L119.179 1245.56ZM108.099 1248.47L109.907 1252.8C109.167 1254.42 107.955 1255.77 106.431 1256.68L103.469 1253.21L108.099 1248.47ZM103.688 1257.09L102.821 1255.93L103.189 1255.12L105.277 1257.02C104.755 1258.39 105.281 1257.35 103.798 1257.21L103.688 1257.09ZM107.329 1257.72L110.383 1254.77L116.338 1262.12C115.233 1263.43 113.728 1264.34 112.055 1264.71C110.578 1262.52 108.997 1260.18 107.439 1257.85L107.329 1257.72ZM102.685 1261.55L102.79 1261.16L104.805 1261.47L104.864 1262.67C103.124 1262.41 103.722 1262.7 102.795 1261.67L102.685 1261.55ZM110.111 1265.99L110.133 1266.8L105.95 1262.58L110.111 1265.99ZM104.145 1263.97C106.706 1264.67 107.284 1266.35 109.123 1267.75L107.6 1269.43C106.397 1267.66 105.257 1265.82 104.145 1263.97ZM110.092 1271.71L108.431 1270.19L109.961 1268.92L114.679 1275.5L114.297 1275.93L114.341 1276.74L110.092 1271.71ZM116.215 1275.8L116.611 1275.76L117.046 1276.56C116.927 1276.55 116.761 1276.89 116.264 1275.89L116.215 1275.8ZM115.074 1277.06L117.176 1279.35C116.412 1279.4 115.608 1278.99 115.033 1277.12L115.074 1277.06ZM119.96 1276.85C122.812 1277.63 125.664 1278.41 128.494 1279.18L128.591 1289.59C124.174 1286.77 122.144 1282.28 119.919 1276.91L119.96 1276.85ZM128.784 1294.89L124.477 1287.86C126.467 1289.23 128.064 1291.09 129.108 1293.26L129.203 1294.86L128.784 1294.89ZM129.917 1293.22L130.33 1293.21C133.129 1296.57 135.949 1299.91 138.79 1303.23L140.251 1309.18L140.309 1310.38C135.265 1305.81 131.656 1299.87 129.921 1293.29L129.917 1293.22ZM150.353 1319.55C144.839 1315.26 143.035 1314.09 140.526 1305.97C145.653 1309.64 148.901 1315.51 152.427 1321.06L150.353 1319.55ZM170.875 1321.4L172.278 1326.15L154.102 1322.97L152.303 1318.25L152.266 1317.85C158.419 1319.1 164.641 1320.27 170.834 1321.46L170.875 1321.4ZM152.627 1316.62L155.767 1306.47L167.528 1309.55L170.362 1319.04L170.42 1320.24C164.429 1319.1 158.508 1317.89 152.496 1316.66L152.627 1316.62ZM171.589 1319.76L168.69 1309.09L189.072 1298.93L193.229 1311.17L193.265 1311.57L171.589 1319.76ZM200.477 1320.06L200.575 1319.7L210.912 1317.22L212.918 1318.71C211.048 1320.51 203.7 1320.19 200.414 1320.11L200.477 1320.06ZM215.575 1318.61L214.811 1319.47L212.266 1316.77L220.19 1314.81L215.575 1318.61ZM199.163 1318.95L197.574 1319.02L194.878 1312.73L194.864 1312.34C201.324 1310.55 207.787 1308.79 214.25 1307.05L218.939 1313.64L199.163 1318.95ZM219.734 1313.21L216.247 1307.42L232.487 1303.93L237.84 1307.3L219.734 1313.21ZM239.062 1306.71L235.356 1304.47L234.511 1303.32L249.19 1293.79L253.405 1296.03L239.062 1306.71ZM255.042 1294.81C253.537 1294.4 252.01 1293.98 250.593 1293.43L250.181 1292.64L251.568 1288.19L256.149 1292L255.042 1294.81ZM252.265 1287.32L256.228 1277.51L272.969 1293.18L271.014 1302.88L252.265 1287.32ZM271.829 1304.04L273.835 1295.13L274.194 1295.23L282.981 1303.26L280.093 1310.19C277.349 1309.63 274.454 1305.92 271.829 1304.04ZM283.466 1304.31C286.254 1307 289.045 1309.68 291.841 1312.35L286.923 1318.58C280.496 1313.92 281.275 1311.17 283.421 1304.29L283.466 1304.31ZM287.798 1320.15L287.768 1319.73L291.943 1314.35L293.098 1313.49L306.081 1326.12L301.663 1334.33L300.89 1334.77L287.798 1320.15ZM302.917 1336.36L301.981 1335.02L306.067 1328.02L307.222 1327.15L321.383 1338.93L319.298 1345.84L318.525 1346.28C313.374 1342.96 308.132 1339.62 302.896 1336.26L302.917 1336.36ZM321.037 1347.16C319.91 1345.72 321.823 1342.79 322.342 1340.27L322.738 1340.24C327.08 1341.99 330.645 1345.24 332.782 1349.41C331.765 1350.92 323.364 1348.45 321.016 1347.06L321.037 1347.16ZM332.167 1345.04L337.215 1341.59C339.147 1343.35 341.092 1345.07 343 1346.92L333.971 1350.53L332.167 1345.04ZM336.072 1351.59C337.493 1350.42 339.144 1349.56 340.917 1349.06C342.691 1348.56 344.549 1348.44 346.372 1348.71C345.016 1350.49 340.694 1351.82 338.146 1352.3L336.903 1351.55L336.072 1351.59Z" fill="url(#paint0_linear_84_1266)"/>
<defs>
<linearGradient id="paint0_linear_84_1266" x1="654.315" y1="243.246" x2="176.508" y2="1376.76" gradientUnits="userSpaceOnUse">
<stop stop-color="#47DEB1"/>
<stop offset="1" stop-color="#FA8CFA"/>
</linearGradient>
</defs>
</svg>
